<?xml version="1.0" encoding="utf-8"?>
<!-- Generator: Adobe Illustrator 27.6.0, SVG Export Plug-In . SVG Version: 6.00 Build 0)  -->
<svg version="1.1"
	 id="svg2" xmlns:svg="http://www.w3.org/2000/svg" xmlns:rdf="http://www.w3.org/1999/02/22-rdf-syntax-ns#" xmlns:dc="http://purl.org/dc/elements/1.1/" xmlns:cc="http://creativecommons.org/ns#" xmlns:inkscape="http://www.inkscape.org/namespaces/inkscape" xmlns:sodipodi="http://sodipodi.sourceforge.net/DTD/sodipodi-0.dtd" inkscape:export-filename="/Users/tg/Documents/workspace/idea/socrates/softwerkskammer-logos/SoCraTes/2024/SoCraTesWappen_2024_text_weiss.png" inkscape:export-xdpi="93.68" inkscape:export-ydpi="93.68" inkscape:version="1.0beta2 (2b71d25, 2019-12-03)" sodipodi:docname="SoCraTesWappen_2024_text_weiss.svg"
	 xmlns="http://www.w3.org/2000/svg" xmlns:xlink="http://www.w3.org/1999/xlink" x="0px" y="0px" viewBox="0 0 579 581"
	 style="enable-background:new 0 0 579 581;" xml:space="preserve">
<style type="text/css">
	.st0{fill:#3771C8;}
	.st1{fill:#D35F5F;}
	.st2{fill:none;stroke:#000000;stroke-width:2;}
	.st3{fill:none;}
	.st4{fill:#FFFFFF;}
	.st5{font-family:'Baskerville-Bold';}
	.st6{font-size:57px;}
	.st7{font-family:'Baskerville';}
	.st8{font-size:47.5px;}
	.st9{fill:none;stroke:#FFFFFF;}
	.st10{fill:none;stroke:#FFFFFF;stroke-width:0.4547;}
	.st11{fill:none;stroke:#FFFFFF;stroke-width:0.7956;stroke-miterlimit:3.1825;}
	.st12{fill:none;stroke:#FFFFFF;stroke-width:2;}
	.st13{fill:none;stroke:#FFFFFF;stroke-width:1.06;stroke-miterlimit:4.2399;}
</style>
<defs>

		<inkscape:path-effect  effect="sketch" ends_tolerance="0.1;1" id="path-effect5258" is_visible="true" nbiter_approxstrokes="5" nbtangents="0" parallel_offset="3;1" strokelength="100" strokelength_rdm="0.3;1" strokeoverlap="0.3" strokeoverlap_rdm="0.3;1" tgt_places_rdmness="1;1" tgtlength="100" tgtlength_rdm="0.3;1" tgtscale="10" tremble_frequency="1" tremble_size="4;1896651304">
		</inkscape:path-effect>

		<inkscape:path-effect  effect="sketch" ends_tolerance="0.1;1" id="path-effect5254" is_visible="true" nbiter_approxstrokes="5" nbtangents="0" parallel_offset="3;1" strokelength="100" strokelength_rdm="0.3;1" strokeoverlap="0.3" strokeoverlap_rdm="0.3;1" tgt_places_rdmness="1;1" tgtlength="100" tgtlength_rdm="0.3;1" tgtscale="10" tremble_frequency="1" tremble_size="4;1">
		</inkscape:path-effect>

		<inkscape:path-effect  effect="sketch" ends_tolerance="0.1;1" id="path-effect3861" is_visible="true" nbiter_approxstrokes="5" nbtangents="0" parallel_offset="3;294185633" strokelength="100" strokelength_rdm="0.1;2026920370" strokeoverlap="0.3" strokeoverlap_rdm="0.3;1" tgt_places_rdmness="1;1" tgtlength="100" tgtlength_rdm="0.3;1" tgtscale="10" tremble_frequency="1" tremble_size="3;2112635550">
		</inkscape:path-effect>

		<inkscape:path-effect  effect="sketch" ends_tolerance="0.1;1" id="path-effect3857" is_visible="true" nbiter_approxstrokes="5" nbtangents="0" parallel_offset="5;1" strokelength="100" strokelength_rdm="0.3;1" strokeoverlap="0.3" strokeoverlap_rdm="0.3;1" tgt_places_rdmness="1;1" tgtlength="100" tgtlength_rdm="0.3;1" tgtscale="10" tremble_frequency="1" tremble_size="5;568508735">
		</inkscape:path-effect>

		<inkscape:path-effect  effect="sketch" ends_tolerance="0.1;1" id="path-effect3853" is_visible="true" nbiter_approxstrokes="5" nbtangents="0" parallel_offset="5;1" strokelength="100" strokelength_rdm="0.3;1" strokeoverlap="0.3" strokeoverlap_rdm="0.3;1" tgt_places_rdmness="1;1" tgtlength="100" tgtlength_rdm="0.3;1" tgtscale="10" tremble_frequency="1" tremble_size="5;1">
		</inkscape:path-effect>

		<inkscape:path-effect  effect="sketch" ends_tolerance="0.1;1" id="path-effect3839" is_visible="true" nbiter_approxstrokes="5" nbtangents="0" parallel_offset="5;799442994" strokelength="100" strokelength_rdm="0.3;1" strokeoverlap="0.3" strokeoverlap_rdm="0.3;1" tgt_places_rdmness="1;1" tgtlength="100" tgtlength_rdm="0.3;1" tgtscale="10" tremble_frequency="1" tremble_size="5;1060682146">
		</inkscape:path-effect>

		<inkscape:path-effect  effect="sketch" ends_tolerance="0.1;1" id="path-effect3835" is_visible="true" nbiter_approxstrokes="5" nbtangents="0" parallel_offset="5;1" strokelength="100" strokelength_rdm="0.3;1" strokeoverlap="0.3" strokeoverlap_rdm="0.3;1" tgt_places_rdmness="1;1" tgtlength="100" tgtlength_rdm="0.3;1" tgtscale="10" tremble_frequency="1" tremble_size="5;1">
		</inkscape:path-effect>

		<inkscape:path-effect  effect="sketch" ends_tolerance="0.1;1" id="path-effect3831" is_visible="true" nbiter_approxstrokes="6" nbtangents="0" parallel_offset="5;1" strokelength="100" strokelength_rdm="0.3;1" strokeoverlap="0.3" strokeoverlap_rdm="0.3;1" tgt_places_rdmness="1;1" tgtlength="100" tgtlength_rdm="0.3;1" tgtscale="9" tremble_frequency="1" tremble_size="5;1">
		</inkscape:path-effect>

		<inkscape:path-effect  effect="sketch" ends_tolerance="0.1;1" id="path-effect3827" is_visible="true" nbiter_approxstrokes="5" nbtangents="0" parallel_offset="5;1" strokelength="100" strokelength_rdm="0.3;1" strokeoverlap="0.3" strokeoverlap_rdm="0.3;1" tgt_places_rdmness="1;1" tgtlength="100" tgtlength_rdm="0.3;1" tgtscale="10" tremble_frequency="1" tremble_size="5;1">
		</inkscape:path-effect>

		<inkscape:path-effect  effect="sketch" ends_tolerance="0;1" id="path-effect3822" is_visible="true" nbiter_approxstrokes="3" nbtangents="0" parallel_offset="2;1699740438" strokelength="100" strokelength_rdm="0.3;1" strokeoverlap="0.3" strokeoverlap_rdm="0.3;1" tgt_places_rdmness="1;1" tgtlength="100" tgtlength_rdm="0.3;1" tgtscale="10" tremble_frequency="1" tremble_size="5;1">
		</inkscape:path-effect>

		<inkscape:path-effect  back_thickness="0.25" bender="370,490.36218 , 5,0" bottom_edge_variation="44;1" bottom_smth_variation="0;1" bottom_tgt_variation="0;1" direction="370,485.36218 , 110,0" dist_rdm="75;1" do_bend="true" effect="rough_hatches" fat_output="true" front_thickness="1" growth="0" id="path-effect3820" is_visible="true" scale_bb="1" scale_bf="1" scale_tb="1" scale_tf="1" stroke_width_bottom="1" stroke_width_top="1" top_edge_variation="44;1" top_smth_variation="0;1" top_tgt_variation="0;1">
		</inkscape:path-effect>

		<inkscape:path-effect  bendpath1="m 150,270.36218 440,0" bendpath2="m 590,270.36218 0,440" bendpath3="m 150,710.36218 440,0" bendpath4="m 150,270.36218 0,440" effect="envelope" id="path-effect3818" is_visible="true" xx="true" yy="true">
		</inkscape:path-effect>
	<inkscape:path-effect  effect="construct_grid" id="path-effect3816" is_visible="true" nr_x="5" nr_y="5"></inkscape:path-effect>
	<inkscape:path-effect  effect="gears" id="path-effect3814" is_visible="true" phi="5" teeth="10"></inkscape:path-effect>
	<inkscape:path-effect  effect="spiro" id="path-effect3812" is_visible="true"></inkscape:path-effect>

		<inkscape:path-effect  effect="sketch" ends_tolerance="0.1;1" id="path-effect3810" is_visible="true" nbiter_approxstrokes="5" nbtangents="5" parallel_offset="5;1" strokelength="100" strokelength_rdm="0.3;1" strokeoverlap="0.3" strokeoverlap_rdm="0.3;1" tgt_places_rdmness="1;1" tgtlength="100" tgtlength_rdm="0.3;1" tgtscale="10" tremble_frequency="1" tremble_size="5;1">
		</inkscape:path-effect>

		<inkscape:path-effect  effect="sketch" ends_tolerance="0.1;1" id="path-effect3808" is_visible="true" nbiter_approxstrokes="3" nbtangents="5" parallel_offset="4.5;1" strokelength="93" strokelength_rdm="0;1" strokeoverlap="0" strokeoverlap_rdm="0.3;1" tgt_places_rdmness="1;1" tgtlength="100" tgtlength_rdm="0.3;1" tgtscale="10" tremble_frequency="1" tremble_size="5;1">
		</inkscape:path-effect>

		<inkscape:path-effect  back_thickness="0.25" bender="370,490.36218 , 5,0" bottom_edge_variation="44;1" bottom_smth_variation="0;1" bottom_tgt_variation="0;1" direction="370,485.36218 , 110,0" dist_rdm="75;1" do_bend="true" effect="rough_hatches" fat_output="true" front_thickness="1" growth="0" id="path-effect3806" is_visible="true" scale_bb="1" scale_bf="1" scale_tb="1" scale_tf="1" stroke_width_bottom="1" stroke_width_top="1" top_edge_variation="44;1" top_smth_variation="0;1" top_tgt_variation="0;1">
		</inkscape:path-effect>

		<inkscape:perspective  id="perspective10" inkscape:persp3d-origin="372.04724 : 350.78739 : 1" inkscape:vp_x="0 : 526.18109 : 1" inkscape:vp_y="0 : 1000 : 0" inkscape:vp_z="744.09448 : 526.18109 : 1" sodipodi:type="inkscape:persp3d">
		</inkscape:perspective>
</defs>
<sodipodi:namedview  bordercolor="#666666" borderopacity="1.0" id="base" inkscape:current-layer="g3672" inkscape:cx="299.81399" inkscape:cy="488.80918" inkscape:document-rotation="0" inkscape:document-units="px" inkscape:pagecheckerboard="true" inkscape:pageopacity="0" inkscape:pageshadow="2" inkscape:window-height="943" inkscape:window-maximized="0" inkscape:window-width="1680" inkscape:window-x="0" inkscape:window-y="38" inkscape:zoom="1.1412445" pagecolor="#ffffff" showgrid="false">
	<inkscape:grid  empspacing="5" enabled="true" id="grid2818" snapvisiblegridlinesonly="true" type="xygrid" visible="true">
		</inkscape:grid>
</sodipodi:namedview>
<g id="layer1" transform="translate(54.320365,-332.20503)" inkscape:groupmode="layer" inkscape:label="Ebene 1">
	<g id="g3672" transform="translate(-135.55811,135.26795)">
		<path id="path2816" class="st0" d="M588.7,490.4c0,120.8-97.9,218.7-218.7,218.7V490.4H588.7z"/>
		<path id="path3607" class="st0" d="M151.3,490.4c0-120.8,97.9-218.7,218.7-218.7v218.7H151.3z"/>
		<path id="path2823" class="st1" d="M151.3,490.4c0,120.8,97.9,218.7,218.7,218.7V490.4H151.3z"/>
		<path id="path3609" class="st1" d="M588.7,490.4c0-120.8-97.9-218.7-218.7-218.7v218.7H588.7z"/>
		<g id="g3779" inkscape:path-effect="#path-effect3822">

				<path id="path3647" inkscape:original-d="m 370,271.64343 c -120.78359,0 -218.6875,97.93516 -218.6875,218.71875 0,120.78359 97.90391,218.71875 218.6875,218.71875 120.78359,0 218.6875,-97.93516 218.6875,-218.71875 0,-120.78359 -97.90391,-218.71875 -218.6875,-218.71875 z" class="st2" d="
				M370.8,275c-26.5-0.9-54.2,4.8-79.4,14.4 M305.9,279.4c-8.7,2.3-17,5.2-25,8.6c-13.8,6-26.6,13.6-38.2,22.5 M253.8,301.4
				c-16.4,9-30.7,19.9-43.1,31.9c-4.6,4.5-8.9,9.1-13,13.9 M211.5,337.4c-17.4,20.2-33,42.7-43.1,68.4c-1.7,4.4-3.3,8.9-4.7,13.6
				 M172.5,394c-2,3.8-3.9,7.6-5.6,11.5c-9.1,21.2-12.9,44.4-11.7,68 M154,454.5c-2.4,12.4-3.4,24.5-2.8,36.4
				c0.6,12.6,2.8,24.4,6.3,35.4 M148.5,510.5c1.5,22.3,8.1,43.4,18.1,62.8c1.4,2.7,2.9,5.4,4.4,8.1 M168.1,566.4c1,2.4,2,4.7,3,7.1
				c8.4,19.4,18.3,38.3,30.1,56 M197.3,621.2c7.4,10.2,15.4,19.4,23.8,27.7c12.8,12.5,26.9,22.8,42.4,30.8 M240.5,662.7
				c14,11.7,30.1,21.2,47.7,28.9c11.7,5.1,24.1,9.4,36.9,13.1 M299.3,699.1c24.4,8.7,48.7,12.9,74.4,12.5c2.2,0,4.3-0.1,6.5-0.2
				 M355.7,709.5c4.7,0.4,9.4,0.6,14.1,0.6c26.8,0.1,51.2-5.8,74.1-15.7 M417.5,697c12-2.7,23.5-6,34.6-9.7
				c15.3-5.2,29.8-11.3,43.7-18.1 M480,677.6c15.8-8.7,30.6-19.6,43.4-31.6c3.7-3.4,7.2-7,10.5-10.5 M525.3,647.3
				c18.7-19.3,33-40.8,42.3-64.8 M558.4,595.1c3.7-6.7,7.2-13.7,10.5-20.9c9-20,15.9-41.6,19.7-63.5 M589.8,538.7
				c3.3-14.1,4.9-29.4,4.8-45.6c0-19-2.3-38.3-6.4-57.1 M590,464.2c-2.3-21-7.5-40.9-15.1-58.7c-4.3-10-9.3-19.3-15-27.9
				 M565.9,399.9C555.1,376,541.1,353.6,525,334c-0.7-0.9-1.5-1.8-2.2-2.7 M532.5,346c-3.4-4.3-7-8.5-10.7-12.5
				c-16.4-17.7-35.6-32.2-55.3-43.8 M484,311.3c-9.7-6.4-20.1-12-31.1-16.9c-18.1-8.1-37.5-14-57.9-17.9 M423,276.8
				c-17.9-5.3-35.8-7.4-53.9-6.7c-14.1,0.6-27.6,2.8-40.7,6.2 M364.5,275.3c-30.1-0.5-58.9,3.6-85,10.3c-2.2,0.6-4.5,1.2-6.7,1.8
				 M303,287.5c-6.4,1.9-12.6,4.2-18.5,6.7c-24.6,10.3-45.9,25.4-63.6,43.5 M242.6,309.7c-8.9,7.2-17.5,15.1-25.7,23.7
				c-13.2,14-25.2,29.9-35.1,48.2 M196.3,359.5c-10.9,14-20,29.7-27.3,46.5c-2.5,5.7-4.8,11.6-6.9,17.7 M167.5,410.4
				c-9.9,24.6-15.6,52.8-15,81.7c0,1,0,2,0.1,3 M156.4,476.5c-0.8,6.7-1.3,13.4-1.5,20.1c-0.4,18.8,1.9,36.7,6,53.7 M151.9,531.2
				c2.9,16.7,7.9,32,14.8,45.8c5,9.9,10.9,19.1,17.7,27.6 M172,583.6c10.1,20.5,24.6,40.7,42,58.6c7,7.2,14.5,14.1,22.4,20.6
				 M213.8,646.3c0.2,0.3,0.5,0.5,0.8,0.8c18.7,20.2,42.1,35.2,68.6,46.4 M268.2,683.7c6.9,3.9,14,7.4,21.3,10.5
				c17.9,7.7,36.9,13.1,56.7,15.9 M324.1,701.2c15.9,3.5,31.7,5.7,47.5,6.3c13.8,0.6,27,0,39.5-1.7 M385.8,703.3
				c23.4-2.2,46.3-7.5,67.5-16c7.6-3,14.9-6.4,22-10.1 M458.6,692c0.7-0.3,1.4-0.6,2.2-0.8c27.3-10.8,49.8-25.5,69-42.6
				c0.4-0.4,0.9-0.8,1.3-1.2 M503.5,662.8c5.5-4.4,10.8-9.2,16-14.3c16.9-16.5,31.8-36.1,43.9-57.4 M550.9,603.2
				c6.6-11.5,12.6-23.1,17.8-35.1c4.2-9.8,7.9-19.7,10.8-30 M581.7,560.2c7.9-22,10.2-45.5,7-70.4c-1.3-9.7-3.3-19.4-6.1-29
				 M588.2,492.7c0-0.3,0-0.7,0-1c1-29.6-5.4-58.8-15.7-84.6c-0.9-2.3-1.8-4.5-2.8-6.7 M574.4,418.5c-2-6.4-4.3-12.6-6.8-18.6
				c-6.6-15.9-14.7-30.5-24-43.2 M550.1,374.9c-9.2-13.1-18.7-25.6-28.8-37.4c-8.8-10.2-18-19.8-27.7-28.5 M508.7,323.5
				c-17.4-15.2-35.5-26.1-54.5-33.2c-7.8-2.9-15.7-5.2-23.8-6.9 M458.5,290.4c-23-9.5-47.6-15.3-73.3-16.5 M398.3,270.7
				c-9.5-0.8-19.1-1.3-28.6-1.3c-16.8,0-32.8,1.6-48.5,4.8 M371.9,268.2c-25.9-0.3-49.1,4.1-70.8,12 M313.8,283.8
				c-10.1,3-19.7,6.3-28.8,10.1c-17.4,7.2-33.1,16-46.8,26.6 M256.7,303c-14.2,8.9-27.2,19.4-38.8,31.4
				c-11.2,11.6-21.1,24.6-29.3,38.7 M199.2,349.3c-13.2,16.1-24.1,34.8-31.2,55.2c-2.8,8-5.1,16.3-6.6,24.8 M170.7,403.4
				c-10.8,25.8-18.7,53.8-23.3,83.3c-0.7,4.5-1.3,8.9-1.8,13.2 M155.9,475.9c-0.2,5.3-0.2,10.6-0.2,15.9c0.1,26,2.7,50.2,9.3,71.4
				 M158.9,537c2.6,11.5,6.3,22.9,10.8,34.1c7.3,17.7,16.8,34.7,27.9,49.9 M183.5,603.1c9.5,15.8,20.7,29.4,33.5,40.9
				c7.5,6.8,15.6,12.8,24.1,18.1 M220.6,647.7c17.2,15.6,39,31.1,62.8,44c3.1,1.7,6.3,3.3,9.4,4.9 M268.1,689.2
				c3.5,1.7,7,3.4,10.6,4.9c20.4,8.7,42.9,14.4,67.1,16.8 M332.3,707.7c12.6,2.1,25.5,3.2,38.4,3.1c19.6-0.2,38.3-3.3,55.8-9
				 M397.7,708.8c18.5-2.2,37.3-7,55.3-13.6c7.5-2.8,14.9-5.8,22.1-9.2 M454.6,690.4c24.1-12.3,47.9-26.2,69.5-43.5
				c0.3-0.3,0.7-0.6,1-0.8 M513.4,657c4.8-4.1,9.3-8.4,13.5-12.7c13.5-13.9,23.9-28.8,30.9-44.6 M548.4,617.7
				c8.5-11.6,15.8-24.3,22.2-38c6.8-14.6,12.4-30.1,17.2-46.4 M579.6,550.5c5.2-20.6,8.3-41.2,7.3-61.2c-0.3-7-1.1-13.8-2.4-20.4
				 M587.5,495.2l0-0.1c0.7-30.1-6.1-60-17.5-87.9c-1-2.5-2.1-4.9-3.1-7.4 M579.3,420.8c-2.1-6.5-4.4-12.8-6.9-18.9
				c-7.3-17.8-16.2-33.7-26.8-48.1 M550.9,367.7c-8.7-12.7-18.2-24.3-28.8-34.9c-6.6-6.5-13.5-12.6-20.8-18.3 M514.4,330.2
				c-18.9-15.5-38.6-28.5-59.7-37.4c-5.5-2.3-11.2-4.4-17-6.1 M456.9,288.6c-1.8-0.8-3.6-1.6-5.5-2.4c-20.1-8.3-40.4-13.2-60.6-13.9
				 M408,279c-11.9-2.4-24.2-3.6-36.8-3.5c-13.9,0.1-27.7,1.6-41.2,4.3"/>
			<g id="g3680" transform="translate(0,-32)">
				<path id="path3676" inkscape:original-d="m 370,742.36218 0,-440" class="st2" d="M374.5,744.4c0.8-24.9-0.5-48.1-2.7-71.2
					 M369.4,689c0.8-25.4,1.2-53.1,2.6-81.1 M366.4,622.9c0.5-25.4,0.2-51.2,0-76.8 M373,566.5c-1-32.2-1.6-65.6-4.8-99.3
					 M369.2,495.1c-1.3-28.6,0.8-56.4,3.5-84.9 M373.9,436.5c0-25.1,0.4-49.7,1-74.9 M372.9,376.1c-0.6-23.9-1.3-49.6-3.1-75.3
					 M374.1,738.8c1-31.6-2-59.7-6.4-87.3 M368,680.6c-1.3-31.9,0.2-64,1.1-98.3 M370.8,607.1c0.8-23.2,0.2-47.1-0.6-71.1
					 M365,552.7c0.2-23.2,1.3-47.1,3.6-70.8 M369,496.4c-1.1-23.5,0.3-48.2,2.4-73 M372.2,439c-0.2-27-1.2-54.9-3.4-83.6 M366,376.2
					c0.1-26.7,1.3-50.4,3.7-73.4 M371,742.4c-0.6-25.6,0.1-49.5,1-72.6 M371.7,683.5c1.2-24.3-0.1-46.6-1.9-68.2 M370,633.4
					c-1-23.2-0.8-48.7-1.1-75.2 M369,571.5c-0.1-27.1-0.7-53.8-2-80.6 M369.1,511.9c0.5-25.5,1.3-50.7,3.3-76.5 M367.8,451
					c-0.6-23.2,0.4-46.6,2-69.4 M369.7,397.6c-0.1-25.6,1-50.1,3.1-74.7 M369,339.1c-0.6-12-0.6-24.1-0.3-36.3"/>
				<path id="path3678" inkscape:original-d="m 150,522.36218 440,0" class="st2" d="M156.3,518.5c30,0.9,58.1,0.6,84.7,1.2
					 M213.6,526.3c23.5-0.3,47.5-0.9,71.8-2.1 M267.2,521.4c29.1-0.3,59.6-0.5,91.5-1.2 M332.1,518.9c24.6,1.1,51.1,1.8,77.4,3.9
					 M390.7,527.2c29.1,1.2,61.3-0.2,94-1.3 M464.1,517.5c24.9-1.1,48.6-0.2,71.9,1.1 M523.1,523.4c24.5,0.7,48.4-0.2,72.5-1.5
					 M150.2,516.8c26.9-0.2,53.9,1.8,81.7,5.5 M209.1,523.3c31.7,1,65.9-0.3,99.2-0.8 M275.5,518.8c23.8-0.4,48.9-0.6,74-1.1
					 M334.2,525c34.2,1.4,66.6-1.5,100.4-4.7 M409.2,524.6c28.3-1.1,55.9,0.4,84.5,2.4 M473.8,521.9c30.5,0.6,58.7,0.3,87.9,0.6
					 M533.5,524.3c18.8-0.5,37.1-1.1,54.8-2.5 M153.5,528.1c23.2,0.9,46.1-0.9,68.6-4.2 M202.2,521.5c30.6,0.9,61.8,1,91.8,2.8
					 M277.3,525.6c26.1-1.3,54-0.7,81.8-0.7 M332.5,526.4c32.6-0.8,65.1-0.4,98.8-0.9 M397.9,528.2c33.7,0.8,67.1,0,104,0
					 M469.8,520.3c23.5,0,46.5,0.3,68.9,1 M528.5,527.5c20.1,0.3,40.5,0.2,60.2,0"/>
			</g>
		</g>
		<g id="text3684" transform="translate(189.89365,117.14409)">
		</g>
		<path id="path3713" class="st3" d="M367.2,204.9C211.1,206.5,85.8,334.3,87.4,490.4C89,646.5,216.7,771.8,372.8,770.2
			c156.1-1.6,281.3-129.4,279.8-285.5C651,328.6,523.3,203.3,367.2,204.9z"/>
		<text transform="matrix(0.7991 0.6011 -0.6011 0.7991 187.4607 697.8724)" class="st4 st5 st6">S</text>
		<text transform="matrix(0.8619 0.507 -0.507 0.8619 213.1108 717.1672)" class="st4 st5 st6">o</text>
		<text transform="matrix(0.9215 0.3884 -0.3884 0.9215 240.6356 733.7668)" class="st4 st5 st6">C</text>
		<text transform="matrix(0.9627 0.2707 -0.2707 0.9627 280.2307 749.9339)" class="st4 st5 st6">r</text>
		<text transform="matrix(0.9859 0.1676 -0.1676 0.9859 306.5146 757.4518)" class="st4 st5 st6">a</text>
		<text transform="matrix(0.9992 3.947651e-02 -3.947651e-02 0.9992 338.1446 763.1085)" class="st4 st5 st6">T</text>
		<text transform="matrix(0.9965 -8.357177e-02 8.357177e-02 0.9965 379.1182 764.3804)" class="st4 st5 st6">e</text>
		<text transform="matrix(0.983 -0.1833 0.1833 0.983 408.727 761.8384)" class="st4 st5 st6">s</text>
		<text transform="matrix(0.9668 -0.2555 0.2555 0.9668 435.5236 756.5956)" class="st4 st5 st6"> </text>
		<text transform="matrix(0.9432 -0.3323 0.3323 0.9432 449.4106 753.2709)" class="st4 st5 st6">2</text>
		<text transform="matrix(0.901 -0.4338 0.4338 0.901 478.5505 742.9998)" class="st4 st5 st6">0</text>
		<text transform="matrix(0.8482 -0.5297 0.5297 0.8482 506.3861 729.5942)" class="st4 st5 st6">2</text>
		<text id="text3730" transform="matrix(0.7856 -0.6188 0.6188 0.7856 532.5906 713.2269)" class="st4 st5 st6">4</text>
		<path id="path3739" class="st3" d="M176.8,633.9C96,527.2,117.1,375.2,223.7,294.4s258.7-59.8,339.4,46.8s59.8,258.6-46.9,339.4
			S257.6,740.5,176.8,633.9z"/>
		<text transform="matrix(-0.5762 -0.8173 0.8173 -0.5762 177.1325 639.9451)" class="st4 st7 st8">I</text>
		<text transform="matrix(-0.5038 -0.8638 0.8638 -0.5038 167.2821 626.29)" class="st4 st7 st8">n</text>
		<text transform="matrix(-0.4323 -0.9017 0.9017 -0.4323 154.767 604.3746)" class="st4 st7 st8">t</text>
		<text transform="matrix(-0.3664 -0.9305 0.9305 -0.3664 148.663 591.9323)" class="st4 st7 st8">e</text>
		<text transform="matrix(-0.2916 -0.9566 0.9566 -0.2916 141.1108 572.5649)" class="st4 st7 st8">r</text>
		<text transform="matrix(-0.206 -0.9786 0.9786 -0.206 135.8872 556.0214)" class="st4 st7 st8">n</text>
		<text transform="matrix(-0.109 -0.994 0.994 -0.109 130.7596 531.2978)" class="st4 st7 st8">a</text>
		<text transform="matrix(-3.472743e-02 -0.9994 0.9994 -3.472743e-02 128.4892 509.1449)" class="st4 st7 st8">t</text>
		<text transform="matrix(1.815191e-02 -0.9998 0.9998 1.815191e-02 128.0348 495.3032)" class="st4 st7 st8">i</text>
		<text transform="matrix(9.115022e-02 -0.9958 0.9958 9.115022e-02 128.0341 483.4105)" class="st4 st7 st8">o</text>
		<text transform="matrix(0.1906 -0.9817 0.9817 0.1906 130.1651 459.7338)" class="st4 st7 st8">n</text>
		<text transform="matrix(0.2853 -0.9585 0.9585 0.2853 135.0481 434.9605)" class="st4 st7 st8">a</text>
		<text transform="matrix(0.3509 -0.9364 0.9364 0.3509 141.5799 413.6737)" class="st4 st7 st8">l</text>
		<text transform="matrix(0.3955 -0.9185 0.9185 0.3955 145.5717 403.0067)" class="st4 st7 st8"> </text>
		<text transform="matrix(0.4811 -0.8767 0.8767 0.4811 149.7987 391.8507)" class="st4 st7 st8">C</text>
		<text transform="matrix(0.5828 -0.8126 0.8126 0.5828 166.5043 362.0557)" class="st4 st7 st8">o</text>
		<text transform="matrix(0.6623 -0.7492 0.7492 0.6623 180.328 342.7191)" class="st4 st7 st8">n</text>
		<text transform="matrix(0.7193 -0.6947 0.6947 0.7193 197.2256 323.9734)" class="st4 st7 st8">f</text>
		<text transform="matrix(0.7655 -0.6435 0.6435 0.7655 206.4013 314.9232)" class="st4 st7 st8">e</text>
		<text transform="matrix(0.8129 -0.5824 0.5824 0.8129 222.3578 301.5983)" class="st4 st7 st8">r</text>
		<text transform="matrix(0.8557 -0.5174 0.5174 0.8557 236.4113 291.4445)" class="st4 st7 st8">e</text>
		<text transform="matrix(0.901 -0.4338 0.4338 0.901 254.1585 280.5891)" class="st4 st7 st8">n</text>
		<text transform="matrix(0.9379 -0.3468 0.3468 0.9379 276.9557 269.7422)" class="st4 st7 st8">c</text>
		<text transform="matrix(0.9641 -0.2655 0.2655 0.9641 295.9997 262.6914)" class="st4 st7 st8">e</text>
		<text transform="matrix(0.9799 -0.1996 0.1996 0.9799 316.0761 257.3191)" class="st4 st7 st8"> </text>
		<text transform="matrix(0.9888 -0.1492 0.1492 0.9888 327.7126 254.9359)" class="st4 st7 st8">f</text>
		<text transform="matrix(0.9973 -7.406852e-02 7.406852e-02 0.9973 340.4269 252.8109)" class="st4 st7 st8">o</text>
		<text transform="matrix(0.9999 1.037899e-02 -1.037899e-02 0.9999 364.1279 251.1871)" class="st4 st7 st8">r</text>
		<text transform="matrix(0.9975 7.027031e-02 -7.027031e-02 0.9975 381.4534 251.4487)" class="st4 st7 st8"> </text>
		<text transform="matrix(0.9892 0.1469 -0.1469 0.9892 393.3378 252.0194)" class="st4 st7 st8">S</text>
		<text transform="matrix(0.9692 0.2464 -0.2464 0.9692 418.791 255.8507)" class="st4 st7 st8">o</text>
		<text transform="matrix(0.9479 0.3186 -0.3186 0.9479 441.759 261.9009)" class="st4 st7 st8">f</text>
		<text transform="matrix(0.9289 0.3703 -0.3703 0.9289 453.9681 265.9906)" class="st4 st7 st8">t</text>
		<text transform="matrix(0.8895 0.4569 -0.4569 0.8895 467.0269 270.7274)" class="st4 st7 st8">w</text>
		<text transform="matrix(0.8323 0.5544 -0.5544 0.8323 495.5254 285.6818)" class="st4 st7 st8">a</text>
		<text transform="matrix(0.7838 0.621 -0.621 0.7838 514.0055 298.1139)" class="st4 st7 st8">r</text>
		<text transform="matrix(0.7323 0.6809 -0.6809 0.7323 527.6288 308.8199)" class="st4 st7 st8">e</text>
		<text transform="matrix(0.6848 0.7288 -0.7288 0.6848 542.7538 323.0895)" class="st4 st7 st8"> </text>
		<text transform="matrix(0.6133 0.7898 -0.7898 0.6133 551.2936 331.4208)" class="st4 st7 st8">C</text>
		<text transform="matrix(0.5273 0.8497 -0.8497 0.5273 571.8885 358.6551)" class="st4 st7 st8">r</text>
		<text transform="matrix(0.4562 0.8899 -0.8899 0.4562 581.1189 373.3349)" class="st4 st7 st8">a</text>
		<text transform="matrix(0.3901 0.9208 -0.9208 0.3901 591.1259 393.2282)" class="st4 st7 st8">f</text>
		<text transform="matrix(0.3384 0.941 -0.941 0.3384 596.1621 405.0787)" class="st4 st7 st8">t</text>
		<text transform="matrix(0.2876 0.9578 -0.9578 0.2876 600.8228 418.1192)" class="st4 st7 st8"> </text>
		<text transform="matrix(0.219 0.9757 -0.9757 0.219 604.4181 429.4527)" class="st4 st7 st8">a</text>
		<text transform="matrix(0.1221 0.9925 -0.9925 0.1221 609.3687 451.1846)" class="st4 st7 st8">n</text>
		<text transform="matrix(1.942454e-02 0.9998 -0.9998 1.942454e-02 612.438 476.2529)" class="st4 st7 st8">d</text>
		<text transform="matrix(-5.578608e-02 0.9984 -0.9984 -5.578608e-02 612.6776 500.9999)" class="st4 st7 st8"> </text>
		<text transform="matrix(-0.1476 0.989 -0.989 -0.1476 612.5021 512.9218)" class="st4 st7 st8">T</text>
		<text transform="matrix(-0.2559 0.9667 -0.9667 -0.2559 607.2691 545.6606)" class="st4 st7 st8">e</text>
		<text transform="matrix(-0.328 0.9447 -0.9447 -0.328 601.8584 565.731)" class="st4 st7 st8">s</text>
		<text transform="matrix(-0.3851 0.9229 -0.9229 -0.3851 596.6342 580.6896)" class="st4 st7 st8">t</text>
		<text transform="matrix(-0.4337 0.9011 -0.9011 -0.4337 591.2764 593.4603)" class="st4 st7 st8">i</text>
		<text transform="matrix(-0.5016 0.8651 -0.8651 -0.5016 586.3492 604.2894)" class="st4 st7 st8">n</text>
		<text id="text3741" transform="matrix(-0.5845 0.8114 -0.8114 -0.5845 573.619 626.0959)" class="st4 st7 st8">g</text>
		<path id="path3751" inkscape:connector-curvature="0" class="st4" d="M178.6,656.2c-3,0-5.4,2.4-5.4,5.4s2.4,5.4,5.4,5.4
			s5.4-2.4,5.4-5.4S181.6,656.2,178.6,656.2z"/>
		<circle id="path3769" class="st4" cx="558.6" cy="663.6" r="5.4"/>

			<path id="rect3824" inkscape:original-d="m 438.93168,357.05145 57.71884,0 c 10.41087,0 18.79218,8.38132 18.79218,18.79218 l 0,26.84598 c 0,10.41087 -8.38131,18.79218 -18.79218,18.79218 l -57.71884,0 c -10.41087,0 -18.79218,-8.38131 -18.79218,-18.79218 l 0,-26.84598 c 0,-10.41086 8.38131,-18.79218 18.79218,-18.79218 z" inkscape:path-effect="#path-effect3827" class="st9" d="
			M448.5,364.9c17.8-0.6,34.7-0.6,51.4-0.4c10,0.1,18,8.4,17.8,18.8 M507.1,357.1c5.5,3.1,9.2,9.1,9.3,16.1c0,8.9,0.2,18,0.5,27
			c0.3,9.1-5.6,16.6-13.5,18.7 M509,415.8c-3.5,5.5-9.8,9.2-16.9,9.1c-18.5-0.4-36.2-1-54-2 M460.4,425.6c-6.2,0.2-12.6,0.4-19,0.5
			c-10.2,0.2-18.5-8.1-18.4-18.4c0.1-8.9,0.1-17.7,0.2-26.5c0.1-6.6,3.8-12.4,9.3-15.5 M415.6,380.7c-0.1-2.7-0.1-5.5-0.2-8.2
			c-0.1-10.6,8.5-19.1,19.5-19.3c16.6-0.3,33.8-0.5,51.4-1.1 M448,358.5c15.6,0.5,32.1-0.1,49.2-1.4c10.6-0.8,19.4,6,21,14.6
			 M502.3,361c5.1,3.3,8.4,9.2,8.5,15.8c0.1,8.9,0.4,17.8,0.9,26.6c0.5,10.1-6.9,18.2-16.2,18.3 M514.7,410.4
			c-3.3,4.4-8.7,7.3-14.9,7.4c-17.8,0.3-36.2,1.2-55.1,2.6 M458.5,421.6c-6.4,0.1-12.8,0.1-19.3,0.1c-10.4-0.1-18.9-8.8-19.1-19.6
			c-0.2-9.3-0.4-18.8-0.7-28.4c-0.2-6.1,2.2-11.6,6-15.4 M422.1,380.6c-0.1-3-0.1-5.9-0.1-8.9c-0.1-10,8.5-18.2,19.2-17.9
			c17.9,0.5,36.3,0.9,54.9,2.1 M447.5,357c17.2,0.2,33.7,0.2,49.9,0c10.3-0.1,18.5,8.1,18.4,18.4c0,1.1,0,2.2,0,3.4 M503.7,355.6
			c4.6,3.6,7.5,8.9,7.6,14.9c0.2,9,0.1,17.7,0,26.4c-0.1,10.1-8.7,18.1-19.3,17.5c-5.7-0.3-11.4-0.6-17.1-0.9 M497.9,419.8
			c-2.2,1-4.5,1.5-7.1,1.6c-18.6,0.4-37.5,1.7-56.1,4.1c-6.3,0.8-11.7-1.6-14.8-5.6 M442,420.8c-0.9,0-1.8,0.1-2.7,0.1
			c-10.8,0.5-19.4-7.5-19.7-17.4c-0.2-8.5-0.5-16.9-0.8-25.1c-0.2-4.7,1.6-8.9,4.7-11.8 M420.5,375.4c0-0.6,0-1.2,0-1.7
			c0-10.7,8.3-19.1,18.5-19.2c15.5,0,30.8,0.1,45.7,0.2 M439.2,357.5c18.4,0.5,37.5,0.8,57.2,1.3c10.9,0.3,19.9,8.9,20.6,19.8
			c0.1,2.1,0.3,4.2,0.5,6.4 M508,361.4c5.5,3.4,9.1,9.4,9.2,16c0.1,8.8,0.1,17.4,0,25.7c0,9.7-8.5,17.4-18.9,16.3
			c-7.3-0.8-14.6-1.6-21.8-2.6 M503.2,416.9c-2,0.8-4.2,1.3-6.5,1.3c-19.1,0.5-38.2,1.1-57,2.3c-10.2,0.6-18.3-7-18-16.4
			c0-1.2,0.1-2.5,0.1-3.7 M433.6,416.1c-8-2-13.8-9.4-13.6-18.2c0.3-9.1,0.7-18.2,1.2-27.4c0.6-10.7,9.7-19.4,21.1-19.9
			c0.4,0,0.8,0,1.2-0.1 M414.6,368.6c3.5-5.5,9.6-9.2,16.7-9.3c19.9-0.3,39.9-0.5,60.8-1c5.1-0.1,9.7,1.4,13.4,4.1 M441.3,358.5
			c17.8-0.2,35.2-0.5,52.6-1.1c10.3-0.3,18.5,7.7,18.3,17.5c-0.1,3.9-0.1,7.7-0.2,11.6 M510.1,362.2c3.1,3.1,5.1,7.6,5,12.6
			c-0.1,8.8,0.1,17.8,0.3,27c0.3,10.7-7.7,19.4-17.7,19.9c-8.6,0.4-17.2,0.9-25.7,1.3 M497.8,424.5c-0.5,0-1.1,0.1-1.7,0
			c-19.2-0.4-38.4-1.4-57.7-3.3c-10.4-1.1-18.8-10.5-18.8-22.6c0-2.2,0-4.5,0-6.8 M424.3,422.3c-6.4-3.1-10.8-9.6-10.8-17.1
			c0-9,0.2-17.9,0.5-26.9c0.3-10.4,9-18.8,19.9-18.8c7.6,0,15.3,0,23-0.1"/>

			<path id="path3829" inkscape:original-d="m 439.80804,436.13613 57.27909,0 c 10.33154,0 18.649,1.74591 18.649,3.9146 l 0,5.5923 c 0,2.16869 -8.31746,3.91461 -18.649,3.91461 l -57.27909,0 c -10.33154,0 -18.649,-1.74592 -18.649,-3.91461 l 0,-5.5923 c 0,-2.16869 8.31746,-3.9146 18.649,-3.9146 z" inkscape:path-effect="#path-effect3831" class="st10" d="
			M449.4,444c17.7-0.6,34.5-0.6,50.9-0.4c5,0,9.5,0.5,12.8,1.3c1.6,0.4,2.9,0.8,3.8,1.3c0.5,0.2,0.8,0.5,1,0.7
			c0.2,0.3,0.4,0.5,0.3,0.8c-0.1,1.9-0.1,3.8-0.2,5.6c0,0.3-0.1,0.5-0.4,0.8c-0.3,0.3-0.6,0.5-1.1,0.7c-0.6,0.3-1.3,0.5-2.1,0.8
			 M508.4,434.4c1,0.1,2,0.3,2.9,0.5c1.7,0.3,3,0.7,3.9,1.2c0.5,0.2,0.8,0.5,1.1,0.7c0.2,0.3,0.4,0.5,0.4,0.8c0,1.8,0,3.7,0,5.6
			c0,0.3-0.1,0.5-0.4,0.8c-0.2,0.3-0.6,0.5-1.1,0.7c-0.9,0.5-2.3,0.9-4,1.2c-3.3,0.7-8,1.2-13,1.2c-12.1,0.1-24,0.3-35.8,0.6
			 M471.4,453.3c-12.4-0.2-24.4-0.4-36.2-0.8c-5.1-0.2-9.7-0.7-13-1.6c-1.7-0.4-3-0.9-3.9-1.4c-0.5-0.3-0.8-0.5-1.1-0.8
			c-0.2-0.3-0.4-0.5-0.4-0.8c0-1.9,0.1-3.9,0.1-5.8c0-0.3,0.1-0.6,0.4-0.8c0.3-0.3,0.6-0.5,1.1-0.8c1-0.5,2.4-1,4.1-1.4
			c2.1-0.5,4.6-1,7.4-1.3 M423,447.2c0-1,0.1-1.9,0.1-2.9c0-0.3,0.2-0.5,0.4-0.8c0.3-0.2,0.6-0.5,1.1-0.7c1-0.4,2.4-0.8,4.1-1.1
			c3.5-0.6,8.3-1,13.5-0.9c19.5,0.3,38.5,0.3,57.9,0.7c5.3,0.1,10,0.7,13.5,1.5c0.7,0.2,1.3,0.3,1.8,0.5 M444.7,433
			c15.5-0.4,31.9-0.6,49-0.9c5.5-0.1,10.6,0.3,14.3,0.9c1.8,0.3,3.3,0.7,4.4,1.1c0.5,0.2,0.9,0.5,1.2,0.7c0.3,0.2,0.4,0.5,0.5,0.8
			c0.2,1.8,0.4,3.6,0.6,5.4c0,0.3-0.1,0.5-0.3,0.8c-0.2,0.2-0.5,0.5-0.9,0.7c-0.8,0.4-2,0.8-3.5,1.1c-1.3,0.3-2.9,0.5-4.6,0.6
			 M511.9,439.3c0.8,0.3,1.4,0.5,1.9,0.8c0.5,0.2,0.8,0.5,1.1,0.8c0.2,0.3,0.4,0.5,0.4,0.8c0,1.9-0.1,3.8-0.1,5.6
			c0,0.3-0.1,0.5-0.4,0.8c-0.2,0.3-0.6,0.5-1.1,0.7c-0.9,0.5-2.3,0.9-4,1.2c-3.4,0.7-7.9,1-13,0.8c-15.2-0.7-29.7-2.2-43.9-4.1
			 M463.3,450.6c-9.6,0-18.9,0-27.9-0.1c-5,0-9.5-0.5-12.7-1.3c-1.6-0.4-2.9-0.8-3.8-1.3c-0.4-0.2-0.8-0.5-1-0.8
			c-0.2-0.3-0.3-0.5-0.3-0.8c0.1-1.9,0.2-3.8,0.3-5.7c0-0.3,0.2-0.5,0.4-0.8c0.3-0.3,0.7-0.5,1.2-0.8c1-0.5,2.5-0.9,4.3-1.3
			c3.6-0.8,8.6-1.3,14.2-1.4c0.7,0,1.3,0,2,0 M428.1,433.9c0.5-0.1,1-0.3,1.6-0.4c3.4-0.7,8.1-1.2,13.3-1.1
			c18.4,0.2,36,1.1,53.2,2.6 M448.3,436.2c16.7,0.3,32.9,0,48.8-0.7c5.1-0.2,9.6,0,12.9,0.5c1.6,0.3,3,0.6,3.9,1
			c0.5,0.2,0.8,0.4,1,0.7c0.2,0.2,0.4,0.5,0.4,0.7c-0.1,1.7-0.1,3.5-0.2,5.2c0,0.3-0.1,0.5-0.4,0.7c-0.3,0.2-0.6,0.4-1.1,0.6
			c-1,0.4-2.4,0.7-4.1,1c-3.1,0.4-7.3,0.5-12,0.3 M516.6,434.2c0.3,0.2,0.5,0.4,0.7,0.6c0.2,0.3,0.4,0.5,0.4,0.8
			c0,1.9-0.1,3.9-0.1,5.8c0,0.3-0.1,0.6-0.4,0.8c-0.3,0.3-0.6,0.5-1.1,0.8c-0.9,0.5-2.3,1-4,1.4c-3.4,0.8-8,1.4-13.1,1.6
			c-18.8,0.5-36.9,0.9-54.7,2c-2.2,0.1-4.3,0.2-6.2,0.2 M458.1,449.5c-5.8,0.1-11.6,0.1-17.6,0.2c-5.1,0-9.7-0.4-13.1-1.2
			c-1.7-0.4-3-0.8-4-1.3c-0.5-0.2-0.8-0.5-1.1-0.7s-0.4-0.5-0.4-0.8c0-1.9,0-3.8,0-5.6c0-0.3,0.1-0.5,0.4-0.8
			c0.2-0.3,0.6-0.5,1.1-0.7c0.9-0.5,2.3-0.9,3.9-1.3c3.3-0.7,7.9-1.2,13-1.3c6.3-0.1,12.5-0.2,18.8-0.3 M436.8,430.6
			c19.4,0.5,37.8,0.1,56-0.6c5.1-0.2,9.6,0,12.9,0.5c1.6,0.3,3,0.6,3.9,1c0.5,0.2,0.8,0.4,1.1,0.7c0.2,0.2,0.4,0.5,0.4,0.7
			c0,1.8-0.1,3.5-0.1,5.3c0,0.3-0.1,0.5-0.4,0.7c-0.3,0.2-0.6,0.5-1.1,0.7c-1,0.4-2.3,0.8-4.1,1c-0.8,0.1-1.8,0.2-2.7,0.3
			 M501,436.6c1.2,0.2,2.3,0.4,3.3,0.6c1.7,0.4,3.2,0.8,4.1,1.3c0.5,0.2,0.9,0.5,1.1,0.8c0.3,0.3,0.4,0.5,0.4,0.8
			c0.1,1.9,0.1,3.8,0.2,5.8c0,0.3-0.1,0.6-0.4,0.8c-0.2,0.3-0.6,0.5-1,0.8c-0.9,0.5-2.2,1-3.9,1.4c-3.3,0.9-7.8,1.5-12.9,1.9
			c-15.8,1.1-31.7,2.9-47,5.5 M469.8,448.9c-10.2,0.5-20.3,0.9-30.4,1.4c-5.3,0.3-10.1,0.1-13.6-0.4c-1.7-0.2-3.1-0.6-4.1-1
			c-0.5-0.2-0.9-0.4-1.1-0.6c-0.3-0.2-0.4-0.5-0.4-0.7c-0.1-1.7-0.1-3.5-0.2-5.2c0-0.3,0.1-0.5,0.3-0.7c0.2-0.2,0.6-0.4,1-0.6
			c0.9-0.4,2.2-0.7,3.8-0.9c3-0.4,7.2-0.4,11.7,0 M423.3,436.3c0.9-0.4,2.2-0.9,3.7-1.2c3.4-0.8,8-1.3,13.1-1.4
			c18.9-0.2,37.2,0,55.2,0.1c1.5,0,2.9,0.1,4.3,0.1 M443.5,436.6c17.1,0.5,34.9,0.7,53.1,1.2c5.4,0.1,10.3,0.7,13.9,1.5
			c1.8,0.4,3.2,0.9,4.2,1.4c0.5,0.3,0.9,0.5,1.2,0.8c0.3,0.3,0.4,0.5,0.4,0.8c0.1,1.9,0.2,3.9,0.4,5.8c0,0.3-0.1,0.6-0.3,0.8
			c-0.2,0.3-0.6,0.5-1,0.8c-0.9,0.5-2.1,1-3.7,1.4c-2,0.5-4.4,1-7.2,1.4 M512.7,439.1c1.3,0.3,2.3,0.7,3.1,1.1
			c0.5,0.2,0.9,0.5,1.1,0.8c0.3,0.3,0.4,0.5,0.4,0.8c0,1.9,0.1,3.8,0.1,5.6c0,0.3-0.1,0.5-0.4,0.8c-0.2,0.3-0.6,0.5-1.1,0.7
			c-0.9,0.5-2.3,0.9-3.9,1.2c-3.4,0.7-8,1-13.1,0.8c-19.1-0.7-38.3-2.4-57.4-4.7c-3.4-0.4-6.6-1-9.3-1.7 M458.9,446.1
			c-6.3,0.2-12.6,0.3-18.9,0.5c-5.1,0.1-9.7-0.1-13.1-0.7c-1.7-0.3-3-0.7-3.9-1.1c-0.5-0.2-0.8-0.4-1.1-0.7
			c-0.2-0.2-0.4-0.5-0.4-0.8c0-1.8,0.1-3.6,0.1-5.4c0-0.3,0.1-0.5,0.4-0.8c0.3-0.2,0.6-0.5,1.1-0.7c1-0.4,2.3-0.8,4.1-1
			c3.4-0.5,8.2-0.7,13.5-0.4c11.6,0.7,23.3,1.6,35,2.8 M447.1,431.3c16.6,0.1,33.5-0.1,51-0.5c5.5-0.1,10.4,0.1,14.1,0.7
			c1.8,0.3,3.3,0.7,4.3,1.1c0.5,0.2,0.9,0.4,1.2,0.7c0.3,0.2,0.4,0.5,0.4,0.8c0.1,1.8,0.3,3.6,0.5,5.4c0,0.3-0.1,0.5-0.3,0.8
			c-0.2,0.2-0.5,0.5-1,0.7c-0.8,0.4-2.1,0.8-3.6,1.1c-0.3,0.1-0.6,0.1-0.9,0.2 M501.1,439.7c0.3,0,0.6,0.1,0.8,0.1
			c1.7,0.3,3.2,0.7,4.1,1.2c0.5,0.2,0.9,0.5,1.1,0.7c0.3,0.2,0.4,0.5,0.4,0.8c0.1,1.8,0.1,3.7,0.2,5.5c0,0.3-0.1,0.5-0.3,0.8
			c-0.2,0.2-0.6,0.5-1,0.7c-0.9,0.5-2.2,0.8-3.8,1.2c-3.2,0.7-7.8,1-12.7,1c-18.3-0.3-36.4-0.5-53.5-1.1c-0.1,0-0.2,0-0.4,0
			 M461.1,451c-7.9-0.1-15.8-0.2-23.9-0.4c-5.2-0.1-9.9-0.6-13.3-1.4c-1.7-0.4-3.1-0.9-4-1.4c-0.5-0.2-0.8-0.5-1.1-0.8
			c-0.3-0.3-0.4-0.5-0.4-0.8c0-1.9,0-3.8-0.1-5.8c0-0.3,0.1-0.6,0.4-0.8c0.2-0.3,0.6-0.5,1.1-0.8c0.9-0.5,2.3-1,3.9-1.4
			c3.3-0.8,7.9-1.4,13-1.7c8.4-0.4,16.8-0.8,25.1-1.4"/>
		<g id="g3841" transform="matrix(0.79562006,0,0,0.79562006,70.938154,64.577691)">

				<path id="path3833" inkscape:original-d="m 284.56732,461.75075 c 0,0 -9.39609,-65.77264 24.16138,-65.77264 33.55746,0 22.81907,67.11494 22.81907,67.11494 l -46.98045,-1.3423 z" inkscape:path-effect="#path-effect3835" class="st11" d="
				M286.9,463.2c0-1.2-0.1-2.5-0.1-3.9c-0.1-6.2-0.1-14.8,0.8-23c0.5-4.1,1.1-8.2,2.2-12.1c1-3.8,2.4-7.4,4.2-10.5
				c1.8-3.1,4.1-5.6,7-7.3c2.8-1.8,6.2-2.7,10.3-2.7c3,0,5.7,0.6,8,1.7 M299.4,396.2c2.8-1.8,6.2-2.8,10.3-2.8c4.2,0,7.7,1,10.6,2.8
				c2.9,1.8,5.3,4.5,7.2,7.6c1.9,3.2,3.4,6.9,4.5,10.9c1.1,4,1.9,8.2,2.5,12.5c0.7,5.3,1,10.6,1.1,15.4 M328.7,433
				c0,0.1,0,0.2,0,0.3c0.4,8.2,0,16.5-0.6,22.6c-0.3,3.1-0.5,5.6-0.8,7.4c-0.1,0.9-0.2,1.6-0.3,2.1c0,0.2-0.1,0.4-0.1,0.5
				c0,0.1,0,0.1,0,0.1c0,0,0,0,0,0c0,0,0,0,0,0l0,0c-13.4-0.8-26.6-1.7-39.7-2.8 M309.5,466.5c-7.3,0-14.8,0-22.3-0.1l0,0
				c0,0-0.5-4.1-0.8-10.1c-0.3-6.1-0.3-14.3,0.6-22.4c0.5-4.1,1.2-8.1,2.4-11.9c1.1-3.8,2.6-7.3,4.6-10.3c2-3,4.4-5.5,7.5-7.2
				c1.4-0.8,2.9-1.4,4.5-1.8 M279.1,449.2c0-0.3-0.1-0.6-0.1-0.9c-0.5-6.4-0.7-14.6,0.4-23.1c0.6-4.2,1.4-8.4,2.7-12.3
				c1.3-3.9,3-7.6,5.1-10.7c2.2-3.1,4.8-5.8,8.1-7.6c3.3-1.9,7.1-3,11.7-3.1c4.6-0.1,8.5,0.8,11.8,2.6c1.5,0.8,2.8,1.7,4.1,2.7
				 M302.6,398.2c1.7-0.4,3.6-0.6,5.6-0.6c4.1,0.1,7.6,1.1,10.5,2.9c2.9,1.8,5.3,4.3,7.3,7.3c2,3,3.5,6.5,4.7,10.2
				c1.2,3.7,2.1,7.6,2.7,11.4c1.3,7.6,1.7,15.2,1.8,20.6c0,0.6,0,1.1,0,1.7 M328.7,438c0,5.7-0.3,11.2-0.6,15.6
				c-0.2,3.1-0.5,5.7-0.7,7.6c-0.1,0.9-0.2,1.6-0.2,2.1c0,0.2-0.1,0.4-0.1,0.6c0,0.1,0,0.1,0,0.1c0,0,0,0,0,0c0,0,0,0,0,0l0,0
				c-15.3-0.6-30-1.2-44.3-2l0,0c0,0,0-0.5-0.1-1.5 M302.9,458.5c-5-0.2-10-0.3-15.1-0.4l0,0c0,0-0.6-4.1-1.1-10.1
				c-0.5-5.9-0.9-14-0.3-21.7c0.3-3.9,0.8-7.7,1.6-11.3c0.7-3,1.7-5.8,2.9-8.3 M283.7,453.4c0-0.6,0-1.2-0.1-1.8
				c-0.2-6-0.2-14.3,0.7-22.6c0.5-4.2,1.1-8.4,2.2-12.4c1-4,2.4-7.7,4.3-11c1.8-3.2,4.1-6,7-8c2.9-2,6.3-3.2,10.4-3.5
				c4.1-0.3,7.5,0.5,10.3,2.1c2.8,1.6,5,4,6.8,6.8c0.1,0.1,0.2,0.3,0.3,0.4 M307.5,391.7c1-0.1,2.1-0.1,3.2-0.1
				c4.1,0.2,7.6,1.4,10.5,3.3c2.9,2,5.3,4.7,7.2,7.9c1.9,3.2,3.4,7,4.5,11.1c1.1,4,1.9,8.3,2.5,12.7c1.1,8.6,1.2,17.3,1.1,23.9
				c-0.1,3.3-0.2,6-0.3,8c-0.1,1-0.1,1.7-0.1,2.2c0,0.3,0,0.5,0,0.6c0,0.1,0,0.1,0,0.2c0,0,0,0,0,0c0,0,0,0,0,0l0,0
				c-2.6,0.1-5.2,0.2-7.7,0.3 M333.1,446.6c0,2.2,0,4.2-0.1,6c-0.1,3.2-0.3,5.8-0.5,7.7c-0.1,0.9-0.2,1.7-0.2,2.1
				c0,0.2-0.1,0.4-0.1,0.6c0,0.1,0,0.1,0,0.1c0,0,0,0,0,0c0,0,0,0,0,0l0,0c-15.3-0.4-31.2-1-47.1-1.7l0,0c0,0-0.7-4.2-1.1-10.5
				c-0.2-2.5-0.3-5.4-0.4-8.5 M279.7,454.5c-0.1-1.7-0.3-4.7-0.4-8.5c-0.2-6-0.1-14.4,0.8-22.7c0.5-4.2,1.2-8.4,2.2-12.4
				c1-4,2.4-7.7,4.3-10.9c1.9-3.2,4.2-5.9,7.1-7.9c2.9-2,6.3-3.2,10.4-3.4c4.1-0.2,7.5,0.6,10.4,2.3c0.6,0.3,1.1,0.7,1.7,1.1
				 M292.1,398.5c3.1-1.7,6.7-2.7,10.9-2.6c4.3,0.1,7.9,1.3,10.9,3.3c3,2,5.4,4.8,7.4,8.2c1.9,3.4,3.4,7.3,4.5,11.6
				c1.1,4.3,1.9,8.9,2.4,13.5c1,9.2,1.1,18.9,0.9,26.1c0,1.5-0.1,3-0.1,4.3 M333.6,434.7c0,6.7-0.4,13-1,18.1c-0.3,3.3-0.7,6-1,8
				c-0.1,1-0.3,1.7-0.3,2.2c0,0.3-0.1,0.5-0.1,0.6c0,0.1,0,0.1,0,0.2c0,0,0,0,0,0c0,0,0,0,0,0l0,0c-15.6,0.3-31.3,0.9-47.2,2
				 M302.4,460.1c-5.8-0.3-11.7-0.6-17.6-0.8l0,0c0,0-0.6-4.2-1.1-10.4c-0.5-6.2-0.8-14.4-0.3-22.6c0.3-4.1,0.8-8.2,1.7-12
				c0.9-3.8,2.1-7.4,3.8-10.4c0.8-1.4,1.6-2.6,2.6-3.8 M282.6,457.2c-0.2-1.4-0.3-3.2-0.5-5.1c-0.4-6.1-0.5-14,0.6-22.1
				c0.5-4,1.4-8,2.6-11.8c1.2-3.8,2.8-7.3,4.9-10.3c2.1-3,4.6-5.5,7.8-7.2c3.1-1.7,6.9-2.6,11.3-2.5c4.5,0.2,8.2,1.3,11.4,3.3
				c2.2,1.4,4.1,3.1,5.8,5.2 M303.4,398.6c2.1-0.6,4.4-1,6.9-0.9c4.3,0,7.8,1,10.7,2.8c2.9,1.8,5.3,4.3,7.2,7.3
				c1.9,3,3.2,6.5,4.3,10.2c1,3.7,1.6,7.6,2,11.5c0.7,7.8,0.4,15.4-0.1,21c-0.3,2.8-0.5,5.1-0.8,6.8c-0.1,0.8-0.2,1.5-0.3,1.9
				c0,0.2-0.1,0.4-0.1,0.5c0,0.1,0,0.1,0,0.1c0,0,0,0,0,0c0,0,0,0,0,0l0,0c-3.7-0.5-7.4-1.1-11-1.7 M333.1,442.4
				c-0.1,2.5-0.2,4.9-0.4,7c-0.2,3.2-0.5,5.9-0.7,7.8c-0.1,0.9-0.2,1.7-0.3,2.2c0,0.3-0.1,0.4-0.1,0.6c0,0.1,0,0.1,0,0.1
				c0,0,0,0,0,0c0,0,0,0,0,0l0,0c-15.5,0-31,0.1-46.3,0.7l0,0c0,0-0.5-3.9-0.7-9.6c-0.2-5.7-0.1-13.2,1.1-20.6
				c0-0.2,0.1-0.4,0.1-0.6"/>

				<path id="path3837" inkscape:path-effect="#path-effect3839" sodipodi:cx="-3.3557467" sodipodi:cy="340.27274" sodipodi:rx="23.490227" sodipodi:ry="18.121033" sodipodi:type="arc" class="st12" d="
				M315.6,370.2c-0.8,2.2-2,4.3-3.6,5.9c-2.9,3.1-6.9,4.9-11,5c-4.2,0.1-8.1-1.6-11.1-4.5c-2.9-2.9-4.6-6.9-4.5-11.1
				c0-4.2,1.7-8.2,4.7-11.1c1.1-1.1,2.3-2,3.7-2.7 M291.5,370.3c0.3-3.7,1.8-7.1,4.3-9.7c2.9-3,7-4.7,11.3-4.8
				c4.3,0,8.5,1.6,11.7,4.6c3.2,3,5.1,7,5.4,11.2c0.1,2.3-0.2,4.6-1,6.7 M324.6,371.6c-0.7,1.4-1.6,2.6-2.6,3.7
				c-3,3.1-7.1,4.9-11.4,4.9c-4.3,0.1-8.6-1.6-11.8-4.6c-3.2-3-5.1-7-5.4-11.3c-0.3-4.2,1.1-8.3,3.6-11.3c0.5-0.6,1-1.1,1.6-1.6
				 M286.9,373.6c0.4-3.8,2-7.4,4.7-10.1c3-3.1,7.2-4.9,11.6-4.9c4.4-0.1,8.6,1.5,11.8,4.4c3.2,2.9,5.1,6.9,5.4,11
				c0.3,4.1-1.1,8.1-3.7,11c-2.3,2.6-5.5,4.1-8.7,4.2 M318.3,377c-0.8,1.6-1.8,3-3,4.2c-3,3-6.9,4.6-11.1,4.5c-4.1-0.1-8.1-1.9-11-5
				c-2.9-3.1-4.5-7.3-4.4-11.7c0.1-4.4,1.9-8.6,5-11.9c2.2-2.3,5-4,8-4.9 M291.6,366.1c0.8-2.2,2.2-4.1,3.9-5.8c3-2.8,7-4.5,11-4.6
				c4.1-0.1,7.9,1.4,10.6,4.1c2.7,2.7,4.2,6.5,3.9,10.4c-0.3,3.9-2.2,7.6-5.6,10.2c-0.4,0.3-0.8,0.6-1.2,0.8 M319.9,376.8
				c-0.4,3.8-2,7.2-4.6,9.9c-3,3-7,4.6-11.1,4.4c-4.1-0.1-8.1-2-10.9-5.2c-2.9-3.2-4.4-7.4-4.3-11.9c0.1-3.2,1-6.4,2.8-9.1
				 M287.4,373.6c-0.5-1.6-0.7-3.3-0.7-5c0.1-4.1,1.9-8.1,4.9-11.2c3-3,7.1-4.8,11.4-5c4.2-0.2,8.3,1.2,11.3,4
				c2.7,2.4,4.4,5.7,4.7,9.2 M313.6,354.8c0.2,0.2,0.4,0.4,0.6,0.6c2.8,2.8,4.5,6.7,4.4,10.9c0,4.2-1.7,8.3-4.5,11.4
				c-2.9,3.1-6.8,5-10.8,5.4c-4,0.4-7.8-0.9-10.6-3.4c-2.7-2.5-4.2-6.1-4-9.9c0.1-2.6,1.1-5.2,2.8-7.3 M318.8,381.6
				c-0.8,2.5-2.3,4.8-4.2,6.6c-3,2.8-7,4.2-11.1,3.9c-4.1-0.3-7.9-2.3-10.7-5.7c-2.7-3.3-4.2-7.8-3.9-12.4c0.3-4.6,2.2-9.1,5.5-12.7
				c2.9-3.1,6.6-5.4,10.6-6.5 M290.3,366.5c0.8-2.5,2.2-4.8,4-6.7c3-3.1,7-4.7,11.2-4.7c4.2,0,8.1,1.8,11,4.9
				c2.9,3.1,4.4,7.3,4.3,11.7c-0.1,4.4-1.9,8.6-5,11.8c-1.3,1.3-2.8,2.4-4.4,3.3"/>
		</g>

			<path id="path3847" inkscape:original-d="m 232.21767,461.75075 c 0,0 -9.39609,-65.77264 24.16138,-65.77264 33.55746,0 22.81907,67.11494 22.81907,67.11494 l -46.98045,-1.3423 z" inkscape:path-effect="#path-effect3857" class="st9" d="
			M232.8,457.5c-0.1-1.1-0.3-2.4-0.4-3.7c-0.6-6-0.9-14-0.2-21.9c0.3-4,0.9-7.9,1.9-11.6c1-3.7,2.3-7.1,4.1-10
			c1.8-2.9,4-5.3,6.8-6.8c2.8-1.6,6.2-2.4,10.1-2c3,0.2,5.6,1.1,7.8,2.4 M247.6,397.8c2.8-1.8,6.2-2.9,10.2-3
			c4.1-0.1,7.6,0.8,10.4,2.6c2.9,1.7,5.2,4.3,7,7.3c1.8,3,3.1,6.6,4.1,10.4c1,3.8,1.6,7.8,1.9,11.8c0.4,5,0.4,9.9,0.2,14.4
			 M276.4,435.2c0,0.1,0,0.2,0,0.3c1,8.6,0.9,16.9,0.5,23.1c-0.2,3.1-0.5,5.7-0.7,7.5c-0.1,0.9-0.2,1.6-0.3,2.1
			c0,0.2-0.1,0.4-0.1,0.5c0,0.1,0,0.1,0,0.1c0,0,0,0,0,0c0,0,0,0,0,0l0,0c-13.4-0.7-26.9-1.8-40.4-3 M263.6,464.2
			c-7.6,0.1-15.2,0-23-0.3l0,0c0,0-0.6-4.1-1.1-10.3c-0.5-6.2-0.8-14.7-0.1-23.1c0.3-4.2,0.9-8.5,1.8-12.5c0.9-4,2.2-7.7,4-10.9
			c1.8-3.2,4-5.9,6.8-7.8c1.3-0.9,2.6-1.6,4.1-2.1 M232.5,451.1c0-0.3,0-0.6,0-0.9c-0.2-5.8-0.2-14,0.8-22.2
			c0.5-4.1,1.2-8.3,2.3-12.3c1.1-4,2.5-7.7,4.4-10.9c1.9-3.2,4.2-6,7.2-7.9c2.9-2,6.4-3.2,10.5-3.5c4.1-0.3,7.6,0.6,10.5,2.2
			c1.3,0.7,2.5,1.6,3.5,2.6 M254.9,393c1.8-0.5,3.8-0.7,5.9-0.7c4.3,0,7.9,1.1,10.8,3c3,1.9,5.3,4.6,7.2,7.8c1.9,3.2,3.3,7,4.3,11
			c1,4.1,1.6,8.4,2,12.7c0.7,8.7,0.4,17.5-0.1,24.2c-0.1,0.7-0.1,1.4-0.2,2 M283,441.1c-0.1,5.8-0.5,11.1-1,15.5
			c-0.4,3.1-0.8,5.7-1.1,7.5c-0.2,0.9-0.3,1.6-0.4,2.1c0,0.2-0.1,0.4-0.1,0.5c0,0.1,0,0.1,0,0.1c0,0,0,0,0,0c0,0,0,0,0,0l0,0
			c-16.3-0.9-32.7-2-49.7-3.6l0,0c0,0-0.1-0.6-0.3-1.6 M251.1,459.4c-5.3,0-10.6-0.1-15.9-0.2c0,0,0,0,0,0c0,0-0.7-4.1-1.3-10.3
			c-0.6-6.2-1-14.6-0.3-23.1c0.3-4.3,0.9-8.5,1.8-12.6c0.8-3.4,1.8-6.6,3.1-9.5 M224.6,447.3c0-0.6,0-1.2,0-1.9
			c-0.1-6.3,0-14.6,1.2-22.6c0.6-4,1.4-8,2.6-11.7c1.2-3.7,2.7-7.1,4.8-10c2-2.9,4.5-5.2,7.6-6.8c3.1-1.6,6.7-2.3,11.1-2
			c4.4,0.3,8,1.7,11.1,3.9c3.1,2.2,5.6,5.1,7.7,8.6c0.1,0.2,0.2,0.4,0.3,0.5 M249.2,397.4c1-0.1,2.1-0.2,3.2-0.2
			c4.2,0.1,7.6,1.1,10.5,3c2.9,1.9,5.2,4.5,7.1,7.6c1.8,3.1,3.2,6.8,4.2,10.7c1,3.9,1.7,8,2.1,12.2c0.8,8.3,0.5,16.5,0.1,22.7
			c-0.2,3.1-0.5,5.7-0.7,7.5c-0.1,0.9-0.2,1.6-0.3,2.1c0,0.2-0.1,0.4-0.1,0.6c0,0.1,0,0.1,0,0.1c0,0,0,0,0,0c0,0,0,0,0,0l0,0
			c-2.8-0.1-5.5-0.3-8.3-0.4 M278.9,440.5c-0.2,2.2-0.4,4.3-0.6,6.2c-0.4,3.3-0.7,6-1,7.9c-0.1,0.9-0.3,1.7-0.4,2.2
			c0,0.3-0.1,0.4-0.1,0.6c0,0.1,0,0.1,0,0.1c0,0,0,0,0,0c0,0,0,0,0,0l0,0c-16.2,0-32.3-0.3-48.6-0.4l0,0c0,0-0.8-4-1.5-10
			c-0.3-2.4-0.6-5.1-0.8-8.1 M231.1,451.6c-0.1-1.8-0.3-4.9-0.4-8.8c-0.2-6.1-0.2-14.4,0.6-22.1c0.4-3.9,1.1-7.8,2.1-11.4
			c1-3.6,2.3-6.9,4.2-9.7c1.8-2.8,4.1-5,6.9-6.5c2.8-1.5,6.2-2.1,10.3-1.6c4,0.5,7.4,2,10.2,4.2c0.6,0.5,1.1,1,1.6,1.5 M239.9,402
			c2.9-1.7,6.4-2.6,10.6-2.5c4.2,0.1,7.8,1.3,10.8,3.2c3,1.9,5.5,4.7,7.5,8c2,3.3,3.6,7.1,4.9,11.3c1.3,4.1,2.2,8.6,3,13
			c1.4,8.8,2,18,2.3,24.8c0.1,1.4,0.1,2.8,0.1,4 M277.9,438c0.2,6.6,0.1,12.9-0.2,17.8c-0.2,3.2-0.4,5.9-0.5,7.8
			c-0.1,0.9-0.2,1.7-0.2,2.2c0,0.3,0,0.4-0.1,0.6c0,0.1,0,0.1,0,0.1c0,0,0,0,0,0c0,0,0,0,0,0v0c-14.7-0.2-28.9-0.8-42.6-1.1
			 M252.6,453.3c-6.1-0.5-12.1-0.8-18.2-1c0,0,0,0,0,0c0,0-0.7-4.2-1.4-10.3c-0.6-6.1-1.1-14.2-0.7-22.1c0.2-4,0.7-7.9,1.5-11.6
			c0.8-3.7,1.9-7.1,3.5-10c0.7-1.3,1.5-2.5,2.4-3.6 M231.3,455.9c-0.2-1.5-0.4-3.2-0.6-5.1c-0.6-6.1-0.9-14-0.1-22
			c0.4-4,1.1-7.9,2.2-11.6c1.1-3.7,2.5-7.1,4.5-10c1.9-2.9,4.3-5.2,7.3-6.8c3-1.6,6.5-2.3,10.7-2c4.2,0.3,7.7,1.7,10.6,3.8
			c2,1.5,3.7,3.4,5.2,5.6 M251.6,396.4c2.1-0.7,4.4-1,6.9-1c4.2,0,7.7,1,10.5,2.9c2.9,1.8,5.1,4.4,6.8,7.5c1.7,3.1,2.9,6.7,3.7,10.6
			c0.8,3.9,1.2,8,1.2,12.1c0.2,8.2-0.9,16.3-2,22.4c-0.6,3-1.1,5.6-1.6,7.3c-0.2,0.9-0.4,1.6-0.5,2.1c-0.1,0.2-0.1,0.4-0.1,0.5
			c0,0.1,0,0.1,0,0.1c0,0,0,0,0,0c0,0,0,0,0,0l0,0c-4.1-0.2-8.2-0.5-12.3-0.8 M281.1,443.8c-0.1,2.5-0.2,4.9-0.4,7
			c-0.2,3.3-0.5,6-0.7,7.9c-0.1,0.9-0.2,1.7-0.3,2.2c0,0.3-0.1,0.4-0.1,0.6c0,0.1,0,0.1,0,0.1c0,0,0,0,0,0c0,0,0,0,0,0l0,0
			c-15.5,0-30.9,0-46.2,0.2l0,0c0,0-0.5-3.9-0.6-9.8c-0.2-5.8,0-13.5,1.3-21c0-0.2,0.1-0.4,0.1-0.6"/>

			<path id="path3849" inkscape:path-effect="#path-effect3839" sodipodi:cx="-3.3557467" sodipodi:cy="340.27274" sodipodi:rx="23.490227" sodipodi:ry="18.121033" sodipodi:type="arc" class="st12" d="
			M263.2,370.2c-0.8,2.2-2,4.3-3.6,5.9c-2.9,3.1-6.9,4.9-11,5c-4.2,0.1-8.1-1.6-11.1-4.5c-2.9-2.9-4.6-6.9-4.5-11.1
			c0-4.2,1.7-8.2,4.7-11.1c1.1-1.1,2.3-2,3.7-2.7 M239.1,370.3c0.3-3.7,1.8-7.1,4.3-9.7c2.9-3,7-4.7,11.3-4.8
			c4.3,0,8.5,1.6,11.7,4.6c3.2,3,5.1,7,5.4,11.2c0.1,2.3-0.2,4.6-1,6.7 M272.2,371.6c-0.7,1.4-1.6,2.6-2.6,3.7
			c-3,3.1-7.1,4.9-11.4,4.9c-4.3,0.1-8.6-1.6-11.8-4.6c-3.2-3-5.1-7-5.4-11.3c-0.3-4.2,1.1-8.3,3.6-11.3c0.5-0.6,1-1.1,1.6-1.6
			 M234.6,373.6c0.4-3.8,2-7.4,4.7-10.1c3-3.1,7.2-4.9,11.6-4.9c4.4-0.1,8.6,1.5,11.8,4.4c3.2,2.9,5.1,6.9,5.4,11
			c0.3,4.1-1.1,8.1-3.7,11c-2.3,2.6-5.5,4.1-8.7,4.2 M266,377c-0.8,1.6-1.8,3-3,4.2c-3,3-6.9,4.6-11.1,4.5c-4.1-0.1-8.1-1.9-11-5
			c-2.9-3.1-4.5-7.3-4.4-11.7c0.1-4.4,1.9-8.6,5-11.9c2.2-2.3,5-4,8-4.9 M239.3,366.1c0.8-2.2,2.2-4.1,3.9-5.8c3-2.8,7-4.5,11-4.6
			c4.1-0.1,7.9,1.4,10.6,4.1c2.7,2.7,4.2,6.5,3.9,10.4c-0.3,3.9-2.2,7.6-5.6,10.2c-0.4,0.3-0.8,0.6-1.2,0.8 M267.6,376.8
			c-0.4,3.8-2,7.2-4.6,9.9c-3,3-7,4.6-11.1,4.4c-4.1-0.1-8.1-2-10.9-5.2c-2.9-3.2-4.4-7.4-4.3-11.9c0.1-3.2,1-6.4,2.8-9.1
			 M235,373.6c-0.5-1.6-0.7-3.3-0.7-5c0.1-4.1,1.9-8.1,4.9-11.2c3-3,7.1-4.8,11.4-5c4.2-0.2,8.3,1.2,11.3,4c2.7,2.4,4.4,5.7,4.7,9.2
			 M261.3,354.8c0.2,0.2,0.4,0.4,0.6,0.6c2.8,2.8,4.5,6.7,4.4,10.9c0,4.2-1.7,8.3-4.5,11.4c-2.9,3.1-6.8,5-10.8,5.4
			c-4,0.4-7.8-0.9-10.6-3.4c-2.7-2.5-4.2-6.1-4-9.9c0.1-2.6,1.1-5.2,2.8-7.3 M266.5,381.6c-0.8,2.5-2.3,4.8-4.2,6.6
			c-3,2.8-7,4.2-11.1,3.9c-4.1-0.3-7.9-2.3-10.7-5.7c-2.7-3.3-4.2-7.8-3.9-12.4c0.3-4.6,2.2-9.1,5.5-12.7c2.9-3.1,6.6-5.4,10.6-6.5
			 M237.9,366.5c0.8-2.5,2.2-4.8,4-6.7c3-3.1,7-4.7,11.2-4.7c4.2,0,8.1,1.8,11,4.9c2.9,3.1,4.4,7.3,4.3,11.7
			c-0.1,4.4-1.9,8.6-5,11.8c-1.3,1.3-2.8,2.4-4.4,3.3"/>
		<g id="g3863" transform="matrix(1.0599748,0,0,1.0599748,-213.2444,-29.152079)">

				<path id="path3851" inkscape:original-d="m 416.1126,536.91948 c 0,0 -5.36919,37.58437 6.71149,55.03425 12.08069,17.44988 10.73839,20.13448 10.73839,20.13448 l 91.27632,0 c 0,0 -10.73839,-8.05379 -17.44989,-33.55747 -6.71149,-25.50367 -5.36919,-41.61126 -5.36919,-41.61126 l -85.90712,0 z" inkscape:path-effect="#path-effect3853" class="st13" d="
				M418.5,551.3c-0.1,3.6-0.2,8.7-0.1,14.1c0.2,5.7,0.7,12,1.8,18c1.1,6,3,11.6,5.8,16c5.7,8.7,8.2,13.9,9.3,16.8
				c1.1,2.9,0.7,3.6,0.7,3.6c0,0,0,0,0,0c2.4,0,4.8,0,7.2,0.1 M430,598.8c1.9,3.3,3,5.5,3.7,7.2c1.2,2.8,0.8,3.5,0.8,3.5
				c0,0,0,0,0,0c19.9-0.1,40.4,0.2,61.3,0.6 M473.9,615.8c15-0.3,30.6-0.6,46.5-1.2c0,0,0,0,0,0c0,0-7.7-6.1-13.6-24.7 M519.7,607.8
				c-3.1-5-6.7-12.9-9.7-24.5c-6.3-25.1-5-41.1-5-41.1v0c-8.5,0.1-16.9,0.3-25.1,0.5 M497.4,535.2c0-1,0-1.5,0-1.5c0,0,0,0,0,0
				c-28.5-0.7-54.1-0.8-78.5-1.8 M439.9,538.4c-8.3,0.2-16.4,0.2-24.3-0.1l0,0c0,0-1.2,9.1-0.4,19.9c0.4,5.4,1.3,11.1,3,16.4
				c1.3,4,3,7.7,5.2,10.9 M410.8,547.3c-0.3,3.3-0.5,7.3-0.5,11.6c0.1,5.8,0.6,12,2,18c1.4,5.9,3.6,11.5,6.9,15.8
				c6.7,8.6,9.7,13.3,11.2,16.2c1.4,2.8,1.2,3.5,1.2,3.5c0,0,0,0,0,0c1.7,0,3.3-0.1,5-0.1 M431.9,597.4c2.1,3.3,3.3,5.8,4,7.4
				c1.2,2.9,0.9,3.6,0.9,3.6c0,0,0,0,0,0c19.4,0.1,37.9,1.1,55.9,2.6 M476.9,612.2c16.4,0.3,32.3,0,48-0.7c0,0,0,0,0,0
				c0,0-11-8.4-18.5-35.8c-0.6-2.1-1.1-4.2-1.6-6.1 M516.1,592.4c-2.4-4.5-4.9-10.3-6.8-17.7c-6.5-24.7-4.1-40.4-4.1-40.4v0
				c-9.3,0.3-18.4,0.8-27.5,1.4 M497.7,536.8c-25.8,0.4-53.8,0-81.3-0.5l0,0c0,0,0,0.2-0.1,0.7 M431,531.3c-6.2,0.2-12.5,0.2-19,0.2
				l0,0c0,0-1.2,9.4-1.1,20.7c0,5.6,0.4,11.7,1.5,17.4c1.1,5.7,2.9,11,5.8,15.1c3.4,4.8,5.7,8.4,7.3,11.1 M409.2,545.2
				c-0.1,3.5-0.1,8,0.1,12.8c0.3,5.9,0.9,12.6,2.2,18.9c1.4,6.3,3.4,12.4,6.6,17.3c6.3,9.6,9.2,15.5,10.5,18.7c1.3,3.3,1,4,1,4.1
				c0,0,0,0,0,0c4.4,0.6,8.8,1.2,13.2,1.9 M431.1,603.7c0.9,1.8,1.5,3.3,1.9,4.4c1.1,3,0.7,3.7,0.7,3.7c0,0,0,0,0,0
				c21,1,42.3,2,63,4.2 M482.8,610c14.2-0.4,28.1-0.5,41.7-0.4c0,0,0,0,0,0c0,0-10.5-7.7-18.8-31.7 M513,598.1
				c-2.5-4.7-5.1-10.8-7.1-18.6c-6.4-24.9-3.9-40.6-3.9-40.6c0,0,0,0,0,0c-9.2,0.3-18.3,0.6-27.2,1.2 M499.5,538.5
				c-26.8,0.6-54.4-1.2-81.8-4.3l0,0c0,0-1,5.8-1.1,13.5 M415.9,535.1c-0.4,3.3-1.1,10.9-0.9,19.9c0.1,6,0.7,12.5,1.9,18.7
				c1.3,6.2,3.3,12.1,6.4,16.7c6.2,9.2,9.1,14.7,10.3,17.8s1,3.8,1,3.9c0,0,0,0,0,0c6.9,0.5,13.8,1.1,20.8,1.8 M430,599.3
				c1,1.9,1.7,3.3,2.2,4.5c1.2,2.9,0.9,3.6,0.9,3.6c0,0,0,0,0,0c24.9,0,50.6-0.7,77.4-1.8 M478.5,614.7c13.1-0.3,26.2-0.4,39.4-0.6
				c0,0,0,0,0,0c0,0-10.6-8.1-15.2-34.2c-0.9-5-1.4-9.6-1.8-13.9 M507.8,590c-1.1-3-2.1-6.4-3-10.2c-6.5-25.9-5.5-42.5-5.5-42.6v0
				c-14.1-0.5-28.3-1.1-42.5-2 M486.9,536.4c-24.3-1.2-47.2-0.3-69.7,0.8l0,0c0,0-0.9,9.9-0.1,22c0.1,2.1,0.3,4.2,0.6,6.4
				 M415,545.1c-0.3,3.8-0.7,9.4-0.6,15.5c0.1,5.6,0.6,11.6,1.8,17.2c1.2,5.6,3.1,10.8,6.2,14.7c6,7.8,8.7,12,9.9,14.5
				c1.2,2.5,0.9,3.1,0.9,3.1c0,0,0,0,0,0c6.8-0.9,13.6-1.9,20.3-3 M425,608.5c0.5,1,0.9,1.9,1.2,2.6c1.1,2.8,0.8,3.5,0.8,3.5
				c0,0,0,0,0,0c30.1-0.3,61.8-0.1,93.8-0.2c0,0,0,0,0,0c0,0-0.4-0.3-1.1-1 M494,605.1c9.6,0.4,19.1,0.8,28.4,1.2c0,0,0,0,0,0
				c0,0-2.7-1.9-6.3-6.8c-3.6-4.9-8.1-12.7-11.8-24.4c-2.6-8.1-4.1-14.9-5.1-20.4 M507.8,580.7c-0.1-0.3-0.2-0.6-0.2-0.8
				c-7.2-25.5-6.1-41.2-6.1-41.2v0c-9.6,0.2-19.3,0.5-29,0.8 M490.9,542.3c-23.9-0.7-48.1-0.5-72-0.6l0,0c0,0-0.8,6.1-0.9,14.5"/>

				<path id="path3859" inkscape:original-d="m 437.58938,567.79235 17.44988,20.13448 30.87287,-28.18827" inkscape:path-effect="#path-effect3861" class="st13" d="
				M439.9,576.3c4.2,4.9,8.5,9.9,12.8,14.8c7.9-7.5,15.9-15,23.9-22.6 M443.1,568.5c3.9,4.4,7.9,8.9,11.9,13.5
				c10-9,20.1-17.5,30.3-25.8 M445.6,573.4c4.8,5.3,9.5,10.6,14.2,15.9c8.4-7.8,16.7-15.7,25-23.7 M446.9,576.6
				c4.1,4.7,8.1,9.4,12,14c7.8-7.2,15.4-14.6,22.9-22.1 M435.6,569.8c5.3,6,10.6,12,16,18c9.8-8.8,19.7-17.5,29.8-26.2"/>
		</g>
		<g id="g5260" inkscape:export-xdpi="165.44003" inkscape:export-ydpi="165.44003">

				<path id="path3867" inkscape:original-d="m 416.42668,568.1828 c 3.42381,-27.21473 33.32832,-43.01478 59.98283,-36.54168 26.65451,6.4731 43.01477,33.32832 36.54167,59.98283 -6.47309,26.65451 -33.32832,43.01478 -59.98283,36.54168 -22.48477,-5.46047 -38.2199,-25.72454 -37.94086,-48.86118" inkscape:path-effect="#path-effect5254" sodipodi:nodetypes="csssc" class="st12" d="
				M419.9,567.2c1.4-4.4,3.5-8.4,6.1-12c3.8-5.3,8.7-9.7,14.3-12.9c11.2-6.6,24.9-8.7,37.9-5.4c2.6,0.7,5,1.5,7.3,2.6 M465.3,528.9
				c3.7,0,7.5,0.4,11.2,1.3c13.3,3.2,24.2,11.6,31.2,22.6c3.9,6.1,6.5,13,7.6,20.3 M506.6,561.7c4.1,9.6,5.3,20.8,2.7,31.8
				c-3.2,13-11.2,23.4-21.8,29.4c-0.7,0.4-1.4,0.8-2,1.1 M502.3,615.6c-3,3.7-6.6,6.8-10.5,9.4c-10.6,6.8-23.9,9.4-37.1,6.3
				c-11.2-2.6-20.7-9-27.2-17.4c-1.7-2.2-3.1-4.5-4.4-6.9 M436.2,620.5c-5.6-3.3-10.3-7.6-14.1-12.6c-4.8-6.4-7.9-13.9-8.9-22
				 M417.9,561.5c1.2-3.5,2.8-6.7,5-9.7c3.7-5.2,8.6-9.7,14.4-13.2c11.6-7,26.4-10.3,40.7-8.3c2.1,0.3,4.2,0.7,6.2,1.2 M461.4,530.3
				c3.7,0.1,7.5,0.5,11.2,1.4c13.3,3.2,24.4,11.4,31.6,22.1c4.5,6.7,7.5,14.4,8.6,22.5 M512.6,558.1c4.1,9.4,5.2,20.2,2.4,31.3
				c-3.5,13.6-12.3,24.9-23.7,32.3 M502.9,613.5c-3.2,3.9-7.1,7.2-11.4,9.8c-10.8,6.6-24.3,8.8-37.9,5
				c-11.5-3.2-21.3-10.2-28.3-19.5c-1-1.3-1.9-2.6-2.7-4 M442.7,620.5c-6.3-3.1-11.7-7.5-15.9-12.7c-6.3-8-9.9-18-9.7-28.7
				 M418.1,564c1.4-4.8,3.7-9.1,6.5-13c3.8-5.2,8.8-9.5,14.4-12.8c11.2-6.6,25.2-9.1,38.3-6c2.7,0.6,5.3,1.5,7.8,2.5 M461.5,526.7
				c4.1,0.1,8.2,0.6,12.2,1.6c13.6,3.3,24.3,11.4,30.7,21.9c6.4,10.5,8.6,23.3,5.2,36l0,0 M508.3,566.5c2.2,7.7,2.5,16.1,0.7,24.6
				c-3,13.9-11.1,25.5-21.6,33.3c-5.6,4.2-11.8,7.2-18.3,9.1 M491.6,620.8c-0.2,0.1-0.4,0.2-0.6,0.4c-11.3,7.1-24.9,10-38.5,7.4
				c-11.5-2.2-21.4-8-28.5-15.7c-0.1-0.1-0.2-0.2-0.3-0.3 M437.1,620.3c-4.4-3.1-8.2-6.8-11.5-11c-5.2-6.8-8.9-14.8-10.4-23.4
				 M417.1,560.2c1.2-3.5,2.9-6.7,5.1-9.7c3.7-5.1,8.7-9.3,14.4-12.5c11.5-6.3,26.1-8.4,40.1-4.8c7.5,1.9,14.2,5.3,20.1,9.9
				 M474,532.7c1.4,0.2,2.7,0.5,4,0.9c13.5,3.4,24.3,11.4,30.9,21.6c6.6,10.2,9,22.7,5.7,34.8c-1.2,4.6-3.2,8.8-5.8,12.5
				 M514.6,576.3c0.1,4.4-0.3,8.9-1.3,13.3c-3.2,13.6-11.4,24.7-22,31.8c-10.7,7.1-23.8,10.3-36.8,8.1c-2.2-0.4-4.3-0.9-6.3-1.5
				 M473.5,625.6c-7,1.5-14.3,1.5-21.6-0.4c-11-2.8-20.2-9.5-26.3-18.4c-5-7.2-8-15.9-8.4-25.3 M412.9,559.9c1.3-3.1,2.9-6,4.9-8.7
				c3.9-5.3,8.9-9.7,14.8-13c11.6-6.7,26.3-9.1,40.4-6.1c7.5,1.6,14.4,4.6,20.3,8.7 M471.3,532.8c1.1,0.2,2.2,0.4,3.2,0.6
				c13.4,3.1,24.2,11.3,30.7,21.8c6.5,10.6,8.8,23.6,5.4,36.3c-1.1,4.2-2.8,8.1-4.9,11.6 M513.7,577.1c0.1,4.3-0.5,8.7-1.6,13.1
				c-3.3,13.1-11.4,24.1-21.9,31.1c-10.5,7-23.3,10-36.1,7.3c-2-0.4-3.9-1-5.8-1.7 M473.9,631.2c-7.1,1.4-14.7,1.3-22.2-0.8
				c-11.2-3.1-20.8-10.2-27.5-19.7c-6.2-8.8-10-19.6-10.4-31.5"/>

				<path id="path5256" inkscape:original-d="m 402.32875,537.16943 15.2966,27.12701 25.08467,-11.18637" inkscape:path-effect="#path-effect5258" sodipodi:nodetypes="ccc" class="st9" d="
				M403,543.1c3.7,7.5,7.6,14.8,11.6,22.2c5.5-2.3,11-4.6,16.5-6.9 M410.2,544.1c3.6,6.4,7.1,12.9,10.7,19.3
				c7.6-3.7,15.2-7.4,22.7-11.2 M402.7,542.3c4.6,7.6,9.1,15.2,13.7,22.9c6.2-2.6,12.5-5.1,18.8-7.6 M405,548.8
				c3.5,6.5,7.2,13.1,11.1,19.6c5.5-2.4,11-4.8,16.7-7.2 M401.8,538.1c4.9,8.6,9.7,17.1,14.6,25.4c7.6-3.3,15.3-6.7,23-10.1"/>
		</g>
	</g>
</g>
</svg>
