<?xml version="1.0" encoding="UTF-8" standalone="no"?>
<!-- Created with Inkscape (http://www.inkscape.org/) -->

<svg
   xmlns:dc="http://purl.org/dc/elements/1.1/"
   xmlns:cc="http://creativecommons.org/ns#"
   xmlns:rdf="http://www.w3.org/1999/02/22-rdf-syntax-ns#"
   xmlns:svg="http://www.w3.org/2000/svg"
   xmlns="http://www.w3.org/2000/svg"
   xmlns:xlink="http://www.w3.org/1999/xlink"
   xmlns:sodipodi="http://sodipodi.sourceforge.net/DTD/sodipodi-0.dtd"
   xmlns:inkscape="http://www.inkscape.org/namespaces/inkscape"
   width="617.59998"
   height="619.73334"
   id="svg2"
   version="1.1"
   inkscape:version="0.92.1 r"
   sodipodi:docname="SoCraTes_socrates-conference.de.svg"
   inkscape:export-filename="/Users/leider/Documents/Softwerkskammer/softwerkskammer-logos/SoCraTes/2016/SoCraTesWappen_2017.png"
   inkscape:export-xdpi="89.957222"
   inkscape:export-ydpi="89.957222">
  <defs
     id="defs4">
    <inkscape:path-effect
       effect="sketch"
       id="path-effect5258"
       is_visible="true"
       nbiter_approxstrokes="5"
       strokelength="100"
       strokelength_rdm="0.3;1"
       strokeoverlap="0.3"
       strokeoverlap_rdm="0.3;1"
       ends_tolerance="0.1;1"
       parallel_offset="3;1"
       tremble_size="4;1896651304"
       tremble_frequency="1"
       nbtangents="0"
       tgt_places_rdmness="1;1"
       tgtscale="10"
       tgtlength="100"
       tgtlength_rdm="0.3;1" />
    <inkscape:path-effect
       effect="sketch"
       id="path-effect5254"
       is_visible="true"
       nbiter_approxstrokes="5"
       strokelength="100"
       strokelength_rdm="0.3;1"
       strokeoverlap="0.3"
       strokeoverlap_rdm="0.3;1"
       ends_tolerance="0.1;1"
       parallel_offset="3;1"
       tremble_size="4;1"
       tremble_frequency="1"
       nbtangents="0"
       tgt_places_rdmness="1;1"
       tgtscale="10"
       tgtlength="100"
       tgtlength_rdm="0.3;1" />
    <marker
       inkscape:stockid="Arrow2Mend"
       orient="auto"
       refY="0"
       refX="0"
       id="Arrow2Mend"
       style="overflow:visible">
      <path
         id="path4082"
         style="font-size:12px;fill-rule:evenodd;stroke-width:0.40000001;stroke-linejoin:round"
         d="M -5.5798962,-2.5815905 1.4126653,-0.01024849 -5.5798966,2.561093 c 1.117119,-1.518119 1.1106821,-3.5951692 4e-7,-5.1426835 z"
         inkscape:connector-curvature="0" />
    </marker>
    <marker
       inkscape:stockid="Arrow1Mend"
       orient="auto"
       refY="0"
       refX="0"
       id="Arrow1Mend"
       style="overflow:visible">
      <path
         id="path4064"
         d="M -4.2666667,0 -6.4,2.1333333 1.0666667,0 -6.4,-2.1333333 Z"
         style="fill-rule:evenodd;stroke:#000000;stroke-width:0.42666668pt;marker-start:none"
         inkscape:connector-curvature="0" />
    </marker>
    <marker
       inkscape:stockid="Arrow1Lend"
       orient="auto"
       refY="0"
       refX="0"
       id="Arrow1Lend"
       style="overflow:visible">
      <path
         id="path4058"
         d="M -10.666667,0 -14.933333,4.2666667 0,0 -14.933333,-4.2666667 Z"
         style="fill-rule:evenodd;stroke:#000000;stroke-width:0.85333335pt;marker-start:none"
         inkscape:connector-curvature="0" />
    </marker>
    <inkscape:path-effect
       effect="sketch"
       id="path-effect3861"
       is_visible="true"
       nbiter_approxstrokes="5"
       strokelength="100"
       strokelength_rdm="0.1;2026920370"
       strokeoverlap="0.3"
       strokeoverlap_rdm="0.3;1"
       ends_tolerance="0.1;1"
       parallel_offset="3;294185633"
       tremble_size="3;2112635550"
       tremble_frequency="1"
       nbtangents="0"
       tgt_places_rdmness="1;1"
       tgtscale="10"
       tgtlength="100"
       tgtlength_rdm="0.3;1" />
    <inkscape:path-effect
       tgtlength_rdm="0.3;1"
       tgtlength="100"
       tgtscale="10"
       tgt_places_rdmness="1;1"
       nbtangents="0"
       tremble_frequency="1"
       tremble_size="5;568508735"
       parallel_offset="5;1"
       ends_tolerance="0.1;1"
       strokeoverlap_rdm="0.3;1"
       strokeoverlap="0.3"
       strokelength_rdm="0.3;1"
       strokelength="100"
       nbiter_approxstrokes="5"
       is_visible="true"
       id="path-effect3857"
       effect="sketch" />
    <inkscape:path-effect
       effect="sketch"
       id="path-effect3853"
       is_visible="true"
       nbiter_approxstrokes="5"
       strokelength="100"
       strokelength_rdm="0.3;1"
       strokeoverlap="0.3"
       strokeoverlap_rdm="0.3;1"
       ends_tolerance="0.1;1"
       parallel_offset="5;1"
       tremble_size="5;1"
       tremble_frequency="1"
       nbtangents="0"
       tgt_places_rdmness="1;1"
       tgtscale="10"
       tgtlength="100"
       tgtlength_rdm="0.3;1" />
    <inkscape:path-effect
       effect="sketch"
       id="path-effect3839"
       is_visible="true"
       nbiter_approxstrokes="5"
       strokelength="100"
       strokelength_rdm="0.3;1"
       strokeoverlap="0.3"
       strokeoverlap_rdm="0.3;1"
       ends_tolerance="0.1;1"
       parallel_offset="5;799442994"
       tremble_size="5;1060682146"
       tremble_frequency="1"
       nbtangents="0"
       tgt_places_rdmness="1;1"
       tgtscale="10"
       tgtlength="100"
       tgtlength_rdm="0.3;1" />
    <inkscape:path-effect
       effect="sketch"
       id="path-effect3835"
       is_visible="true"
       nbiter_approxstrokes="5"
       strokelength="100"
       strokelength_rdm="0.3;1"
       strokeoverlap="0.3"
       strokeoverlap_rdm="0.3;1"
       ends_tolerance="0.1;1"
       parallel_offset="5;1"
       tremble_size="5;1"
       tremble_frequency="1"
       nbtangents="0"
       tgt_places_rdmness="1;1"
       tgtscale="10"
       tgtlength="100"
       tgtlength_rdm="0.3;1" />
    <inkscape:path-effect
       tgtlength_rdm="0.3;1"
       tgtlength="100"
       tgtscale="9"
       tgt_places_rdmness="1;1"
       nbtangents="0"
       tremble_frequency="1"
       tremble_size="5;1"
       parallel_offset="5;1"
       ends_tolerance="0.1;1"
       strokeoverlap_rdm="0.3;1"
       strokeoverlap="0.3"
       strokelength_rdm="0.3;1"
       strokelength="100"
       nbiter_approxstrokes="6"
       is_visible="true"
       id="path-effect3831"
       effect="sketch" />
    <inkscape:path-effect
       effect="sketch"
       id="path-effect3827"
       is_visible="true"
       nbiter_approxstrokes="5"
       strokelength="100"
       strokelength_rdm="0.3;1"
       strokeoverlap="0.3"
       strokeoverlap_rdm="0.3;1"
       ends_tolerance="0.1;1"
       parallel_offset="5;1"
       tremble_size="5;1"
       tremble_frequency="1"
       nbtangents="0"
       tgt_places_rdmness="1;1"
       tgtscale="10"
       tgtlength="100"
       tgtlength_rdm="0.3;1" />
    <inkscape:path-effect
       effect="sketch"
       id="path-effect3822"
       is_visible="true"
       nbiter_approxstrokes="3"
       strokelength="100"
       strokelength_rdm="0.3;1"
       strokeoverlap="0.3"
       strokeoverlap_rdm="0.3;1"
       ends_tolerance="0;1"
       parallel_offset="2;1699740438"
       tremble_size="5;1"
       tremble_frequency="1"
       nbtangents="0"
       tgt_places_rdmness="1;1"
       tgtscale="10"
       tgtlength="100"
       tgtlength_rdm="0.3;1" />
    <inkscape:path-effect
       effect="rough_hatches"
       id="path-effect3820"
       is_visible="true"
       direction="370,485.36218 , 110,0"
       dist_rdm="75;1"
       growth="0"
       do_bend="true"
       bender="370,490.36218 , 5,0"
       bottom_edge_variation="44;1"
       top_edge_variation="44;1"
       bottom_tgt_variation="0;1"
       top_tgt_variation="0;1"
       scale_bf="1"
       scale_bb="1"
       scale_tf="1"
       scale_tb="1"
       top_smth_variation="0;1"
       bottom_smth_variation="0;1"
       fat_output="true"
       stroke_width_top="1"
       stroke_width_bottom="1"
       front_thickness="1"
       back_thickness="0.25" />
    <inkscape:path-effect
       effect="envelope"
       id="path-effect3818"
       is_visible="true"
       yy="true"
       xx="true"
       bendpath1="M 150,270.36218 H 590"
       bendpath2="m 590,270.36218 v 440"
       bendpath3="M 150,710.36218 H 590"
       bendpath4="m 150,270.36218 v 440" />
    <inkscape:path-effect
       effect="construct_grid"
       id="path-effect3816"
       is_visible="true"
       nr_x="5"
       nr_y="5" />
    <inkscape:path-effect
       effect="gears"
       id="path-effect3814"
       is_visible="true"
       teeth="10"
       phi="5"
       min_radius="5" />
    <inkscape:path-effect
       effect="spiro"
       id="path-effect3812"
       is_visible="true" />
    <inkscape:path-effect
       effect="sketch"
       id="path-effect3810"
       is_visible="true"
       nbiter_approxstrokes="5"
       strokelength="100"
       strokelength_rdm="0.3;1"
       strokeoverlap="0.3"
       strokeoverlap_rdm="0.3;1"
       ends_tolerance="0.1;1"
       parallel_offset="5;1"
       tremble_size="5;1"
       tremble_frequency="1"
       nbtangents="5"
       tgt_places_rdmness="1;1"
       tgtscale="10"
       tgtlength="100"
       tgtlength_rdm="0.3;1" />
    <inkscape:path-effect
       effect="sketch"
       id="path-effect3808"
       is_visible="true"
       nbiter_approxstrokes="3"
       strokelength="93"
       strokelength_rdm="0;1"
       strokeoverlap="0"
       strokeoverlap_rdm="0.3;1"
       ends_tolerance="0.1;1"
       parallel_offset="4.5;1"
       tremble_size="5;1"
       tremble_frequency="1"
       nbtangents="5"
       tgt_places_rdmness="1;1"
       tgtscale="10"
       tgtlength="100"
       tgtlength_rdm="0.3;1" />
    <inkscape:path-effect
       effect="rough_hatches"
       id="path-effect3806"
       is_visible="true"
       direction="370,485.36218 , 110,0"
       dist_rdm="75;1"
       growth="0"
       do_bend="true"
       bender="370,490.36218 , 5,0"
       bottom_edge_variation="44;1"
       top_edge_variation="44;1"
       bottom_tgt_variation="0;1"
       top_tgt_variation="0;1"
       scale_bf="1"
       scale_bb="1"
       scale_tf="1"
       scale_tb="1"
       top_smth_variation="0;1"
       bottom_smth_variation="0;1"
       fat_output="true"
       stroke_width_top="1"
       stroke_width_bottom="1"
       front_thickness="1"
       back_thickness="0.25" />
    <inkscape:perspective
       sodipodi:type="inkscape:persp3d"
       inkscape:vp_x="0 : 561.25983 : 1"
       inkscape:vp_y="0 : 1066.6667 : 0"
       inkscape:vp_z="793.70078 : 561.25983 : 1"
       inkscape:persp3d-origin="396.85039 : 374.17322 : 1"
       id="perspective10" />
  </defs>
  <sodipodi:namedview
     id="base"
     pagecolor="#ffffff"
     bordercolor="#666666"
     borderopacity="1.0"
     inkscape:pageopacity="0"
     inkscape:pageshadow="2"
     inkscape:zoom="1.8911917"
     inkscape:cx="148.58356"
     inkscape:cy="334.18983"
     inkscape:document-units="px"
     inkscape:current-layer="g3672"
     showgrid="false"
     inkscape:window-width="3200"
     inkscape:window-height="1689"
     inkscape:window-x="0"
     inkscape:window-y="0"
     inkscape:window-maximized="1">
    <inkscape:grid
       type="xygrid"
       id="grid2818"
       empspacing="5"
       visible="true"
       enabled="true"
       snapvisiblegridlinesonly="true"
       originx="0"
       originy="0"
       spacingx="1.0666667"
       spacingy="1.0666667" />
  </sodipodi:namedview>
  <metadata
     id="metadata7">
    <rdf:RDF>
      <cc:Work
         rdf:about="">
        <dc:format>image/svg+xml</dc:format>
        <dc:type
           rdf:resource="http://purl.org/dc/dcmitype/StillImage" />
        <dc:title></dc:title>
      </cc:Work>
    </rdf:RDF>
  </metadata>
  <g
     inkscape:label="Ebene 1"
     inkscape:groupmode="layer"
     id="layer1"
     transform="translate(57.941723,-354.35203)">
    <g
       id="g3672"
       style="filter:url(#filter4106)"
       transform="translate(-144.59532,144.28581)">
      <path
         id="path2816"
         d="m 627.93333,523.05299 c 0,128.83583 -104.43083,233.3 -233.26666,233.3 v -233.3 z"
         style="fill:#3771c8;fill-opacity:1;fill-rule:nonzero;stroke:none;stroke-width:1.06666672"
         inkscape:connector-curvature="0" />
      <path
         style="fill:#3771c8;fill-opacity:1;fill-rule:nonzero;stroke:none;stroke-width:1.06666672"
         d="m 161.4,523.05299 c 0,-128.83583 104.43084,-233.3 233.26667,-233.3 v 233.3 z"
         id="path3607"
         inkscape:connector-curvature="0" />
      <path
         style="fill:#d35f5f;fill-opacity:1;fill-rule:nonzero;stroke:none;stroke-width:1.06666672"
         d="m 161.4,523.05299 c 0,128.83583 104.43084,233.3 233.26667,233.3 v -233.3 z"
         id="path2823"
         inkscape:connector-curvature="0" />
      <path
         id="path3609"
         d="m 627.93333,523.05299 c 0,-128.83583 -104.43083,-233.3 -233.26666,-233.3 v 233.3 z"
         style="fill:#d35f5f;fill-opacity:1;fill-rule:nonzero;stroke:none;stroke-width:1.06666672"
         inkscape:connector-curvature="0" />
      <g
         inkscape:path-effect="#path-effect3822"
         style="stroke:#000000;stroke-width:2;stroke-miterlimit:4;stroke-dasharray:none;stroke-opacity:1"
         id="g3779">
        <path
           inkscape:original-d="m 394.66667,289.75299 c -128.83583,0 -233.26667,104.46417 -233.26667,233.3 0,128.83583 104.43084,233.3 233.26667,233.3 128.83583,0 233.26666,-104.46417 233.26666,-233.3 0,-128.83583 -104.43083,-233.3 -233.26666,-233.3 z"
           style="fill:none;stroke:#000000;stroke-width:2.13333344;stroke-miterlimit:4;stroke-dasharray:none;stroke-opacity:1"
           d="m 395.44045,293.08859 c -26.41529,-0.92796 -54.16979,4.50713 -79.65033,13.54687 m 14.64067,-9.62756 c -10.67503,2.61169 -20.82518,6.09009 -30.45777,10.3145 -11.96229,5.24612 -23.14593,11.6513 -33.56157,18.99805 m 11.40769,-8.67215 c -20.28713,10.27839 -37.52864,23.12036 -52.4309,37.5308 -1.96389,1.89907 -3.88737,3.82558 -5.77212,5.77734 m 14.37095,-9.15156 c -1.8318,1.91495 -3.64783,3.85247 -5.44493,5.81356 -19.39465,21.16438 -36.64666,45.14668 -47.44954,72.85841 m 10.72242,-24.52705 c -5.33782,8.36583 -9.76333,17.15807 -13.30167,26.26303 -6.33181,16.29322 -9.82063,33.58369 -10.61197,51.20149 m 0.67852,-18.62764 c -5.60022,19.5359 -7.51346,38.46841 -5.93775,56.93055 0.42396,4.96741 1.09364,9.82158 1.98657,14.5664 m -7.13261,-15.97155 c -0.0127,0.37451 -0.0241,0.74917 -0.0342,1.12397 -0.6759,25.20124 4.73007,49.35441 14.16773,71.55836 m -0.92847,-15.64969 c 3.19792,11.78764 6.91606,23.51383 11.20907,35.10429 4.03355,10.88994 8.55969,21.61928 13.60487,32.10698 m -2.10403,-9.41418 c 11.67461,21.54012 25.31255,39.8731 41.30501,55.06657 4.78001,4.5412 9.76941,8.80072 14.97709,12.77856 m -20.4688,-20.1 c 0.96823,1.10051 1.95065,2.18862 2.94693,3.26455 19.96799,21.56423 45.43673,38.17964 74.1353,51.88984 m -24.22245,-9.58853 c 8.56493,4.79035 17.18348,9.0136 25.92062,12.66073 16.49237,6.88436 33.40319,11.71532 51.22678,14.44778 m -24.01305,-5.89858 c 19.7331,5.3973 39.25155,7.58148 59.17963,6.69476 10.11893,-0.45025 20.05385,-1.67852 29.86804,-3.56263 m -27.37944,-2.46101 c 29.83548,-0.48443 57.37628,-4.24766 84.13095,-10.1267 m -17.98024,4.01295 c 7.50853,-1.97646 14.91706,-4.38824 22.13805,-7.13825 14.71947,-5.60571 28.67874,-12.62342 41.21573,-20.27869 m -11.06714,8.68803 c 16.47475,-10.37051 31.08414,-22.10948 43.63764,-35.4078 4.83478,-5.12163 9.36402,-10.4741 13.57506,-16.06677 m -13.30647,9.86704 c 19.60135,-19.8367 37.19431,-43.95326 50.73465,-69.49981 0.75657,-1.42742 1.50033,-2.85901 2.23093,-4.29427 m -5.67004,25.88596 c 3.29343,-5.82343 6.28466,-11.94511 8.97542,-18.33657 9.98042,-23.70689 15.79532,-51.03233 17.66424,-80.72842 m -6.80362,28.33326 c 2.81605,-14.0292 4.38628,-28.47291 4.62479,-42.99342 0.28565,-17.39013 -1.35476,-33.92383 -4.66042,-49.07311 m -2.94292,25.33503 c -2.30294,-23.10947 -7.25318,-45.87348 -14.24518,-67.52477 -1.39384,-4.31613 -2.86817,-8.58615 -4.41798,-12.80431 m 3.98392,18.51932 c -0.7467,-2.17077 -1.52486,-4.32283 -2.33282,-6.45622 -9.98491,-26.36496 -24.54071,-49.94397 -40.66733,-70.95166 m 12.03268,28.27257 c -6.15413,-8.34583 -12.95548,-16.29678 -20.31075,-23.83536 -15.02057,-15.39488 -32.33819,-29.05823 -51.20631,-40.89533 m 24.218,9.83581 c -14.80474,-11.2722 -30.04217,-19.82029 -45.87388,-26.11545 -13.05251,-5.19007 -26.477,-8.83743 -40.4221,-11.24798 m 20.99989,10.7466 c -23.85344,-8.68328 -49.20502,-14.54147 -75.88933,-18.13002 -5.8255,-0.78342 -11.59886,-1.44364 -17.3126,-1.99367 m 22.43773,9.32104 c -32.73506,-0.3389 -62.23074,6.40431 -88.63215,18.0594 -1.79229,0.79122 -3.57068,1.60526 -5.33517,2.44148 M 327.23331,296.259 c -7.29497,2.65601 -14.55187,5.65577 -21.72016,9.0395 -20.47638,9.66571 -40.14593,22.42754 -57.7248,39.06742 m 20.48132,-16.32439 c -13.6934,8.7651 -26.33187,19.08359 -37.92451,30.73566 -5.65906,5.68806 -11.06962,11.6946 -16.23387,17.99548 m 10.16251,-10.41239 c -18.12371,19.03131 -33.1693,42.46036 -43.37031,67.73144 -0.6895,1.7081 -1.35683,3.42457 -2.00143,5.14857 m 12.38159,-16.71706 c -2.85184,5.24178 -5.46738,10.54436 -7.85715,15.90898 -7.80614,17.52336 -13.17648,35.64267 -16.55516,54.49478 m -2.34415,-19.1265 c -3.82584,17.0878 -5.526,33.94606 -4.84098,50.50357 0.40783,9.85775 1.64896,19.31156 3.66854,28.38185 m -3.87113,-23.53276 c 0.61605,27.50176 7.85326,56.12201 19.37219,82.71099 2.3177,5.3499 4.81157,10.62552 7.46492,15.80563 m -12.16879,-24.1099 c 1.43283,4.37124 3.01594,8.64209 4.74145,12.8185 9.04946,21.90319 22.04662,41.28321 37.93469,58.94576 m -9.13476,-16.8558 c 8.05066,11.45807 16.93778,22.13286 26.61941,31.9649 9.70989,9.86073 20.21688,18.87165 31.47647,26.97194 m -18.2138,-17.79789 c 18.03723,14.6847 36.87166,27.46009 56.62354,37.80402 6.33518,3.31769 12.76018,6.38281 19.27859,9.17904 m -23.92592,-14.74115 c 0.8042,0.34772 1.61169,0.69167 2.4224,1.03182 26.92032,11.29463 57.45401,18.40047 89.1994,19.41966 m -19.35722,1.61038 c 9.71039,1.20465 19.33931,1.96745 28.95537,2.28599 20.55653,0.68095 39.80797,-0.71166 58.40222,-3.74207 m -33.20332,4.39803 c 18.7635,-2.63852 37.38153,-7.95453 55.26525,-15.29774 11.48403,-4.71545 22.67984,-10.27224 33.45493,-16.51219 m -22.21568,2.01802 c 20.71222,-11.45119 40.96606,-24.3874 58.80129,-40.05399 m -5.04948,17.45713 c 6.35538,-5.07407 12.18108,-10.46288 17.49064,-16.15359 16.68679,-17.88468 28.30381,-38.78132 35.21039,-62.31726 m -10.7972,28.1227 c 8.71325,-11.95418 15.95528,-24.89765 21.89602,-38.55238 6.79659,-15.62188 11.86117,-32.10391 15.52653,-49.10685 m -11.83514,19.17203 c 6.60404,-21.38686 10.85656,-43.51559 12.4009,-65.57944 0.0845,-1.20721 0.16053,-2.40925 0.22817,-3.60603 m -2.88948,21.0554 c 0.0446,-3.95189 0.0567,-7.9648 0.029,-12.0326 -0.18081,-26.51154 -2.05912,-52.66004 -7.10516,-78.03409 m 2.739,22.82912 c -3.40293,-13.76115 -7.35857,-26.38943 -11.97156,-38.10779 -6.30227,-16.00967 -13.8154,-30.27427 -22.70529,-43.17774 m 17.34888,20.67676 c -10.64039,-18.25121 -23.31903,-34.90434 -37.93085,-49.61045 -3.02456,-3.04408 -6.13168,-6.00444 -9.32028,-8.87786 m 8.36566,7.20255 c -1.02439,-0.95088 -2.05371,-1.89758 -3.08819,-2.83974 -17.86559,-16.27111 -37.2863,-31.19991 -59.13596,-42.69117 m 17.97385,7.92158 c -10.45588,-6.25542 -21.01698,-11.66383 -31.79159,-16.20177 -11.19293,-4.71412 -22.617,-8.4893 -34.40474,-11.30242 m 12.75407,12.3206 c -22.37095,-6.32617 -45.5005,-10.99244 -68.66304,-12.38735 -5.29834,-0.31908 -10.51217,-0.46163 -15.64368,-0.41899 m 15.8917,-4.55353 c -32.11234,-0.0125 -62.49707,6.90996 -89.67797,19.45384 -1.59781,0.73738 -3.18464,1.49423 -4.7602,2.27028 m 20.72948,-10.62903 c -7.40293,2.17685 -14.64523,4.81369 -21.66286,7.85823 -20.11735,8.72772 -38.40927,20.81336 -53.47129,35.10797 m 21.18134,-17.12766 c -13.28183,8.61598 -26.27109,18.59163 -38.79528,29.66054 -13.74978,12.15209 -26.91037,25.59581 -39.30258,40.0015 m 27.67833,-18.31328 c -13.26545,16.72294 -26.08861,35.46094 -36.63163,54.90968 -4.01589,7.40813 -7.69831,14.91519 -10.93837,22.43549 m 10.37076,-25.74541 c 0,10e-6 -0.0983,0.21244 -0.0983,0.21245 -12.39729,26.83418 -18.78212,58.38888 -19.65804,91.09638 m 2.09787,-22.38486 c -0.84631,8.81606 -1.25038,17.56166 -1.16263,26.23235 0.19789,19.55348 2.88878,37.60584 8.03434,54.42646 m -8.22662,-21.84732 c 2.18812,17.9686 7.6451,37.00212 15.26033,55.78904 3.89149,9.60038 8.35413,19.15697 13.25579,28.52461 m -14.81885,-17.95756 c 11.05502,24.28331 26.80374,46.11642 46.5284,65.19316 m -7.46856,-14.50138 c 4.93084,5.92254 10.09466,11.59707 15.47425,16.9921 17.19992,17.24931 36.61042,31.64472 57.61294,42.11219 m -25.52381,-13.13528 c 11.57163,8.45225 24.57896,15.78203 38.55773,22.03238 11.50835,5.14575 23.65036,9.54928 36.18618,13.25622 m -21.81884,-9.91178 c 22.77216,6.77398 49.37136,12.22039 77.91316,13.81695 2.06085,0.11528 4.12117,0.20986 6.18052,0.28319 m -17.03676,-3.12016 c 4.77054,0.20037 9.51547,0.31777 14.22884,0.34474 21.57893,0.12348 40.9884,-1.66341 58.29604,-5.59446 m -17.75906,6.55542 c 16.24708,-2.93949 31.94642,-7.84776 47.23791,-14.40435 13.78464,-5.91049 27.26264,-13.17111 40.54033,-21.56641 m -23.15684,6.04551 c 20.42824,-11.66429 39.57712,-24.5176 55.35366,-38.89674 3.50393,-3.19357 6.83719,-6.45892 9.97485,-9.79754 m -14.29583,19.8854 c 1.81423,-1.65031 3.59378,-3.33388 5.33887,-5.04999 21.10801,-20.75745 37.16983,-46.26427 48.6503,-75.38748 m -9.69227,19.88361 c 4.71062,-8.79666 9.0954,-17.67644 13.07452,-26.69412 6.30233,-14.28264 11.59265,-28.92375 15.54405,-44.13641 m -8.97277,16.58355 c 5.02143,-20.07239 8.17024,-41.11149 8.39675,-62.6611 0.0331,-3.14766 0.003,-6.27808 -0.0898,-9.3912 m 0.80208,21.38944 c -0.036,-2.13563 -0.0861,-4.28156 -0.15169,-6.43645 -0.88028,-28.92498 -4.48842,-56.44875 -12.94119,-81.38916 m 3.4588,16.7329 c -2.95642,-10.82053 -6.31473,-21.18774 -10.07397,-31.05659 -4.47601,-11.75051 -9.50959,-22.76517 -15.07481,-32.9364 m 9.52604,18.2983 c -10.89049,-20.42779 -24.6219,-37.94893 -40.90555,-53.19115 -2.53986,-2.37742 -5.14213,-4.69969 -7.80581,-6.96921 m 16.9236,10.10474 c -1.60526,-1.90111 -3.26096,-3.75718 -4.96497,-5.56914 C 549.47348,344.16675 531.03179,331.75283 510.2863,322.023 m 10.80443,8.2327 c -10.99591,-6.89293 -22.80338,-13.41084 -35.09421,-19.18051 -11.29617,-5.30275 -23.00378,-9.9746 -34.83347,-13.70922 m 12.53636,1.2162 c -22.36619,-7.25466 -47.04518,-11.36891 -72.61902,-11.34066 -1.07044,0.001 -2.13911,0.01 -3.20592,0.0253"
           id="path3647"
           inkscape:connector-curvature="0" />
        <g
           id="g3680"
           style="stroke:#000000;stroke-width:2;stroke-miterlimit:4;stroke-dasharray:none;stroke-opacity:1"
           transform="translate(0,-34.133333)">
          <path
             inkscape:original-d="M 394.66667,791.85299 V 322.51966"
             id="path3676"
             d="m 397.66635,791.96237 c -1.04134,-32.18307 -1.63621,-65.59174 -4.79567,-99.32183 m 1.04553,28.00374 c -1.28718,-28.55379 0.79489,-56.41353 3.52492,-84.88784 m 1.13961,26.22704 c 0.01,-25.09285 0.35437,-49.69443 1.0483,-74.94458 m -2.07197,14.55898 c -0.60742,-25.97921 -1.40175,-54.2329 -3.57295,-82.15207 m 4.80787,18.24253 c 0.95866,-31.6041 -1.98891,-59.65557 -6.44596,-87.32171 m 0.29679,29.11302 c -1.28742,-31.88448 0.19069,-63.97487 1.10361,-98.29849 m 1.72525,24.8547 c 0.7688,-23.17741 0.18299,-47.14943 -0.56878,-71.07825 m -5.24398,16.64171 c 0.0652,-9.62005 0.29275,-19.33966 0.70049,-29.11172 m 3.35369,468.65467 c -1.08013,-23.49374 0.30412,-48.21928 2.44842,-72.96332 m 0.74726,15.52424 c -0.21148,-27.01279 -1.19939,-54.89589 -3.41055,-83.57541 m -2.87059,20.80692 c 0.10393,-34.65155 2.09592,-64.43653 6.25558,-93.89171 m -1.20898,26.82269 c -0.61713,-25.57097 0.0698,-49.51481 0.99823,-72.64057 m -0.30218,13.69334 c 1.16075,-24.31625 -0.0514,-46.60386 -1.93834,-68.21441 m 0.25774,18.08406 c -0.99655,-23.22974 -0.83709,-48.71776 -1.08498,-75.16165 m 0.0932,13.28 c -0.0736,-27.098 -0.69189,-53.84966 -1.97206,-80.64216 m 2.05823,21.03712 c 0.34403,-16.92626 0.81277,-33.74116 1.67452,-50.67418 m -2.97184,467.48375 c -0.58628,-23.17069 0.38052,-46.63842 1.99738,-69.36534 m -0.13782,15.93032 c -0.1356,-25.60412 0.98242,-50.10653 3.14117,-74.74121 m -3.77441,16.18941 c -1.18258,-24.21725 -0.13472,-48.77871 1.2525,-73.34262 m 5.99024,12.01577 c 0.20895,-28.87161 -1.49773,-58.98255 -4.60909,-88.1804 m -3.4457,30.59142 c -0.0827,-23.91759 0.32834,-48.01307 1.097,-72.8343 m -3.24541,12.15928 c -0.011,-29.38752 1.37697,-58.69898 4.16813,-88.57635 m -3.75449,21.69024 c -1.09446,-24.58115 -0.34783,-49.67673 0.292,-73.23454 m -0.96382,22.22294 c -0.65825,-17.07028 -0.20812,-35.01135 0.79455,-53.25176"
             style="fill:none;stroke:#000000;stroke-width:2.13333344;stroke-linecap:butt;stroke-linejoin:miter;stroke-miterlimit:4;stroke-dasharray:none;stroke-opacity:1"
             inkscape:connector-curvature="0" />
          <path
             inkscape:original-d="M 160,557.18633 H 629.33333"
             id="path3678"
             d="m 163.29714,552.35774 c 24.90693,-1.12896 48.63477,-0.16288 71.85965,1.05526 m -12.7998,4.78145 c 32.78493,0.97693 64.47704,-0.95565 97.04819,-3.03827 m -33.42639,-3.48554 c 26.90964,-0.17568 53.89948,1.78449 81.70451,5.52913 m -22.81953,0.9478 c 31.7097,0.98805 65.92484,-0.25743 99.23959,-0.83553 m -32.82359,-3.65712 c 23.81595,-0.38344 48.87881,-0.55768 74.00887,-1.14098 m -15.36736,7.33688 c 34.19758,1.40841 66.57145,-1.54561 100.41357,-4.69997 m -25.34474,4.23819 c 28.31598,-1.1444 55.86429,0.4239 84.49489,2.35287 m -19.93097,-4.96943 c 8.57839,0.17247 16.97348,0.27179 25.26021,0.33163 m -474.79075,1.99604 c 29.39398,-0.71565 57.65987,-2.00555 84.45175,-5.57991 m -15.94879,9.36961 c 23.20798,0.91219 46.14596,-0.94273 68.5604,-4.21435 m -19.85668,-2.38733 c 30.61747,0.86799 61.79945,1.01773 91.76099,2.76449 m -16.60688,1.33631 c 26.14674,-1.32004 54.00723,-0.69595 81.78792,-0.73261 m -26.64444,1.57661 c 32.55092,-0.75355 65.139,-0.36589 98.81483,-0.948 m -33.39848,2.74535 c 33.74702,0.78333 67.0749,0.0362 103.95652,-0.0348 m -32.08423,-7.82483 c 23.52364,-0.0457 46.45914,0.31024 68.93252,0.9818 m -10.22631,6.12771 c 8.68802,0.11329 17.43439,0.16212 26.15609,0.16843 m -467.06958,-4.12987 c 29.14642,-1.15594 58.71173,-0.16186 86.0735,0.10156 m -20.66488,-0.49195 c 24.37346,-0.35005 47.7085,-0.0646 70.22896,0.32561 m -18.50493,-5.23173 c 25.63304,-0.0509 53.16649,0.64619 81.56772,1.97579 m -15.3457,-2.19472 c 28.1617,-0.56322 56.58031,0.79058 84.98378,2.81066 m -31.02884,-2.91195 c 27.34681,0.20589 56.55892,0.20861 86.83082,0.40299 m -19.4783,5.1824 c 24.5313,-1.22482 51.01539,0.33469 77.3355,2.48467 m -14.09724,-3.69497 c 30.0972,0.52185 61.87804,1.05372 92.84802,2.99119 m -30.31479,1.30577 c 11.02002,0.28564 22.36632,0.15318 33.8939,-0.29193"
             style="fill:none;stroke:#000000;stroke-width:2.13333344;stroke-linecap:butt;stroke-linejoin:miter;stroke-miterlimit:4;stroke-dasharray:none;stroke-opacity:1"
             inkscape:connector-curvature="0" />
        </g>
      </g>
      <g
         transform="translate(202.55323,124.9537)"
         id="text3684"
         style="font-style:normal;font-weight:normal;font-size:40px;font-family:'Bitstream Vera Sans';fill:#000000;fill-opacity:1;stroke:none" />
      <path
         style="fill:none;stroke:none;stroke-width:1.06666672"
         d="M 391.63401,218.5658 C 225.13366,220.24053 91.530901,356.6018 93.205625,523.10215 94.880358,689.60253 231.19898,823.24878 397.69933,821.57408 564.19967,819.89935 697.80243,683.53809 696.12771,517.03773 694.45297,350.53735 558.13437,216.89111 391.63401,218.5658 Z"
         id="path3713"
         inkscape:connector-curvature="0" />
      <text
         id="text3730"
         style="font-style:normal;font-variant:normal;font-weight:normal;font-stretch:normal;font-size:60.79999924px;line-height:0%;font-family:'Open Baskerville 0.0.75';-inkscape-font-specification:'Open Baskerville 0.0.75, Normal';font-variant-ligatures:normal;font-variant-caps:normal;font-variant-numeric:normal;font-feature-settings:normal;text-align:center;writing-mode:lr-tb;text-anchor:middle;fill:#000000;fill-opacity:1;stroke:none;stroke-width:1.06666672"
         xml:space="preserve"
         x="-5.7769065"
         y="-52.737747"
         transform="translate(-2,-18.373008)"><textPath
           id="textPath3734"
           startOffset="50%"
           xlink:href="#path3713"
           style="font-style:normal;font-variant:normal;font-weight:normal;font-stretch:normal;font-size:48px;font-family:'Open Baskerville 0.0.75';-inkscape-font-specification:'Open Baskerville 0.0.75, Normal';font-variant-ligatures:normal;font-variant-caps:normal;font-variant-numeric:normal;font-feature-settings:normal;text-align:center;writing-mode:lr-tb;text-anchor:middle;stroke-width:1.06666672"
           dx="-8.4602737">socrates-conference.de</textPath></text>
      <path
         id="path3739"
         d="m 188.62389,676.1182 c -86.1749,-113.78349 -63.76666,-275.88666 50.01682,-362.06159 113.78351,-86.1749 275.89382,-63.81842 362.06873,49.96506 86.1749,113.7835 63.76668,275.88668 -50.01682,362.06159 -113.78351,86.17492 -275.8938,63.8184 -362.06873,-49.96506 z"
         style="fill:none;stroke:none;stroke-width:1.06666672"
         inkscape:connector-curvature="0" />
      <text
         id="text3741"
         style="font-style:normal;font-variant:normal;font-weight:normal;font-stretch:normal;font-size:58.66666794px;line-height:0%;font-family:'Open Baskerville 0.0.75';-inkscape-font-specification:'Open Baskerville 0.0.75, Normal';font-variant-ligatures:normal;font-variant-caps:normal;font-variant-numeric:normal;font-feature-settings:normal;text-align:start;writing-mode:lr-tb;text-anchor:start;fill:#000000;fill-opacity:1;stroke:none;stroke-width:1.06666672"
         xml:space="preserve"><textPath
           id="textPath3745"
           xlink:href="#path3739"
           style="font-style:normal;font-variant:normal;font-weight:normal;font-stretch:normal;font-size:58.66666794px;font-family:'Open Baskerville 0.0.75';-inkscape-font-specification:'Open Baskerville 0.0.75, Normal';font-variant-ligatures:normal;font-variant-caps:normal;font-variant-numeric:normal;font-feature-settings:normal;text-align:start;writing-mode:lr-tb;text-anchor:start;stroke-width:1.06666672"><tspan
   style="font-style:normal;font-variant:normal;font-weight:normal;font-stretch:normal;font-size:58.66666794px;line-height:125%;font-family:'Open Baskerville 0.0.75';-inkscape-font-specification:'Open Baskerville 0.0.75, Normal';font-variant-ligatures:normal;font-variant-caps:normal;font-variant-numeric:normal;font-feature-settings:normal;text-align:start;writing-mode:lr-tb;text-anchor:start;stroke-width:1.06666672"
   id="tspan3743"
   dx="-5.8164401 0 0 0 0 0 0 0 0 0 0 0 0 0 0 0 0 0 0 0">Software Craftsmanship and Testing Conference</tspan></textPath></text>
      <path
         style="fill:#000000;fill-opacity:1;fill-rule:nonzero;stroke:none;stroke-width:1.06666672"
         d="m 188.38692,699.89955 c -3.16798,0 -5.73333,2.59869 -5.73333,5.76667 0,3.16798 2.56535,5.73333 5.73333,5.73333 3.16799,0 5.73334,-2.56535 5.73334,-5.73333 0,-3.16798 -2.56535,-5.76667 -5.73334,-5.76667 z"
         id="path3751"
         inkscape:connector-curvature="0" />
      <circle
         style="fill:#000000;fill-opacity:1;fill-rule:nonzero;stroke:none;stroke-width:0.09565135"
         id="path3769"
         transform="scale(1,-1)"
         cx="595.85638"
         cy="-709.93005"
         r="5.7361383" />
      <path
         inkscape:original-d="m 468.19379,380.85488 h 61.56676 c 11.10493,0 20.045,8.94007 20.045,20.04499 v 28.63571 c 0,11.10493 -8.94007,20.045 -20.045,20.045 h -61.56676 c -11.10493,0 -20.04499,-8.94007 -20.04499,-20.045 v -28.63571 c 0,-11.10492 8.94006,-20.04499 20.04499,-20.04499 z"
         inkscape:path-effect="#path-effect3827"
         id="rect3824"
         d="m 477.76464,388.74517 c 19.15725,-0.61612 37.28063,-0.55158 55.10042,-0.3768 8.74354,0.0858 16.03376,6.05965 18.27745,14.27383 m -14.39502,-23.33577 c 8.04917,2.36394 13.95635,9.92984 14.05827,19.001 0.1075,9.5678 0.36048,19.22087 0.71089,28.92052 0.22825,6.31799 -2.32966,11.96678 -6.47352,15.75624 m 0.62628,-7.55485 c -1.50223,9.90906 -10.10809,17.55752 -20.49025,17.28499 -15.04539,-0.39494 -29.69679,-0.94415 -44.34956,-1.80052 m 22.2768,2.76867 c -10.50924,0.36984 -21.28458,0.56092 -32.15943,0.6941 -10.96833,0.13433 -19.87858,-8.74601 -19.77848,-19.71709 0.086,-9.43022 0.21669,-18.81734 0.50042,-28.08265 0.019,-0.62092 0.0682,-1.23432 0.14619,-1.83887 m -8.23691,18.21825 c -0.25265,-8.61373 -0.23727,-17.17432 -0.001,-25.72197 0.3118,-11.29242 9.85707,-20.3649 21.87001,-20.59049 10.13917,-0.19039 20.47785,-0.42692 30.95088,-0.76486 m -19.14174,6.46064 c 16.84135,0.48846 34.75073,-0.23311 53.28709,-1.76192 9.23573,-0.76173 17.21317,3.82723 20.80034,10.45722 m -19.34045,-7.98807 c 7.56395,2.75203 13.07965,10.12568 13.25006,18.82595 0.18564,9.47837 0.61114,18.91601 1.207,28.31342 0.47292,7.45838 -3.17013,13.89929 -8.74097,17.15566 m 14.64768,-16.92203 c -1.88461,8.80061 -9.8376,15.43668 -19.54803,15.70023 -14.75699,0.40052 -29.94457,1.21404 -45.40045,2.36349 m 13.77785,1.1754 c -10.70436,0.2061 -21.65852,0.13155 -32.76395,-0.15778 -11.22106,-0.29234 -20.36668,-9.67212 -20.67285,-21.4036 -0.25444,-9.74882 -0.54902,-19.6042 -0.82588,-29.52744 m 3.20727,24.30785 c -0.17564,-8.41665 -0.17327,-16.95493 -0.0306,-25.52837 0.17945,-10.78844 9.46853,-19.51921 21.08659,-19.15655 11.52744,0.35983 23.20297,0.82497 34.95339,1.56299 m -29.40105,1.02091 c 18.56736,0.25564 36.2225,0.17081 53.69373,-0.0453 10.16075,-0.12571 18.42469,7.40566 19.48714,17.20229 M 533.62717,377.1679 c 7.15599,3.39243 12.0372,10.35956 12.11868,18.34896 0.0967,9.47896 0.0111,18.78256 -0.14564,27.97177 -0.18223,10.6796 -9.36168,19.15675 -20.67369,18.53573 -2.45315,-0.13468 -4.90306,-0.27237 -7.34797,-0.41208 m 21.19342,0.93332 c -3.46108,4.25329 -8.67779,7.01029 -14.54923,7.23367 -19.94319,0.75874 -40.12032,2.56813 -59.64375,5.65523 -1.60279,0.25344 -3.15395,0.30224 -4.62845,0.17251 m 24.7458,-6.69 c -5.54929,0.26095 -11.06902,0.50811 -16.57486,0.76148 -11.44073,0.52648 -20.60529,-7.949 -20.95276,-18.32769 -0.27061,-8.08321 -0.58562,-16.04696 -1.01164,-23.80616 m 2.34334,10.11985 c 0.0368,-6.46339 0.0131,-12.86373 -0.0668,-19.21913 -0.14087,-11.20821 8.52436,-20.13688 19.19538,-20.07395 9.15998,0.054 18.20717,0.14194 27.15663,0.20046 m -26.31849,2.75204 c 19.64012,0.56171 40.16148,0.82213 61.20702,1.38193 11.71251,0.31155 21.27028,9.59424 22.11575,21.26351 0.006,0.0867 0.0126,0.17346 0.0189,0.26021 m -14.13847,-20.72885 c 8.09496,2.83846 13.86403,10.27079 13.90294,18.88652 0.0419,9.27244 0.0211,18.29606 -0.0159,27.11859 -0.043,10.2397 -9.03906,18.28133 -20.16468,16.99283 -4.07194,-0.47159 -8.13759,-0.97011 -12.19336,-1.4919 m 25.1066,-5.04838 c -3.62991,3.94225 -8.74503,6.43939 -14.42329,6.59857 -20.37439,0.5712 -40.57907,1.37199 -60.5321,2.96134 -6.96809,0.55504 -13.02827,-2.58509 -16.32898,-7.50805 m 23.25021,2.76575 c -2.84623,0.0257 -5.68079,0.0404 -8.5033,0.0447 -10.93297,0.0167 -19.62083,-9.04933 -19.10544,-20.38908 0.44356,-9.75946 1.03674,-19.61101 1.79364,-29.53322 0.37466,-4.91135 2.37683,-9.43193 5.50989,-13.05227 m -16.1768,28.47538 c 0.0771,-2.31871 0.15293,-4.63374 0.22863,-6.94579 0.37048,-11.31606 9.61769,-20.37863 21.19329,-20.53172 18.02334,-0.23836 36.32696,-0.49265 55.38688,-1.07401 m -46.06079,0.5301 c 19.07946,-0.2207 37.78944,-0.55895 56.3689,-1.23103 10.95491,-0.39627 19.736,8.10794 19.54623,18.57136 -0.037,2.03788 -0.0739,4.06976 -0.1104,6.0953 m -5.97568,-22.38868 c 5.46508,3.21084 9.12355,9.32398 9.13656,16.46601 0.0173,9.48771 0.21766,19.22492 0.53431,29.09511 0.36872,11.49311 -8.12286,20.89036 -18.66663,21.44527 -5.55717,0.29248 -11.09826,0.58674 -16.63871,0.85586 m 25.18516,-1.55537 c -3.07388,1.86984 -6.72236,2.90186 -10.63868,2.7815 -20.48257,-0.62947 -41.00497,-2.03136 -61.51119,-4.61155 -7.7671,-0.97729 -14.47032,-6.37496 -17.78714,-14.0381 m 16.76724,18.4119 c -1.69705,-0.0176 -3.38895,-0.0336 -5.07593,-0.0483 -11.22225,-0.0978 -20.11937,-9.06609 -19.90343,-20.19343 0.18554,-9.56092 0.48475,-19.1043 0.85405,-28.65492 0.42975,-11.11404 9.81409,-20.06237 21.46039,-20.12199 0.96753,-0.005 1.93528,-0.0102 2.90319,-0.0159 m -21.08824,6.20066 c 2.32785,-8.48456 10.34622,-14.74715 19.86421,-14.31003 20.4852,0.94081 40.38673,2.17047 60.37741,4.70228 0.40462,0.0512 0.80633,0.11516 1.20477,0.19143"
         style="fill:none;stroke:#ffffff;stroke-width:1.06666672;stroke-opacity:1"
         inkscape:connector-curvature="0" />
      <path
         style="fill:none;stroke:#ffffff;stroke-width:0.48497954;stroke-opacity:1"
         d="m 478.69943,473.10216 c 18.99399,-0.61087 36.97166,-0.55263 54.64478,-0.38124 5.34838,0.0519 10.16184,0.57407 13.62646,1.3668 1.73381,0.39671 3.13478,0.86226 4.09873,1.37331 0.48201,0.25555 0.85539,0.52282 1.10596,0.79879 0.2505,0.27589 0.37894,0.56121 0.36866,0.85296 -0.0578,1.63931 -0.11578,3.27782 -0.17353,4.91513 m -14.60712,-19.01582 c 2.85192,0.15874 5.4199,0.47076 7.52176,0.89395 1.78003,0.3584 3.22523,0.79644 4.22457,1.28862 0.49972,0.24612 0.88798,0.50577 1.15122,0.77589 0.26324,0.27012 0.4014,0.55065 0.40106,0.83836 -0.002,1.97825 0.002,3.96084 0.0139,5.94743 0.002,0.2889 -0.13518,0.57083 -0.3967,0.84303 -0.26153,0.27222 -0.64774,0.53473 -1.14502,0.78505 -0.99456,0.50066 -2.43324,0.95249 -4.20685,1.33625 -3.54176,0.76632 -8.43783,1.26465 -13.79382,1.32552 -9.82134,0.11163 -19.51001,0.29445 -29.12278,0.50272 m 8.9674,5.72907 c -16.09295,-0.26513 -31.50429,-0.58787 -46.65786,-1.13213 -5.41779,-0.19459 -10.26204,-0.86502 -13.76994,-1.78664 -1.75063,-0.45994 -3.16575,-0.98205 -4.13922,-1.53603 -0.48685,-0.27705 -0.86445,-0.56276 -1.11819,-0.85371 -0.25381,-0.29104 -0.38469,-0.58823 -0.37688,-0.89162 0.0538,-2.08878 0.10874,-4.18248 0.16383,-6.28144 0.008,-0.30514 0.15456,-0.60346 0.42932,-0.89732 0.0875,-0.0936 0.188,-0.1867 0.30106,-0.27924 m 13.21526,13.23459 c -0.85024,-0.10344 -1.64942,-0.22495 -2.38878,-0.36253 -1.72052,-0.32015 -3.11716,-0.72731 -4.08063,-1.19672 -0.48169,-0.2347 -0.85514,-0.48497 -1.10624,-0.74743 -0.25095,-0.2623 -0.37995,-0.53717 -0.37035,-0.81899 0.066,-1.93815 0.12489,-3.88101 0.17761,-5.82787 0.008,-0.28335 0.15375,-0.5591 0.42769,-0.82387 0.27391,-0.26473 0.67488,-0.51782 1.19054,-0.75699 1.03125,-0.47831 2.51873,-0.89979 4.35366,-1.24646 3.66267,-0.69197 8.72972,-1.08899 14.29102,-1.0276 19.79844,0.21853 39.3345,0.29193 59.5454,0.90018 m -57.49325,-8.8986 c 16.7101,-0.42388 34.54578,-0.62456 53.09912,-0.94822 5.92765,-0.10341 11.37115,0.25477 15.3209,0.91961 1.97876,0.33308 3.58514,0.74329 4.70619,1.21367 0.56065,0.23525 0.99827,0.4848 1.30273,0.74697 0.30476,0.26242 0.47366,0.5354 0.50463,0.8171 0.21249,1.93291 0.43232,3.8623 0.65889,5.78765 0.0329,0.2796 -0.0729,0.55336 -0.29297,0.81288 -0.22042,0.25995 -0.55682,0.50754 -0.99319,0.73866 -0.75993,0.4025 -1.82504,0.75636 -3.12633,1.04559 m -3.78645,-5.72236 c 0.895,0.1633 1.73624,0.33772 2.51351,0.52241 1.75223,0.41634 3.17806,0.88454 4.16569,1.39544 0.4936,0.25534 0.87722,0.52109 1.13686,0.79571 0.2596,0.27458 0.39519,0.558 0.39236,0.8482 -0.0194,1.99556 -0.0259,3.97625 -0.0202,5.94266 8.3e-4,0.28599 -0.13674,0.56462 -0.39902,0.83188 -0.26228,0.26726 -0.6492,0.52309 -1.14686,0.76369 -0.99522,0.48116 -2.43335,0.90141 -4.20063,1.22902 -3.54909,0.65792 -8.36922,0.93473 -13.65839,0.61558 -12.82009,-0.77356 -25.18956,-2.09775 -37.30973,-3.78872 m 10.36478,3.96786 c -13.21893,0.005 -25.89524,-0.0645 -38.19817,-0.20736 -5.28048,-0.0613 -9.97033,-0.59605 -13.34079,-1.40732 -1.68382,-0.4053 -3.03914,-0.87994 -3.96742,-1.39822 -0.46409,-0.25912 -0.82251,-0.52977 -1.06042,-0.80837 -0.23775,-0.27842 -0.35648,-0.5663 -0.33633,-0.86004 0.13881,-2.02278 0.28435,-4.04731 0.43601,-6.07358 0.0221,-0.29491 0.18258,-0.58201 0.47635,-0.86198 0.29347,-0.2797 0.71885,-0.55109 1.26509,-0.81219 1.09216,-0.52205 2.66585,-1.00198 4.61614,-1.41807 0.78785,-0.16809 1.63704,-0.32573 2.54041,-0.47144 m -2.44673,6.60406 c -0.17752,-0.12745 -0.32839,-0.25714 -0.45106,-0.38882 -0.25675,-0.27562 -0.39014,-0.56016 -0.38503,-0.85141 0.0351,-2.00321 0.0603,-3.99776 0.076,-5.98383 0.002,-0.28887 0.14297,-0.57041 0.40956,-0.84182 0.26653,-0.27136 0.65872,-0.5324 1.16303,-0.77983 1.00847,-0.4948 2.46535,-0.93517 4.25794,-1.29274 3.59361,-0.71684 8.50346,-1.09613 13.89209,-0.9314 13.58564,0.41533 26.77832,1.21031 39.7226,2.3163 m -34.26776,1.1754 c 18.01287,0.32861 35.39068,-0.0563 52.53276,-0.88764 5.3828,-0.26107 10.22424,-0.0764 13.71396,0.45768 1.74648,0.26727 3.15434,0.6219 4.12616,1.05093 0.48561,0.21438 0.86126,0.44692 1.11429,0.69489 0.25273,0.24768 0.38287,0.51088 0.37424,0.78133 -0.0593,1.85856 -0.1195,3.71276 -0.18015,5.56298 -0.009,0.2695 -0.15615,0.53081 -0.43201,0.77665 -0.27595,0.24593 -0.6792,0.47549 -1.19862,0.68572 -1.03912,0.42057 -2.53701,0.76133 -4.39191,1.00324 -1.68742,0.22007 -3.66642,0.35784 -5.85808,0.40024 m 8.79188,-13.89638 c 0.0324,0.008 0.0648,0.0168 0.097,0.0253 1.76144,0.46182 3.19266,0.97589 4.18185,1.52241 0.49454,0.27322 0.87896,0.55476 1.1388,0.84227 0.25991,0.2876 0.39562,0.58148 0.39284,0.88189 -0.0192,2.06698 -0.0298,4.12894 -0.0323,6.18686 -3.7e-4,0.29914 -0.13921,0.59145 -0.40333,0.87681 -0.26401,0.28524 -0.6535,0.56366 -1.15431,0.83232 -1.00152,0.53727 -2.45004,1.03642 -4.23328,1.47065 -3.57385,0.87024 -8.46688,1.4749 -13.84573,1.62299 -18.56114,0.51101 -36.519,0.97108 -54.25268,2.24795 m 19.95292,1.02091 c -9.13802,0.13884 -18.5451,0.17725 -28.10457,0.14875 -5.48142,-0.0163 -10.47668,-0.51896 -14.09943,-1.30671 -1.81114,-0.39383 -3.279,-0.85887 -4.2941,-1.37048 -0.50762,-0.25584 -0.90215,-0.52337 -1.17036,-0.79982 -0.26828,-0.27652 -0.41008,-0.56181 -0.41335,-0.85423 -0.0225,-2.01075 -0.0478,-4.02332 -0.0751,-6.03741 -0.004,-0.29279 0.13072,-0.57886 0.38948,-0.85611 0.25876,-0.27725 0.64196,-0.546 1.13581,-0.80349 0.98762,-0.51494 2.41936,-0.98565 4.18898,-1.38958 3.53704,-0.80733 8.43697,-1.35078 13.86683,-1.44152 1.78176,-0.0298 3.56499,-0.06 5.35047,-0.0903 m -25.12513,-3.65429 c 0.22938,-0.0448 0.46473,-0.0884 0.70582,-0.13082 3.7521,-0.66041 8.93973,-1.04118 14.55128,-1.02151 20.80239,0.0729 40.63738,-0.7284 60.58218,-1.81157 5.36907,-0.29159 10.22471,-0.1143 13.76197,0.42108 m -74.61469,6.56449 c 20.5698,0.18611 40.69152,1.29329 61.16464,3.52604 5.69901,0.62152 10.85143,1.73594 14.61645,3.00905 1.87656,0.63453 3.40386,1.30749 4.46001,1.9737 0.52865,0.33346 0.94162,0.6666 1.22417,0.99619 0.28312,0.33026 0.43611,0.6571 0.45071,0.99034 0.0531,1.2125 0.10799,2.42837 0.16478,3.64764 M 533.8671,464.60065 c 4.07507,0.3484 7.72421,0.94477 10.52255,1.69114 1.73845,0.46368 3.14627,0.98477 4.11582,1.53754 0.48476,0.27637 0.86083,0.56116 1.11345,0.85131 0.25266,0.29021 0.38277,0.58664 0.37422,0.88924 -0.0589,2.08324 -0.11605,4.16764 -0.17235,6.25424 -0.008,0.30336 -0.1549,0.5998 -0.42983,0.89112 -0.27472,0.2911 -0.6775,0.57685 -1.19514,0.85501 -1.03512,0.55624 -2.53104,1.08279 -4.37974,1.55674 -3.69916,0.94837 -8.8071,1.68539 -14.48447,2.03579 -9.87457,0.60945 -19.79478,1.35416 -29.85105,2.34951 m 18.55699,-6.09379 c -16.09111,-0.44241 -32.58263,-0.46754 -49.40109,-0.3837 -5.72779,0.0285 -10.92967,-0.39907 -14.71355,-1.12687 -1.89105,-0.36372 -3.42358,-0.80163 -4.48833,-1.29322 -0.5324,-0.24581 -0.94702,-0.50464 -1.2321,-0.77421 -0.28525,-0.26973 -0.43968,-0.54912 -0.4558,-0.83642 -0.11075,-1.97358 -0.22596,-3.94752 -0.34548,-5.9224 -0.0174,-0.28696 0.10396,-0.56763 0.34477,-0.83715 0.24099,-0.26974 0.60249,-0.52934 1.06965,-0.77565 0.29016,-0.15298 0.62125,-0.30093 0.99007,-0.4432 m 6.26104,14.17837 c -0.86247,-0.10503 -1.67163,-0.22573 -2.42062,-0.3605 -1.8221,-0.32787 -3.28823,-0.73905 -4.29995,-1.21088 -0.50587,-0.23593 -0.89792,-0.48692 -1.16396,-0.74999 -0.26598,-0.263 -0.40578,-0.53796 -0.40681,-0.82023 -0.007,-1.94029 -0.006,-3.88266 0.003,-5.82649 0.001,-0.28279 0.14134,-0.55832 0.40763,-0.82222 0.26636,-0.26396 0.65876,-0.51616 1.16503,-0.75388 1.01257,-0.47545 2.47942,-0.89244 4.30168,-1.23109 3.64049,-0.67655 8.71371,-1.04225 14.38726,-0.92729 19.04706,0.38595 38.6645,0.82469 58.56901,1.79278 m -50.91744,-1.48062 c 19.03772,0.3862 37.68105,-0.33917 56.27701,-1.81869 5.48287,-0.43622 10.44075,-0.43257 14.01677,-0.0399 1.79143,0.19674 3.23595,0.49083 4.23713,0.87468 0.50018,0.19178 0.88745,0.40516 1.15054,0.63768 0.26275,0.23221 0.40038,0.48296 0.39939,0.74172 -0.007,1.776 -0.0127,3.54497 -0.0172,5.30734 -6.6e-4,0.2568 -0.13991,0.50529 -0.40482,0.73409 -0.26522,0.22907 -0.65506,0.43781 -1.15832,0.62269 -1.00707,0.36996 -2.46012,0.64158 -4.25995,0.79683 -2.07625,0.17908 -4.60438,0.20256 -7.42871,0.0474 m 4.59007,-11.96366 c 0.43462,0.0871 0.85335,0.17769 1.25501,0.27153 1.80389,0.42143 3.26399,0.90826 4.2728,1.43589 0.50444,0.26383 0.89637,0.53803 1.16226,0.8198 0.26599,0.28187 0.40604,0.57138 0.40752,0.86779 0.0101,2.03879 0.0218,4.07905 0.0349,6.12129 0.002,0.29684 -0.13478,0.58702 -0.39626,0.8697 -0.26143,0.28263 -0.64795,0.55803 -1.14576,0.82358 -0.99564,0.53112 -2.4379,1.02364 -4.21991,1.45552 -3.56414,0.86378 -8.48968,1.48544 -13.92971,1.69059 -20.10845,0.75828 -40.02506,1.91116 -59.66976,4.00491 -0.60379,0.0644 -1.20074,0.12289 -1.78946,0.17567 m 26.5064,-6.56658 c -8.93762,0.0807 -17.76012,0.0531 -26.45575,-0.0648 -5.33523,-0.0724 -10.09044,-0.63788 -13.51345,-1.47817 -1.70958,-0.41967 -3.08694,-0.90803 -4.03142,-1.43685 -0.47226,-0.26442 -0.83744,-0.53961 -1.08087,-0.82196 -0.24335,-0.28226 -0.36628,-0.573 -0.35035,-0.86972 0.10971,-2.04319 0.22609,-4.09011 0.34925,-6.14059 0.0179,-0.29832 0.17436,-0.58916 0.46266,-0.8738 0.28803,-0.28437 0.70699,-0.56169 1.24529,-0.82997 1.07625,-0.53639 2.62953,-1.03648 4.55553,-1.47847 3.84746,-0.88295 9.20127,-1.53751 15.18618,-1.772 2.64164,-0.1035 5.29409,-0.21128 7.95759,-0.32299 m -11.32388,9.19463 c 18.36529,-0.39539 36.6551,-0.56475 55.3862,-0.84586 5.80403,-0.0871 11.10713,0.28777 14.95439,0.9663 1.92673,0.33981 3.49056,0.75603 4.5796,1.23082 0.54463,0.23745 0.96928,0.48897 1.26295,0.75264 0.29387,0.26386 0.45476,0.53829 0.47754,0.82106 0.1564,1.94119 0.32089,3.87931 0.49418,5.81388 0.0252,0.28106 -0.0883,0.55592 -0.31849,0.81736 -0.23047,0.26178 -0.57895,0.5115 -1.02989,0.74538 -0.9022,0.46793 -2.21615,0.87352 -3.83413,1.19309 -0.83551,0.16502 -1.75225,0.30714 -2.73564,0.42313 m 2.11292,-12.17721 c 0.58102,0.0895 1.13524,0.18567 1.66019,0.2881 1.82015,0.35516 3.28824,0.78528 4.30258,1.27042 0.50716,0.24257 0.90062,0.49876 1.16792,0.76596 0.26728,0.26718 0.40816,0.54518 0.41037,0.83042 0.0152,1.96082 0.0267,3.91996 0.0348,5.87718 0.001,0.28466 -0.13635,0.56218 -0.39911,0.8284 -0.26282,0.26627 -0.65087,0.52127 -1.15134,0.762 -1.00096,0.48147 -2.45116,0.90565 -4.24845,1.24986 -3.59535,0.68855 -8.57664,1.05651 -14.1236,0.92379 -19.80649,-0.47391 -39.85282,-1.22452 -59.86613,-2.49886 m 30.21002,1.11409 c -9.89099,-0.47292 -19.5482,-0.60902 -29.03993,-0.52736 -5.44008,0.0468 -10.29584,-0.30413 -13.7883,-0.95677 -1.74706,-0.32647 -3.15276,-0.72827 -4.1215,-1.1919 -0.48407,-0.23167 -0.85844,-0.47856 -1.11005,-0.73804 -0.25139,-0.25925 -0.38041,-0.53149 -0.3706,-0.81055 0.0675,-1.91897 0.1399,-3.83232 0.21667,-5.74112 0.0112,-0.27791 0.1609,-0.54784 0.4401,-0.80486 0.27919,-0.257 0.68677,-0.50024 1.21155,-0.72687 1.04977,-0.45335 2.56386,-0.83823 4.44179,-1.13384 3.7632,-0.59236 8.94693,-0.82057 14.74426,-0.54682 7.43338,0.35101 14.89494,0.71282 22.35742,1.03792"
         id="path3829"
         inkscape:path-effect="#path-effect3831"
         inkscape:original-d="m 469.12858,465.21187 h 61.09769 c 11.02031,0 19.89227,1.86231 19.89227,4.17558 v 5.96512 c 0,2.31326 -8.87196,4.17558 -19.89227,4.17558 h -61.09769 c -11.02031,0 -19.89227,-1.86232 -19.89227,-4.17558 v -5.96512 c 0,-2.31327 8.87196,-4.17558 19.89227,-4.17558 z"
         inkscape:connector-curvature="0" />
      <g
         transform="matrix(0.79562006,0,0,0.79562006,75.667364,68.88287)"
         id="g3841">
        <path
           style="fill:none;stroke:#ffffff;stroke-width:1.06666672px;stroke-linecap:butt;stroke-linejoin:miter;stroke-opacity:1"
           d="m 305.89582,493.93816 c -0.0529,-1.37956 -0.10233,-2.93937 -0.13931,-4.62758 -0.14557,-6.64499 -0.11777,-15.79654 0.82049,-24.46657 0.47582,-4.39687 1.19348,-8.77673 2.27484,-12.86353 1.0821,-4.0896 2.52938,-7.89033 4.46797,-11.14264 1.93827,-3.25178 4.36583,-5.9512 7.39447,-7.83004 3.02809,-1.87849 6.65146,-2.9327 10.96597,-2.8909 1.10474,0.0107 2.1628,0.0938 3.1758,0.24474 m -19.15942,-4.87621 c 0.99756,-0.97055 2.08058,-1.83552 3.25409,-2.58021 3.09714,-1.96537 6.82952,-3.09651 11.30295,-3.1142 4.47635,-0.0177 8.24765,1.10581 11.40885,3.07565 3.16302,1.97097 5.72193,4.79196 7.79787,8.18517 2.07527,3.39212 3.67024,7.36048 4.89763,11.61893 1.22686,4.25658 2.08941,8.81449 2.68826,13.37173 0.30746,2.33978 0.54581,4.68263 0.72784,6.98701 m -8.04094,-9.62508 c 0.39301,2.73562 0.66375,5.54667 0.84123,8.34979 0.55298,8.73367 0.21214,17.56446 -0.25852,24.0411 -0.47995,6.60464 -1.09018,10.76087 -1.10347,10.85028 0,10e-6 0,10e-6 0,10e-6 -9.86034,-0.62924 -19.60483,-1.34942 -29.34992,-2.20559 m 22.26999,3.24511 c -11.68008,0.0615 -23.68914,-0.098 -35.79817,-0.3123 0,0 0,0 0,-1e-5 0.001,0.009 -0.5808,-4.36429 -0.91086,-10.86448 -0.32987,-6.49638 -0.4141,-15.22423 0.67623,-23.84282 0.54654,-4.32015 1.38803,-8.6194 2.64128,-12.63369 1.0196,-3.26584 2.31048,-6.33873 3.93152,-9.07289 m -14.61192,39.04222 c -0.0505,-0.53239 -0.0992,-1.08154 -0.14537,-1.64636 -0.55877,-6.82771 -0.72358,-15.58455 0.53127,-24.5864 0.62179,-4.46055 1.58404,-8.90854 2.98007,-13.09149 1.39443,-4.17816 3.22043,-8.08687 5.56063,-11.44467 2.34036,-3.35803 5.20036,-6.17434 8.69135,-8.17314 3.49631,-2.00185 7.62865,-3.18867 12.5883,-3.31768 4.35168,-0.1132 8.09544,0.63634 11.35326,2.05067 m -21.26447,6.63209 c 2.88465,-1.54442 6.31135,-2.41029 10.39787,-2.41151 4.45406,-0.001 8.20773,1.04543 11.39159,2.90056 3.17885,1.85222 5.76769,4.49808 7.89752,7.6469 2.12697,3.14459 3.79988,6.79772 5.12712,10.6511 1.32623,3.85048 2.31831,7.93429 3.06274,11.94541 0.96066,5.17623 1.52421,10.31457 1.84694,14.81962 m -7.70878,-13.59867 c 0.0191,0.27874 0.0374,0.55752 0.0548,0.83626 0.55338,8.84619 0.28862,17.95927 -0.0794,24.51956 -0.38098,6.79084 -0.87389,10.96331 -0.89039,11.0992 0,1e-5 0,2e-5 0,2e-5 -12.14521,-0.49517 -23.9207,-1.06148 -35.4881,-1.69774 m 21.56963,-3.48572 c -9.44183,-0.36937 -19.11997,-0.53373 -28.98627,-0.51596 0,0 0,-1e-5 0,-1e-5 -0.0123,-0.0715 -0.71214,-4.20869 -1.34848,-10.56273 -0.62384,-6.2293 -1.1886,-14.63242 -0.76976,-22.69221 0.0979,-1.88448 0.24978,-3.76185 0.46829,-5.60584 m -2.20427,33.90659 c -0.0365,-0.7886 -0.0708,-1.62392 -0.10121,-2.49985 -0.22205,-6.39299 -0.25359,-15.31798 0.68875,-24.17374 0.47497,-4.46363 1.20247,-8.97157 2.29951,-13.22469 1.09794,-4.25663 2.56604,-8.25919 4.5269,-11.72911 1.96208,-3.47208 4.40962,-6.39736 7.46304,-8.52719 3.05283,-2.12943 6.69727,-3.45382 11.03844,-3.75111 4.33993,-0.2972 7.9573,0.5526 10.95819,2.23715 1.38408,0.77696 2.63632,1.73124 3.7667,2.83207 m -20.35064,-5.96582 c 2.39979,-0.8428 5.11915,-1.25361 8.2009,-1.13488 4.44489,0.17124 8.18349,1.4094 11.32981,3.48048 3.14497,2.07019 5.68749,4.96539 7.75457,8.427 2.06535,3.45873 3.65573,7.48348 4.88507,11.7937 1.2287,4.30794 2.10081,8.9168 2.71622,13.53172 1.22794,9.20827 1.44975,18.57879 1.36649,25.6434 -0.0486,4.12108 -0.20123,7.46339 -0.32244,9.55298 M 355.4482,466.9233 c 0.39571,5.90057 0.31048,11.40018 0.0666,15.90813 -0.35987,6.65059 -1.08045,11.2882 -1.06847,11.20976 0,1e-5 0,2e-5 0,2e-5 -16.58121,-0.5122 -33.64499,-1.23297 -50.57805,-1.98621 0,0 0,0 0,-1e-5 0.001,0.01 -0.29503,-1.91083 -0.62024,-5.0587 m 10.85499,0.38792 c -4.84157,-0.0122 -9.75979,-0.0879 -14.73789,-0.21794 0,0 0,-10e-6 0,-10e-6 -0.006,-0.0453 -0.5204,-4.33674 -0.86576,-11.02447 -0.33936,-6.57177 -0.52512,-15.69596 0.3125,-24.71327 0.42218,-4.54491 1.10747,-9.11625 2.17992,-13.42366 1.07303,-4.30974 2.53181,-8.34848 4.4996,-11.84325 1.96815,-3.49539 4.43832,-6.43406 7.52834,-8.56382 0.84445,-0.58202 1.73481,-1.10338 2.67344,-1.55916 m -18.45383,74.67256 c -0.14551,-1.81851 -0.36796,-5.10525 -0.47658,-9.19056 -0.16995,-6.39258 -0.0692,-14.88587 1.13301,-23.04241 0.60397,-4.09776 1.48799,-8.13801 2.76532,-11.86941 1.27658,-3.72924 2.94739,-7.15325 5.12029,-10.00773 2.16927,-2.84972 4.85459,-5.15059 8.15039,-6.5742 3.29528,-1.42339 7.23344,-1.98389 11.93283,-1.28173 0.5665,0.0846 1.12227,0.1847 1.66746,0.29975 m -14.70361,0.58274 c 1.50701,-1.82652 3.26515,-3.37187 5.30073,-4.54436 3.0254,-1.7426 6.66852,-2.66403 11.00999,-2.44914 4.34355,0.215 7.97497,1.51981 10.98478,3.67142 3.01073,2.15228 5.39615,5.149 7.26167,8.74406 1.8652,3.59448 3.20733,7.78078 4.1341,12.29989 0.92702,4.5203 1.43625,9.3625 1.64074,14.2637 0.0815,1.95322 0.11449,3.91307 0.10659,5.86296 m 0.39158,-22.17031 c 0.77819,3.38548 1.29075,6.93383 1.5999,10.50562 0.76431,8.83054 0.27564,17.67224 -0.4302,24.42337 -0.69841,6.68005 -1.60678,11.25811 -1.60103,11.22892 0,0 0,10e-6 0,10e-6 -11.15004,-0.25694 -22.44549,-0.46081 -33.86483,-0.70195 m 19.41006,3.28709 c -12.40529,-0.005 -24.48157,-0.12323 -36.31029,-0.21654 0,0 0,0 0,-10e-6 0.003,0.026 -0.50447,-4.34031 -0.60665,-10.73503 -0.10327,-6.46335 0.20542,-14.9369 1.75543,-23.43106 0.77178,-4.22939 1.84705,-8.43503 3.31692,-12.34945 0.79508,-2.11738 1.70585,-4.1501 2.7465,-6.05415 m -5.21418,47.82667 c -0.12114,-1.62113 -0.24534,-3.59754 -0.34153,-5.84365 -0.27722,-6.47369 -0.33196,-15.41969 0.66872,-24.48547 0.5021,-4.5489 1.27262,-9.15502 2.42462,-13.51869 1.15266,-4.36619 2.68647,-8.48755 4.71818,-12.07945 2.03356,-3.59518 4.55638,-6.64449 7.6937,-8.91007 3.13817,-2.2662 6.87302,-3.7362 11.33521,-4.22255 4.46119,-0.48624 8.18584,0.19344 11.29887,1.70379 1.92495,0.93393 3.61493,2.1853 5.09519,3.67436 m -27.39799,-4.51551 c 2.72187,-1.18401 5.84872,-1.80589 9.43605,-1.71397 4.49795,0.11525 8.26096,1.33742 11.40463,3.40417 3.14414,2.06705 5.66918,4.97901 7.69586,8.47344 2.02631,3.49381 3.55386,7.5693 4.69947,11.95479 1.14532,4.38439 1.90941,9.08143 2.40426,13.80586 0.98678,9.42099 0.90925,19.05343 0.59702,26.31758 -0.31408,7.30694 -0.86463,12.2057 -0.86819,12.23716 0,10e-6 0,2e-5 0,2e-5 -1.17104,0.0869 -2.34112,0.17699 -3.51023,0.27053 m 3.07086,-31.57309 c 0.0582,5.14123 -0.11158,9.96296 -0.34055,13.93389 -0.38854,6.7381 -0.94516,11.05961 -0.95255,11.11621 -10e-6,1e-5 -10e-6,1e-5 -10e-6,1e-5 -16.19377,-0.67414 -31.95152,-1.66478 -47.19751,-2.85691 0,0 0,-10e-6 0,-2e-5 0.002,0.0363 -0.14957,-2.77685 -0.09,-7.1455"
           id="path3833"
           inkscape:path-effect="#path-effect3835"
           inkscape:original-d="m 303.53847,492.53413 c 0,0 -10.02249,-70.15748 25.77214,-70.15748 35.79463,0 24.34034,71.58927 24.34034,71.58927 z"
           inkscape:connector-curvature="0" />
        <path
           sodipodi:type="arc"
           style="fill:none;stroke:#ffffff;stroke-width:2;stroke-linecap:butt;stroke-linejoin:miter;stroke-miterlimit:4;stroke-dasharray:none;stroke-opacity:1"
           id="path3837"
           sodipodi:cx="-3.3557467"
           sodipodi:cy="340.27274"
           sodipodi:rx="23.490227"
           sodipodi:ry="18.121033"
           d="m 10.270626,341.30024 c -1.1322543,2.55813 -2.9388611,4.88227 -5.2903607,6.81943 -4.33261675,3.5692 -10.2420509,5.60475 -16.4140093,5.69186 -6.170901,0.0871 -12.097471,-1.78008 -16.454332,-5.14982 -4.356862,-3.36974 -6.789878,-7.9674 -6.740667,-12.75514 0.04921,-4.78745 2.577273,-9.38017 7.059986,-12.73548 1.624545,-1.21597 3.473858,-2.24483 5.492463,-3.05235 m -3.467974,21.21708 c 0.402415,-4.2211 2.688397,-8.16041 6.456154,-11.159 4.370749,-3.47847 10.4166791,-5.44119 16.8448391,-5.47205 6.4270424,-0.0309 12.7008749,1.8719 17.4506499,5.26955 4.757557,3.40321 7.577543,8.00757 7.972581,12.82093 0.216388,2.63661 -0.302871,5.24085 -1.488101,7.62984 m 1.945694,-7.54261 c -1.049371,1.5523 -2.371177,2.97755 -3.927835,4.23507 -4.425249,3.57485 -10.5047621,5.60234 -16.9567252,5.66288 -6.4503784,0.0605 -12.7391645,-1.84957 -17.5100168,-5.27236 -4.779386,-3.42891 -7.624053,-8.07284 -8.059475,-12.93287 -0.434968,-4.85496 1.56661,-9.52258 5.336175,-12.98107 0.727124,-0.66712 1.513392,-1.28297 2.350168,-1.84197 m -17.202513,25.41938 c 0.536224,-4.38893 2.996162,-8.48641 6.983267,-11.61109 4.53113,-3.55104 10.690691,-5.57743 17.1919468,-5.66935 6.4999013,-0.0919 12.8048284,1.7569 17.5749162,5.09842 4.777619,3.3468 7.607424,7.89895 8.020534,12.65001 0.41253,4.74439 -1.61825,9.28762 -5.426991,12.57088 -3.4483686,2.97261 -8.1095991,4.70174 -12.99462313,4.81696 M 14.358682,349.09839 c -1.136473,1.80102 -2.641004,3.43924 -4.4520768,4.84789 -4.3863881,3.41172 -10.31419137,5.28168 -16.4641602,5.17869 -6.148875,-0.10296 -12.017117,-2.17006 -16.298394,-5.75492 -4.279487,-3.58336 -6.630686,-8.39563 -6.486626,-13.42009 0.144222,-5.03016 2.775364,-9.88387 7.390787,-13.60791 3.285958,-2.65135 7.418269,-4.59953 11.93878,-5.65081 m -15.33076,15.85828 c 1.243975,-2.47804 3.217921,-4.74048 5.77594,-6.61804 4.445673,-3.26308 10.3625351,-5.15014 16.4018495,-5.25077 6.0426436,-0.10068 11.7219914,1.59487 15.7821095,4.73114 4.051427,3.12956 6.173605,7.46088 5.764251,11.94767 -0.409528,4.4887 -3.32531,8.74852 -8.31096,11.70698 -0.5637346,0.33452 -1.1509908,0.65062 -1.7603056,0.94719 m 8.4479616,-5.15066 c -0.542839,4.30622 -2.967264,8.30668 -6.8526242,11.30126 -4.4034701,3.3939 -10.33489221,5.22684 -16.4786202,5.07023 -6.1417936,-0.15656 -11.9948496,-2.28908 -16.2578606,-5.93947 -4.26133,-3.64895 -6.594954,-8.52321 -6.433712,-13.60869 0.116648,-3.67899 1.532786,-7.29605 4.111474,-10.47602 m -6.521606,9.90994 c -0.756031,-1.84081 -1.112524,-3.78725 -1.04758,-5.75692 0.156668,-4.75156 2.750231,-9.34299 7.27032,-12.80183 4.51567,-3.45545 10.582234,-5.49574 16.8871477,-5.70505 6.3077725,-0.20939 12.3417856,1.43014 16.8151113,4.53763 4.010223,2.78579 6.480328,6.55501 6.997038,10.57766 M 7.3475617,323.64372 c 0.309253,0.20498 0.6110148,0.41764 0.9048916,0.63768 4.2237617,3.16253 6.6221817,7.68892 6.6012067,12.482 -0.02102,4.80361 -2.459162,9.46935 -6.7571178,13.05226 -4.2917028,3.57769 -10.0864172,5.78376 -16.0487772,6.1915 -5.967986,0.40812 -11.625743,-1.01668 -15.711318,-3.91822 -4.078294,-2.89636 -6.25793,-7.03883 -5.940684,-11.35216 0.220446,-2.99721 1.640341,-5.92026 4.153116,-8.37329 m 40.582605,22.02022 c -1.235763,2.88345 -3.394486,5.48521 -6.2810331,7.54186 -4.499503,3.20586 -10.4498411,4.86269 -16.5214971,4.52357 -6.0703448,-0.33905 -11.7723188,-2.64725 -15.8477148,-6.48486 -4.069694,-3.83223 -6.203612,-8.89578 -5.813494,-14.18702 0.391246,-5.30655 3.286248,-10.45193 8.236373,-14.58681 4.288972,-3.58262 9.844463,-6.17325 15.8006593,-7.48541 m -22.0656463,13.30774 c 1.223169,-2.89127 3.27987,-5.50836 6.000113,-7.63458 4.48718,-3.50733 10.476857,-5.44577 16.6519643,-5.38986 6.1733202,0.0559 12.030251,2.10031 16.2860067,5.66674 4.253236,3.56432 6.57105,8.36666 6.390912,13.37204 -0.180373,5.01194 -2.849154,9.84386 -7.502142,13.52384 -1.9014543,1.50383 -4.0901216,2.77943 -6.4837115,3.78075"
           transform="matrix(0.71754486,0,0,0.93015081,329.2458,77.442507)"
           inkscape:path-effect="#path-effect3839" />
      </g>
      <path
         style="fill:none;stroke:#ffffff;stroke-width:1.06666672px;stroke-linecap:butt;stroke-linejoin:miter;stroke-opacity:1"
         d="m 248.29762,488.2747 c -0.15628,-1.30192 -0.31495,-2.76797 -0.46122,-4.36842 -0.58697,-6.42259 -0.96075,-14.88895 -0.22532,-23.35075 0.36666,-4.21863 1.00827,-8.41813 2.03282,-12.32774 1.02457,-3.90973 2.43249,-7.531 4.33236,-10.59441 1.89871,-3.06153 4.29281,-5.57064 7.27376,-7.22949 2.97691,-1.65662 6.55281,-2.46987 10.76678,-2.08815 1.07963,0.0978 2.1118,0.2675 3.09763,0.50486 m -14.71057,-1.7728 c 0.99379,-0.98918 2.07047,-1.87412 3.23542,-2.64097 3.0761,-2.02489 6.76564,-3.22521 11.16986,-3.34953 4.40434,-0.12433 8.09094,0.88958 11.15705,2.73905 3.06658,1.84975 5.51402,4.53564 7.45013,7.76258 1.93621,3.2271 3.36214,6.99684 4.38777,11.02007 1.02582,4.02398 1.65131,8.30148 1.98797,12.55313 0.1728,2.18237 0.26949,4.3572 0.30559,6.48953 m -6.16427,-5.95122 c 0.61023,2.84742 1.06452,5.74751 1.39331,8.63014 1.02994,9.03011 0.82256,17.83215 0.36586,24.37826 -0.4533,6.49722 -1.16188,10.87459 -1.15673,10.84259 0,0 -10e-6,10e-6 -10e-6,10e-6 -9.97176,-0.66573 -19.973,-1.48844 -29.91487,-2.4086 m 28.07788,-1.73237 c -12.05312,0.0901 -24.35434,-0.21677 -36.82966,-0.74256 0,0 0,0 -1e-5,-10e-6 -0.006,-0.0345 -0.70339,-4.42856 -1.26487,-11.1889 -0.5564,-6.69911 -0.98373,-15.80486 -0.36186,-24.85373 0.31198,-4.53976 0.88879,-9.08561 1.85237,-13.34998 0.78449,-3.47186 1.82438,-6.75322 3.18512,-9.69891 m -11.31621,46.36955 c -0.0212,-0.4953 -0.0412,-1.00767 -0.0595,-1.53579 -0.2164,-6.22069 -0.22144,-14.95508 0.78239,-23.74469 0.50498,-4.42166 1.26973,-8.90285 2.40904,-13.13977 1.14014,-4.23996 2.65522,-8.23564 4.6651,-11.70076 2.01105,-3.46714 4.51023,-6.39133 7.61913,-8.51731 3.10806,-2.12541 6.81556,-3.44625 11.23511,-3.73005 3.87581,-0.24888 7.1906,0.38879 10.02221,1.70425 m -17.51114,0.0159 c 3.09719,-1.61055 6.70065,-2.50155 10.89553,-2.44663 4.56295,0.0598 8.35291,1.24289 11.50157,3.27235 3.14912,2.02975 5.66117,4.90947 7.65278,8.36812 1.99225,3.45975 3.46278,7.49695 4.53138,11.84314 1.0686,4.34621 1.73365,8.99471 2.11895,13.67042 0.49693,6.03036 0.52868,12.1171 0.3558,17.58902 m -3.0105,-12.13972 c 0.0163,0.27776 0.0315,0.55548 0.0456,0.83311 0.45553,8.94554 -0.18108,17.68135 -0.96851,24.24957 -0.78414,6.54077 -1.70771,10.84596 -1.70986,10.85602 0,10e-6 0,10e-6 0,10e-6 -13.21508,-0.81203 -26.57121,-1.84499 -40.28127,-3.11674 m 21.9472,-3.69839 c -10.07807,0.0182 -20.04292,-0.21694 -30.00511,-0.63022 0,0 -10e-6,-1e-5 -10e-6,-1e-5 -0.008,-0.0435 -0.76946,-4.4167 -1.38376,-11.2072 -0.61142,-6.7587 -1.06816,-15.84453 -0.52328,-25.04187 0.12624,-2.13096 0.30643,-4.267 0.55142,-6.37718 m -8.82271,30.75421 c -0.0258,-0.8254 -0.0483,-1.69602 -0.0657,-2.60437 -0.12803,-6.68507 0.0103,-15.56318 1.21641,-24.06573 0.60688,-4.27812 1.48753,-8.503 2.75578,-12.42033 1.26784,-3.91605 2.92417,-7.5279 5.07998,-10.57428 2.15362,-3.04326 4.81529,-5.53472 8.08909,-7.17176 3.27465,-1.63746 7.17876,-2.42917 11.844,-2.03691 4.66909,0.39259 8.59657,1.8647 11.91651,4.17946 1.53265,1.06861 2.93652,2.31701 4.22697,3.72248 m -23.83597,-1.99473 c 2.41944,-0.91695 5.14867,-1.40385 8.22735,-1.37076 4.43791,0.0477 8.14822,1.18263 11.24804,3.14713 3.09837,1.96358 5.57872,4.75117 7.55722,8.08615 1.97787,3.33389 3.45367,7.21423 4.54005,11.35832 1.08637,4.14404 1.78437,8.55578 2.2046,12.95686 0.84138,8.81186 0.56955,17.56875 0.077,24.16014 -0.28615,3.82962 -0.64536,6.9123 -0.89703,8.83019 m 3.52704,-31.41776 c -0.14259,6.06352 -0.59353,11.7091 -1.09142,16.32117 -0.74879,6.93615 -1.59233,11.42977 -1.60109,11.47634 0,1e-5 0,1e-5 0,1e-5 -17.23583,-0.11955 -34.43962,-0.43176 -52.15489,-0.39105 0,0 -1e-5,-10e-6 -1e-5,-10e-6 -0.0115,-0.0547 -0.36736,-1.7587 -0.87495,-4.80895 m 20.00302,1.0267 c -4.86342,-0.25441 -9.80674,-0.42145 -14.8146,-0.5088 0,0 0,0 0,-10e-6 -0.009,-0.0675 -0.54215,-4.30275 -0.93813,-10.72855 -0.38769,-6.29123 -0.64759,-14.76766 0.087,-22.78535 0.37111,-4.05034 0.99883,-8.05049 2.0094,-11.75203 1.01052,-3.70135 2.40462,-7.1062 4.30383,-9.96043 1.89631,-2.84986 4.30401,-5.15951 7.31434,-6.61355 0.82347,-0.39774 1.69256,-0.73162 2.60876,-0.99431 m -20.98944,73.07683 c -0.23692,-1.80821 -0.60717,-5.04703 -0.82367,-9.14256 -0.34265,-6.48199 -0.28707,-14.88194 1.12656,-23.35988 0.70226,-4.21168 1.73253,-8.39114 3.18576,-12.28558 1.45149,-3.88979 3.32533,-7.49508 5.70659,-10.53553 2.37904,-3.03761 5.28024,-5.53167 8.80403,-7.16558 3.52609,-1.63498 7.70589,-2.42445 12.70465,-2.0161 0.60238,0.0492 1.1934,0.11423 1.77327,0.19461 m -20.40282,3.10977 c 1.60673,-1.83261 3.46681,-3.39558 5.61236,-4.59762 3.19235,-1.78851 7.01031,-2.77602 11.5993,-2.68371 4.59353,0.0924 8.4524,1.25762 11.71872,3.25286 3.26334,1.99343 5.926,4.81035 8.12321,8.1791 2.19537,3.36595 3.9295,7.28944 5.31709,11.48257 1.38657,4.19006 2.43501,8.675 3.23973,13.15205 0.32117,1.7868 0.60427,3.57676 0.85438,5.34946 m 0.18484,-28.61295 c 0.6109,3.30341 0.97777,6.79789 1.16135,10.33688 0.4541,8.7537 -0.2156,17.67005 -1.04918,24.54197 -0.82998,6.8423 -1.79829,11.45642 -1.8014,11.47131 0,0 0,10e-6 0,10e-6 -11.33725,0.0206 -22.82739,0.21768 -34.60971,0.42359 m 19.88958,7.47725 c -12.75808,-0.10538 -25.15315,-0.12789 -37.40952,0.0294 0,0 0,-10e-6 0,-2e-5 -0.003,-0.0184 -0.64956,-4.20978 -1.02644,-10.46753 -0.37759,-6.26958 -0.47557,-14.47251 0.51486,-22.58216 0.49372,-4.04268 1.25722,-8.05008 2.38951,-11.75622 0.61277,-2.00566 1.33415,-3.92515 2.18051,-5.71627 m -1.46872,44.59565 c -0.12365,-1.64557 -0.25636,-3.65024 -0.37265,-5.91041 -0.33187,-6.45054 -0.56029,-15.49022 0.0913,-24.25436 0.3298,-4.43596 0.8898,-8.89831 1.80353,-13.08746 0.91495,-4.19478 2.18487,-8.11889 3.94067,-11.50651 1.75669,-3.38931 3.99097,-6.22372 6.81313,-8.25623 2.81902,-2.03025 6.20942,-3.24691 10.21747,-3.40466 4.00438,-0.1576 7.31737,0.81769 9.99798,2.62886 1.65895,1.12087 3.07359,2.56056 4.26147,4.25029 m -21.41419,-4.94553 c 2.71445,-1.14465 5.83353,-1.73388 9.41745,-1.61821 4.49468,0.14506 8.25411,1.37372 11.40146,3.43974 3.14646,2.06544 5.67563,4.96444 7.71001,8.43513 2.03363,3.4694 3.572,7.50924 4.73108,11.84515 1.15879,4.33482 1.93976,8.97114 2.45306,13.62504 1.02371,9.28177 0.99065,18.74201 0.71225,25.87407 -0.28008,7.17525 -0.8074,11.98028 -0.81103,12.01305 0,10e-6 0,10e-6 0,10e-6 -1.16489,0.0627 -2.32885,0.12863 -3.49186,0.1981 m 4.99464,-27.04186 c -0.0393,5.19731 -0.28444,10.05092 -0.57083,14.04003 -0.4877,6.79317 -1.08908,11.05895 -1.10101,11.1423 0,0 0,1e-5 0,1e-5 -16.39815,-0.67037 -32.30915,-1.80272 -47.91138,-3.15202 0,-1e-5 0,-1e-5 0,-2e-5 0.001,0.0161 -0.20363,-2.78155 -0.24873,-7.21074"
         id="path3847"
         inkscape:path-effect="#path-effect3857"
         inkscape:original-d="m 247.69885,492.53413 c 0,0 -10.0225,-70.15748 25.77214,-70.15748 35.79462,0 24.34034,71.58927 24.34034,71.58927 z"
         inkscape:connector-curvature="0" />
      <path
         sodipodi:type="arc"
         style="fill:none;stroke:#ffffff;stroke-width:2;stroke-linecap:butt;stroke-linejoin:miter;stroke-miterlimit:4;stroke-dasharray:none;stroke-opacity:1"
         id="path3849"
         sodipodi:cx="-3.3557467"
         sodipodi:cy="340.27274"
         sodipodi:rx="23.490227"
         sodipodi:ry="18.121033"
         d="m 10.270626,341.30024 c -1.1322543,2.55813 -2.9388611,4.88227 -5.2903607,6.81943 -4.33261675,3.5692 -10.2420509,5.60475 -16.4140093,5.69186 -6.170901,0.0871 -12.097471,-1.78008 -16.454332,-5.14982 -4.356862,-3.36974 -6.789878,-7.9674 -6.740667,-12.75514 0.04921,-4.78745 2.577273,-9.38017 7.059986,-12.73548 1.624545,-1.21597 3.473858,-2.24483 5.492463,-3.05235 m -3.467974,21.21708 c 0.402415,-4.2211 2.688397,-8.16041 6.456154,-11.159 4.370749,-3.47847 10.4166791,-5.44119 16.8448391,-5.47205 6.4270424,-0.0309 12.7008749,1.8719 17.4506499,5.26955 4.757557,3.40321 7.577543,8.00757 7.972581,12.82093 0.216388,2.63661 -0.302871,5.24085 -1.488101,7.62984 m 1.945694,-7.54261 c -1.049371,1.5523 -2.371177,2.97755 -3.927835,4.23507 -4.425249,3.57485 -10.5047621,5.60234 -16.9567252,5.66288 -6.4503784,0.0605 -12.7391645,-1.84957 -17.5100168,-5.27236 -4.779386,-3.42891 -7.624053,-8.07284 -8.059475,-12.93287 -0.434968,-4.85496 1.56661,-9.52258 5.336175,-12.98107 0.727124,-0.66712 1.513392,-1.28297 2.350168,-1.84197 m -17.202513,25.41938 c 0.536224,-4.38893 2.996162,-8.48641 6.983267,-11.61109 4.53113,-3.55104 10.690691,-5.57743 17.1919468,-5.66935 6.4999013,-0.0919 12.8048284,1.7569 17.5749162,5.09842 4.777619,3.3468 7.607424,7.89895 8.020534,12.65001 0.41253,4.74439 -1.61825,9.28762 -5.426991,12.57088 -3.4483686,2.97261 -8.1095991,4.70174 -12.99462313,4.81696 M 14.358682,349.09839 c -1.136473,1.80102 -2.641004,3.43924 -4.4520768,4.84789 -4.3863881,3.41172 -10.31419137,5.28168 -16.4641602,5.17869 -6.148875,-0.10296 -12.017117,-2.17006 -16.298394,-5.75492 -4.279487,-3.58336 -6.630686,-8.39563 -6.486626,-13.42009 0.144222,-5.03016 2.775364,-9.88387 7.390787,-13.60791 3.285958,-2.65135 7.418269,-4.59953 11.93878,-5.65081 m -15.33076,15.85828 c 1.243975,-2.47804 3.217921,-4.74048 5.77594,-6.61804 4.445673,-3.26308 10.3625351,-5.15014 16.4018495,-5.25077 6.0426436,-0.10068 11.7219914,1.59487 15.7821095,4.73114 4.051427,3.12956 6.173605,7.46088 5.764251,11.94767 -0.409528,4.4887 -3.32531,8.74852 -8.31096,11.70698 -0.5637346,0.33452 -1.1509908,0.65062 -1.7603056,0.94719 m 8.4479616,-5.15066 c -0.542839,4.30622 -2.967264,8.30668 -6.8526242,11.30126 -4.4034701,3.3939 -10.33489221,5.22684 -16.4786202,5.07023 -6.1417936,-0.15656 -11.9948496,-2.28908 -16.2578606,-5.93947 -4.26133,-3.64895 -6.594954,-8.52321 -6.433712,-13.60869 0.116648,-3.67899 1.532786,-7.29605 4.111474,-10.47602 m -6.521606,9.90994 c -0.756031,-1.84081 -1.112524,-3.78725 -1.04758,-5.75692 0.156668,-4.75156 2.750231,-9.34299 7.27032,-12.80183 4.51567,-3.45545 10.582234,-5.49574 16.8871477,-5.70505 6.3077725,-0.20939 12.3417856,1.43014 16.8151113,4.53763 4.010223,2.78579 6.480328,6.55501 6.997038,10.57766 M 7.3475617,323.64372 c 0.309253,0.20498 0.6110148,0.41764 0.9048916,0.63768 4.2237617,3.16253 6.6221817,7.68892 6.6012067,12.482 -0.02102,4.80361 -2.459162,9.46935 -6.7571178,13.05226 -4.2917028,3.57769 -10.0864172,5.78376 -16.0487772,6.1915 -5.967986,0.40812 -11.625743,-1.01668 -15.711318,-3.91822 -4.078294,-2.89636 -6.25793,-7.03883 -5.940684,-11.35216 0.220446,-2.99721 1.640341,-5.92026 4.153116,-8.37329 m 40.582605,22.02022 c -1.235763,2.88345 -3.394486,5.48521 -6.2810331,7.54186 -4.499503,3.20586 -10.4498411,4.86269 -16.5214971,4.52357 -6.0703448,-0.33905 -11.7723188,-2.64725 -15.8477148,-6.48486 -4.069694,-3.83223 -6.203612,-8.89578 -5.813494,-14.18702 0.391246,-5.30655 3.286248,-10.45193 8.236373,-14.58681 4.288972,-3.58262 9.844463,-6.17325 15.8006593,-7.48541 m -22.0656463,13.30774 c 1.223169,-2.89127 3.27987,-5.50836 6.000113,-7.63458 4.48718,-3.50733 10.476857,-5.44577 16.6519643,-5.38986 6.1733202,0.0559 12.030251,2.10031 16.2860067,5.66674 4.253236,3.56432 6.57105,8.36666 6.390912,13.37204 -0.180373,5.01194 -2.849154,9.84386 -7.502142,13.52384 -1.9014543,1.50383 -4.0901216,2.77943 -6.4837115,3.78075"
         transform="matrix(0.71754486,0,0,0.93015081,273.40618,77.442507)"
         inkscape:path-effect="#path-effect3839" />
      <g
         transform="matrix(1.0599748,0,0,1.0599748,-227.46069,-31.095551)"
         id="g3863">
        <path
           style="fill:none;stroke:#ffffff;stroke-width:1.06666672px;stroke-linecap:butt;stroke-linejoin:miter;stroke-opacity:1"
           d="m 446.21292,587.09087 c -0.15539,3.84838 -0.28523,9.46824 -0.1042,15.5229 0.18101,6.05384 0.67804,12.82564 1.87169,19.18093 1.19922,6.38492 3.11061,12.41676 6.17482,17.12343 6.04483,9.28496 8.75343,14.88558 9.86723,17.88295 1.14636,3.08499 0.78274,3.82576 0.77365,3.84343 -9e-5,1.6e-4 -1.3e-4,2.4e-4 -1.4e-4,2.4e-4 0.6982,0.007 1.39641,0.0129 2.09466,0.019 m -10.70525,-25.57652 c 3.51555,5.55579 5.35445,9.11346 6.31266,11.42933 1.25654,3.03687 0.922,3.76949 0.91331,3.78761 -8e-5,1.6e-4 -1.1e-4,2.4e-4 -1.1e-4,2.4e-4 18.21095,-0.0573 36.9997,0.23527 56.03472,0.6104 m -21.92769,5.72907 c 18.58659,-0.33396 38.25464,-0.75932 58.15708,-1.60365 10e-6,-10e-6 -10e-6,-2e-5 -4e-5,-4e-5 -8e-4,-6.7e-4 -0.0124,-0.0103 -0.0344,-0.0293 -0.0219,-0.0189 -0.0542,-0.0472 -0.0963,-0.085 -0.0842,-0.0756 -0.2079,-0.18962 -0.36705,-0.34433 -0.31813,-0.30924 -0.77933,-0.78237 -1.35114,-1.43791 -1.14308,-1.31044 -2.73473,-3.35709 -4.52027,-6.30268 -0.95303,-1.5722 -1.96211,-3.40174 -2.99046,-5.51705 m 14.98998,15.67198 c 0.13866,0.004 0.27728,0.009 0.41586,0.0133 0,0 -2e-5,-10e-6 -5e-5,-3e-5 -7.8e-4,-5.9e-4 -0.0121,-0.009 -0.0334,-0.0258 -0.0213,-0.0167 -0.0527,-0.0417 -0.0937,-0.0752 -0.082,-0.067 -0.2022,-0.16825 -0.35713,-0.30622 -0.30991,-0.27598 -0.75824,-0.69873 -1.31662,-1.2894 -1.11713,-1.18172 -2.67247,-3.03309 -4.44446,-5.72687 -3.52594,-5.36015 -7.97534,-14.17164 -11.42126,-27.59952 -3.4791,-13.55716 -4.82115,-24.33505 -5.26106,-32.00108 -0.21735,-3.78766 -0.20879,-6.72348 -0.14638,-8.72124 0.0312,-0.9973 0.0758,-1.76068 0.11241,-2.27381 0.0183,-0.25674 0.0347,-0.45182 0.0466,-0.58278 0.006,-0.0655 0.0107,-0.11519 0.014,-0.14865 0.003,-0.0335 0.005,-0.0509 0.005,-0.0519 0,-4e-5 0,-5e-5 0,-5e-5 -2.89645,0.0699 -5.78071,0.14968 -8.64952,0.24171 m 1.48799,9.29498 c -0.32114,-2.30515 -0.54738,-4.41941 -0.70517,-6.32369 -0.32458,-3.91705 -0.36396,-7.00183 -0.32979,-9.06549 0.0172,-1.03651 0.0533,-1.83513 0.0843,-2.36825 0.0155,-0.26737 0.03,-0.47113 0.0405,-0.60746 0.005,-0.0683 0.01,-0.12012 0.0126,-0.15498 0.003,-0.0349 0.005,-0.0531 0.005,-0.0541 0,-3e-5 0,-5e-5 0,-5e-5 -21.88836,-0.39844 -42.14972,-0.62933 -61.65442,-1.43126 m 21.03834,6.46064 c -16.03687,0.43696 -31.21907,-0.0944 -45.86231,-1.30573 0,-1e-5 0,0 0,10e-6 -0.007,0.0817 -0.86461,9.22565 0.39661,20.19909 0.2458,2.13866 0.57023,4.33953 0.99235,6.55663 m -7.18492,-16.51092 c -0.35181,3.68896 -0.6118,8.14245 -0.55146,12.9974 0.0767,6.1734 0.67156,12.84076 2.16335,19.17465 1.48583,6.30857 3.85227,12.23157 7.40481,16.79603 7.17322,9.21645 10.4077,14.19229 12.00862,17.30459 0.80985,1.57443 1.11258,2.51733 1.21819,3.06226 m -2.65983,-18.82531 c 3.79709,5.60632 5.74715,9.43909 6.68206,11.7292 1.25693,3.07894 0.90092,3.84623 0.89705,3.85428 -7e-5,1.6e-4 -1.1e-4,2.4e-4 -1.1e-4,2.4e-4 17.47631,0.26397 34.26124,1.16568 50.64808,2.56581 m -15.81935,1.1754 c 20.3128,0.37057 39.81802,-0.16617 59.0883,-1.22739 0,0 -10e-6,-10e-6 -5e-5,-4e-5 -8.5e-4,-6.8e-4 -0.0132,-0.0105 -0.0366,-0.0297 -0.0234,-0.0192 -0.0578,-0.0479 -0.1027,-0.0863 -0.0898,-0.0767 -0.2219,-0.19245 -0.3922,-0.34944 -0.3405,-0.31389 -0.83465,-0.79349 -1.45121,-1.45817 -1.23247,-1.32865 -2.95913,-3.40217 -4.93337,-6.38391 -3.137,-4.73788 -6.93942,-11.83162 -10.36067,-21.93204 m 14.55721,21.51861 c -0.54874,-0.66022 -1.12598,-1.39481 -1.72327,-2.20864 -3.85358,-5.25064 -8.57897,-13.85537 -11.81414,-27.07188 -3.21841,-13.14802 -4.09818,-24.06611 -4.21532,-31.37754 -0.0592,-3.69331 0.0735,-6.56885 0.21794,-8.50712 0.0724,-0.97109 0.14823,-1.71398 0.20577,-2.21309 0.0288,-0.2498 0.0531,-0.43945 0.0703,-0.56684 0.009,-0.0637 0.0154,-0.11202 0.0201,-0.14457 0.005,-0.0326 0.007,-0.0495 0.007,-0.0504 10e-6,-3e-5 10e-6,-4e-5 10e-6,-4e-5 -3.91452,0.2106 -7.81426,0.45133 -11.70322,0.73135 m 7.8444,13.31997 c -10e-6,-4.7e-4 -0.006,-0.28095 -0.006,-0.28142 -0.0819,-3.81454 -0.0224,-6.74279 0.067,-8.78709 0.0443,-1.01377 0.0949,-1.78343 0.13538,-2.30813 0.0202,-0.26149 0.0377,-0.45908 0.0503,-0.59278 0.006,-0.0667 0.0113,-0.11717 0.0148,-0.15129 0.004,-0.0341 0.005,-0.0517 0.006,-0.0528 0,-3e-5 1e-5,-4e-5 1e-5,-4e-5 -22.65198,0.14347 -46.59179,-0.21889 -70.15866,-0.61014 m 15.31163,-5.02308 c -13.33958,0.36636 -27.26055,0.25112 -41.41247,-0.153 0,0 0,0 0,1e-5 0.019,-0.12059 -1.55321,9.90292 -1.62928,21.52163 -0.0385,5.88455 0.30428,12.27994 1.46019,18.28758 0.37058,1.92602 0.82455,3.81162 1.3758,5.62794 m -4.0596,-31.45994 c -0.12799,3.84398 -0.18059,8.81547 0.0512,14.23932 0.27166,6.35737 0.93783,13.44738 2.3753,20.23365 1.43978,6.79719 3.65484,13.30248 7.03993,18.50934 6.70915,10.31984 9.88981,16.67039 11.26158,20.09657 1.40338,3.50514 1.09737,4.34808 1.09045,4.36684 -7e-5,1.8e-4 -1e-4,2.8e-4 -9e-5,3.1e-4 2.54221,0.35394 5.09312,0.72567 7.65418,1.11557 m -8.94063,-19.65345 c 2.24965,4.20372 3.51173,7.0493 4.22439,9.02731 1.15604,3.2086 0.79904,3.97111 0.78877,3.99211 -8e-5,1.7e-4 -1.2e-4,2.5e-4 -1.3e-4,2.6e-4 19.32923,0.94039 38.88405,1.92629 57.8496,3.99775 m -13.87029,-6.09379 c 18.01608,-0.48957 35.54182,-0.46816 52.6768,-0.35355 -10e-6,0 -2e-5,-10e-6 -6e-5,-3e-5 -8.8e-4,-6.3e-4 -0.0135,-0.01 -0.0374,-0.027 -0.0239,-0.0175 -0.059,-0.0436 -0.10495,-0.0786 -0.0919,-0.0701 -0.22676,-0.17562 -0.40103,-0.31932 -0.34872,-0.28754 -0.85385,-0.72665 -1.48677,-1.33792 -1.26693,-1.22356 -3.03768,-3.12887 -5.08907,-5.87976 -2.37737,-3.18804 -5.12294,-7.4997 -7.90526,-13.19918 m 9.87557,19.01291 c -0.68716,-0.82283 -1.42657,-1.77098 -2.1996,-2.85454 -3.82136,-5.35645 -8.51977,-14.10595 -11.70238,-27.39742 -3.17113,-13.24351 -3.99983,-24.17293 -4.07681,-31.55282 -0.0388,-3.71831 0.11183,-6.618 0.26888,-8.57398 0.0787,-0.97987 0.15955,-1.73011 0.22048,-2.2341 0.0305,-0.25225 0.0561,-0.44384 0.0741,-0.57251 0.009,-0.0644 0.0161,-0.11315 0.0211,-0.14603 0.005,-0.0329 0.008,-0.05 0.008,-0.051 0,-3e-5 10e-6,-4e-5 10e-6,-4e-5 -3.86356,0.16927 -7.70948,0.3598 -11.54095,0.57696 m 12.16081,11.27858 c -0.0141,-0.24676 -0.0273,-0.49036 -0.0398,-0.73079 -0.19633,-3.78154 -0.20025,-6.75419 -0.15202,-8.79856 0.0241,-1.01992 0.0609,-1.80019 0.0921,-2.32899 0.0156,-0.26409 0.0297,-0.46426 0.04,-0.59932 0.005,-0.0675 0.009,-0.11854 0.0123,-0.15304 0.003,-0.0345 0.005,-0.0523 0.005,-0.0534 0,-3e-5 0,-5e-5 0,-5e-5 -27.87198,-0.15396 -56.4619,-2.65354 -84.5773,-6.27065 m 26.81051,1.13657 c -11.79795,0.28202 -23.54664,0.59145 -35.23035,1.03551 0,0 0,0 0,2e-5 -0.001,0.008 -1.31357,10.40593 -0.88396,23.41723 0.21519,6.51735 0.86589,13.69973 2.32115,20.57628 1.45481,6.87441 3.70996,13.42527 7.12865,18.65341 0.47638,0.72851 0.93493,1.43676 1.37623,2.12507 m -10.96908,-65.54712 c -0.37385,3.3773 -1.1043,11.43122 -0.7221,20.76081 0.25129,6.13419 0.97992,12.75762 2.561,18.99558 1.57701,6.2219 3.99908,12.03995 7.5972,16.4956 7.25678,8.98629 10.54562,13.8308 12.17883,16.85739 0.70631,1.3089 1.03794,2.16934 1.1897,2.7248 m -21.40276,-8.57086 c 5.39002,7.35103 8.01513,11.93036 9.23143,14.58001 1.37586,2.99723 1.05758,3.73187 1.05209,3.74412 -7e-5,1.5e-4 -1.1e-4,2.3e-4 -1e-4,2.3e-4 23.78879,-0.34796 47.79566,-0.5427 73.13976,-1.31574 m -23.67824,0.5301 c 17.83597,-0.20632 35.34905,-0.51536 52.73445,-1.10381 0,0 -2e-5,-2e-5 -5e-5,-4e-5 -8.4e-4,-6.6e-4 -0.013,-0.0102 -0.036,-0.0288 -0.023,-0.0187 -0.0568,-0.0465 -0.10099,-0.0837 -0.0883,-0.0745 -0.21814,-0.1868 -0.38547,-0.33931 -0.3346,-0.30496 -0.81986,-0.77115 -1.42468,-1.41794 -1.20889,-1.29278 -2.90034,-3.31226 -4.82666,-6.21932 -3.83772,-5.79162 -8.68124,-15.21638 -12.48205,-29.65628 -0.0735,-0.27908 -0.1461,-0.55727 -0.21793,-0.83454 m 13.12661,25.99575 c -3.37201,-5.86083 -7.01244,-13.97515 -9.73,-24.64431 -3.42721,-13.45521 -4.45261,-24.20457 -4.67463,-31.52503 -0.11155,-3.6779 -0.0207,-6.54966 0.0951,-8.48715 0.058,-0.97105 0.12275,-1.71477 0.1728,-2.21476 0.025,-0.25023 0.0465,-0.44023 0.0617,-0.56792 0.008,-0.0639 0.0137,-0.11226 0.0179,-0.14489 0.004,-0.0326 0.007,-0.0496 0.007,-0.0506 10e-6,-3e-5 10e-6,-4e-5 10e-6,-4e-5 -8.60731,0.43596 -17.15635,0.911 -25.70387,1.32618 m 23.97725,3.19417 c 0.0119,-0.35876 0.0249,-0.66333 0.0373,-0.91221 0.0133,-0.26786 0.0257,-0.4711 0.0349,-0.60796 0.005,-0.0684 0.008,-0.12022 0.011,-0.15519 0.003,-0.035 0.004,-0.0531 0.004,-0.0542 1e-5,-3e-5 1e-5,-5e-5 1e-5,-5e-5 -30.46531,-0.59512 -61.03809,-2.76201 -91.53365,-7.83893 0,-10e-6 0,0 0,10e-6 -7.1e-4,0.004 -0.0691,0.40786 -0.17411,1.14748 m 19.65845,6.21521 c -8.66518,-0.0897 -17.19587,-0.1404 -25.62295,-0.16961 0,0 0,0 0,2e-5 -0.008,0.0618 -1.34819,9.95887 -0.81713,22.34772 0.26474,6.17621 0.98987,12.91536 2.52558,19.29073 1.53313,6.36464 3.8725,12.35589 7.35492,16.98629 3.61141,4.80191 6.19228,8.51822 8.05605,11.43607 m -13.9128,-74.4143 c -0.25462,4.22352 -0.53195,10.84862 -0.37695,18.07226 0.13775,6.41939 0.61844,13.50709 1.82509,20.19902 1.21036,6.71248 3.15583,13.06704 6.25887,18.1124 6.12967,9.96651 8.8948,16.09816 10.0398,19.38732 1.17665,3.38005 0.81849,4.19411 0.81003,4.21267 -8e-5,1.8e-4 -1.2e-4,2.7e-4 -1.2e-4,2.9e-4 3.24006,0.35391 6.47995,0.73827 9.72255,1.15742 m -11.8649,-10.46075 c 2.48109,4.17565 3.86705,7.04007 4.63052,8.97883 1.20751,3.06632 0.85586,3.80949 0.84791,3.82554 -8e-5,1.6e-4 -1.2e-4,2.4e-4 -1.2e-4,2.4e-4 18.73078,0.11532 37.51513,0.51901 56.00338,1.17526 m -12.13836,2.77674 c 18.75575,-0.55591 37.35611,-0.57685 56.05305,-0.56654 0,0 -10e-6,-2e-5 -4e-5,-4e-5 -8.2e-4,-6.2e-4 -0.0126,-0.01 -0.0349,-0.0273 -0.0223,-0.0177 -0.0551,-0.044 -0.098,-0.0794 -0.0857,-0.0707 -0.21152,-0.17729 -0.37363,-0.32226 -0.32413,-0.28987 -0.79365,-0.73342 -1.37728,-1.34971 -1.166,-1.23125 -2.79363,-3.1586 -4.62483,-5.93085 -2.82584,-4.27804 -6.18635,-10.64533 -9.03786,-19.6308 m 7.22671,21.2255 c -0.2308,-0.29938 -0.46539,-0.61052 -0.70331,-0.9337 -4.01225,-5.45014 -8.91413,-14.23403 -12.70952,-27.93364 -3.76205,-13.57931 -5.34761,-25.12393 -6.00321,-32.86943 -0.33248,-3.92807 -0.43707,-7.00209 -0.45784,-9.08663 -0.005,-0.5041 -0.005,-0.95086 -0.002,-1.33886 m 0.0801,18.41957 c -0.27968,-2.36923 -0.47213,-4.55291 -0.60175,-6.52305 -0.25136,-3.82027 -0.26759,-6.85295 -0.22311,-8.91115 0.0223,-1.03087 0.0599,-1.82388 0.0918,-2.35748 0.016,-0.26706 0.0305,-0.47011 0.0411,-0.60657 0.005,-0.0683 0.01,-0.12 0.0126,-0.15489 0.003,-0.0349 0.005,-0.053 0.005,-0.054 10e-6,-4e-5 10e-6,-5e-5 10e-6,-5e-5 -21.50821,-0.38306 -42.491,-2.11957 -62.95683,-4.66263 m 15.3912,-6.75953 c -16.15654,-0.51231 -31.84008,-0.2869 -47.28605,0.33087 0,0 0,0 -10e-6,2e-5 -0.008,0.0705 -1.20275,10.36587 -0.60011,23.49054 0.29985,6.53014 1.04217,13.70736 2.56489,20.51029 0.79251,3.54064 1.79632,6.97888 3.05956,10.16894"
           id="path3851"
           inkscape:path-effect="#path-effect3853"
           inkscape:original-d="m 443.85344,572.71411 c 0,0 -5.72714,40.09 7.15892,58.7032 12.88607,18.61321 11.45429,21.47678 11.45429,21.47678 h 97.3614 c 0,0 -11.45428,-8.59071 -18.61321,-35.79463 -7.15893,-27.20392 -5.72714,-44.38535 -5.72714,-44.38535 z"
           inkscape:connector-curvature="0" />
        <path
           style="fill:none;stroke:#ffffff;stroke-width:1.06666672px;stroke-linecap:butt;stroke-linejoin:miter;stroke-opacity:1"
           d="m 469.08889,614.1138 c 4.58359,5.36685 9.2474,10.74753 13.96332,16.12114 8.55628,-8.13484 17.24707,-16.28794 25.9559,-24.54596 m -36.69454,0.61945 c 4.3134,4.83996 8.67056,9.80476 13.06687,14.87252 10.66457,-9.55883 21.51071,-18.64016 32.49225,-27.46282 m -43.14409,17.5457 c 5.15957,5.7612 10.28185,11.51951 15.37746,17.25609 9.0536,-8.49216 18.04098,-17.03829 27.00365,-25.71211 m -41.07149,11.62789 c 4.47627,5.21139 8.86958,10.31595 13.19357,15.33527 8.468,-7.81712 16.72734,-15.89082 24.84926,-24.1083 m -49.30799,2.03058 c 5.65927,6.4271 11.3787,12.88565 17.16367,19.36136 10.48147,-9.385 21.13315,-18.72542 31.97754,-28.08105"
           id="path3859"
           inkscape:path-effect="#path-effect3861"
           inkscape:original-d="m 466.76201,605.64517 18.6132,21.47678 32.93106,-30.06749"
           inkscape:connector-curvature="0" />
      </g>
      <g
         inkscape:export-ydpi="165.44003"
         inkscape:export-xdpi="165.44003"
         id="g5260">
        <path
           style="fill:none;stroke:#ffffff;stroke-width:2.13333344;stroke-linecap:butt;stroke-linejoin:miter;stroke-miterlimit:4;stroke-opacity:1;marker-start:none;marker-end:none"
           d="m 447.62494,605.10557 c 1.52409,-4.85694 3.76735,-9.27208 6.58551,-13.20582 4.04271,-5.64301 9.2628,-10.28576 15.19229,-13.76979 11.86178,-6.96972 26.54201,-9.29271 40.34176,-5.73238 0.85968,0.2218 1.70885,0.46441 2.54716,0.72712 m -20.50547,-8.73644 c 5.41124,-0.42126 10.96927,-0.0148 16.44357,1.29722 14.23713,3.41219 25.99999,12.43379 33.48021,24.19823 2.47067,3.88571 4.47549,8.07165 5.95186,12.45697 m -11.05379,-10.58172 c 0.34321,0.5444 0.67705,1.09547 1.00129,1.6529 6.62658,11.39235 9.23378,25.42683 5.96091,39.25895 -2.41595,10.21053 -7.69761,18.85422 -14.85126,25.23073 m 14.06409,-11.2725 c -4.17186,8.36652 -10.51293,15.17154 -18.10322,19.969 -11.40782,7.21032 -25.65221,9.89986 -39.7508,6.60513 -8.67013,-2.02615 -16.34221,-6.11793 -22.47675,-11.61349 m 18.49187,6.54406 c -0.32716,-0.0779 -0.65401,-0.1587 -0.98053,-0.24258 -12.25488,-3.14794 -22.27519,-10.14977 -28.96029,-19.51871 -4.95732,-6.94752 -8.08298,-15.2053 -8.87885,-24.14651 m 3.47864,-24.89084 c 1.24346,-3.90785 3.11242,-7.57156 5.48622,-10.93896 3.93048,-5.57568 9.24758,-10.34416 15.44184,-14.11508 12.39172,-7.54381 28.2899,-11.09782 43.60467,-9.11083 0.28124,0.0365 0.56159,0.0747 0.84106,0.11474 m -23.11928,0.4531 c 5.39913,-0.35648 10.9772,0.0809 16.49885,1.39528 14.29045,3.40171 26.24906,12.1581 34.04954,23.55769 3.11433,4.55127 5.56369,9.52013 7.23702,14.73354 m -2.89354,-17.32168 c 0.0799,0.12377 0.15927,0.24791 0.23806,0.3724 7.2609,11.47219 9.7537,25.97391 5.83312,40.72253 -2.63144,9.89913 -7.82095,18.68215 -14.69922,25.82107 m 9.10088,-10.54973 c -4.31527,8.62033 -10.95774,15.5359 -18.95312,20.22938 -11.62778,6.82578 -26.17078,8.98382 -40.71536,4.80409 -7.61871,-2.18942 -14.55355,-5.93756 -20.48821,-10.85334 m 24.60754,8.80157 c -1.04993,-0.14857 -2.09871,-0.32985 -3.14528,-0.54436 -12.12999,-2.48629 -22.22031,-9.12149 -29.09081,-18.08175 -6.56761,-8.56524 -10.21832,-19.28949 -9.88636,-30.59677 m 0.26346,-16.35082 c 1.52698,-5.21032 3.9399,-9.96906 7.05407,-14.20375 4.06902,-5.5331 9.32438,-10.15526 15.3057,-13.68063 11.96135,-7.04997 26.8114,-9.70799 40.87164,-6.45125 0.9775,0.22641 1.94227,0.4791 2.89383,0.75716 m -23.97778,-6.11533 c 5.89042,-0.29386 11.81729,0.19669 17.54867,1.56971 14.41709,3.45379 25.72847,12.01165 32.57461,23.12941 5.18521,8.4205 7.79211,18.29185 7.20546,28.46873 m -5.75519,-19.3369 c 4.92768,10.40377 6.48705,22.56342 3.86383,35.02935 -3.15813,15.00793 -11.76195,27.62355 -22.83651,36.25725 -1.97027,1.53602 -4.0186,2.9461 -6.12867,4.22207 m 20.0106,-17.48415 c -3.32442,3.49236 -7.04038,6.53844 -11.05218,9.08577 -11.93299,7.57694 -26.41432,10.71079 -41.05206,8.14106 -6.21445,-1.09099 -11.99316,-3.1363 -17.1964,-5.909 m 16.34125,3.44576 c -11.12191,-3.40698 -20.71313,-10.08911 -27.72622,-18.82799 -5.82214,-7.25484 -9.85149,-15.90832 -11.50101,-25.2422 m 2.51262,-26.64918 c 1.29266,-3.92155 3.19511,-7.5517 5.59007,-10.84051 3.95291,-5.42822 9.25019,-9.93111 15.38919,-13.30597 12.27446,-6.74778 27.93341,-8.99402 42.91916,-5.09743 5.58196,1.45142 10.79824,3.67775 15.56024,6.54551 m -23.64721,-7.83283 c 3.13331,0.25992 6.2571,0.75389 9.33415,1.4967 14.37167,3.46937 25.81634,11.87408 32.84084,22.68818 7.01467,10.79898 9.58031,23.9704 6.13005,36.75007 -0.37637,1.39407 -0.81651,2.754 -1.31672,4.07764 m 0.20676,-27.21509 c 1.61321,7.66248 1.6253,15.79741 -0.24802,23.96421 -3.34418,14.57909 -12.06149,26.49645 -23.39267,34.23386 -9.00659,6.15008 -19.63406,9.64148 -30.53367,9.78434 m 24.90338,-10.55729 c -10.84749,5.67514 -23.53128,7.46541 -35.91349,4.12565 -11.55483,-3.11659 -21.15514,-10.29335 -27.51816,-19.89745 -1.61211,-2.43327 -3.01695,-5.02313 -4.19308,-7.74307 m 4.87586,21.28011 c -2.81927,-2.50978 -5.36382,-5.31389 -7.58708,-8.36127 -4.98023,-6.8263 -8.35044,-14.87708 -9.57371,-23.56239 m 4.06771,-23.35855 c 1.23798,-6.28173 3.75897,-11.96094 7.24228,-16.92996 3.95857,-5.64699 9.15641,-10.37097 15.1062,-14.00341 11.90282,-7.26684 26.79951,-10.15925 40.82015,-7.33523 4.21203,0.84838 8.17668,2.17411 11.85046,3.9006 m -23.96642,-6.34299 c 4.49218,-0.2457 9.06767,0.13016 13.592,1.16688 14.13387,3.23868 25.88244,12.42434 33.34355,24.41987 7.47233,12.01359 10.68106,26.87801 7.86379,41.64065 -0.0559,0.29318 -0.11407,0.58522 -0.17433,0.87609 m -3.14691,-26.4545 c 2.61394,8.56121 3.02261,17.80112 0.73584,26.84319 -3.4382,13.59488 -12.32653,24.16829 -23.89545,29.92241 -7.10152,3.53214 -15.22958,5.25447 -23.71842,4.71389 m 22.14389,-2.29783 c -0.49717,0.31521 -0.99904,0.6225 -1.50541,0.92173 -11.75257,6.94509 -25.93642,9.55197 -39.8653,6.0879 -11.7442,-2.92074 -21.57618,-9.77546 -28.31546,-19.00986 -3.91221,-5.36063 -6.78254,-11.52418 -8.37578,-18.18533 m 16.44865,17.64241 c -2.20829,-1.96367 -4.24477,-4.12251 -6.08507,-6.44468 -6.42586,-8.10839 -10.45324,-18.20061 -11.07121,-28.91603"
           id="path3867"
           sodipodi:nodetypes="csssc"
           inkscape:path-effect="#path-effect5254"
           inkscape:original-d="m 444.18846,606.06165 c 3.65206,-29.02904 35.55021,-45.88243 63.98168,-38.97779 28.43148,6.90464 45.88243,35.55021 38.97779,63.98169 -6.90463,28.43147 -35.55021,45.88243 -63.98169,38.97779 -23.98375,-5.8245 -40.76789,-27.43951 -40.47025,-52.11859"
           inkscape:connector-curvature="0" />
        <path
           style="fill:none;stroke:#ffffff;stroke-width:1.06666672px;stroke-linecap:butt;stroke-linejoin:miter;stroke-opacity:1"
           d="m 429.86235,578.90568 c 4.05106,8.09021 8.27995,16.08077 12.61735,24.04378 6.02819,-2.54142 12.11658,-5.09812 18.23653,-7.64032 m -23.65998,-15.36681 c 3.91432,7.02672 7.79434,14.05305 11.61393,21.04946 8.16091,-3.96425 16.2463,-7.9659 24.21966,-12.04619 m -43.38513,-10.82269 c 4.92978,8.17073 9.83816,16.41628 14.80243,24.73754 6.81307,-2.80177 13.65871,-5.5594 20.57131,-8.27248 m -33.0212,-10.02329 c 3.8123,7.14366 7.87673,14.29448 12.14706,21.44381 6.06494,-2.66628 12.25576,-5.33348 18.55036,-8.00573 m -33.92291,-24.12465 c 5.23658,9.27076 10.44442,18.3019 15.68665,27.20059 8.20255,-3.55745 16.43048,-7.21265 24.72379,-10.89763"
           id="path5256"
           sodipodi:nodetypes="ccc"
           inkscape:path-effect="#path-effect5258"
           inkscape:original-d="m 429.15067,572.98073 16.31637,28.93547 26.75698,-11.93213"
           inkscape:connector-curvature="0" />
      </g>
    </g>
  </g>
</svg>
