<?xml version="1.0" encoding="UTF-8" standalone="no"?>
<!-- Created with Inkscape (http://www.inkscape.org/) -->

<svg
   xmlns:dc="http://purl.org/dc/elements/1.1/"
   xmlns:cc="http://creativecommons.org/ns#"
   xmlns:rdf="http://www.w3.org/1999/02/22-rdf-syntax-ns#"
   xmlns:svg="http://www.w3.org/2000/svg"
   xmlns="http://www.w3.org/2000/svg"
   xmlns:xlink="http://www.w3.org/1999/xlink"
   xmlns:sodipodi="http://sodipodi.sourceforge.net/DTD/sodipodi-0.dtd"
   xmlns:inkscape="http://www.inkscape.org/namespaces/inkscape"
   width="579"
   height="581"
   id="svg2"
   version="1.1"
   inkscape:version="0.91 r13725"
   sodipodi:docname="SoCraTesWappen_2019_text_weiss.svg"
   inkscape:export-filename="/Users/tg/Documents/workspace/idea/socrates/softwerkskammer-logos/SoCraTes/2019/SoCraTesWappen_2019_text_weiss.png"
   inkscape:export-xdpi="89.957222"
   inkscape:export-ydpi="89.957222">
  <defs
     id="defs4">
    <inkscape:path-effect
       effect="sketch"
       id="path-effect5258"
       is_visible="true"
       nbiter_approxstrokes="5"
       strokelength="100"
       strokelength_rdm="0.3;1"
       strokeoverlap="0.3"
       strokeoverlap_rdm="0.3;1"
       ends_tolerance="0.1;1"
       parallel_offset="3;1"
       tremble_size="4;1896651304"
       tremble_frequency="1"
       nbtangents="0"
       tgt_places_rdmness="1;1"
       tgtscale="10"
       tgtlength="100"
       tgtlength_rdm="0.3;1" />
    <inkscape:path-effect
       effect="sketch"
       id="path-effect5254"
       is_visible="true"
       nbiter_approxstrokes="5"
       strokelength="100"
       strokelength_rdm="0.3;1"
       strokeoverlap="0.3"
       strokeoverlap_rdm="0.3;1"
       ends_tolerance="0.1;1"
       parallel_offset="3;1"
       tremble_size="4;1"
       tremble_frequency="1"
       nbtangents="0"
       tgt_places_rdmness="1;1"
       tgtscale="10"
       tgtlength="100"
       tgtlength_rdm="0.3;1" />
    <marker
       inkscape:stockid="Arrow2Mend"
       orient="auto"
       refY="0"
       refX="0"
       id="Arrow2Mend"
       style="overflow:visible">
      <path
         id="path4082"
         style="font-size:12px;fill-rule:evenodd;stroke-width:0.625;stroke-linejoin:round"
         d="M 8.7185878,4.0337352 -2.2072895,0.01601326 8.7185884,-4.0017078 c -1.7454984,2.3720609 -1.7354408,5.6174519 -6e-7,8.035443 z"
         transform="scale(-0.6,-0.6)" />
    </marker>
    <marker
       inkscape:stockid="Arrow1Mend"
       orient="auto"
       refY="0"
       refX="0"
       id="Arrow1Mend"
       style="overflow:visible">
      <path
         id="path4064"
         d="M 0,0 5,-5 -12.5,0 5,5 0,0 z"
         style="fill-rule:evenodd;stroke:#000000;stroke-width:1pt;marker-start:none"
         transform="matrix(-0.4,0,0,-0.4,-4,0)" />
    </marker>
    <marker
       inkscape:stockid="Arrow1Lend"
       orient="auto"
       refY="0"
       refX="0"
       id="Arrow1Lend"
       style="overflow:visible">
      <path
         id="path4058"
         d="M 0,0 5,-5 -12.5,0 5,5 0,0 z"
         style="fill-rule:evenodd;stroke:#000000;stroke-width:1pt;marker-start:none"
         transform="matrix(-0.8,0,0,-0.8,-10,0)" />
    </marker>
    <inkscape:path-effect
       effect="sketch"
       id="path-effect3861"
       is_visible="true"
       nbiter_approxstrokes="5"
       strokelength="100"
       strokelength_rdm="0.1;2026920370"
       strokeoverlap="0.3"
       strokeoverlap_rdm="0.3;1"
       ends_tolerance="0.1;1"
       parallel_offset="3;294185633"
       tremble_size="3;2112635550"
       tremble_frequency="1"
       nbtangents="0"
       tgt_places_rdmness="1;1"
       tgtscale="10"
       tgtlength="100"
       tgtlength_rdm="0.3;1" />
    <inkscape:path-effect
       tgtlength_rdm="0.3;1"
       tgtlength="100"
       tgtscale="10"
       tgt_places_rdmness="1;1"
       nbtangents="0"
       tremble_frequency="1"
       tremble_size="5;568508735"
       parallel_offset="5;1"
       ends_tolerance="0.1;1"
       strokeoverlap_rdm="0.3;1"
       strokeoverlap="0.3"
       strokelength_rdm="0.3;1"
       strokelength="100"
       nbiter_approxstrokes="5"
       is_visible="true"
       id="path-effect3857"
       effect="sketch" />
    <inkscape:path-effect
       effect="sketch"
       id="path-effect3853"
       is_visible="true"
       nbiter_approxstrokes="5"
       strokelength="100"
       strokelength_rdm="0.3;1"
       strokeoverlap="0.3"
       strokeoverlap_rdm="0.3;1"
       ends_tolerance="0.1;1"
       parallel_offset="5;1"
       tremble_size="5;1"
       tremble_frequency="1"
       nbtangents="0"
       tgt_places_rdmness="1;1"
       tgtscale="10"
       tgtlength="100"
       tgtlength_rdm="0.3;1" />
    <inkscape:path-effect
       effect="sketch"
       id="path-effect3839"
       is_visible="true"
       nbiter_approxstrokes="5"
       strokelength="100"
       strokelength_rdm="0.3;1"
       strokeoverlap="0.3"
       strokeoverlap_rdm="0.3;1"
       ends_tolerance="0.1;1"
       parallel_offset="5;799442994"
       tremble_size="5;1060682146"
       tremble_frequency="1"
       nbtangents="0"
       tgt_places_rdmness="1;1"
       tgtscale="10"
       tgtlength="100"
       tgtlength_rdm="0.3;1" />
    <inkscape:path-effect
       effect="sketch"
       id="path-effect3835"
       is_visible="true"
       nbiter_approxstrokes="5"
       strokelength="100"
       strokelength_rdm="0.3;1"
       strokeoverlap="0.3"
       strokeoverlap_rdm="0.3;1"
       ends_tolerance="0.1;1"
       parallel_offset="5;1"
       tremble_size="5;1"
       tremble_frequency="1"
       nbtangents="0"
       tgt_places_rdmness="1;1"
       tgtscale="10"
       tgtlength="100"
       tgtlength_rdm="0.3;1" />
    <inkscape:path-effect
       tgtlength_rdm="0.3;1"
       tgtlength="100"
       tgtscale="9"
       tgt_places_rdmness="1;1"
       nbtangents="0"
       tremble_frequency="1"
       tremble_size="5;1"
       parallel_offset="5;1"
       ends_tolerance="0.1;1"
       strokeoverlap_rdm="0.3;1"
       strokeoverlap="0.3"
       strokelength_rdm="0.3;1"
       strokelength="100"
       nbiter_approxstrokes="6"
       is_visible="true"
       id="path-effect3831"
       effect="sketch" />
    <inkscape:path-effect
       effect="sketch"
       id="path-effect3827"
       is_visible="true"
       nbiter_approxstrokes="5"
       strokelength="100"
       strokelength_rdm="0.3;1"
       strokeoverlap="0.3"
       strokeoverlap_rdm="0.3;1"
       ends_tolerance="0.1;1"
       parallel_offset="5;1"
       tremble_size="5;1"
       tremble_frequency="1"
       nbtangents="0"
       tgt_places_rdmness="1;1"
       tgtscale="10"
       tgtlength="100"
       tgtlength_rdm="0.3;1" />
    <inkscape:path-effect
       effect="sketch"
       id="path-effect3822"
       is_visible="true"
       nbiter_approxstrokes="3"
       strokelength="100"
       strokelength_rdm="0.3;1"
       strokeoverlap="0.3"
       strokeoverlap_rdm="0.3;1"
       ends_tolerance="0;1"
       parallel_offset="2;1699740438"
       tremble_size="5;1"
       tremble_frequency="1"
       nbtangents="0"
       tgt_places_rdmness="1;1"
       tgtscale="10"
       tgtlength="100"
       tgtlength_rdm="0.3;1" />
    <inkscape:path-effect
       effect="rough_hatches"
       id="path-effect3820"
       is_visible="true"
       direction="370,485.36218 , 110,0"
       dist_rdm="75;1"
       growth="0"
       do_bend="true"
       bender="370,490.36218 , 5,0"
       bottom_edge_variation="44;1"
       top_edge_variation="44;1"
       bottom_tgt_variation="0;1"
       top_tgt_variation="0;1"
       scale_bf="1"
       scale_bb="1"
       scale_tf="1"
       scale_tb="1"
       top_smth_variation="0;1"
       bottom_smth_variation="0;1"
       fat_output="true"
       stroke_width_top="1"
       stroke_width_bottom="1"
       front_thickness="1"
       back_thickness="0.25" />
    <inkscape:path-effect
       effect="envelope"
       id="path-effect3818"
       is_visible="true"
       yy="true"
       xx="true"
       bendpath1="m 150,270.36218 440,0"
       bendpath2="m 590,270.36218 0,440"
       bendpath3="m 150,710.36218 440,0"
       bendpath4="m 150,270.36218 0,440" />
    <inkscape:path-effect
       effect="construct_grid"
       id="path-effect3816"
       is_visible="true"
       nr_x="5"
       nr_y="5" />
    <inkscape:path-effect
       effect="gears"
       id="path-effect3814"
       is_visible="true"
       teeth="10"
       phi="5" />
    <inkscape:path-effect
       effect="spiro"
       id="path-effect3812"
       is_visible="true" />
    <inkscape:path-effect
       effect="sketch"
       id="path-effect3810"
       is_visible="true"
       nbiter_approxstrokes="5"
       strokelength="100"
       strokelength_rdm="0.3;1"
       strokeoverlap="0.3"
       strokeoverlap_rdm="0.3;1"
       ends_tolerance="0.1;1"
       parallel_offset="5;1"
       tremble_size="5;1"
       tremble_frequency="1"
       nbtangents="5"
       tgt_places_rdmness="1;1"
       tgtscale="10"
       tgtlength="100"
       tgtlength_rdm="0.3;1" />
    <inkscape:path-effect
       effect="sketch"
       id="path-effect3808"
       is_visible="true"
       nbiter_approxstrokes="3"
       strokelength="93"
       strokelength_rdm="0;1"
       strokeoverlap="0"
       strokeoverlap_rdm="0.3;1"
       ends_tolerance="0.1;1"
       parallel_offset="4.5;1"
       tremble_size="5;1"
       tremble_frequency="1"
       nbtangents="5"
       tgt_places_rdmness="1;1"
       tgtscale="10"
       tgtlength="100"
       tgtlength_rdm="0.3;1" />
    <inkscape:path-effect
       effect="rough_hatches"
       id="path-effect3806"
       is_visible="true"
       direction="370,485.36218 , 110,0"
       dist_rdm="75;1"
       growth="0"
       do_bend="true"
       bender="370,490.36218 , 5,0"
       bottom_edge_variation="44;1"
       top_edge_variation="44;1"
       bottom_tgt_variation="0;1"
       top_tgt_variation="0;1"
       scale_bf="1"
       scale_bb="1"
       scale_tf="1"
       scale_tb="1"
       top_smth_variation="0;1"
       bottom_smth_variation="0;1"
       fat_output="true"
       stroke_width_top="1"
       stroke_width_bottom="1"
       front_thickness="1"
       back_thickness="0.25" />
    <inkscape:perspective
       sodipodi:type="inkscape:persp3d"
       inkscape:vp_x="0 : 526.18109 : 1"
       inkscape:vp_y="0 : 1000 : 0"
       inkscape:vp_z="744.09448 : 526.18109 : 1"
       inkscape:persp3d-origin="372.04724 : 350.78739 : 1"
       id="perspective10" />
  </defs>
  <sodipodi:namedview
     id="base"
     pagecolor="#ffffff"
     bordercolor="#666666"
     borderopacity="1.0"
     inkscape:pageopacity="0"
     inkscape:pageshadow="2"
     inkscape:zoom="1.8911917"
     inkscape:cx="156.23339"
     inkscape:cy="64.192428"
     inkscape:document-units="px"
     inkscape:current-layer="g3672"
     showgrid="false"
     inkscape:window-width="1680"
     inkscape:window-height="943"
     inkscape:window-x="0"
     inkscape:window-y="0"
     inkscape:window-maximized="0">
    <inkscape:grid
       type="xygrid"
       id="grid2818"
       empspacing="5"
       visible="true"
       enabled="true"
       snapvisiblegridlinesonly="true" />
  </sodipodi:namedview>
  <metadata
     id="metadata7">
    <rdf:RDF>
      <cc:Work
         rdf:about="">
        <dc:format>image/svg+xml</dc:format>
        <dc:type
           rdf:resource="http://purl.org/dc/dcmitype/StillImage" />
        <dc:title />
      </cc:Work>
    </rdf:RDF>
  </metadata>
  <g
     inkscape:label="Ebene 1"
     inkscape:groupmode="layer"
     id="layer1"
     transform="translate(54.320365,-332.20503)">
    <g
       id="g3672"
       style="filter:url(#filter4106)"
       transform="translate(-135.55811,135.26795)">
      <path
         id="path2816"
         d="m 588.6875,490.36218 c 0,120.78359 -97.90391,218.71875 -218.6875,218.71875 l 0,-218.71875 218.6875,0 z"
         style="fill:#3771c8;fill-opacity:1;fill-rule:nonzero;stroke:none" />
      <path
         style="fill:#3771c8;fill-opacity:1;fill-rule:nonzero;stroke:none"
         d="m 151.3125,490.36218 c 0,-120.78359 97.90391,-218.71875 218.6875,-218.71875 l 0,218.71875 -218.6875,0 z"
         id="path3607" />
      <path
         style="fill:#d35f5f;fill-opacity:1;fill-rule:nonzero;stroke:none"
         d="m 151.3125,490.36218 c 0,120.78359 97.90391,218.71875 218.6875,218.71875 l 0,-218.71875 -218.6875,0 z"
         id="path2823" />
      <path
         id="path3609"
         d="M 588.6875,490.36218 C 588.6875,369.57859 490.78359,271.64343 370,271.64343 l 0,218.71875 218.6875,0 z"
         style="fill:#d35f5f;fill-opacity:1;fill-rule:nonzero;stroke:none" />
      <g
         inkscape:path-effect="#path-effect3822"
         style="stroke:#000000;stroke-width:2;stroke-miterlimit:4;stroke-opacity:1;stroke-dasharray:none"
         id="g3779">
        <path
           inkscape:original-d="m 370,271.64343 c -120.78359,0 -218.6875,97.93516 -218.6875,218.71875 0,120.78359 97.90391,218.71875 218.6875,218.71875 120.78359,0 218.6875,-97.93516 218.6875,-218.71875 0,-120.78359 -97.90391,-218.71875 -218.6875,-218.71875 z"
           style="fill:none;stroke:#000000;stroke-width:2;stroke-miterlimit:4;stroke-opacity:1;stroke-dasharray:none"
           d="m 370.77378,274.97903 c -26.46083,-0.92956 -54.17911,4.8468 -79.43271,14.44661 m 14.51818,-10.00337 c -8.69331,2.28709 -17.01549,5.18328 -24.96642,8.61752 -13.82927,5.97328 -26.56121,13.58539 -38.19023,22.48476 m 11.11665,-9.14097 c -16.43975,9.01392 -30.67781,19.85769 -43.07466,31.92953 -4.58776,4.46747 -8.92415,9.10388 -13.02833,13.87991 m 13.73912,-9.74886 c -17.436,20.15674 -32.99145,42.74041 -43.10157,68.35363 -1.74603,4.42345 -3.33096,8.94089 -4.7349,13.55473 m 8.9094,-25.3654 c -2.04418,3.76091 -3.90705,7.6004 -5.58995,11.50882 -9.11129,21.16024 -12.94807,44.34739 -11.71551,67.97462 m -1.25181,-18.94809 c -2.43269,12.37729 -3.36044,24.49527 -2.8115,36.36446 0.58092,12.56075 2.79306,24.35186 6.30634,35.41661 m -8.99239,-15.81158 c 1.54124,22.25265 8.08142,43.40373 18.08425,62.76597 1.40605,2.72166 2.88161,5.41021 4.42288,8.06402 m -2.88616,-14.95438 c 0.96865,2.37579 1.96137,4.74559 2.97864,7.10859 8.36153,19.42286 18.3378,38.28062 30.0512,55.99411 m -3.8158,-8.28483 c 7.42248,10.19186 15.35003,19.41704 23.82284,27.67097 12.82829,12.49687 26.90946,22.76969 42.35988,30.77304 m -22.97653,-16.93286 c 13.99365,11.71471 30.096,21.18133 47.72394,28.85415 11.71409,5.09873 24.06482,9.39061 36.93341,13.05166 m -25.86363,-5.45382 c 24.36548,8.69556 48.74274,12.92875 74.3794,12.50277 2.17415,-0.0361 4.34279,-0.10544 6.50666,-0.20708 m -24.45751,-1.98608 c 4.73395,0.39695 9.4454,0.60711 14.14063,0.63116 26.81214,0.1373 51.17305,-5.81337 74.08465,-15.73558 m -26.41354,2.67461 c 12.02508,-2.68622 23.52456,-5.96224 34.59435,-9.72068 15.32065,-5.20171 29.80164,-11.32197 43.67172,-18.0615 m -15.8307,8.38597 c 15.81197,-8.65554 30.63084,-19.5972 43.37632,-31.55032 3.66811,-3.44008 7.16458,-6.96396 10.464,-10.54138 m -8.49779,11.7387 c 18.67545,-19.27441 33.00666,-40.78912 42.26617,-64.84208 m -9.22085,12.65661 c 3.73808,-6.70224 7.24834,-13.68195 10.48659,-20.87852 8.99104,-19.98135 15.87254,-41.61234 19.69157,-63.47206 m 1.23935,27.94416 c 3.26335,-14.08325 4.87061,-29.35044 4.83421,-45.57025 -0.0427,-19.01119 -2.33863,-38.26596 -6.3552,-57.10702 m 1.76578,28.14064 c -2.27551,-20.95336 -7.4919,-40.87409 -15.12434,-58.74714 -4.26273,-9.98213 -9.27819,-19.32393 -14.95383,-27.85173 m 5.9323,22.29945 c -10.79934,-23.82955 -24.80738,-46.20127 -40.87851,-65.81385 -0.74532,-0.90956 -1.49499,-1.81307 -2.24888,-2.71041 m 9.72087,14.71811 c -3.42559,-4.33068 -7.01595,-8.50041 -10.74593,-12.51019 -16.44737,-17.68111 -35.56265,-32.20708 -55.27989,-43.79345 m 17.55573,21.52142 c -9.73726,-6.36346 -20.14666,-11.9998 -31.09627,-16.88388 -18.0593,-8.05536 -37.52227,-14.03664 -57.86596,-17.90721 m 27.99791,0.37661 c -17.91906,-5.33675 -35.82081,-7.40963 -53.89441,-6.66906 m -4.65308,5.11237 c -30.12589,-0.53133 -58.89255,3.57194 -85.02885,10.26497 -2.24049,0.57375 -4.46137,1.16644 -6.66192,1.77676 m 30.16691,0.18108 c -6.37772,1.93393 -12.55343,4.16605 -18.52645,6.67277 -24.62413,10.33409 -45.86976,25.36262 -63.64185,43.51606 m 21.83348,-28.00545 c -8.89797,7.22049 -17.51759,15.09451 -25.66948,23.72425 -13.19201,13.96529 -25.16318,29.9147 -35.06531,48.2404 m 14.40212,-22.13494 c -10.87629,14.04642 -19.97268,29.6503 -27.29061,46.51712 -2.49127,5.74204 -4.77582,11.62887 -6.85523,17.6508 m 5.37415,-13.24752 c -9.92453,24.55687 -15.5956,52.78023 -15.00064,81.74708 0.0208,1.01189 0.0492,2.02147 0.0851,3.02861 m 3.78472,-18.7443 c -0.8336,6.67294 -1.31303,13.36291 -1.45251,20.07444 -0.39065,18.79696 1.90681,36.73173 5.96897,53.68805 m -9.03349,-19.04537 c 2.8669,16.73862 7.87612,31.98998 14.77274,45.78557 4.96274,9.92716 10.90891,19.11208 17.74798,27.55197 M 172.0467,583.6284 c 10.08228,20.48764 24.58174,40.65754 42.0039,58.6456 7.0207,7.24874 14.51734,14.14499 22.39456,20.57019 m -22.61205,-16.54111 c 0.24924,0.2725 0.49933,0.54409 0.75028,0.81474 18.69794,20.16641 42.10783,35.18194 68.58086,46.37416 m -14.95889,-9.80482 c 6.92413,3.8807 14.02798,7.38966 21.30067,10.51316 17.94799,7.70838 36.90305,13.06096 56.7381,15.87812 m -22.13247,-8.86565 c 15.87267,3.49765 31.69391,5.65068 47.4706,6.30039 13.83121,0.56958 26.97619,-0.0436 39.5062,-1.73774 m -25.27768,-2.50704 c 23.4109,-2.16282 46.26168,-7.54377 67.51652,-15.97354 7.56234,-2.99926 14.91285,-6.3807 22.00356,-10.13302 m -16.76108,14.85907 c 0.72512,-0.27837 1.44687,-0.55952 2.16529,-0.84342 27.27182,-10.777 49.80924,-25.54312 69.02174,-42.6094 0.43705,-0.38823 0.87238,-0.77764 1.30601,-1.16823 m -27.54344,15.44246 c 5.48867,-4.44347 10.83089,-9.2102 15.9953,-14.26235 16.88105,-16.5141 31.84787,-36.06292 43.85269,-57.35279 m -12.48237,11.9686 c 6.56434,-11.47522 12.63132,-23.13727 17.83364,-35.11813 4.23605,-9.75554 7.90668,-19.74065 10.80155,-30.01783 m 2.17934,22.09056 c 7.91594,-21.97064 10.23864,-45.54251 7.0259,-70.43968 -1.25802,-9.74898 -3.32891,-19.42921 -6.09956,-28.9963 m 5.62201,32.02779 c 0.0142,-0.34422 0.0275,-0.68873 0.0397,-1.03354 1.04888,-29.61145 -5.43281,-58.75956 -15.71267,-84.6041 -0.89873,-2.2595 -1.82732,-4.49612 -2.78355,-6.70834 m 4.62542,18.06724 c -2.04313,-6.37224 -4.31134,-12.56835 -6.79196,-18.56732 -6.59505,-15.94904 -14.68699,-30.49264 -24.01326,-43.20872 m 6.53511,18.19814 c -9.19872,-13.08199 -18.68295,-25.64694 -28.75327,-37.38191 -8.78937,-10.24228 -17.99178,-19.81179 -27.74987,-28.45109 m 15.09063,14.40189 c -17.40954,-15.19851 -35.52273,-26.08149 -54.49226,-33.19373 -7.78482,-2.91876 -15.70967,-5.20105 -23.79109,-6.8891 m 28.04809,7.02117 c -23.0496,-9.54157 -47.57074,-15.26817 -73.30335,-16.52302 m 13.08582,-3.16393 c -9.51828,-0.82623 -19.0541,-1.28402 -28.63182,-1.2639 m 2.29525,-1.23612 c -25.8613,-0.2902 -49.13833,4.10937 -70.76054,12.01136 m 12.66547,3.5503 c -10.06867,2.98306 -19.68409,6.34229 -28.83963,10.1397 -17.40545,7.21918 -33.07751,15.99511 -46.77178,26.60655 m 18.43325,-17.47365 c -14.1887,8.86161 -27.22342,19.42651 -38.81792,31.44305 -11.20198,11.60973 -21.06375,24.57882 -29.32278,38.68132 m 10.65552,-23.87933 c -13.22952,16.08745 -24.10552,34.84542 -31.24627,55.15439 -2.82604,8.03751 -5.06952,16.32613 -6.63632,24.78739 m 9.36456,-25.85127 c -10.83513,25.75319 -18.74933,53.84732 -23.3013,83.25247 -0.69022,4.45868 -1.29202,8.87487 -1.80835,13.24527 m 10.37868,-23.97432 c -0.15334,5.25372 -0.22714,10.56002 -0.19941,15.89527 0.13529,26.02773 2.70087,50.18949 9.30287,71.39341 m -6.15295,-26.16399 c 2.58325,11.47468 6.25327,22.92862 10.81893,34.07732 7.26599,17.74252 16.7999,34.71417 27.8833,49.89292 m -14.12839,-17.84752 c 9.47806,15.76648 20.67497,29.38641 33.48001,40.91315 7.50103,6.7522 15.55671,12.78855 24.14494,18.11628 m -20.48883,-14.47682 c 17.23308,15.60422 38.96295,31.10234 62.76761,43.95116 3.11364,1.68062 6.26202,3.31548 9.43934,4.89875 m -24.71156,-7.33003 c 3.46728,1.72983 7.00138,3.3652 10.60007,4.90489 20.43198,8.74179 42.90992,14.38715 67.1315,16.76828 m -13.50619,-3.18063 c 12.62919,2.14454 25.48065,3.21363 38.44075,3.05463 19.64622,-0.24101 38.32144,-3.29046 55.78654,-8.95413 m -28.84367,7.0158 c 18.51334,-2.2421 37.34578,-7.01344 55.30871,-13.59517 7.54023,-2.7628 14.93034,-5.8453 22.09294,-9.19738 m -20.5265,4.39635 c 24.11861,-12.28009 47.90793,-26.19508 69.47525,-43.45852 0.34878,-0.27918 0.69691,-0.55918 1.0444,-0.84003 m -11.72189,10.8404 c 4.79161,-4.14353 9.29826,-8.38437 13.50859,-12.7219 13.48896,-13.89646 23.94943,-28.80011 30.94804,-44.63887 m -9.42308,18.0761 c 8.47321,-11.61691 15.82252,-24.34459 22.18824,-37.97874 6.80194,-14.56845 12.44658,-30.09371 17.19432,-46.43272 m -8.16907,17.22887 c 5.24748,-20.64706 8.25256,-41.17184 7.32175,-61.19772 -0.32648,-7.02396 -1.13002,-13.83092 -2.4391,-20.43982 m 2.98757,26.34036 c 0,0 0.003,-0.1202 0.003,-0.1202 0.72573,-30.1258 -6.0829,-59.98852 -17.45405,-87.85514 -1.0081,-2.47051 -2.05275,-4.92717 -3.13207,-7.36906 m 12.38561,20.93528 c -2.11341,-6.51533 -4.41552,-12.79233 -6.90733,-18.85187 -7.30382,-17.76137 -16.23814,-33.6533 -26.7683,-48.08388 m 5.23968,13.8109 c -8.66951,-12.67689 -18.22711,-24.34142 -28.75073,-34.86 -6.55018,-6.54704 -13.47297,-12.64835 -20.78363,-18.26868 m 13.04007,15.60881 c -18.91271,-15.51343 -38.55869,-28.49022 -59.74284,-37.35032 -5.54728,-2.3201 -11.20408,-4.35947 -16.98385,-6.08743 m 19.22569,1.87662 c -1.82347,-0.81331 -3.64897,-1.59872 -5.47619,-2.35572 -20.09213,-8.32394 -40.44198,-13.22918 -60.56115,-13.93492 m 17.16299,6.71051 c -11.93212,-2.44986 -24.20303,-3.5968 -36.80632,-3.52999"
           id="path3647" />
        <g
           id="g3680"
           style="stroke:#000000;stroke-width:2;stroke-miterlimit:4;stroke-opacity:1;stroke-dasharray:none"
           transform="translate(0,-32)">
          <path
             inkscape:original-d="m 370,742.36218 0,-440"
             id="path3676"
             d="m 374.47689,744.43197 c 0.79361,-24.92788 -0.50896,-48.13001 -2.65676,-71.15694 m -2.41357,15.69125 c 0.82671,-25.41505 1.1827,-53.0989 2.63863,-81.06697 m -5.64655,14.97565 c 0.51132,-25.43645 0.20377,-51.19633 -0.012,-76.83561 m 6.61308,20.41831 c -1.04134,-32.18306 -1.63621,-65.59174 -4.79567,-99.32183 m 1.04553,28.00374 c -1.28718,-28.55379 0.79489,-56.41353 3.52492,-84.88783 m 1.13961,26.22703 c 0.01,-25.09285 0.35437,-49.69443 1.0483,-74.94458 m -2.07197,14.55898 c -0.55769,-23.85249 -1.27388,-49.62223 -3.06745,-75.29013 m 4.30237,437.98831 c 0.95866,-31.6041 -1.98891,-59.65557 -6.44596,-87.32171 m 0.29679,29.11302 c -1.28742,-31.88448 0.19069,-63.97487 1.10361,-98.29849 m 1.72525,24.8547 c 0.7688,-23.17742 0.18299,-47.14944 -0.56878,-71.07825 m -5.24398,16.64171 c 0.15755,-23.23172 1.26549,-47.05046 3.56815,-70.77924 m 0.48603,14.5038 c -1.08013,-23.49375 0.30412,-48.21929 2.44842,-72.96332 m 0.74726,15.52424 c -0.21148,-27.0128 -1.19939,-54.8959 -3.41055,-83.57541 m -2.87059,20.80691 c 0.08,-26.65857 1.27904,-50.434 3.72081,-73.3984 m 1.32579,439.61129 c -0.61713,-25.57097 0.0698,-49.51481 0.99823,-72.64057 m -0.30218,13.69333 c 1.16075,-24.31624 -0.0514,-46.60386 -1.93834,-68.2144 m 0.25774,18.08406 c -0.99655,-23.22974 -0.83709,-48.71777 -1.08498,-75.16165 m 0.0932,13.28 c -0.0737,-27.098 -0.69189,-53.84966 -1.97206,-80.64216 m 2.05823,21.03712 c 0.51793,-25.48195 1.32457,-50.71012 3.32174,-76.47061 m -4.61906,15.64491 c -0.58628,-23.17069 0.38052,-46.63842 1.99738,-69.36534 m -0.13782,15.93032 c -0.1356,-25.60412 0.98242,-50.10653 3.14117,-74.74121 m -3.77441,16.18941 c -0.58671,-12.01493 -0.62613,-24.115 -0.34732,-36.25801"
             style="fill:none;stroke:#000000;stroke-width:2;stroke-linecap:butt;stroke-linejoin:miter;stroke-miterlimit:4;stroke-opacity:1;stroke-dasharray:none" />
          <path
             inkscape:original-d="m 150,522.36218 440,0"
             id="path3678"
             d="m 156.28923,518.54217 c 29.9876,0.90704 58.05956,0.57475 84.72685,1.15554 m -27.38843,6.6487 c 23.48499,-0.34989 47.46376,-0.87766 71.80013,-2.13118 m -18.24221,-2.83752 c 29.10353,-0.27293 59.60614,-0.46981 91.51188,-1.2326 m -26.64128,-1.19655 c 24.62168,1.13499 51.08445,1.75557 77.44044,3.91389 m -18.81947,4.3673 c 29.05042,1.15436 61.30636,-0.21191 94.02928,-1.27949 m -20.62717,-8.41667 c 24.90692,-1.12896 48.63477,-0.16288 71.85965,1.05526 m -12.7998,4.78145 c 24.49612,0.72994 48.38075,-0.16721 72.47942,-1.53438 m -445.39953,-4.98943 c 26.90965,-0.17568 53.89949,1.78449 81.70452,5.52913 m -22.81953,0.9478 c 31.70969,0.98805 65.92483,-0.25743 99.23959,-0.83553 m -32.82359,-3.65712 c 23.81595,-0.38344 48.8788,-0.55768 74.00887,-1.14098 m -15.36737,7.33688 c 34.19758,1.40841 66.57145,-1.54561 100.41358,-4.69997 m -25.34475,4.23819 c 28.31598,-1.1444 55.86429,0.4239 84.49489,2.35287 m -19.93096,-4.96943 c 30.4947,0.61311 58.70759,0.33263 87.91456,0.58998 m -28.24834,1.73769 c 18.75837,-0.45671 37.05664,-1.14521 54.80604,-2.51351 m -434.80553,6.30321 c 23.20798,0.91219 46.14595,-0.94273 68.56039,-4.21435 m -19.85668,-2.38733 c 30.61747,0.86799 61.79946,1.01773 91.76099,2.76449 m -16.60688,1.33631 c 26.14674,-1.32004 54.00724,-0.69595 81.78793,-0.73261 m -26.64445,1.57661 c 32.55092,-0.75355 65.13901,-0.36589 98.81483,-0.948 m -33.39847,2.74535 c 33.74701,0.78333 67.0749,0.0361 103.95652,-0.0348 m -32.08423,-7.82483 c 23.52363,-0.0457 46.45914,0.31024 68.93252,0.9818 m -10.22631,6.12771 c 20.10096,0.26211 40.51837,0.16721 60.21633,0.01"
             style="fill:none;stroke:#000000;stroke-width:2;stroke-linecap:butt;stroke-linejoin:miter;stroke-miterlimit:4;stroke-opacity:1;stroke-dasharray:none" />
        </g>
      </g>
      <g
         transform="translate(189.89365,117.14409)"
         id="text3684"
         style="font-size:40px;font-style:normal;font-weight:normal;fill:#000000;fill-opacity:1;stroke:none;font-family:Bitstream Vera Sans" />
      <path
         style="fill:none;stroke:none"
         d="M 367.15688,204.90544 C 211.06281,206.4755 85.81022,334.31419 87.380273,490.40827 88.950336,646.50237 216.74904,771.79573 372.84312,770.2257 528.93719,768.65564 654.18978,640.81696 652.61973,484.72287 651.04966,328.62877 523.25097,203.33542 367.15688,204.90544 z"
         id="path3713" />
      <text
         sodipodi:linespacing="125%"
         id="text3730"
         style="font-style:normal;font-variant:normal;font-weight:bold;font-stretch:normal;font-size:57px;line-height:125%;font-family:Baskerville;-inkscape-font-specification:'Baskerville Bold';text-align:center;writing-mode:lr-tb;text-anchor:middle;fill:#ffffff;fill-opacity:1;stroke:none"
         xml:space="preserve"
         transform="translate(0,-6.099695)"><textPath
           id="textPath3734"
           startOffset="50%"
           xlink:href="#path3713"><tspan
   style="font-style:normal;font-variant:normal;font-weight:bold;font-stretch:normal;font-size:57px;line-height:125%;font-family:Baskerville;-inkscape-font-specification:'Baskerville Bold';text-align:center;writing-mode:lr-tb;text-anchor:middle;fill:#ffffff;fill-opacity:1"
   id="tspan3732">SoCraTes 2019 </tspan></textPath></text>
      <path
         id="path3739"
         d="M 176.8349,633.86081 C 96.045927,527.18879 117.05365,375.21707 223.72567,294.42807 330.39771,213.6391 482.37612,234.5983 563.1651,341.27032 643.95407,447.94235 622.94636,599.91408 516.27433,680.70306 409.60229,761.49204 257.62389,740.53281 176.8349,633.86081 z"
         style="fill:none;stroke:none" />
      <text
         sodipodi:linespacing="125%"
         id="text3741"
         style="font-style:normal;font-variant:normal;font-weight:normal;font-stretch:normal;font-size:55px;line-height:125%;font-family:Baskerville;-inkscape-font-specification:Baskerville;text-align:start;writing-mode:lr-tb;text-anchor:start;fill:#ffffff;fill-opacity:1;stroke:none;"
         xml:space="preserve"
         y="2"
         transform="translate(0.4136986,6)"><textPath
           id="textPath3745"
           xlink:href="#path3739"
           style="font-style:normal;font-variant:normal;font-weight:normal;font-stretch:normal;font-size:47.5px;line-height:125%;font-family:Baskerville;-inkscape-font-specification:Baskerville;text-align:start;writing-mode:lr-tb;text-anchor:start;fill:#ffffff;fill-opacity:1;">International Conference for Software Craft and Testing</textPath></text>
      <path
         style="fill:#ffffff;fill-opacity:1;fill-rule:nonzero;stroke:none"
         d="m 178.61274,656.15583 c -2.96998,0 -5.375,2.43627 -5.375,5.40625 0,2.96998 2.40502,5.375 5.375,5.375 2.96999,0 5.375,-2.40502 5.375,-5.375 0,-2.96998 -2.40501,-5.40625 -5.375,-5.40625 z"
         id="path3751"
         inkscape:connector-curvature="0" />
      <circle
         style="fill:#ffffff;fill-opacity:1;fill-rule:nonzero;stroke:none"
         id="path3769"
         transform="scale(1,-1)"
         cx="558.61536"
         cy="-663.55945"
         r="5.3776298" />
      <path
         inkscape:original-d="m 438.93168,357.05145 57.71884,0 c 10.41087,0 18.79218,8.38132 18.79218,18.79218 l 0,26.84598 c 0,10.41087 -8.38131,18.79218 -18.79218,18.79218 l -57.71884,0 c -10.41087,0 -18.79218,-8.38131 -18.79218,-18.79218 l 0,-26.84598 c 0,-10.41086 8.38131,-18.79218 18.79218,-18.79218 z"
         inkscape:path-effect="#path-effect3827"
         id="rect3824"
         d="m 448.50253,364.94174 c 17.81802,-0.57305 34.74166,-0.55727 51.35852,-0.41164 10.03403,0.0879 18.03593,8.42349 17.83124,18.78042 m -10.55837,-26.18595 c 5.50279,3.13211 9.22792,9.14777 9.26189,16.12376 0.0435,8.93582 0.22346,17.95352 0.50027,27.02118 0.27634,9.05241 -5.56692,16.63234 -13.4915,18.74336 m 5.55534,-3.24686 c -3.51102,5.5491 -9.76178,9.23776 -16.85003,9.08117 -18.45577,-0.40771 -36.21003,-0.9944 -53.96628,-2.03216 m 22.2768,2.76867 c -6.23905,0.21956 -12.5719,0.37612 -18.96367,0.49497 -10.18694,0.18941 -18.49018,-8.11932 -18.41449,-18.42547 0.0651,-8.86296 0.11814,-17.72522 0.24852,-26.52193 0.0985,-6.64467 3.76236,-12.41385 9.29076,-15.52808 m -17.01264,15.11403 c -0.0805,-2.74522 -0.13382,-5.48504 -0.16143,-8.22076 -0.10723,-10.62693 8.53113,-19.14287 19.45244,-19.31293 16.55494,-0.25777 33.80103,-0.53928 51.42772,-1.10805 m -38.29365,6.46064 c 15.59876,0.45242 32.11376,-0.13322 49.19456,-1.43687 10.60573,-0.80946 19.3938,5.96693 20.97903,14.55278 m -15.85817,-10.61298 c 5.05024,3.33605 8.43824,9.16148 8.49802,15.81315 0.08,8.9015 0.38321,17.76711 0.85237,26.59726 0.53579,10.08386 -6.90147,18.20311 -16.20446,18.27684 m 19.24279,-11.34853 c -3.31473,4.44699 -8.69256,7.34865 -14.85361,7.43936 -17.77398,0.26168 -36.24312,1.1643 -55.11215,2.56758 m 13.77786,1.1754 c -6.35028,0.12227 -12.78847,0.14576 -19.294,0.0842 -10.39124,-0.0983 -18.87207,-8.75499 -19.08837,-19.60393 -0.18626,-9.34186 -0.4408,-18.80456 -0.71059,-28.35267 -0.17232,-6.09846 2.19442,-11.58683 6.03876,-15.43401 m -3.32452,22.38519 c -0.0616,-2.95301 -0.10134,-5.921 -0.12077,-8.90022 -0.0654,-10.02592 8.46648,-18.17969 19.1698,-17.90195 17.90681,0.46465 36.28958,0.94949 54.8594,2.11581 m -48.55296,1.02091 c 17.22162,0.23711 33.65845,0.18132 49.89166,-4.8e-4 10.29491,-0.1153 18.50943,8.12412 18.37236,18.36502 -0.0149,1.11715 -0.0292,2.23417 -0.0426,3.35113 m -11.9997,-23.1226 c 4.56158,3.58077 7.48247,8.94751 7.5919,14.91225 0.16431,8.95568 0.1487,17.74634 0.0445,26.42224 -0.12103,10.0817 -8.71125,18.08209 -19.33581,17.54199 -5.71775,-0.29065 -11.43081,-0.6046 -17.11677,-0.92953 m 22.9899,6.30212 c -2.15701,0.97075 -4.54355,1.53077 -7.06027,1.58623 -18.60839,0.41007 -37.54372,1.71251 -56.07462,4.09444 -6.25811,0.8044 -11.71105,-1.628 -14.75638,-5.64676 m 22.01916,0.9687 c -0.9034,0.0425 -1.80602,0.0846 -2.70793,0.12643 -10.78659,0.50037 -19.4044,-7.49719 -19.69478,-17.35415 -0.24951,-8.46971 -0.50425,-16.86564 -0.83778,-25.0939 -0.19071,-4.70491 1.63491,-8.90218 4.69681,-11.79359 m -2.97555,8.72248 c 0.003,-0.57925 0.006,-1.15799 0.008,-1.73624 0.043,-10.66371 8.31316,-19.14387 18.4891,-19.16526 15.54772,-0.0327 30.7533,0.1468 45.68679,0.24445 m -45.4704,2.75204 c 18.379,0.52564 37.52971,0.78744 57.15952,1.27764 10.94482,0.27331 19.87191,8.94595 20.62893,19.82878 0.14714,2.11525 0.29808,4.23621 0.45245,6.36349 m -9.44118,-23.55627 c 5.48415,3.4322 9.12272,9.36189 9.17199,16.03191 0.0649,8.78954 0.0665,17.35186 0.043,25.7263 -0.0273,9.71978 -8.46213,17.36046 -18.91032,16.26688 -7.28325,-0.76231 -14.55539,-1.61972 -21.79606,-2.55125 m 26.6761,-0.009 c -2.01719,0.793 -4.19746,1.25048 -6.47382,1.30769 -19.14862,0.48121 -38.15929,1.08781 -56.96448,2.28035 -10.16828,0.64483 -18.31403,-7.04185 -17.95477,-16.43927 0.0472,-1.23605 0.0957,-2.46792 0.14545,-3.69543 m 11.69582,15.71528 c -8.02318,-2.02916 -13.83453,-9.37228 -13.57172,-18.21918 0.26887,-9.05087 0.66257,-18.1928 1.19272,-27.40814 0.61724,-10.72916 9.67916,-19.44299 21.05313,-19.9155 0.40318,-0.0168 0.80662,-0.0336 1.21031,-0.0505 m -28.9649,18.12394 c 3.51597,-5.50639 9.6398,-9.17819 16.66129,-9.28384 19.907,-0.29953 39.94346,-0.47635 60.76618,-0.95978 5.05056,-0.11726 9.70869,1.44199 13.43118,4.09353 m -64.14017,-3.95098 c 17.7798,-0.20567 35.23873,-0.51341 52.57019,-1.09826 10.28019,-0.34691 18.52009,7.65648 18.3433,17.51501 -0.0696,3.88234 -0.14028,7.74413 -0.2095,11.58314 m -1.86023,-24.28904 c 3.13924,3.14864 5.06579,7.6056 5.03381,12.61622 -0.0561,8.79519 0.0606,17.83047 0.29513,27.00983 0.27319,10.69255 -7.73779,19.4464 -17.66365,19.94901 -8.61895,0.43644 -17.17941,0.9122 -25.73835,1.32793 m 25.75823,1.42432 c -0.54591,0.0379 -1.09872,0.0519 -1.65742,0.041 -19.18951,-0.37407 -38.4217,-1.37154 -57.6504,-3.32685 -10.40454,-1.058 -18.78084,-10.57598 -18.7665,-22.59135 0.003,-2.23967 0.006,-4.49077 0.009,-6.75363 m 4.5984,30.35333 c -6.43217,-3.09663 -10.81218,-9.58393 -10.77239,-17.10306 0.0476,-8.98774 0.21564,-17.94838 0.46829,-26.9023 0.29396,-10.41761 9.02369,-18.79471 19.88546,-18.8124 7.62877,-0.0124 15.28758,-0.0353 22.95688,-0.0799"
         style="fill:none;stroke:#ffffff;stroke-opacity:1" />
      <path
         style="fill:none;stroke:#ffffff;stroke-width:0.45466831;stroke-opacity:1"
         d="m 449.37889,444.02642 c 17.66497,-0.56813 34.45086,-0.5575 50.93026,-0.41536 5.02832,0.0434 9.54789,0.53087 12.80179,1.27449 1.6279,0.37204 2.94285,0.80904 3.84754,1.28869 0.45238,0.23984 0.80279,0.49068 1.03798,0.74963 0.23512,0.25888 0.35572,0.52657 0.34627,0.80029 -0.0651,1.88359 -0.1312,3.76668 -0.19757,5.64865 -0.01,0.2738 -0.14915,0.54061 -0.40959,0.79939 -0.2603,0.25865 -0.64096,0.50874 -1.13036,0.74786 -0.56976,0.27839 -1.2867,0.5418 -2.131,0.7858 m -6.05378,-21.35307 c 1.04686,0.12895 2.02059,0.28309 2.90546,0.45884 1.65816,0.32933 3.00414,0.73446 3.93446,1.19181 0.46518,0.22868 0.82645,0.47042 1.071,0.72228 0.24452,0.25182 0.37235,0.5138 0.37032,0.78246 -0.014,1.84736 -0.0213,3.6988 -0.0225,5.55404 -1.7e-4,0.26984 -0.13018,0.53303 -0.37765,0.78687 -0.24748,0.25386 -0.61228,0.49826 -1.08186,0.73094 -0.93919,0.46537 -2.29687,0.8835 -3.97073,1.2368 -3.34258,0.70551 -7.96214,1.15532 -13.01564,1.19481 -12.10891,0.0947 -23.99955,0.3116 -35.77625,0.56676 m 8.9674,5.72907 c -12.39497,-0.20421 -24.38558,-0.44259 -36.16551,-0.79004 -5.12602,-0.15119 -9.70128,-0.74551 -13.00932,-1.58137 -1.65138,-0.41726 -2.9849,-0.89443 -3.90254,-1.40459 -0.45891,-0.25512 -0.81477,-0.51902 -1.0542,-0.78861 -0.23948,-0.26965 -0.36329,-0.54571 -0.35705,-0.8277 0.043,-1.9411 0.0885,-3.88589 0.13578,-5.83468 0.007,-0.28333 0.14368,-0.5602 0.40052,-0.832 0.25667,-0.27162 0.63326,-0.53798 1.11753,-0.79707 0.96838,-0.5181 2.36874,-1.00775 4.10065,-1.44854 2.05392,-0.52274 4.57569,-0.97709 7.39467,-1.32776 m -7.05045,9.49518 c 0.046,-0.9721 0.0897,-1.9457 0.13134,-2.9207 0.0112,-0.26309 0.15213,-0.51877 0.41423,-0.76362 0.26205,-0.24481 0.64414,-0.47784 1.13515,-0.69717 0.98199,-0.43864 2.39583,-0.8207 4.13883,-1.13114 3.47799,-0.61947 8.28534,-0.95631 13.54356,-0.8714 19.46788,0.31433 38.47982,0.34085 57.90406,0.70949 5.26016,0.0998 10.02605,0.65284 13.5062,1.46317 0.66392,0.15459 1.28009,0.31837 1.84257,0.48984 m -70.99885,-10.47694 c 15.47548,-0.39256 31.91637,-0.59369 48.99864,-0.87835 5.52558,-0.0921 10.59628,0.25137 14.27739,0.88216 1.84365,0.31592 3.3404,0.704 4.38438,1.14768 0.52211,0.22189 0.92955,0.45704 1.21262,0.70378 0.28333,0.24697 0.43993,0.50371 0.46716,0.76854 0.18691,1.81739 0.38076,3.6321 0.58103,5.44368 0.0291,0.2631 -0.0719,0.52068 -0.2805,0.76529 -0.20895,0.24501 -0.52713,0.47872 -0.93963,0.69741 -0.82534,0.43756 -2.03057,0.81648 -3.51762,1.11454 -1.31812,0.2642 -2.85863,0.46509 -4.55656,0.58756 m 6.66908,-4.93922 c 0.7553,0.25343 1.39986,0.51985 1.91487,0.79738 0.45674,0.24613 0.81157,0.501 1.05088,0.76303 0.23928,0.262 0.36333,0.53142 0.35759,0.80693 -0.0395,1.89524 -0.0672,3.77695 -0.0836,5.64563 -0.002,0.27177 -0.13448,0.53662 -0.38458,0.79205 -0.25002,0.25536 -0.61787,0.50112 -1.09059,0.73386 -0.94524,0.46538 -2.31034,0.87884 -3.98747,1.20986 -3.3674,0.66464 -7.94313,0.98976 -12.96248,0.76492 -15.18144,-0.68003 -29.69961,-2.15614 -43.87667,-4.13408 m 10.36477,3.96786 c -9.57079,0.004 -18.85714,-0.0318 -27.92327,-0.10589 -5.03874,-0.0412 -9.5108,-0.52702 -12.72454,-1.27586 -1.60567,-0.37415 -2.89773,-0.81415 -3.78398,-1.29644 -0.44309,-0.24112 -0.78556,-0.49328 -1.01394,-0.75325 -0.22827,-0.25985 -0.34359,-0.52863 -0.32871,-0.80314 0.10246,-1.88981 0.21195,-3.78116 0.32796,-5.67404 0.0169,-0.27546 0.16361,-0.54373 0.43401,-0.80486 0.27017,-0.26091 0.663,-0.51378 1.16786,-0.75663 1.00949,-0.48557 2.46572,-0.93032 4.27162,-1.31397 3.60985,-0.76689 8.62228,-1.29015 14.21902,-1.3997 0.66916,-0.0131 1.33885,-0.0264 2.00903,-0.0398 m -11.77767,-2.44578 c 0.49477,-0.13647 1.0288,-0.26602 1.59813,-0.38764 3.43884,-0.73461 8.13665,-1.17513 13.28924,-1.11565 18.38442,0.2122 35.99414,1.1321 53.16667,2.59936 m -47.89681,1.1754 c 16.70571,0.30477 32.86519,-0.004 48.79698,-0.7138 5.05691,-0.22525 9.60446,-0.0336 12.88091,0.48056 1.63984,0.25734 2.96165,0.59541 3.87396,1.00175 0.4559,0.20304 0.80859,0.42278 1.0462,0.65663 0.23734,0.2336 0.35964,0.48143 0.35184,0.73603 -0.0536,1.74972 -0.10844,3.49531 -0.16414,5.23709 -0.008,0.25368 -0.14607,0.49973 -0.40449,0.73157 -0.2585,0.23191 -0.63634,0.44881 -1.12307,0.64791 -0.97367,0.39828 -2.37759,0.72316 -4.11646,0.95636 -3.11877,0.41827 -7.29406,0.53911 -11.96218,0.26958 m 19.16644,-11.98988 c 0.29167,0.19038 0.52751,0.38435 0.70225,0.58107 0.24096,0.27129 0.36617,0.54818 0.36151,0.83104 -0.032,1.94659 -0.0562,3.88801 -0.0729,5.82509 -0.002,0.28158 -0.13466,0.5567 -0.38505,0.82571 -0.25026,0.26886 -0.61876,0.53162 -1.09235,0.78556 -0.94703,0.50778 -2.31611,0.98115 -4.00134,1.39408 -3.37748,0.82757 -8.00136,1.40788 -13.08471,1.55338 -18.77078,0.53726 -36.88885,0.91901 -54.73698,2.0214 -2.18128,0.13473 -4.2674,0.18554 -6.18163,0.16086 m 19.94642,1.27323 c -5.76803,0.0876 -11.64325,0.13526 -17.59634,0.1513 -5.06999,0.0137 -9.7006,-0.4338 -13.06357,-1.15607 -1.68099,-0.36103 -3.04443,-0.79058 -3.98707,-1.26556 -0.47138,-0.23752 -0.83765,-0.48644 -1.08618,-0.74407 -0.24857,-0.25767 -0.37937,-0.524 -0.38029,-0.79697 -0.006,-1.87713 -0.017,-3.75638 -0.0312,-5.63751 -0.002,-0.2735 0.12578,-0.54058 0.37045,-0.79921 0.24466,-0.25862 0.6063,-0.50894 1.07211,-0.74846 0.93155,-0.479 2.28059,-0.91525 3.9463,-1.2884 3.32883,-0.74572 7.93428,-1.24196 13.01713,-1.31731 6.25324,-0.0927 12.50054,-0.19722 18.77556,-0.30387 m -22.36126,-5.02308 c 19.4296,0.48509 37.83991,0.12585 56.04443,-0.63037 5.06997,-0.21061 9.63234,0.005 12.93032,0.54128 1.64939,0.26842 2.98074,0.61698 3.90041,1.03142 0.45962,0.20711 0.81556,0.43035 1.05585,0.66709 0.24008,0.23654 0.36447,0.48661 0.35883,0.7435 -0.0387,1.76549 -0.0767,3.52858 -0.11291,5.2897 -0.005,0.25642 -0.14041,0.50544 -0.39493,0.74105 -0.2546,0.23569 -0.62773,0.45734 -1.10836,0.6623 -0.96152,0.41003 -2.34849,0.75128 -4.0637,1.00646 -0.83795,0.12466 -1.7535,0.22867 -2.73503,0.31015 m -1.58917,-4.35869 c 1.18304,0.1636 2.27619,0.35483 3.26222,0.56856 1.74632,0.37852 3.15699,0.82765 4.13239,1.31829 0.48788,0.2454 0.86725,0.50135 1.12624,0.76484 0.25916,0.26367 0.39765,0.53459 0.40623,0.81237 0.059,1.91006 0.11512,3.82857 0.16912,5.75568 0.008,0.28 -0.11438,0.5542 -0.3517,0.82191 -0.23733,0.26772 -0.59049,0.52964 -1.04616,0.78358 -0.91147,0.50796 -2.23528,0.98529 -3.87432,1.41565 -3.27036,0.85869 -7.83,1.53774 -12.85811,1.88558 -15.83486,1.09542 -31.65584,2.89021 -47.0227,5.497 m 24.79396,-7.28373 c -10.21255,0.48024 -20.32497,0.91376 -30.43496,1.42526 -5.30004,0.26814 -10.11154,0.0985 -13.57577,-0.39534 -1.73726,-0.24765 -3.14149,-0.57734 -4.11606,-0.97709 -0.4872,-0.19984 -0.86555,-0.4166 -1.12463,-0.6482 -0.25898,-0.23152 -0.39743,-0.47696 -0.4061,-0.72999 -0.0595,-1.73696 -0.12131,-3.46812 -0.18601,-5.19265 -0.009,-0.25095 0.11121,-0.49492 0.34615,-0.72303 0.23522,-0.22839 0.58485,-0.44107 1.03661,-0.63456 0.90377,-0.38707 2.21367,-0.69633 3.8327,-0.90615 3.04402,-0.3945 7.16835,-0.43634 11.72838,0.0127 m -13.62969,-3.84459 c 0.92879,-0.44271 2.1947,-0.85202 3.72062,-1.20801 3.38405,-0.78949 8.02341,-1.31259 13.13753,-1.37207 18.88196,-0.21962 37.24285,-0.0101 55.20328,0.12257 1.49331,0.011 2.93946,0.0624 4.31675,0.14908 m -56.11454,2.63316 c 17.10827,0.4893 34.88523,0.74998 53.09486,1.17907 5.41078,0.1275 10.31938,0.69476 13.89605,1.51046 1.78583,0.40727 3.23453,0.8755 4.24034,1.37948 0.50308,0.25207 0.89534,0.51304 1.16521,0.78061 0.27017,0.26787 0.41702,0.54147 0.43419,0.82222 0.11806,1.92971 0.24005,3.86307 0.3657,5.80057 0.0183,0.28131 -0.0935,0.55731 -0.31669,0.82657 -0.22325,0.26935 -0.55927,0.53335 -0.99337,0.78917 -0.86834,0.51173 -2.13317,0.99318 -3.69455,1.42396 -1.97447,0.54476 -4.42706,1.0096 -7.16386,1.35385 m 8.1926,-13.36964 c 1.26825,0.33072 2.31077,0.69274 3.07888,1.07975 0.47966,0.24168 0.85204,0.49297 1.10544,0.75227 0.25344,0.25934 0.38766,0.52644 0.39189,0.80011 0.0291,1.88155 0.0546,3.75237 0.0769,5.61282 0.003,0.27048 -0.12358,0.53439 -0.36708,0.78829 -0.24352,0.25392 -0.60403,0.49811 -1.06901,0.72907 -0.9299,0.46191 -2.27876,0.87151 -3.94986,1.20035 -3.35252,0.65971 -7.96728,0.98918 -13.13374,0.78848 -19.05551,-0.74026 -38.32468,-2.43803 -57.43654,-4.71124 -3.40859,-0.40542 -6.58889,-0.99232 -9.32518,-1.67877 m 26.79049,1.65777 c -6.33161,0.15135 -12.64904,0.3106 -18.94985,0.49431 -5.12008,0.14929 -9.74266,-0.13477 -13.06797,-0.71902 -1.66539,-0.29261 -3.00919,-0.66097 -3.937,-1.08966 -0.46378,-0.21429 -0.82306,-0.44343 -1.06596,-0.68492 -0.24275,-0.24135 -0.36905,-0.49504 -0.36531,-0.75549 0.0257,-1.79017 0.0531,-3.57676 0.0821,-5.35935 0.004,-0.25946 0.13839,-0.51168 0.39171,-0.75123 0.25339,-0.23962 0.62533,-0.46611 1.10465,-0.6766 0.95865,-0.42098 2.34417,-0.7768 4.06044,-1.04636 3.43429,-0.5394 8.18054,-0.73182 13.46499,-0.41341 11.59271,0.69849 23.25663,1.59948 35.00559,2.79723 m -28.5121,-6.58435 c 16.57916,0.148 33.54581,-0.0684 50.9727,-0.53861 5.45698,-0.14725 10.43661,0.13062 14.05452,0.71292 1.8107,0.29143 3.27885,0.65876 4.30187,1.08718 0.51151,0.21421 0.91014,0.443 1.18598,0.68454 0.276,0.24168 0.42714,0.49454 0.44881,0.75537 0.14874,1.79009 0.30373,3.57749 0.46508,5.36236 0.0234,0.25937 -0.0832,0.5128 -0.29928,0.75246 -0.21643,0.24002 -0.54353,0.46745 -0.96708,0.67882 -0.8476,0.42298 -2.0816,0.782 -3.60441,1.05746 -0.29993,0.0543 -0.61106,0.10526 -0.93265,0.15289 m -11.60921,-2.29767 c 0.28271,0.0448 0.55792,0.0915 0.8253,0.13994 1.7439,0.31614 3.15349,0.70864 4.12997,1.15628 0.48831,0.22385 0.86784,0.46126 1.12741,0.7097 0.25963,0.24849 0.39852,0.50737 0.40757,0.77348 0.0622,1.82838 0.12434,3.65874 0.18701,5.4907 0.009,0.26634 -0.11182,0.52637 -0.3473,0.77548 -0.23563,0.24926 -0.58626,0.48806 -1.03899,0.71364 -0.90564,0.45124 -2.21992,0.84973 -3.84559,1.17673 -3.24845,0.65341 -7.75113,1.02311 -12.70975,0.95179 -18.33669,-0.26373 -36.39659,-0.50421 -53.53777,-1.14101 -0.11852,-0.004 -0.23671,-0.009 -0.35454,-0.0141 m 25.09066,0.53095 c -7.89032,-0.0937 -15.84727,-0.20866 -23.85256,-0.36135 -5.17443,-0.0987 -9.85639,-0.64066 -13.25473,-1.4349 -1.69741,-0.3967 -3.07218,-0.85592 -4.02224,-1.35289 -0.47512,-0.24853 -0.84441,-0.50669 -1.09521,-0.77178 -0.25091,-0.26521 -0.38338,-0.53736 -0.38595,-0.81602 -0.0177,-1.91673 -0.0371,-3.83625 -0.0582,-5.75878 -0.003,-0.27941 0.12384,-0.55268 0.36729,-0.81926 0.24341,-0.26653 0.60378,-0.52671 1.068,-0.77814 0.92838,-0.50283 2.27407,-0.97167 3.93668,-1.38596 3.32326,-0.82808 7.92473,-1.44088 13.00625,-1.66834 8.38741,-0.37544 16.75886,-0.82901 25.13651,-1.38075"
         id="path3829"
         inkscape:path-effect="#path-effect3831"
         inkscape:original-d="m 439.80804,436.13613 57.27909,0 c 10.33154,0 18.649,1.74591 18.649,3.9146 l 0,5.5923 c 0,2.16869 -8.31746,3.91461 -18.649,3.91461 l -57.27909,0 c -10.33154,0 -18.649,-1.74592 -18.649,-3.91461 l 0,-5.5923 c 0,-2.16869 8.31746,-3.9146 18.649,-3.9146 z" />
      <g
         transform="matrix(0.79562006,0,0,0.79562006,70.938154,64.577691)"
         id="g3841">
        <path
           style="fill:none;stroke:#ffffff;stroke-width:1px;stroke-linecap:butt;stroke-linejoin:miter;stroke-opacity:1"
           d="m 286.93423,463.15384 c -0.0426,-1.18748 -0.0815,-2.50611 -0.11061,-3.92214 -0.1285,-6.24287 -0.0835,-14.81876 0.82086,-22.96934 0.45813,-4.12904 1.14382,-8.24252 2.16954,-12.08003 1.02643,-3.84013 2.39438,-7.40873 4.22106,-10.4614 1.82642,-3.05224 4.10995,-5.58537 6.95534,-7.34756 2.84464,-1.76174 6.24669,-2.74973 10.29336,-2.70658 3.03111,0.0323 5.68583,0.64701 8.00246,1.73569 m -19.87298,-9.17791 c 2.8318,-1.75643 6.22625,-2.76947 10.27132,-2.80137 4.16993,-0.0329 7.68298,1.00688 10.62451,2.84059 2.9434,1.83486 5.32052,4.4669 7.24386,7.63524 1.92283,3.16748 3.39412,6.87459 4.52097,10.85474 1.12633,3.97829 1.91112,8.23976 2.45055,12.50253 0.66979,5.29289 0.96449,10.61525 1.05377,15.4153 m -6.90886,-9.70318 c 0.005,0.0998 0.01,0.19958 0.0147,0.29938 0.39336,8.19107 -0.0385,16.51741 -0.55169,22.60684 -0.25938,3.0778 -0.54227,5.62085 -0.76456,7.41397 -0.11101,0.89541 -0.20567,1.59407 -0.27361,2.07493 -0.0339,0.23987 -0.0608,0.42317 -0.0794,0.54769 -0.009,0.0622 -0.0165,0.10928 -0.0214,0.14112 -6e-4,0.004 -0.005,0.0322 -0.006,0.0361 -6.1e-4,0.004 -0.001,0.009 -0.002,0.0126 0,1e-5 0,1e-5 0,1e-5 -13.43779,-0.77089 -26.59033,-1.67878 -39.74396,-2.8344 m 22.27,3.24511 c -7.33826,0.0386 -14.80638,-0.01 -22.34755,-0.10455 0,0 0,0 0,-10e-6 -0.001,-0.0105 -0.50353,-4.05053 -0.78386,-10.14681 -0.27865,-6.05975 -0.34298,-14.27204 0.63687,-22.37741 0.49189,-4.06897 1.24821,-8.13071 2.3786,-11.93044 1.13021,-3.79916 2.63348,-7.333 4.61528,-10.34529 1.98048,-3.01028 4.44196,-5.50396 7.48634,-7.20765 1.36791,-0.7655 2.8554,-1.37257 4.47271,-1.79498 m -26.86253,46.61155 c -0.0282,-0.30888 -0.0557,-0.62333 -0.0824,-0.94312 -0.53427,-6.39899 -0.71325,-14.62107 0.42431,-23.05866 0.56394,-4.18289 1.44439,-8.35331 2.73062,-12.27399 1.28482,-3.91641 2.97325,-7.57839 5.14457,-10.72314 2.17137,-3.14482 4.83033,-5.78043 8.08056,-7.6481 3.25477,-1.87027 7.10594,-2.97524 11.72764,-3.08355 4.62425,-0.10837 8.51245,0.83584 11.82931,2.55773 1.48017,0.76841 2.84663,1.69176 4.11213,2.74465 m -20.43397,1.39583 c 1.70058,-0.41949 3.55891,-0.62921 5.59415,-0.60246 4.12729,0.0542 7.60516,1.08345 10.54906,2.87061 2.93994,1.78475 5.32526,4.31238 7.27896,7.31723 1.95102,3.00073 3.47275,6.48039 4.67023,10.15214 1.19645,3.66855 2.07817,7.55774 2.73033,11.3783 1.29924,7.61145 1.72394,15.16232 1.82578,20.62077 0.0109,0.58255 0.0181,1.14364 0.0224,1.68133 m -6.62505,-13.5983 c -0.0222,5.73318 -0.31499,11.24313 -0.6384,15.61293 -0.23216,3.13682 -0.4837,5.73676 -0.68083,7.5656 -0.0987,0.91535 -0.18252,1.62698 -0.24315,2.11925 -0.0302,0.24528 -0.0541,0.43211 -0.0708,0.55956 -0.008,0.0635 -0.0147,0.11162 -0.0191,0.14419 -5.3e-4,0.004 -0.004,0.0329 -0.005,0.0369 -5.6e-4,0.004 -0.001,0.009 -0.002,0.0129 0,0 -10e-6,10e-6 -10e-6,10e-6 -15.31341,-0.56439 -29.99079,-1.2384 -44.33932,-2.01984 0,0 0,0 0,-10e-6 1.1e-4,0.002 -0.0305,-0.53364 -0.0608,-1.48513 m 20.28936,-2.07397 c -4.98442,-0.195 -10.0347,-0.33286 -15.14375,-0.41695 0,0 0,0 0,-10e-6 -0.0109,-0.073 -0.58641,-4.01752 -1.06652,-10.09359 -0.47,-5.94813 -0.85015,-13.98878 -0.32456,-21.68978 0.26504,-3.8833 0.76201,-7.73596 1.60815,-11.31184 0.70929,-2.99752 1.66413,-5.80165 2.93361,-8.27241 m -7.18283,46.70302 c -0.0251,-0.58368 -0.0486,-1.19251 -0.07,-1.82391 -0.20271,-5.99255 -0.21899,-14.33402 0.68222,-22.61801 0.45398,-4.17305 1.14548,-8.38614 2.18296,-12.35971 1.03831,-3.97673 2.42337,-7.71537 4.26917,-10.95454 1.84694,-3.24117 4.14825,-5.97052 7.01649,-7.95354 2.8678,-1.98271 6.28947,-3.21029 10.36337,-3.47259 4.07259,-0.2622 7.46532,0.54789 10.27854,2.13993 2.81205,1.59139 5.04085,3.96178 6.78633,6.82509 0.0875,0.14359 0.17386,0.28844 0.25899,0.43449 M 307.4598,391.7072 c 1.01829,-0.0972 2.08538,-0.12412 3.20386,-0.0755 4.13535,0.1798 7.61254,1.35418 10.53538,3.30732 2.92176,1.95242 5.27787,4.67499 7.18724,7.92667 1.90771,3.24886 3.36801,7.02443 4.48942,11.06293 1.12074,4.03606 1.90646,8.34862 2.45294,12.65943 1.08987,8.59718 1.2437,17.32879 1.12973,23.87581 -0.0572,3.28636 -0.18229,6.03642 -0.29435,7.97204 -0.056,0.96776 -0.10854,1.7276 -0.14739,2.24884 -0.0194,0.26036 -0.0353,0.45982 -0.0464,0.59505 -0.006,0.0675 -0.01,0.11882 -0.0129,0.15343 -3.6e-4,0.004 -0.003,0.035 -0.003,0.0393 -3.8e-4,0.004 -8.3e-4,0.009 -0.001,0.0137 0,10e-6 0,10e-6 0,10e-6 -2.58868,0.0748 -5.17146,0.16415 -7.74949,0.2708 m 4.92827,-15.19213 c 0.0177,2.15638 -0.0208,4.17963 -0.0907,6.02312 -0.12046,3.17498 -0.33477,5.82357 -0.51542,7.66676 -0.0903,0.92176 -0.17318,1.65102 -0.23254,2.14428 -0.0297,0.24718 -0.0539,0.43796 -0.0705,0.56595 -0.008,0.0641 -0.0148,0.11302 -0.0192,0.14582 -5.4e-4,0.004 -0.004,0.0332 -0.005,0.0373 -5.6e-4,0.004 -0.001,0.009 -0.002,0.013 0,10e-6 -10e-6,10e-6 -10e-6,10e-6 -15.32966,-0.39083 -31.19658,-0.99747 -47.09543,-1.6748 0,0 0,0 0,-10e-6 0.003,0.0201 -0.65723,-4.21178 -1.10135,-10.45129 -0.17963,-2.52365 -0.32499,-5.39156 -0.37544,-8.45768 m -3.94858,11.95987 c -0.11909,-1.69307 -0.29643,-4.69459 -0.39711,-8.49578 -0.15856,-5.98593 -0.14228,-14.40883 0.76809,-22.67898 0.46014,-4.17999 1.15482,-8.39613 2.19624,-12.36863 1.04229,-3.9758 2.43181,-7.70829 4.28545,-10.9378 1.85439,-3.23081 4.16681,-5.9472 7.05037,-7.91101 2.88272,-1.96324 6.32686,-3.16786 10.4353,-3.39252 4.10836,-0.22465 7.54221,0.62522 10.40329,2.26171 0.58543,0.33486 1.14684,0.70264 1.68509,1.10088 m -24.03729,6.43208 c 3.05975,-1.7261 6.67694,-2.67546 10.94817,-2.56341 4.31926,0.11331 7.92451,1.29707 10.9308,3.28644 3.00858,1.99088 5.4288,4.79578 7.37686,8.17265 1.94844,3.37754 3.42442,7.32728 4.54226,11.60203 1.11745,4.27323 1.87631,8.86964 2.38696,13.51698 1.01325,9.22129 1.06386,18.86909 0.89854,26.07179 -0.0351,1.529 -0.0804,2.95903 -0.12989,4.25958 m 4.53855,-28.21975 c -0.001,6.66634 -0.44935,13.00871 -0.96405,18.07552 -0.33533,3.30108 -0.69713,6.0447 -0.97814,7.97874 -0.14026,0.96532 -0.25961,1.72353 -0.34426,2.24243 -0.0423,0.25927 -0.0758,0.45819 -0.0989,0.59274 -0.0115,0.0673 -0.0204,0.11835 -0.0264,0.15279 -7.4e-4,0.004 -0.006,0.0349 -0.007,0.0391 -7.5e-4,0.004 -0.002,0.009 -0.002,0.0137 0,0 0,1e-5 0,1e-5 -15.64557,0.34388 -31.27204,0.8577 -47.24189,2.0041 m 18.55037,-5.63073 c -5.80768,-0.32665 -11.66757,-0.5989 -17.5762,-0.83126 0,0 0,-10e-6 0,-10e-6 -0.008,-0.0502 -0.62326,-4.13249 -1.11281,-10.36804 -0.48339,-6.15707 -0.8442,-14.44113 -0.26012,-22.57321 0.29343,-4.08539 0.82665,-8.16653 1.71236,-11.98823 0.88616,-3.82364 2.12496,-7.38707 3.82976,-10.44486 0.75849,-1.36047 1.60852,-2.61952 2.55928,-3.75559 m -8.95348,56.99195 c -0.16034,-1.44919 -0.32332,-3.16959 -0.4561,-5.10239 -0.41589,-6.05371 -0.51967,-14.00195 0.5795,-22.09993 0.54648,-4.02615 1.38608,-8.04772 2.6124,-11.81606 1.22546,-3.76568 2.83679,-7.2768 4.92215,-10.26876 2.08454,-2.9908 4.64919,-5.47241 7.79247,-7.16757 3.14425,-1.69569 6.88149,-2.61289 11.34228,-2.461 4.46346,0.15199 8.21016,1.34539 11.37505,3.33542 2.19084,1.37757 4.10587,3.13864 5.78754,5.20249 m -23.15819,-8.18523 c 2.07892,-0.62461 4.36614,-0.95281 6.88996,-0.93702 4.25834,0.0267 7.78797,1.04622 10.73689,2.82927 2.94451,1.78037 5.29503,4.31509 7.16176,7.33243 1.86638,3.01677 3.24835,6.51496 4.25292,10.22305 1.00485,3.70911 1.63272,7.62959 1.99479,11.50996 0.7238,7.75726 0.38748,15.3679 -0.11616,20.9836 -0.25221,2.81224 -0.54822,5.14437 -0.78018,6.76826 -0.11612,0.81301 -0.21654,1.45088 -0.288,1.88595 -0.0357,0.21757 -0.0642,0.38443 -0.0839,0.49719 -0.01,0.0564 -0.0174,0.0992 -0.0226,0.12807 -6.4e-4,0.004 -0.005,0.0292 -0.006,0.0328 -6.5e-4,0.004 -0.001,0.008 -0.002,0.0114 -1e-5,10e-6 -1e-5,10e-6 -1e-5,10e-6 -3.67826,-0.53588 -7.3511,-1.0935 -11.01588,-1.67011 m 10.9625,-15.85314 c -0.0794,2.50211 -0.20796,4.85191 -0.35631,6.97012 -0.22586,3.22483 -0.49796,5.91963 -0.71363,7.80658 -0.10791,0.94424 -0.20169,1.68616 -0.26874,2.19355 -0.0335,0.25362 -0.0603,0.44811 -0.0788,0.57973 -0.009,0.0658 -0.0164,0.11575 -0.0212,0.14944 -5.9e-4,0.004 -0.005,0.0341 -0.006,0.0382 -6.2e-4,0.004 -0.001,0.009 -0.002,0.0134 -1e-5,10e-6 -1e-5,10e-6 -1e-5,10e-6 -15.54232,-0.005 -30.98483,0.13087 -46.29107,0.65497 0,0 0,0 -10e-6,-10e-6 9.2e-4,0.007 -0.49905,-3.88796 -0.69094,-9.59085 -0.19271,-5.72697 -0.0747,-13.24021 1.14769,-20.60311 0.0321,-0.19314 0.0649,-0.38616 0.0985,-0.57904"
           id="path3833"
           inkscape:path-effect="#path-effect3835"
           inkscape:original-d="m 284.56732,461.75075 c 0,0 -9.39609,-65.77264 24.16138,-65.77264 33.55746,0 22.81907,67.11494 22.81907,67.11494 l -46.98045,-1.3423 z" />
        <path
           sodipodi:type="arc"
           style="fill:none;stroke:#ffffff;stroke-width:2;stroke-linecap:butt;stroke-linejoin:miter;stroke-miterlimit:4;stroke-opacity:1;stroke-dasharray:none"
           id="path3837"
           sodipodi:cx="-3.3557467"
           sodipodi:cy="340.27274"
           sodipodi:rx="23.490227"
           sodipodi:ry="18.121033"
           d="m 10.270626,341.30024 c -1.1322543,2.55813 -2.9388611,4.88227 -5.2903607,6.81943 -4.33261675,3.5692 -10.2420509,5.60475 -16.4140093,5.69186 -6.170901,0.0871 -12.097471,-1.78008 -16.454332,-5.14982 -4.356862,-3.36974 -6.789878,-7.9674 -6.740667,-12.75514 0.04921,-4.78745 2.577273,-9.38017 7.059986,-12.73548 1.624545,-1.21597 3.473858,-2.24483 5.492463,-3.05235 m -3.467974,21.21708 c 0.402415,-4.2211 2.688397,-8.16041 6.456154,-11.159 4.370749,-3.47847 10.4166791,-5.44119 16.8448391,-5.47205 6.4270424,-0.0309 12.7008749,1.8719 17.4506499,5.26955 4.757557,3.40321 7.577543,8.00757 7.972581,12.82093 0.216388,2.63661 -0.302871,5.24085 -1.488101,7.62984 m 1.945694,-7.54261 c -1.049371,1.5523 -2.371177,2.97755 -3.927835,4.23507 -4.425249,3.57485 -10.5047621,5.60234 -16.9567252,5.66288 -6.4503784,0.0605 -12.7391645,-1.84957 -17.5100168,-5.27236 -4.779386,-3.42891 -7.624053,-8.07284 -8.059475,-12.93287 -0.434968,-4.85496 1.56661,-9.52258 5.336175,-12.98107 0.727124,-0.66712 1.513392,-1.28297 2.350168,-1.84197 m -17.202513,25.41938 c 0.536224,-4.38893 2.996162,-8.48641 6.983267,-11.61109 4.53113,-3.55104 10.690691,-5.57743 17.1919468,-5.66935 6.4999013,-0.0919 12.8048284,1.7569 17.5749162,5.09842 4.777619,3.3468 7.607424,7.89895 8.020534,12.65001 0.41253,4.74439 -1.61825,9.28762 -5.426991,12.57088 -3.4483686,2.97261 -8.1095991,4.70174 -12.99462313,4.81696 M 14.358682,349.09839 c -1.136473,1.80102 -2.641004,3.43924 -4.4520768,4.84789 -4.3863881,3.41172 -10.31419137,5.28168 -16.4641602,5.17869 -6.148875,-0.10296 -12.017117,-2.17006 -16.298394,-5.75492 -4.279487,-3.58336 -6.630686,-8.39563 -6.486626,-13.42009 0.144222,-5.03016 2.775364,-9.88387 7.390787,-13.60791 3.285958,-2.65135 7.418269,-4.59953 11.93878,-5.65081 m -15.33076,15.85828 c 1.243975,-2.47804 3.217921,-4.74048 5.77594,-6.61804 4.445673,-3.26308 10.3625351,-5.15014 16.4018495,-5.25077 6.0426436,-0.10068 11.7219914,1.59487 15.7821095,4.73114 4.051427,3.12956 6.173605,7.46088 5.764251,11.94767 -0.409528,4.4887 -3.32531,8.74852 -8.31096,11.70698 -0.5637346,0.33452 -1.1509908,0.65062 -1.7603056,0.94719 m 8.4479616,-5.15066 c -0.542839,4.30622 -2.967264,8.30668 -6.8526242,11.30126 -4.4034701,3.3939 -10.33489221,5.22684 -16.4786202,5.07023 -6.1417936,-0.15656 -11.9948496,-2.28908 -16.2578606,-5.93947 -4.26133,-3.64895 -6.594954,-8.52321 -6.433712,-13.60869 0.116648,-3.67899 1.532786,-7.29605 4.111474,-10.47602 m -6.521606,9.90994 c -0.756031,-1.84081 -1.112524,-3.78725 -1.04758,-5.75692 0.156668,-4.75156 2.750231,-9.34299 7.27032,-12.80183 4.51567,-3.45545 10.582234,-5.49574 16.8871477,-5.70505 6.3077725,-0.20939 12.3417856,1.43014 16.8151113,4.53763 4.010223,2.78579 6.480328,6.55501 6.997038,10.57766 M 7.3475617,323.64372 c 0.309253,0.20498 0.6110148,0.41764 0.9048916,0.63768 4.2237617,3.16253 6.6221817,7.68892 6.6012067,12.482 -0.02102,4.80361 -2.459162,9.46935 -6.7571178,13.05226 -4.2917028,3.57769 -10.0864172,5.78376 -16.0487772,6.1915 -5.967986,0.40812 -11.625743,-1.01668 -15.711318,-3.91822 -4.078294,-2.89636 -6.25793,-7.03883 -5.940684,-11.35216 0.220446,-2.99721 1.640341,-5.92026 4.153116,-8.37329 m 40.582605,22.02022 c -1.235763,2.88345 -3.394486,5.48521 -6.2810331,7.54186 -4.499503,3.20586 -10.4498411,4.86269 -16.5214971,4.52357 -6.0703448,-0.33905 -11.7723188,-2.64725 -15.8477148,-6.48486 -4.069694,-3.83223 -6.203612,-8.89578 -5.813494,-14.18702 0.391246,-5.30655 3.286248,-10.45193 8.236373,-14.58681 4.288972,-3.58262 9.844463,-6.17325 15.8006593,-7.48541 m -22.0656463,13.30774 c 1.223169,-2.89127 3.27987,-5.50836 6.000113,-7.63458 4.48718,-3.50733 10.476857,-5.44577 16.6519643,-5.38986 6.1733202,0.0559 12.030251,2.10031 16.2860067,5.66674 4.253236,3.56432 6.57105,8.36666 6.390912,13.37204 -0.180373,5.01194 -2.849154,9.84386 -7.502142,13.52384 -1.9014543,1.50383 -4.0901216,2.77943 -6.4837115,3.78075"
           transform="matrix(0.67269831,0,0,0.87201638,308.66794,72.60235)"
           inkscape:path-effect="#path-effect3839" />
      </g>
      <path
         style="fill:none;stroke:#ffffff;stroke-width:1px;stroke-linecap:butt;stroke-linejoin:miter;stroke-opacity:1"
         d="m 232.82599,457.49038 c -0.13144,-1.11993 -0.26353,-2.36035 -0.38637,-3.70116 -0.55162,-6.02091 -0.90507,-13.96322 -0.2137,-21.90546 0.34475,-3.96038 0.94858,-7.90443 1.91342,-11.5793 0.96483,-3.67486 2.29088,-7.08129 4.08003,-9.9666 1.78811,-2.88364 4.04218,-5.25074 6.84904,-6.82365 2.80353,-1.57106 6.16997,-2.3537 10.14294,-2.02499 2.97646,0.24626 5.57496,1.0692 7.82324,2.37223 m -15.42413,-6.07451 c 2.82395,-1.80196 6.19304,-2.86844 10.19253,-2.9825 4.1207,-0.11751 7.57142,0.83456 10.44118,2.57164 2.87041,1.73748 5.16146,4.26075 6.97473,7.29464 1.81338,3.03409 3.14994,6.58026 4.11404,10.36935 0.96421,3.7895 1.5561,7.82248 1.88067,11.83629 0.40361,4.99136 0.39321,9.93847 0.17814,14.38739 m -5.03219,-6.02932 c 0.0129,0.10373 0.0255,0.20745 0.038,0.31114 1.03474,8.58109 0.89438,16.92746 0.49762,23.14822 -0.19787,3.10238 -0.45972,5.67858 -0.66994,7.47066 -0.10521,0.89684 -0.19815,1.60287 -0.26441,2.08256 -0.0332,0.24012 -0.0598,0.42477 -0.0781,0.54916 -0.009,0.0622 -0.0163,0.10961 -0.0211,0.14146 -5.9e-4,0.004 -0.005,0.0322 -0.006,0.0362 -6.1e-4,0.004 -0.001,0.009 -0.002,0.0126 0,10e-6 0,10e-6 0,10e-6 -13.41709,-0.7405 -26.94449,-1.80498 -40.36372,-3.04697 m 4.11982,-11.76176 c -0.0145,-0.29058 -0.0286,-0.58676 -0.0422,-0.88826 -0.26561,-5.89549 -0.34914,-14.06741 0.50106,-22.23685 0.42736,-4.1064 1.09407,-8.25144 2.10752,-12.15634 1.0142,-3.90776 2.37589,-7.57689 4.19757,-10.74483 1.82249,-3.16934 4.09995,-5.82768 6.94011,-7.7309 2.83868,-1.90223 6.23148,-3.04391 10.26054,-3.18892 4.02768,-0.14496 7.37897,0.77548 10.14379,2.48492 2.76482,1.70943 4.93988,4.20564 6.62056,7.22015 0.66252,1.18832 1.24839,2.45733 1.76427,3.79164 m -25.60133,-15.9779 c 0.35397,0.002 0.71258,0.01 1.0759,0.0255 4.30259,0.18401 7.8568,1.32367 10.82752,3.22318 2.96524,1.89601 5.32904,4.53933 7.20443,7.67267 1.87475,3.13226 3.25841,6.74984 4.25774,10.58578 0.9997,3.83731 1.61445,7.89069 1.95745,11.91334 0.68569,8.04145 0.28524,15.96281 -0.27467,21.86381 -0.2799,2.94997 -0.60145,5.41054 -0.85128,7.12471 -0.12514,0.85864 -0.23281,1.53357 -0.30922,1.99397 -0.0382,0.23029 -0.0686,0.40697 -0.0896,0.52639 -0.0104,0.0597 -0.0185,0.10507 -0.024,0.13564 -6.8e-4,0.004 -0.006,0.0309 -0.006,0.0347 -6.9e-4,0.004 -0.002,0.008 -0.002,0.0121 0,10e-6 0,10e-6 0,10e-6 -1.45412,-0.13551 -2.90771,-0.27186 -4.36053,-0.40869 m 9.08157,-17.19671 c -0.009,2.41098 -0.0811,4.67661 -0.18529,6.72684 -0.16153,3.17853 -0.39998,5.84525 -0.59559,7.70745 -0.0978,0.93156 -0.18565,1.6679 -0.24844,2.16799 -0.0314,0.25041 -0.0568,0.44329 -0.0743,0.57312 -0.009,0.065 -0.0155,0.11447 -0.0201,0.14773 -5.7e-4,0.004 -0.005,0.0337 -0.005,0.0378 -5.8e-4,0.004 -0.001,0.009 -0.002,0.0132 -10e-6,10e-6 -10e-6,10e-6 -10e-6,10e-6 -12.64555,-0.15173 -25.50632,-0.16547 -38.39079,0.003 m -11.26739,4.59029 c -0.27427,-1.7618 -0.70481,-4.81526 -1.07512,-8.72261 -0.59192,-6.24586 -1.01877,-14.58188 -0.44482,-23.07315 0.28629,-4.23552 0.82176,-8.49879 1.7102,-12.51863 0.88898,-4.02231 2.13076,-7.79906 3.83262,-11.07404 1.7035,-3.27815 3.85926,-6.03713 6.56848,-8.05563 2.24477,-1.67246 4.85673,-2.82644 7.87036,-3.34945 m -8.99296,3.67041 c 1.47902,-1.97306 3.23587,-3.6514 5.30525,-4.92948 2.81752,-1.74015 6.20311,-2.73205 10.25147,-2.73397 4.04941,-0.002 7.42752,1.00829 10.23195,2.79063 2.80231,1.78099 5.01954,4.3257 6.74723,7.36951 1.72741,3.04332 2.964,6.58278 3.80887,10.35587 0.84536,3.77529 1.29781,7.7794 1.46353,11.77244 0.0748,1.80167 0.0911,3.5989 0.0596,5.37211 m -9.28044,-16.66882 c 0.71349,2.86567 1.2377,5.85678 1.6145,8.87923 1.0357,8.3078 0.95512,16.87169 0.63137,23.37491 -0.16162,3.24668 -0.38529,5.99169 -0.56646,7.90746 -0.0908,0.96051 -0.17145,1.7175 -0.22943,2.23469 -0.029,0.25867 -0.0523,0.45715 -0.0684,0.59147 -0.008,0.0671 -0.0143,0.11813 -0.0186,0.15252 -5.3e-4,0.004 -0.004,0.0348 -0.005,0.039 -5.4e-4,0.004 -0.001,0.009 -0.002,0.0136 -10e-6,1e-5 -10e-6,2e-5 -10e-6,2e-5 -13.61094,0.29109 -27.1709,1.00487 -40.38332,1.94597 m -5.69756,-4.3791 c -0.068,-0.77911 -0.13387,-1.60619 -0.19486,-2.476 -0.42682,-6.08703 -0.61076,-14.20245 0.29634,-22.45593 0.45233,-4.11555 1.17474,-8.24662 2.26694,-12.13253 1.09212,-3.88564 2.55357,-7.52458 4.48341,-10.65423 1.93022,-3.13027 4.3278,-5.74945 7.29591,-7.60407 2.96821,-1.85467 6.50541,-2.9439 10.71665,-3.02175 4.21106,-0.0778 7.7262,0.90223 10.65535,2.67012 2.58262,1.55875 4.71039,3.73057 6.45395,6.33092 m -19.35981,-15.62028 c 1.32696,-0.21352 2.74199,-0.29711 4.25015,-0.23675 4.02899,0.16126 7.39907,1.31787 10.20062,3.25172 2.80064,1.93322 5.02048,4.63448 6.76114,7.86081 1.73985,3.22482 2.99739,6.96781 3.87531,10.97225 0.87808,4.00517 1.37561,8.26781 1.59789,12.53708 0.44702,8.58614 -0.22299,17.04322 -1.06551,23.56959 -0.41817,3.23932 -0.87011,5.93866 -1.22008,7.84438 -0.0878,0.47797 -0.16897,0.90507 -0.24126,1.27637 m 5.59033,-24.58769 c 0.15686,4.07896 0.0699,7.93539 -0.11216,11.26157 -0.17262,3.1538 -0.43057,5.82413 -0.64196,7.69326 -0.10571,0.93474 -0.20067,1.67663 -0.26832,2.17975 -0.0339,0.25205 -0.0613,0.44661 -0.08,0.57734 -0.009,0.0655 -0.0167,0.11539 -0.0217,0.1489 -6.1e-4,0.004 -0.005,0.0339 -0.006,0.0381 -6.2e-4,0.004 -0.001,0.009 -0.002,0.0133 0,1e-5 0,2e-5 0,2e-5 -12.79192,-0.0478 -25.95306,0.39207 -39.23616,1.19575 m -14.12717,-0.66634 c -0.01,-0.13414 -0.0193,-0.26931 -0.0288,-0.4055 -0.42281,-6.1009 -0.5065,-14.01884 0.67337,-22.02926 0.5862,-3.97986 1.47844,-7.93373 2.76928,-11.62433 1.28941,-3.68653 2.97615,-7.10801 5.143,-10.00307 2.16504,-2.89263 4.82098,-5.27532 8.06211,-6.85765 3.24301,-1.58324 7.09519,-2.37807 11.70515,-2.0673 4.61478,0.31109 8.50446,1.64908 11.81927,3.78644 1.26831,0.81779 2.45345,1.75312 3.56406,2.79353 m -21.38478,-9.3342 c 1.77837,-0.39709 3.71715,-0.57258 5.83461,-0.49378 4.23485,0.15759 7.78829,1.30123 10.78795,3.21788 2.99703,1.91497 5.42756,4.59345 7.41713,7.78669 1.98769,3.19024 3.5353,6.89557 4.75274,10.84574 1.2165,3.94713 2.1091,8.15897 2.77131,12.35154 1.23447,7.81555 1.7018,15.80597 1.86867,21.9134 m 2.43104,-28.73954 c -0.0118,6.09235 -0.50513,12.0416 -1.07382,16.86064 -0.36746,3.11387 -0.76195,5.72031 -1.06841,7.56598 -0.15279,0.92024 -0.28263,1.64488 -0.37451,2.1407 -0.0459,0.24776 -0.0823,0.43811 -0.10724,0.56673 -0.0125,0.0643 -0.0221,0.1132 -0.0286,0.14614 -8e-4,0.004 -0.007,0.0333 -0.007,0.0374 -8.1e-4,0.004 -0.002,0.009 -0.003,0.0131 0,1e-5 0,1e-5 0,1e-5 -15.42152,-0.33342 -30.97875,-0.14731 -47.0351,0.12117"
         id="path3847"
         inkscape:path-effect="#path-effect3857"
         inkscape:original-d="m 232.21767,461.75075 c 0,0 -9.39609,-65.77264 24.16138,-65.77264 33.55746,0 22.81907,67.11494 22.81907,67.11494 l -46.98045,-1.3423 z" />
      <path
         sodipodi:type="arc"
         style="fill:none;stroke:#ffffff;stroke-width:2;stroke-linecap:butt;stroke-linejoin:miter;stroke-miterlimit:4;stroke-opacity:1;stroke-dasharray:none"
         id="path3849"
         sodipodi:cx="-3.3557467"
         sodipodi:cy="340.27274"
         sodipodi:rx="23.490227"
         sodipodi:ry="18.121033"
         d="m 10.270626,341.30024 c -1.1322543,2.55813 -2.9388611,4.88227 -5.2903607,6.81943 -4.33261675,3.5692 -10.2420509,5.60475 -16.4140093,5.69186 -6.170901,0.0871 -12.097471,-1.78008 -16.454332,-5.14982 -4.356862,-3.36974 -6.789878,-7.9674 -6.740667,-12.75514 0.04921,-4.78745 2.577273,-9.38017 7.059986,-12.73548 1.624545,-1.21597 3.473858,-2.24483 5.492463,-3.05235 m -3.467974,21.21708 c 0.402415,-4.2211 2.688397,-8.16041 6.456154,-11.159 4.370749,-3.47847 10.4166791,-5.44119 16.8448391,-5.47205 6.4270424,-0.0309 12.7008749,1.8719 17.4506499,5.26955 4.757557,3.40321 7.577543,8.00757 7.972581,12.82093 0.216388,2.63661 -0.302871,5.24085 -1.488101,7.62984 m 1.945694,-7.54261 c -1.049371,1.5523 -2.371177,2.97755 -3.927835,4.23507 -4.425249,3.57485 -10.5047621,5.60234 -16.9567252,5.66288 -6.4503784,0.0605 -12.7391645,-1.84957 -17.5100168,-5.27236 -4.779386,-3.42891 -7.624053,-8.07284 -8.059475,-12.93287 -0.434968,-4.85496 1.56661,-9.52258 5.336175,-12.98107 0.727124,-0.66712 1.513392,-1.28297 2.350168,-1.84197 m -17.202513,25.41938 c 0.536224,-4.38893 2.996162,-8.48641 6.983267,-11.61109 4.53113,-3.55104 10.690691,-5.57743 17.1919468,-5.66935 6.4999013,-0.0919 12.8048284,1.7569 17.5749162,5.09842 4.777619,3.3468 7.607424,7.89895 8.020534,12.65001 0.41253,4.74439 -1.61825,9.28762 -5.426991,12.57088 -3.4483686,2.97261 -8.1095991,4.70174 -12.99462313,4.81696 M 14.358682,349.09839 c -1.136473,1.80102 -2.641004,3.43924 -4.4520768,4.84789 -4.3863881,3.41172 -10.31419137,5.28168 -16.4641602,5.17869 -6.148875,-0.10296 -12.017117,-2.17006 -16.298394,-5.75492 -4.279487,-3.58336 -6.630686,-8.39563 -6.486626,-13.42009 0.144222,-5.03016 2.775364,-9.88387 7.390787,-13.60791 3.285958,-2.65135 7.418269,-4.59953 11.93878,-5.65081 m -15.33076,15.85828 c 1.243975,-2.47804 3.217921,-4.74048 5.77594,-6.61804 4.445673,-3.26308 10.3625351,-5.15014 16.4018495,-5.25077 6.0426436,-0.10068 11.7219914,1.59487 15.7821095,4.73114 4.051427,3.12956 6.173605,7.46088 5.764251,11.94767 -0.409528,4.4887 -3.32531,8.74852 -8.31096,11.70698 -0.5637346,0.33452 -1.1509908,0.65062 -1.7603056,0.94719 m 8.4479616,-5.15066 c -0.542839,4.30622 -2.967264,8.30668 -6.8526242,11.30126 -4.4034701,3.3939 -10.33489221,5.22684 -16.4786202,5.07023 -6.1417936,-0.15656 -11.9948496,-2.28908 -16.2578606,-5.93947 -4.26133,-3.64895 -6.594954,-8.52321 -6.433712,-13.60869 0.116648,-3.67899 1.532786,-7.29605 4.111474,-10.47602 m -6.521606,9.90994 c -0.756031,-1.84081 -1.112524,-3.78725 -1.04758,-5.75692 0.156668,-4.75156 2.750231,-9.34299 7.27032,-12.80183 4.51567,-3.45545 10.582234,-5.49574 16.8871477,-5.70505 6.3077725,-0.20939 12.3417856,1.43014 16.8151113,4.53763 4.010223,2.78579 6.480328,6.55501 6.997038,10.57766 M 7.3475617,323.64372 c 0.309253,0.20498 0.6110148,0.41764 0.9048916,0.63768 4.2237617,3.16253 6.6221817,7.68892 6.6012067,12.482 -0.02102,4.80361 -2.459162,9.46935 -6.7571178,13.05226 -4.2917028,3.57769 -10.0864172,5.78376 -16.0487772,6.1915 -5.967986,0.40812 -11.625743,-1.01668 -15.711318,-3.91822 -4.078294,-2.89636 -6.25793,-7.03883 -5.940684,-11.35216 0.220446,-2.99721 1.640341,-5.92026 4.153116,-8.37329 m 40.582605,22.02022 c -1.235763,2.88345 -3.394486,5.48521 -6.2810331,7.54186 -4.499503,3.20586 -10.4498411,4.86269 -16.5214971,4.52357 -6.0703448,-0.33905 -11.7723188,-2.64725 -15.8477148,-6.48486 -4.069694,-3.83223 -6.203612,-8.89578 -5.813494,-14.18702 0.391246,-5.30655 3.286248,-10.45193 8.236373,-14.58681 4.288972,-3.58262 9.844463,-6.17325 15.8006593,-7.48541 m -22.0656463,13.30774 c 1.223169,-2.89127 3.27987,-5.50836 6.000113,-7.63458 4.48718,-3.50733 10.476857,-5.44577 16.6519643,-5.38986 6.1733202,0.0559 12.030251,2.10031 16.2860067,5.66674 4.253236,3.56432 6.57105,8.36666 6.390912,13.37204 -0.180373,5.01194 -2.849154,9.84386 -7.502142,13.52384 -1.9014543,1.50383 -4.0901216,2.77943 -6.4837115,3.78075"
         transform="matrix(0.67269831,0,0,0.87201638,256.31829,72.60235)"
         inkscape:path-effect="#path-effect3839" />
      <g
         transform="matrix(1.0599748,0,0,1.0599748,-213.2444,-29.152079)"
         id="g3863">
        <path
           style="fill:none;stroke:#ffffff;stroke-width:1px;stroke-linecap:butt;stroke-linejoin:miter;stroke-opacity:1"
           d="m 418.48176,551.29719 c -0.13505,3.58651 -0.23496,8.66697 -0.058,14.14537 0.18307,5.66784 0.66758,12.00321 1.80509,17.95156 1.14252,5.97458 2.95259,11.62157 5.83852,16.02768 5.69109,8.68888 8.23792,13.94585 9.28442,16.75632 1.07774,2.89436 0.73723,3.59241 0.72855,3.60936 -10e-6,2e-5 -1.3e-4,2.3e-4 -1.4e-4,2.5e-4 2.4023,0.0253 4.80338,0.0491 7.20507,0.0702 M 429.9748,598.82569 c 1.91371,3.25223 3.04264,5.54116 3.70443,7.16011 1.15929,2.83598 0.84279,3.52127 0.83396,3.53937 -8e-5,1.7e-4 -1.2e-4,2.5e-4 -1.2e-4,2.5e-4 19.85411,-0.1402 40.44258,0.17197 61.32751,0.58355 m -21.9277,5.72907 c 14.95644,-0.26874 30.61314,-0.59665 46.52874,-1.15444 0,0 -2e-5,-10e-6 -5e-5,-4e-5 0.002,0.002 -7.69012,-6.1874 -13.59132,-24.65601 m 12.86523,17.74735 c -3.07675,-5.03752 -6.74345,-12.89031 -9.65434,-24.52291 -3.16726,-12.6571 -4.4483,-22.7862 -4.90441,-30.01577 -0.22541,-3.57288 -0.24321,-6.34412 -0.20401,-8.23548 0.0196,-0.94377 0.0533,-1.66553 0.0821,-2.15186 0.0144,-0.2432 0.0276,-0.42784 0.0373,-0.55202 0.005,-0.0621 0.009,-0.10916 0.0115,-0.14092 0.001,-0.0154 0.003,-0.0339 0.004,-0.0493 1e-5,-3e-5 1e-5,-5e-5 1e-5,-5e-5 -8.45169,0.11823 -16.85275,0.28179 -25.12536,0.54717 m 17.41221,-7.41661 c 7.8e-4,-0.28967 0.004,-0.53939 0.008,-0.74723 0.005,-0.25222 0.011,-0.44453 0.0158,-0.57317 0.002,-0.0644 0.005,-0.11339 0.006,-0.14633 7.4e-4,-0.016 0.002,-0.0352 0.003,-0.0512 10e-6,-4e-5 10e-6,-5e-5 10e-6,-5e-5 -28.49126,-0.66284 -54.09029,-0.77195 -78.50389,-1.77571 m -4.02689,15.83129 c -0.31307,3.43626 -0.53972,7.46789 -0.49876,11.76876 0.0552,5.80213 0.59712,11.94123 1.98492,17.66807 1.38162,5.70135 3.59486,10.95084 6.9235,14.89107 6.78544,8.03215 9.70016,11.9806 11.27201,14.71703 1.44446,2.51465 1.18299,3.13571 1.17847,3.14603 -4e-5,9e-5 -1.1e-4,2.7e-4 -8e-5,1.9e-4 2.35539,-0.25352 4.71814,-0.51741 7.08742,-0.7909 m -17.96432,-6.14654 c 1.63419,2.94449 2.62479,5.01739 3.23338,6.53802 1.1454,2.86191 0.83329,3.53938 0.8223,3.56194 -8e-5,1.7e-4 -1.2e-4,2.5e-4 -1.2e-4,2.5e-4 21.07068,-0.0624 43.48702,-0.32687 66.48791,-0.78788 m -11.89288,-3.96366 c 15.10537,-0.14436 29.65353,0.19468 43.81885,0.93427 0,0 -2e-5,-10e-6 -5e-5,-3e-5 -0.17457,-0.11406 -7.4775,-5.01592 -15.08315,-19.98576 m 5.5755,14.39618 c -3.19702,-5.14271 -6.99796,-13.12024 -10.15382,-25.14018 -3.43148,-13.06972 -5.00588,-23.82484 -5.69902,-31.48314 -0.3441,-3.8019 -0.46468,-6.76898 -0.49813,-8.79978 -0.0167,-1.0136 -0.0116,-1.7888 -0.002,-2.31271 0.005,-0.26182 0.0105,-0.46043 0.0151,-0.59426 0.002,-0.0669 0.004,-0.11755 0.006,-0.15178 7e-4,-0.0166 0.002,-0.0365 0.002,-0.0531 0,-3e-5 0,-6e-5 0,-6e-5 -7.79988,-0.47067 -15.62,-1.00883 -23.42811,-1.59294 m 25.84564,1.56462 c -0.006,-0.8169 0.007,-1.45247 0.0211,-1.88898 0.008,-0.23552 0.0158,-0.41483 0.022,-0.53511 0.003,-0.0602 0.006,-0.10589 0.008,-0.13667 9.1e-4,-0.0149 0.002,-0.0329 0.003,-0.0478 0,-4e-5 0,-5e-5 0,-5e-5 -26.21751,1.11855 -50.94401,1.27144 -75.12785,2.62631 m -12.84855,3.29315 c -0.20188,3.06999 -0.61563,10.94534 -0.34509,19.51487 0.18254,5.78208 0.68075,12.12874 1.85354,18.04376 1.17651,5.9338 3.03976,11.48602 5.98886,15.78101 5.84525,8.51288 8.46292,13.49258 9.59297,16.27907 1.14053,2.81232 0.81459,3.49385 0.80655,3.50984 -9e-5,1.7e-4 -1.3e-4,2.4e-4 -1.3e-4,2.4e-4 1.42907,-0.024 2.85918,-0.0482 4.29074,-0.0725 m -16.08315,-19.24517 c 3.59125,5.30257 5.43368,8.71996 6.36883,10.85308 1.26015,2.87446 0.94771,3.57777 0.94293,3.58826 -3e-5,8e-5 -1.4e-4,3.3e-4 -1.1e-4,2.5e-4 25.19551,0.0514 48.99514,-1.16853 73.32218,-2.60212 m -25.45615,7.77308 c 14.34939,0.12983 28.48073,0.70789 42.66543,1.8036 0,0 -10e-6,-10e-6 -5e-5,-3e-5 0.1162,0.0783 -10.6436,-7.41048 -16.10391,-29.13991 -0.26435,-1.05203 -0.50802,-2.08031 -0.73232,-3.08507 m 10.40357,12.58911 c -2.16798,-4.15093 -4.31361,-9.21653 -6.21865,-15.37815 -3.7165,-12.02061 -5.36811,-22.03282 -6.08809,-28.65296 -0.36576,-3.36315 -0.50534,-5.9696 -0.55283,-7.73286 -0.0238,-0.88292 -0.0245,-1.55536 -0.0192,-2.00952 0.003,-0.22695 0.007,-0.39882 0.0104,-0.51468 0.002,-0.0579 0.003,-0.10172 0.005,-0.13134 5.8e-4,-0.0143 0.001,-0.0316 0.002,-0.0459 0,-4e-5 0,-4e-5 0,-4e-5 -4.92454,0.384 -9.87146,0.81547 -14.85175,1.30841 m 16.4953,-4.12245 c 0.0152,-0.51325 0.0332,-0.93081 0.0495,-1.2513 0.0129,-0.25317 0.0249,-0.44477 0.0337,-0.5741 0.004,-0.0646 0.008,-0.11348 0.0105,-0.14653 0.001,-0.016 0.003,-0.0353 0.004,-0.0513 0,-3e-5 0,-5e-5 0,-5e-5 -25.58455,-0.649 -52.16978,-0.27889 -79.46212,-0.12147 m -8.72876,7.79939 c -0.41506,3.98874 -0.83452,9.79295 -0.70613,16.33736 0.11634,5.92989 0.68143,12.36062 2.0489,18.47482 1.36395,6.09849 3.52017,11.84616 6.77975,16.3335 6.53672,8.99885 9.5237,14.09198 10.93025,17.12063 1.37723,2.9655 1.10129,3.68939 1.09583,3.70338 -3e-5,8e-5 -1.2e-4,3.5e-4 -8e-5,2.6e-4 6.13402,0.2132 12.30444,0.46333 18.5027,0.76479 m -20.49311,-8.85187 c 0.87745,1.60274 1.48929,2.8676 1.91625,3.86874 1.23279,2.89064 0.92188,3.58563 0.91502,3.6005 -8e-5,1.7e-4 -1.1e-4,2.5e-4 -1.1e-4,2.5e-4 30.20258,0.12488 59.52668,-2.45003 89.38107,-6.27384 m -29.9987,1.13657 c 10.13702,0.2408 20.30995,0.5016 30.52858,0.84912 0,0 -2e-5,-1e-5 -5e-5,-4e-5 -0.009,-0.007 -10.66349,-7.76899 -16.78164,-31.68905 -2.83483,-11.0833 -3.88714,-20.02076 -4.20677,-26.38794 m 2.63938,21.76804 c -3.17731,-12.37197 -4.20064,-22.71463 -4.44168,-29.92458 -0.12234,-3.65938 -0.044,-6.53666 0.0621,-8.4856 0.0531,-0.97573 0.11359,-1.72523 0.16044,-2.22885 0.0235,-0.25211 0.0436,-0.44384 0.0579,-0.57261 0.007,-0.0644 0.0129,-0.11329 0.0168,-0.14624 0.002,-0.0159 0.004,-0.0352 0.006,-0.0512 10e-6,-3e-5 10e-6,-5e-5 10e-6,-5e-5 -12.89351,-0.31724 -25.48432,-0.81772 -37.7321,-1.44019 m 8.42016,9.19463 c -18.58776,-0.42833 -37.26518,-0.59102 -55.37338,-0.91817 m -5.3598,8.14258 c -0.19317,3.45856 -0.33221,7.78192 -0.23908,12.42485 0.11421,5.69328 0.57777,11.92574 1.74543,17.75938 1.16906,5.84065 3.04759,11.30495 6.00888,15.50352 5.88397,8.34238 8.48434,13.13181 9.6202,15.85739 1.13706,2.72844 0.80773,3.39195 0.80016,3.40641 -4e-5,8e-5 -1.7e-4,3.1e-4 -1.3e-4,2.2e-4 7.69067,-0.35634 15.36945,-0.77981 23.05344,-1.28587 m -20.74069,-2.10761 c 0.94098,2.44279 0.63845,3.05456 0.62998,3.07058 -5e-5,8e-5 -1.8e-4,3.1e-4 -1.4e-4,2.2e-4 29.71489,-1.25498 61.69222,0.72579 93.76713,2.16852 0,0 -10e-6,0 -4e-5,-3e-5 -0.006,-0.004 -0.88298,-0.65605 -2.25148,-2.19781 m -26.0446,3.85241 c 8.49785,-0.14906 16.98716,-0.4172 25.47188,-0.83301 0,0 -2e-5,-2e-5 -5e-5,-5e-5 0.0729,0.0593 -10.8298,-8.59378 -17.42225,-36.54205 -3.34555,-14.18328 -4.67525,-26.16685 -5.16807,-34.60855 -0.003,-0.0573 -0.007,-0.11452 -0.01,-0.17153 m -1.82697,34.15179 c -2.83031,-11.03087 -3.91153,-20.14115 -4.29103,-26.58272 -0.21282,-3.61251 -0.20795,-6.44183 -0.15263,-8.35166 0.0277,-0.95701 0.0684,-1.691 0.10183,-2.18413 0.0168,-0.24686 0.0318,-0.43447 0.0426,-0.5605 0.005,-0.0631 0.01,-0.11087 0.0129,-0.14311 0.001,-0.0156 0.003,-0.0345 0.005,-0.0501 0,-3e-5 0,-5e-5 0,-5e-5 -20.03267,-0.0297 -39.55403,0.015 -58.99313,-0.10968 m 30.85029,-9.26094 c -14.32323,0.63398 -29.09694,1.18552 -44.0752,2.03526"
           id="path3851"
           inkscape:path-effect="#path-effect3853"
           inkscape:original-d="m 416.1126,536.91948 c 0,0 -5.36919,37.58437 6.71149,55.03425 12.08069,17.44988 10.73839,20.13448 10.73839,20.13448 l 91.27632,0 c 0,0 -10.73839,-8.05379 -17.44989,-33.55747 -6.71149,-25.50367 -5.36919,-41.61126 -5.36919,-41.61126 l -85.90712,0 z" />
        <path
           style="fill:none;stroke:#ffffff;stroke-width:1px;stroke-linecap:butt;stroke-linejoin:miter;stroke-opacity:1"
           d="m 439.91626,576.26097 c 4.21177,4.9315 8.49125,9.87461 12.81664,14.81316 7.86557,-7.48899 15.85015,-14.9898 23.86286,-22.56995 m -33.45482,-0.0486 c 3.92923,4.40889 7.89475,8.92137 11.89309,13.5209 9.95838,-8.97587 20.07716,-17.5263 30.3187,-25.83019 m -39.79676,17.26469 c 4.76694,5.32279 9.50203,10.64306 14.21367,15.94598 8.37352,-7.84411 16.68875,-15.73133 24.9785,-23.71972 m -37.88255,10.94561 c 4.07837,4.74815 8.08788,9.40757 12.03884,13.99463 7.80713,-7.16437 15.43471,-14.55066 22.93814,-22.07105 m -46.24214,1.33397 c 5.26969,5.98466 10.59153,11.99657 15.96987,18.02421 9.76545,-8.7597 19.67821,-17.47839 29.75659,-26.20456"
           id="path3859"
           inkscape:path-effect="#path-effect3861"
           inkscape:original-d="m 437.58938,567.79235 17.44988,20.13448 30.87287,-28.18827" />
      </g>
      <g
         inkscape:export-ydpi="165.44003"
         inkscape:export-xdpi="165.44003"
         id="g5260">
        <path
           style="fill:none;stroke:#ffffff;stroke-width:2;stroke-linecap:butt;stroke-linejoin:miter;stroke-miterlimit:4;stroke-opacity:1;marker-start:none;marker-end:none"
           d="m 419.89579,567.23439 c 1.42832,-4.39724 3.49085,-8.40536 6.06236,-11.98898 3.8013,-5.29744 8.71015,-9.65926 14.28474,-12.93441 11.15133,-6.55157 24.9491,-8.74617 37.89057,-5.39725 2.5531,0.66068 5.00636,1.51812 7.34879,2.55136 m -20.2021,-10.52866 c 3.71873,0.0119 7.47862,0.44549 11.19643,1.32927 13.27784,3.15635 24.23901,11.5764 31.19479,22.57829 3.86779,6.11766 6.50025,13.03512 7.62095,20.30455 m -8.66918,-11.46188 c 4.11197,9.64383 5.34396,20.77885 2.65878,31.79988 -3.17309,13.02364 -11.21803,23.38216 -21.79871,29.4431 -0.67107,0.38441 -1.35227,0.75146 -2.04296,1.10071 m 16.86171,-8.46368 c -3.03863,3.66609 -6.60427,6.81053 -10.5483,9.3591 -10.57527,6.83357 -23.87455,9.38822 -37.12703,6.25815 -11.17715,-2.6399 -20.6656,-8.97076 -27.17344,-17.40156 -1.66642,-2.1588 -3.1375,-4.45542 -4.39123,-6.8628 m 13.1705,13.60873 c -5.57528,-3.33054 -10.32781,-7.61954 -14.0634,-12.60785 -4.77,-6.36961 -7.88842,-13.88939 -8.92089,-22.00767 m 4.64804,-24.44179 c 1.15952,-3.47591 2.84714,-6.73804 4.96506,-9.74463 3.67055,-5.2107 8.63537,-9.65778 14.41868,-13.1643 11.56961,-7.01486 26.41114,-10.26778 40.71135,-8.32275 2.13686,0.29064 4.21922,0.69039 6.24188,1.19106 m -22.88174,-1.1515 c 3.72037,0.0576 7.49703,0.52349 11.24461,1.42799 13.28551,3.20653 24.38679,11.43532 31.60169,22.1461 4.53441,6.73149 7.52692,14.43133 8.57942,22.46888 m -0.22537,-18.17718 c 4.14513,9.37078 5.20221,20.24744 2.3565,31.27233 -3.50234,13.5689 -12.25562,24.85165 -23.65041,32.27683 m 11.65241,-8.16799 c -3.24039,3.90218 -7.08268,7.20401 -11.35408,9.81182 -10.76616,6.57305 -24.29294,8.75764 -37.86669,4.98777 -11.45952,-3.18268 -21.29356,-10.18639 -28.26888,-19.4774 -0.97325,-1.29634 -1.89095,-2.63733 -2.74976,-4.01882 m 20.05387,15.65331 c -6.33962,-3.05902 -11.7461,-7.45016 -15.93767,-12.74717 -6.31043,-7.97464 -9.88393,-18.02558 -9.72918,-28.71352 m 1.01435,-15.01935 c 1.43812,-4.76492 3.67275,-9.12155 6.5389,-13.00577 3.82476,-5.18334 8.76453,-9.51115 14.38445,-12.81041 11.23847,-6.59774 25.1828,-9.0763 38.34779,-6.01821 2.70123,0.62746 5.29684,1.46909 7.77508,2.50313 m -23.66405,-7.98283 c 4.10959,0.10752 8.20679,0.6304 12.2033,1.60536 13.6057,3.31915 24.28203,11.41839 30.73393,21.9039 6.44891,10.48064 8.64913,23.31742 5.24187,36.01473 0,0 -0.0114,0.0426 -0.0114,0.0426 m -1.37026,-19.73319 c 2.19867,7.69265 2.54986,16.07286 0.73713,24.59395 -2.95058,13.86974 -11.06078,25.47783 -21.5524,33.30901 -5.5609,4.15077 -11.78456,7.23815 -18.27393,9.06442 m 22.46308,-12.71992 c -0.19233,0.12502 -0.38539,0.24879 -0.57916,0.37132 -11.25131,7.11467 -24.85761,10.00273 -38.50968,7.41157 -11.50902,-2.1844 -21.35052,-7.97146 -28.4869,-15.71062 -0.0987,-0.10703 -0.19687,-0.21444 -0.29453,-0.32221 m 13.38429,7.82471 c -4.36255,-3.0755 -8.2335,-6.7826 -11.48576,-10.97097 -5.24679,-6.75699 -8.87573,-14.75666 -10.36271,-23.35676 m 1.77181,-25.79747 c 1.20388,-3.48952 2.92388,-6.72718 5.06452,-9.67277 3.69681,-5.08695 8.6502,-9.30642 14.38993,-12.47074 11.47652,-6.32704 26.11342,-8.44252 40.12,-4.83104 7.47418,1.92715 14.24577,5.33742 20.07212,9.86097 m -22.66242,-10.38138 c 1.35585,0.23519 2.70571,0.51927 4.04611,0.85363 13.51218,3.37054 24.27311,11.37266 30.87438,21.63516 6.59136,10.24709 8.99826,22.7221 5.73182,34.82343 -1.24207,4.60156 -3.21483,8.81114 -5.77211,12.54236 m 5.68606,-26.29164 c 0.12598,4.38654 -0.30485,8.86267 -1.34667,13.34455 -3.16636,13.62165 -11.37681,24.71464 -22.04716,31.83879 -10.68528,7.13411 -23.78133,10.2574 -36.76382,8.06542 -2.16478,-0.36551 -4.2615,-0.86929 -6.2811,-1.49909 m 25.33048,-2.44356 c -6.96769,1.51288 -14.31018,1.47725 -21.55544,-0.3799 -10.98554,-2.81588 -20.15093,-9.45132 -26.30099,-18.36995 -4.96217,-7.19599 -7.97317,-15.89636 -8.37321,-25.29432 m -4.36597,-21.65097 c 1.28962,-3.10478 2.93647,-6.00037 4.88535,-8.66811 3.87213,-5.30036 8.93637,-9.7008 14.75186,-13.04524 11.63484,-6.69109 26.25985,-9.14917 40.37456,-6.14549 7.51553,1.59934 14.35991,4.6206 20.32442,8.65996 m -21.9722,-7.9461 c 1.08427,0.17792 2.16428,0.39031 3.23819,0.63782 13.44328,3.09841 24.17339,11.25364 30.69417,21.82787 6.51912,10.57156 8.83548,23.57932 5.4121,36.32411 -1.12587,4.19149 -2.8026,8.09099 -4.93691,11.63961 m 7.98999,-26.04021 c 0.0524,4.25877 -0.4532,8.66453 -1.57948,13.11622 -3.32515,13.14287 -11.40711,24.09721 -21.90872,31.10039 -10.48624,6.99294 -23.34719,10.01145 -36.08557,7.30584 -1.99968,-0.42473 -3.94138,-0.98037 -5.81791,-1.65792 m 25.66601,4.18985 c -7.09636,1.44327 -14.65966,1.27036 -22.19952,-0.84241 -11.22819,-3.14629 -20.78268,-10.17969 -27.48518,-19.65363 -6.19616,-8.75824 -9.96292,-19.60762 -10.37768,-31.47477"
           id="path3867"
           sodipodi:nodetypes="csssc"
           inkscape:path-effect="#path-effect5254"
           inkscape:original-d="m 416.42668,568.1828 c 3.42381,-27.21473 33.32832,-43.01478 59.98283,-36.54168 26.65451,6.4731 43.01477,33.32832 36.54167,59.98283 -6.47309,26.65451 -33.32832,43.01478 -59.98283,36.54168 -22.48477,-5.46047 -38.2199,-25.72454 -37.94086,-48.86118" />
        <path
           style="fill:none;stroke:#ffffff;stroke-width:1px;stroke-linecap:butt;stroke-linejoin:miter;stroke-opacity:1"
           d="m 403.04043,543.09438 c 3.736,7.46101 7.62333,14.83731 11.60756,22.18542 5.46143,-2.30414 10.97496,-4.62344 16.51912,-6.93561 m -20.93278,-14.21316 c 3.58586,6.43709 7.14303,12.87392 10.65136,19.28773 7.63113,-3.69667 15.19885,-7.42321 22.67332,-11.21329 m -40.87622,-9.89386 c 4.56607,7.56791 9.11372,15.19992 13.70442,22.89681 6.22688,-2.57085 12.47824,-5.10481 18.78041,-7.60154 m -30.13229,-8.8535 c 3.49291,6.54516 7.19757,13.09625 11.07838,19.64666 5.46722,-2.41427 11.03961,-4.82893 16.70074,-7.24704 m -31.00461,-23.08619 c 4.8813,8.64179 9.73767,17.07544 14.62019,25.3877 7.62778,-3.29484 15.27478,-6.67891 22.97321,-10.09754"
           id="path5256"
           sodipodi:nodetypes="ccc"
           inkscape:path-effect="#path-effect5258"
           inkscape:original-d="m 402.32875,537.16943 15.2966,27.12701 25.08467,-11.18637" />
      </g>
    </g>
  </g>
</svg>
