<?xml version="1.0" encoding="UTF-8" standalone="no"?>
<!-- Created with Inkscape (http://www.inkscape.org/) -->

<svg
   xmlns:dc="http://purl.org/dc/elements/1.1/"
   xmlns:cc="http://creativecommons.org/ns#"
   xmlns:rdf="http://www.w3.org/1999/02/22-rdf-syntax-ns#"
   xmlns:svg="http://www.w3.org/2000/svg"
   xmlns="http://www.w3.org/2000/svg"
   xmlns:xlink="http://www.w3.org/1999/xlink"
   xmlns:sodipodi="http://sodipodi.sourceforge.net/DTD/sodipodi-0.dtd"
   xmlns:inkscape="http://www.inkscape.org/namespaces/inkscape"
   width="213.30708"
   height="213.30708"
   id="svg2"
   version="1.1"
   inkscape:version="0.48.5 r10040"
   sodipodi:docname="Vorlage.pdf"
   inkscape:export-filename="/Users/leider/Documents/Softwerkskammer/softwerkskammer-logos/SoCraTes/Aufkleber/SoCraTesWappen_2015_Kreis.png"
   inkscape:export-xdpi="89.957222"
   inkscape:export-ydpi="89.957222">
  <defs
     id="defs4">
    <inkscape:path-effect
       effect="sketch"
       id="path-effect5258"
       is_visible="true"
       nbiter_approxstrokes="5"
       strokelength="100"
       strokelength_rdm="0.3;1"
       strokeoverlap="0.3"
       strokeoverlap_rdm="0.3;1"
       ends_tolerance="0.1;1"
       parallel_offset="3;1"
       tremble_size="4;1896651304"
       tremble_frequency="1"
       nbtangents="0"
       tgt_places_rdmness="1;1"
       tgtscale="10"
       tgtlength="100"
       tgtlength_rdm="0.3;1" />
    <inkscape:path-effect
       effect="sketch"
       id="path-effect5254"
       is_visible="true"
       nbiter_approxstrokes="5"
       strokelength="100"
       strokelength_rdm="0.3;1"
       strokeoverlap="0.3"
       strokeoverlap_rdm="0.3;1"
       ends_tolerance="0.1;1"
       parallel_offset="3;1"
       tremble_size="4;1"
       tremble_frequency="1"
       nbtangents="0"
       tgt_places_rdmness="1;1"
       tgtscale="10"
       tgtlength="100"
       tgtlength_rdm="0.3;1" />
    <marker
       inkscape:stockid="Arrow2Mend"
       orient="auto"
       refY="0"
       refX="0"
       id="Arrow2Mend"
       style="overflow:visible">
      <path
         id="path4082"
         style="font-size:12px;fill-rule:evenodd;stroke-width:0.625;stroke-linejoin:round"
         d="M 8.7185878,4.0337352 -2.2072895,0.01601326 8.7185884,-4.0017078 c -1.7454984,2.3720609 -1.7354408,5.6174519 -6e-7,8.035443 z"
         transform="scale(-0.6,-0.6)"
         inkscape:connector-curvature="0" />
    </marker>
    <marker
       inkscape:stockid="Arrow1Mend"
       orient="auto"
       refY="0"
       refX="0"
       id="Arrow1Mend"
       style="overflow:visible">
      <path
         id="path4064"
         d="M 0,0 5,-5 -12.5,0 5,5 0,0 z"
         style="fill-rule:evenodd;stroke:#000000;stroke-width:1pt;marker-start:none"
         transform="matrix(-0.4,0,0,-0.4,-4,0)"
         inkscape:connector-curvature="0" />
    </marker>
    <marker
       inkscape:stockid="Arrow1Lend"
       orient="auto"
       refY="0"
       refX="0"
       id="Arrow1Lend"
       style="overflow:visible">
      <path
         id="path4058"
         d="M 0,0 5,-5 -12.5,0 5,5 0,0 z"
         style="fill-rule:evenodd;stroke:#000000;stroke-width:1pt;marker-start:none"
         transform="matrix(-0.8,0,0,-0.8,-10,0)"
         inkscape:connector-curvature="0" />
    </marker>
    <inkscape:path-effect
       effect="sketch"
       id="path-effect3861"
       is_visible="true"
       nbiter_approxstrokes="5"
       strokelength="100"
       strokelength_rdm="0.1;2026920370"
       strokeoverlap="0.3"
       strokeoverlap_rdm="0.3;1"
       ends_tolerance="0.1;1"
       parallel_offset="3;294185633"
       tremble_size="3;2112635550"
       tremble_frequency="1"
       nbtangents="0"
       tgt_places_rdmness="1;1"
       tgtscale="10"
       tgtlength="100"
       tgtlength_rdm="0.3;1" />
    <inkscape:path-effect
       tgtlength_rdm="0.3;1"
       tgtlength="100"
       tgtscale="10"
       tgt_places_rdmness="1;1"
       nbtangents="0"
       tremble_frequency="1"
       tremble_size="5;568508735"
       parallel_offset="5;1"
       ends_tolerance="0.1;1"
       strokeoverlap_rdm="0.3;1"
       strokeoverlap="0.3"
       strokelength_rdm="0.3;1"
       strokelength="100"
       nbiter_approxstrokes="5"
       is_visible="true"
       id="path-effect3857"
       effect="sketch" />
    <inkscape:path-effect
       effect="sketch"
       id="path-effect3853"
       is_visible="true"
       nbiter_approxstrokes="5"
       strokelength="100"
       strokelength_rdm="0.3;1"
       strokeoverlap="0.3"
       strokeoverlap_rdm="0.3;1"
       ends_tolerance="0.1;1"
       parallel_offset="5;1"
       tremble_size="5;1"
       tremble_frequency="1"
       nbtangents="0"
       tgt_places_rdmness="1;1"
       tgtscale="10"
       tgtlength="100"
       tgtlength_rdm="0.3;1" />
    <inkscape:path-effect
       effect="sketch"
       id="path-effect3839"
       is_visible="true"
       nbiter_approxstrokes="5"
       strokelength="100"
       strokelength_rdm="0.3;1"
       strokeoverlap="0.3"
       strokeoverlap_rdm="0.3;1"
       ends_tolerance="0.1;1"
       parallel_offset="5;799442994"
       tremble_size="5;1060682146"
       tremble_frequency="1"
       nbtangents="0"
       tgt_places_rdmness="1;1"
       tgtscale="10"
       tgtlength="100"
       tgtlength_rdm="0.3;1" />
    <inkscape:path-effect
       effect="sketch"
       id="path-effect3835"
       is_visible="true"
       nbiter_approxstrokes="5"
       strokelength="100"
       strokelength_rdm="0.3;1"
       strokeoverlap="0.3"
       strokeoverlap_rdm="0.3;1"
       ends_tolerance="0.1;1"
       parallel_offset="5;1"
       tremble_size="5;1"
       tremble_frequency="1"
       nbtangents="0"
       tgt_places_rdmness="1;1"
       tgtscale="10"
       tgtlength="100"
       tgtlength_rdm="0.3;1" />
    <inkscape:path-effect
       tgtlength_rdm="0.3;1"
       tgtlength="100"
       tgtscale="9"
       tgt_places_rdmness="1;1"
       nbtangents="0"
       tremble_frequency="1"
       tremble_size="5;1"
       parallel_offset="5;1"
       ends_tolerance="0.1;1"
       strokeoverlap_rdm="0.3;1"
       strokeoverlap="0.3"
       strokelength_rdm="0.3;1"
       strokelength="100"
       nbiter_approxstrokes="6"
       is_visible="true"
       id="path-effect3831"
       effect="sketch" />
    <inkscape:path-effect
       effect="sketch"
       id="path-effect3827"
       is_visible="true"
       nbiter_approxstrokes="5"
       strokelength="100"
       strokelength_rdm="0.3;1"
       strokeoverlap="0.3"
       strokeoverlap_rdm="0.3;1"
       ends_tolerance="0.1;1"
       parallel_offset="5;1"
       tremble_size="5;1"
       tremble_frequency="1"
       nbtangents="0"
       tgt_places_rdmness="1;1"
       tgtscale="10"
       tgtlength="100"
       tgtlength_rdm="0.3;1" />
    <inkscape:path-effect
       effect="sketch"
       id="path-effect3822"
       is_visible="true"
       nbiter_approxstrokes="3"
       strokelength="100"
       strokelength_rdm="0.3;1"
       strokeoverlap="0.3"
       strokeoverlap_rdm="0.3;1"
       ends_tolerance="0;1"
       parallel_offset="2;1699740438"
       tremble_size="5;1"
       tremble_frequency="1"
       nbtangents="0"
       tgt_places_rdmness="1;1"
       tgtscale="10"
       tgtlength="100"
       tgtlength_rdm="0.3;1" />
    <inkscape:path-effect
       effect="rough_hatches"
       id="path-effect3820"
       is_visible="true"
       direction="370,485.36218 , 110,0"
       dist_rdm="75;1"
       growth="0"
       do_bend="true"
       bender="370,490.36218 , 5,0"
       bottom_edge_variation="44;1"
       top_edge_variation="44;1"
       bottom_tgt_variation="0;1"
       top_tgt_variation="0;1"
       scale_bf="1"
       scale_bb="1"
       scale_tf="1"
       scale_tb="1"
       top_smth_variation="0;1"
       bottom_smth_variation="0;1"
       fat_output="true"
       stroke_width_top="1"
       stroke_width_bottom="1"
       front_thickness="1"
       back_thickness="0.25" />
    <inkscape:path-effect
       effect="envelope"
       id="path-effect3818"
       is_visible="true"
       yy="true"
       xx="true"
       bendpath1="m 150,270.36218 440,0"
       bendpath2="m 590,270.36218 0,440"
       bendpath3="m 150,710.36218 440,0"
       bendpath4="m 150,270.36218 0,440" />
    <inkscape:path-effect
       effect="construct_grid"
       id="path-effect3816"
       is_visible="true"
       nr_x="5"
       nr_y="5" />
    <inkscape:path-effect
       effect="gears"
       id="path-effect3814"
       is_visible="true"
       teeth="10"
       phi="5" />
    <inkscape:path-effect
       effect="spiro"
       id="path-effect3812"
       is_visible="true" />
    <inkscape:path-effect
       effect="sketch"
       id="path-effect3810"
       is_visible="true"
       nbiter_approxstrokes="5"
       strokelength="100"
       strokelength_rdm="0.3;1"
       strokeoverlap="0.3"
       strokeoverlap_rdm="0.3;1"
       ends_tolerance="0.1;1"
       parallel_offset="5;1"
       tremble_size="5;1"
       tremble_frequency="1"
       nbtangents="5"
       tgt_places_rdmness="1;1"
       tgtscale="10"
       tgtlength="100"
       tgtlength_rdm="0.3;1" />
    <inkscape:path-effect
       effect="sketch"
       id="path-effect3808"
       is_visible="true"
       nbiter_approxstrokes="3"
       strokelength="93"
       strokelength_rdm="0;1"
       strokeoverlap="0"
       strokeoverlap_rdm="0.3;1"
       ends_tolerance="0.1;1"
       parallel_offset="4.5;1"
       tremble_size="5;1"
       tremble_frequency="1"
       nbtangents="5"
       tgt_places_rdmness="1;1"
       tgtscale="10"
       tgtlength="100"
       tgtlength_rdm="0.3;1" />
    <inkscape:path-effect
       effect="rough_hatches"
       id="path-effect3806"
       is_visible="true"
       direction="370,485.36218 , 110,0"
       dist_rdm="75;1"
       growth="0"
       do_bend="true"
       bender="370,490.36218 , 5,0"
       bottom_edge_variation="44;1"
       top_edge_variation="44;1"
       bottom_tgt_variation="0;1"
       top_tgt_variation="0;1"
       scale_bf="1"
       scale_bb="1"
       scale_tf="1"
       scale_tb="1"
       top_smth_variation="0;1"
       bottom_smth_variation="0;1"
       fat_output="true"
       stroke_width_top="1"
       stroke_width_bottom="1"
       front_thickness="1"
       back_thickness="0.25" />
    <inkscape:perspective
       sodipodi:type="inkscape:persp3d"
       inkscape:vp_x="0 : 526.18109 : 1"
       inkscape:vp_y="0 : 1000 : 0"
       inkscape:vp_z="744.09448 : 526.18109 : 1"
       inkscape:persp3d-origin="372.04724 : 350.78739 : 1"
       id="perspective10" />
    <path
       inkscape:connector-curvature="0"
       style="fill:none;stroke:none"
       d="M 41.27679,769.12876 C -39.512183,662.45674 -18.50446,510.48502 88.16756,429.69602 194.8396,348.90705 346.81801,369.86625 427.60699,476.53827 508.39596,583.2103 487.38825,735.18203 380.71622,815.97101 274.04418,896.75999 122.06578,875.80076 41.27679,769.12876 z"
       id="path3739-7" />
    <path
       inkscape:connector-curvature="0"
       id="path3713-9"
       d="M 231.59877,340.17339 C 75.5047,341.74345 -49.74789,469.58214 -48.177837,625.67622 -46.607774,781.77032 81.19093,907.06368 237.28501,905.49365 393.37908,903.92359 518.63167,776.08491 517.06162,619.99082 515.49155,463.89672 387.69286,338.60337 231.59877,340.17339 z"
       style="fill:none;stroke:none" />
  </defs>
  <sodipodi:namedview
     id="base"
     pagecolor="#ffffff"
     bordercolor="#666666"
     borderopacity="1.0"
     inkscape:pageopacity="0"
     inkscape:pageshadow="2"
     inkscape:zoom="4"
     inkscape:cx="118.76226"
     inkscape:cy="105.0014"
     inkscape:document-units="px"
     inkscape:current-layer="layer5"
     showgrid="false"
     inkscape:window-width="1835"
     inkscape:window-height="1090"
     inkscape:window-x="42"
     inkscape:window-y="6"
     inkscape:window-maximized="0"
     units="cm">
    <inkscape:grid
       type="xygrid"
       id="grid2818"
       empspacing="5"
       visible="true"
       enabled="true"
       snapvisiblegridlinesonly="true" />
  </sodipodi:namedview>
  <metadata
     id="metadata7">
    <rdf:RDF>
      <cc:Work
         rdf:about="">
        <dc:format>image/svg+xml</dc:format>
        <dc:type
           rdf:resource="http://purl.org/dc/dcmitype/StillImage" />
        <dc:title></dc:title>
      </cc:Work>
    </rdf:RDF>
  </metadata>
  <g
     inkscape:label="Ebene 1"
     inkscape:groupmode="layer"
     id="layer1"
     transform="translate(54.320365,-699.8972)"
     style="display:inline">
    <g
       id="g4335"
       transform="translate(0,1)">
      <path
         id="path2816"
         d="m 134.22755,807.69169 c 0,45.42689 -36.821809,82.26047 -82.248709,82.26047 l 0,-82.26047 82.248709,0 z"
         style="fill:#3771c8;fill-opacity:1;fill-rule:nonzero;stroke:none"
         inkscape:connector-curvature="0" />
      <path
         style="fill:#3771c8;fill-opacity:1;fill-rule:nonzero;stroke:none"
         d="m -30.269864,807.69169 c 0,-45.4269 36.8218151,-82.26047 82.248705,-82.26047 l 0,82.26047 -82.248705,0 z"
         id="path3607"
         inkscape:connector-curvature="0" />
      <path
         style="fill:#d35f5f;fill-opacity:1;fill-rule:nonzero;stroke:none"
         d="m -30.269864,807.69169 c 0,45.42689 36.8218151,82.26047 82.248705,82.26047 l 0,-82.26047 -82.248705,0 z"
         id="path2823"
         inkscape:connector-curvature="0" />
      <path
         id="path3609"
         d="m 134.22755,807.69169 c 0,-45.4269 -36.821809,-82.26047 -82.248709,-82.26047 l 0,82.26047 82.248709,0 z"
         style="fill:#d35f5f;fill-opacity:1;fill-rule:nonzero;stroke:none"
         inkscape:connector-curvature="0" />
      <g
         transform="matrix(0.37610155,0,0,0.37610155,-87.178735,623.26571)"
         inkscape:path-effect="#path-effect3822"
         style="stroke:#000000;stroke-width:2;stroke-miterlimit:4;stroke-opacity:1;stroke-dasharray:none"
         id="g3779">
        <path
           inkscape:original-d="m 370,271.64343 c -120.78359,0 -218.6875,97.93516 -218.6875,218.71875 0,120.78359 97.90391,218.71875 218.6875,218.71875 120.78359,0 218.6875,-97.93516 218.6875,-218.71875 0,-120.78359 -97.90391,-218.71875 -218.6875,-218.71875 z"
           style="fill:none;stroke:#000000;stroke-width:2;stroke-miterlimit:4;stroke-opacity:1;stroke-dasharray:none"
           d="m 370.77378,274.97903 c -13.24841,-0.46541 -26.79048,0.75117 -40.16907,3.27479 -13.37859,2.52362 -26.5971,6.35681 -39.26364,11.17182 m 14.51818,-10.00337 c -8.69491,2.28751 -17.01413,5.18269 -24.96642,8.61752 -13.83365,5.97517 -26.55784,13.58281 -38.19023,22.48476 m 11.11665,-9.14097 c -16.44489,9.01674 -30.67493,19.85489 -43.07466,31.92953 -4.58765,4.46737 -8.92425,9.104 -13.02833,13.87991 m 13.73912,-9.74886 c -17.45391,20.17744 -32.98097,42.71386 -43.10157,68.35363 -1.74618,4.42383 -3.33084,8.94049 -4.7349,13.55473 m 8.9094,-25.3654 c -2.04419,3.76093 -3.90704,7.60038 -5.58995,11.50882 -9.1108,21.15909 -12.94737,44.36085 -11.71551,67.97462 m -1.25181,-18.94809 c -2.43253,12.37647 -3.3604,24.4962 -2.8115,36.36446 0.58148,12.57282 2.79004,24.34237 6.30634,35.41661 m -8.99239,-15.81158 c 1.54367,22.28772 8.06395,43.3699 18.08425,62.76597 1.40608,2.72171 2.88159,5.41017 4.42288,8.06402 m -2.88616,-14.95438 c 0.96861,2.37569 1.96142,4.7457 2.97864,7.10859 8.34976,19.39554 18.35371,38.30469 30.0512,55.99411 m -3.8158,-8.28483 c 7.42255,10.19196 15.35026,19.41727 23.82284,27.67097 12.82982,12.49836 26.90759,22.76873 42.35988,30.77304 m -22.97653,-16.93286 c 13.98863,11.71051 30.10058,21.18332 47.72394,28.85415 11.70397,5.09433 24.07512,9.39354 36.93341,13.05166 m -25.86363,-5.45382 c 12.17564,4.34524 24.36714,7.57918 36.71301,9.67196 12.34586,2.09278 24.84395,3.04387 37.66639,2.83081 2.17417,-0.0361 4.34277,-0.10544 6.50666,-0.20708 m -24.45751,-1.98608 c 4.73387,0.39695 9.44546,0.60711 14.14063,0.63116 13.4491,0.0689 26.21594,-1.38788 38.50503,-4.09547 12.28909,-2.7076 24.09776,-6.66772 35.57962,-11.64011 m -26.41354,2.67461 c 12.02491,-2.68618 23.52561,-5.96259 34.59435,-9.72068 15.31708,-5.2005 29.80613,-11.32415 43.67172,-18.0615 m -15.8307,8.38597 c 15.81135,-8.65519 30.63021,-19.59662 43.37632,-31.55032 3.66807,-3.44004 7.16463,-6.96401 10.464,-10.54138 m -8.49779,11.7387 c 18.68266,-19.28186 33.00292,-40.7794 42.26617,-64.84208 m -9.22085,12.65661 c 3.7378,-6.70173 7.2486,-13.68252 10.48659,-20.87852 8.98855,-19.97582 15.87555,-41.6296 19.69157,-63.47206 m 1.23935,27.94416 c 3.2622,-14.07825 4.8706,-29.35503 4.83421,-45.57025 -0.0427,-19.01942 -2.33571,-38.25227 -6.3552,-57.10702 m 1.76578,28.14064 c -2.27488,-20.94754 -7.4927,-40.87596 -15.12434,-58.74714 -4.26265,-9.98195 -9.27831,-19.3241 -14.95383,-27.85173 m 5.9323,22.29945 c -10.78994,-23.80881 -24.82069,-46.21751 -40.87851,-65.81385 -0.74532,-0.90956 -1.49499,-1.81307 -2.24888,-2.71041 m 9.72087,14.71811 c -3.42562,-4.33072 -7.01591,-8.50037 -10.74593,-12.51019 -16.43132,-17.66387 -35.58617,-32.2209 -55.27989,-43.79345 m 17.55573,21.52142 c -9.73614,-6.36272 -20.1478,-12.00031 -31.09627,-16.88388 -18.04096,-8.04718 -37.54243,-14.04048 -57.86596,-17.90721 m 27.99791,0.37661 c -17.9033,-5.33206 -35.83108,-7.41226 -53.88983,-6.67338 0.001,0.001 0.003,0.003 0.004,0.004 -14.05349,0.5762 -27.55131,2.81701 -40.59356,6.19631 m 35.9321,-1.08356 c -30.11332,-0.53111 -58.90241,3.57446 -85.02885,10.26497 -2.24047,0.57375 -4.46138,1.16644 -6.66192,1.77676 m 30.16691,0.18108 c -6.37817,1.93407 -12.55303,4.16588 -18.52645,6.67277 -24.6379,10.33987 -45.86222,25.35492 -63.64185,43.51606 m 21.83348,-28.00545 c -8.89668,7.21944 -17.51865,15.09564 -25.66948,23.72425 -13.19639,13.96992 -25.15918,29.9073 -35.06531,48.2404 m 14.40212,-22.13494 c -10.87451,14.04413 -19.97345,29.65207 -27.29061,46.51712 -2.49112,5.7417 -4.77594,11.62921 -6.85523,17.6508 m 5.37415,-13.24752 c -4.96937,12.29602 -8.86323,25.47999 -11.44513,39.2198 -2.5819,13.7398 -3.85312,28.03773 -3.55551,42.52728 0.0208,1.01189 0.0492,2.02147 0.0851,3.02861 m 3.78472,-18.7443 c -0.83348,6.67196 -1.31305,13.36387 -1.45251,20.07444 -0.39129,18.82808 1.90046,36.70522 5.96897,53.68805 m -9.03349,-19.04537 c 2.86837,16.74725 7.87372,31.98519 14.77274,45.78557 4.96357,9.92883 10.90794,19.11087 17.74798,27.55197 M 172.0467,583.6284 c 10.08004,20.48309 24.5796,40.65534 42.0039,58.6456 7.02068,7.24873 14.51736,14.14501 22.39456,20.57019 m -22.61205,-16.54111 c 0.24924,0.2725 0.49933,0.54409 0.75028,0.81474 18.69088,20.1588 42.11241,35.18387 68.58086,46.37416 m -14.95889,-9.80482 c 6.92402,3.88064 14.02808,7.3897 21.30067,10.51316 17.94208,7.70584 36.90741,13.06158 56.7381,15.87812 m -22.13247,-8.86565 c 15.86587,3.49615 31.70063,5.65096 47.4706,6.30039 13.82868,0.56948 26.98094,-0.0442 39.5062,-1.73774 m -25.27768,-2.50704 c 23.3796,-2.15993 46.28491,-7.55298 67.51652,-15.97354 7.56192,-2.99909 14.91323,-6.3809 22.00356,-10.13302 m -16.76108,14.85907 c 0.72512,-0.27837 1.44687,-0.55952 2.16529,-0.84342 27.28893,-10.78376 49.80638,-25.54058 69.02174,-42.6094 0.43705,-0.38823 0.87238,-0.77764 1.30601,-1.16823 m -27.54344,15.44246 c 5.48862,-4.44343 10.83091,-9.21022 15.9953,-14.26235 16.87659,-16.50974 31.85109,-36.06863 43.85269,-57.35279 m -12.48237,11.9686 c 6.56591,-11.47798 12.63,-23.13425 17.83364,-35.11813 4.23782,-9.75962 7.90538,-19.73606 10.80155,-30.01783 m 2.17934,22.09056 c 7.917,-21.97359 10.23983,-45.5333 7.0259,-70.43968 -1.25853,-9.75297 -3.32776,-19.42526 -6.09956,-28.9963 m 5.62201,32.02779 c 0.0142,-0.34422 0.0275,-0.68873 0.0397,-1.03354 0.52571,-14.84146 -0.83886,-29.51631 -3.60806,-43.71464 -2.7692,-14.19833 -6.94667,-27.92191 -12.10461,-40.88946 -0.89873,-2.25951 -1.82731,-4.49611 -2.78355,-6.70834 m 4.62542,18.06724 c -2.04303,-6.37193 -4.31147,-12.56866 -6.79196,-18.56732 -6.59423,-15.94707 -14.68876,-30.49506 -24.01326,-43.20872 m 6.53511,18.19814 c -9.18723,-13.06565 -18.69623,-25.66243 -28.75327,-37.38191 -8.78826,-10.24099 -17.9931,-19.81296 -27.74987,-28.45109 m 15.09063,14.40189 c -17.40932,-15.19833 -35.52437,-26.08211 -54.49226,-33.19373 -7.78375,-2.91836 -15.71066,-5.20126 -23.79109,-6.8891 m 28.04809,7.02117 c -23.04722,-9.54058 -47.5683,-15.26805 -73.30335,-16.52302 m 13.08582,-3.16393 c -9.522,-0.82655 -19.05172,-1.28117 -28.63557,-1.25761 -4.4e-4,8e-5 -8.9e-4,1.6e-4 -0.001,2.4e-4 -16.74004,0.0396 -32.79256,1.55004 -48.4456,4.78095 m 50.74593,-6.0236 c -12.95638,-0.14539 -25.22391,0.88333 -36.96993,2.93361 -11.74602,2.05028 -22.96847,5.12272 -33.79061,9.07775 m 12.66547,3.5503 c -10.06389,2.98164 -19.68909,6.34436 -28.83963,10.1397 -17.39965,7.21678 -33.08471,16.00069 -46.77178,26.60655 m 18.43325,-17.47365 c -14.18937,8.86203 -27.22284,19.42591 -38.81792,31.44305 -11.20281,11.6106 -21.06314,24.57778 -29.32278,38.68132 m 10.65552,-23.87933 c -13.23647,16.09589 -24.10287,34.8379 -31.24627,55.15439 -2.82661,8.03914 -5.06924,16.32461 -6.63632,24.78739 m 9.36456,-25.85127 c -5.39525,12.82355 -10.09677,26.3109 -14.00684,40.25675 -3.91007,13.94585 -7.02744,28.35104 -9.29446,42.99572 -0.69015,4.45828 -1.29207,8.87527 -1.80835,13.24527 m 10.37868,-23.97432 c -0.15336,5.2545 -0.22714,10.55929 -0.19941,15.89527 0.0673,12.94373 0.73693,25.52764 2.22642,37.50563 1.48948,11.978 3.7958,23.35116 7.07645,33.88778 m -6.15295,-26.16399 c 2.5833,11.47491 6.25267,22.92715 10.81893,34.07732 7.26482,17.73965 16.80021,34.7146 27.8833,49.89292 m -14.12839,-17.84752 c 9.48023,15.77011 20.67312,29.38476 33.48001,40.91315 7.5014,6.75254 15.55628,12.78828 24.14494,18.11628 m -20.48883,-14.47682 c 17.22214,15.59432 38.97647,31.10964 62.76761,43.95116 3.11364,1.68062 6.26202,3.31548 9.43934,4.89875 m -24.71156,-7.33003 c 3.46728,1.72983 7.00138,3.3652 10.60007,4.90489 20.4219,8.73748 42.91487,14.38764 67.1315,16.76828 m -13.50619,-3.18063 c 12.63192,2.145 25.4782,3.21366 38.44075,3.05463 19.64524,-0.241 38.32463,-3.2915 55.78654,-8.95413 m -28.84367,7.0158 c 18.50931,-2.24161 37.34029,-7.01143 55.30871,-13.59517 7.53986,-2.76266 14.9306,-5.84543 22.09294,-9.19738 m -20.5265,4.39635 c 24.0342,-12.23711 47.98026,-26.25298 69.47525,-43.45852 0.34878,-0.27918 0.69691,-0.55918 1.0444,-0.84003 m -11.72189,10.8404 c 4.79162,-4.14354 9.29827,-8.38438 13.50859,-12.7219 13.49325,-13.90088 23.94803,-28.79696 30.94804,-44.63887 m -9.42308,18.0761 c 8.47054,-11.61324 15.82414,-24.34806 22.18824,-37.97874 6.79199,-14.54714 12.45277,-30.11501 17.19432,-46.43272 m -8.16907,17.22887 c 5.26032,-20.69757 8.25484,-41.12279 7.32175,-61.19772 -0.32643,-7.02295 -1.13027,-13.83217 -2.4391,-20.43982 m 2.98757,26.34036 c 9.9e-4,-0.0401 0.002,-0.0801 0.003,-0.1202 0.3636,-15.09348 -1.16197,-30.07669 -4.19069,-44.77476 -3.02873,-14.69808 -7.56329,-29.11154 -13.26336,-43.08038 -1.00811,-2.47052 -2.05274,-4.92716 -3.13207,-7.36906 m 12.38561,20.93528 c -2.11336,-6.51516 -4.41564,-12.79262 -6.90733,-18.85187 -7.30423,-17.76238 -16.23984,-33.65563 -26.7683,-48.08388 m 5.23968,13.8109 c -8.66855,-12.67549 -18.22867,-24.34298 -28.75073,-34.86 -6.55025,-6.54711 -13.47288,-12.64828 -20.78363,-18.26868 m 13.04007,15.60881 c -18.92211,-15.52115 -38.5481,-28.48579 -59.74284,-37.35032 -5.54786,-2.32034 -11.20344,-4.35928 -16.98385,-6.08743 m 19.22569,1.87662 c -1.82347,-0.81331 -3.64896,-1.59872 -5.47619,-2.35572 -20.10609,-8.32973 -40.43325,-13.22888 -60.56115,-13.93492 m 17.16299,6.71051 c -11.9276,-2.44894 -24.20842,-3.5978 -36.80885,-3.53194 -5.6e-4,1.8e-4 -0.001,3.6e-4 -0.002,5.4e-4 -13.91137,0.0738 -27.61716,1.61635 -41.05397,4.25447"
           id="path3647"
           inkscape:connector-curvature="0" />
        <g
           id="g3680"
           style="stroke:#000000;stroke-width:2;stroke-miterlimit:4;stroke-opacity:1;stroke-dasharray:none"
           transform="translate(0,-32)">
          <path
             inkscape:original-d="m 370,742.36218 0,-440"
             id="path3676"
             d="m 374.47689,744.43197 c 0.79361,-24.92788 -0.50896,-48.13001 -2.65676,-71.15694 m -2.41357,15.69125 c 0.82671,-25.41505 1.1827,-53.0989 2.63863,-81.06697 m -5.64655,14.97565 c 0.51132,-25.43645 0.20377,-51.19633 -0.012,-76.83561 m 6.61308,20.41831 c -1.04134,-32.18306 -1.63621,-65.59174 -4.79567,-99.32183 m 1.04553,28.00374 c -1.28718,-28.55379 0.79489,-56.41353 3.52492,-84.88783 m 1.13961,26.22703 c 0.01,-25.09285 0.35437,-49.69443 1.0483,-74.94458 m -2.07197,14.55898 c -0.55769,-23.85249 -1.27388,-49.62223 -3.06745,-75.29013 m 4.30237,437.98831 c 0.95866,-31.6041 -1.98891,-59.65557 -6.44596,-87.32171 m 0.29679,29.11302 c -1.28742,-31.88448 0.19069,-63.97487 1.10361,-98.29849 m 1.72525,24.8547 c 0.7688,-23.17742 0.18299,-47.14944 -0.56878,-71.07825 m -5.24398,16.64171 c 0.15755,-23.23172 1.26549,-47.05046 3.56815,-70.77924 m 0.48603,14.5038 c -1.08013,-23.49375 0.30412,-48.21929 2.44842,-72.96332 m 0.74726,15.52424 c -0.21148,-27.0128 -1.19939,-54.8959 -3.41055,-83.57541 m -2.87059,20.80691 c 0.08,-26.65857 1.27904,-50.434 3.72081,-73.3984 m 1.32579,439.61129 c -0.61713,-25.57097 0.0698,-49.51481 0.99823,-72.64057 m -0.30218,13.69333 c 1.16075,-24.31624 -0.0514,-46.60386 -1.93834,-68.2144 m 0.25774,18.08406 c -0.99655,-23.22974 -0.83709,-48.71777 -1.08498,-75.16165 m 0.0932,13.28 c -0.0737,-27.098 -0.69189,-53.84966 -1.97206,-80.64216 m 2.05823,21.03712 c 0.51793,-25.48195 1.32457,-50.71012 3.32174,-76.47061 m -4.61906,15.64491 c -0.58628,-23.17069 0.38052,-46.63842 1.99738,-69.36534 m -0.13782,15.93032 c -0.1356,-25.60412 0.98242,-50.10653 3.14117,-74.74121 m -3.77441,16.18941 c -0.58671,-12.01493 -0.62613,-24.115 -0.34732,-36.25801"
             style="fill:none;stroke:#000000;stroke-width:2;stroke-linecap:butt;stroke-linejoin:miter;stroke-miterlimit:4;stroke-opacity:1;stroke-dasharray:none"
             inkscape:connector-curvature="0" />
          <path
             inkscape:original-d="m 150,522.36218 440,0"
             id="path3678"
             d="m 156.28923,518.54217 c 29.9876,0.90704 58.05956,0.57475 84.72685,1.15554 m -27.38843,6.6487 c 23.48499,-0.34989 47.46376,-0.87766 71.80013,-2.13118 m -18.24221,-2.83752 c 29.10353,-0.27293 59.60614,-0.46981 91.51188,-1.2326 m -26.64128,-1.19655 c 24.62168,1.13499 51.08445,1.75557 77.44044,3.91389 m -18.81947,4.3673 c 29.05042,1.15436 61.30636,-0.21191 94.02928,-1.27949 m -20.62717,-8.41667 c 24.90692,-1.12896 48.63477,-0.16288 71.85965,1.05526 m -12.7998,4.78145 c 24.49612,0.72994 48.38075,-0.16721 72.47942,-1.53438 m -445.39953,-4.98943 c 26.90965,-0.17568 53.89949,1.78449 81.70452,5.52913 m -22.81953,0.9478 c 31.70969,0.98805 65.92483,-0.25743 99.23959,-0.83553 m -32.82359,-3.65712 c 23.81595,-0.38344 48.8788,-0.55768 74.00887,-1.14098 m -15.36737,7.33688 c 34.19758,1.40841 66.57145,-1.54561 100.41358,-4.69997 m -25.34475,4.23819 c 28.31598,-1.1444 55.86429,0.4239 84.49489,2.35287 m -19.93096,-4.96943 c 30.4947,0.61311 58.70759,0.33263 87.91456,0.58998 m -28.24834,1.73769 c 18.75837,-0.45671 37.05664,-1.14521 54.80604,-2.51351 m -434.80553,6.30321 c 23.20798,0.91219 46.14595,-0.94273 68.56039,-4.21435 m -19.85668,-2.38733 c 30.61747,0.86799 61.79946,1.01773 91.76099,2.76449 m -16.60688,1.33631 c 26.14674,-1.32004 54.00724,-0.69595 81.78793,-0.73261 m -26.64445,1.57661 c 32.55092,-0.75355 65.13901,-0.36589 98.81483,-0.948 m -33.39847,2.74535 c 33.74701,0.78333 67.0749,0.0361 103.95652,-0.0348 m -32.08423,-7.82483 c 23.52363,-0.0457 46.45914,0.31024 68.93252,0.9818 m -10.22631,6.12771 c 20.10096,0.26211 40.51837,0.16721 60.21633,0.01"
             style="fill:none;stroke:#000000;stroke-width:2;stroke-linecap:butt;stroke-linejoin:miter;stroke-miterlimit:4;stroke-opacity:1;stroke-dasharray:none"
             inkscape:connector-curvature="0" />
        </g>
      </g>
      <g
         transform="matrix(0.37610155,0,0,0.37610155,-15.759432,667.32379)"
         id="text3684"
         style="font-size:40px;font-style:normal;font-weight:normal;fill:#000000;fill-opacity:1;stroke:none;font-family:Bitstream Vera Sans" />
      <path
         style="fill:none;stroke:none"
         d="M 50.909537,700.33097 C -7.7976797,700.92147 -54.905378,749.0018 -54.314874,807.70903 -53.724371,866.41626 -5.6590831,913.53928 53.048144,912.94879 111.75536,912.35829 158.86306,864.27797 158.27257,805.57073 157.68205,746.8635 109.61676,699.74048 50.909537,700.33097 z"
         id="path3713"
         inkscape:connector-curvature="0" />
      <path
         id="path3739"
         d="m -20.670857,861.66174 c -30.384859,-40.1195 -22.48382,-97.2763 17.635698,-127.66117 40.119517,-30.38486 97.278838,-22.50207 127.663699,17.61744 30.38486,40.11951 22.48382,97.27632 -17.6357,127.66118 -40.119516,30.38486 -97.278827,22.50206 -127.663697,-17.61745 z"
         style="fill:none;stroke:none"
         inkscape:connector-curvature="0" />
      <path
         inkscape:original-d="m 77.904158,757.55332 21.708142,0 c 3.91554,0 7.06776,3.15222 7.06776,7.06776 l 0,10.09682 c 0,3.91554 -3.15222,7.06777 -7.06776,7.06777 l -21.708142,0 c -3.915548,0 -7.067772,-3.15223 -7.067772,-7.06777 l 0,-10.09682 c 0,-3.91554 3.152224,-7.06776 7.067772,-7.06776 z"
         inkscape:path-effect="#path-effect3827"
         id="rect3824"
         d="m 87.475012,765.44361 c 5.28485,-0.16997 10.491021,-0.28814 15.633838,-0.36648 3.97843,-0.0606 7.15293,3.06002 7.15046,6.95507 -0.002,3.348 -0.0273,6.70974 -0.071,10.08168 -0.0509,3.92292 -3.26587,7.09254 -7.2734,7.1211 -7.406028,0.0528 -14.874845,0.13488 -22.361651,0.21129 -4.051238,0.0413 -7.321569,-3.07732 -7.460873,-6.95963 -0.0013,-0.0374 -0.0027,-0.0748 -0.004,-0.1122 m 14.094014,-3.01081 c -2.782529,-0.0458 -5.549675,-0.0818 -8.302561,-0.10895 -3.950956,-0.0389 -7.109406,-3.20916 -7.09222,-7.13143 0.01477,-3.37139 0.04893,-6.73113 0.100367,-10.08091 0.05984,-3.89714 3.280841,-7.02316 7.297504,-6.98166 8.61e-4,3.5e-4 0.0017,7.1e-4 0.0026,0.001 7.423548,0.077 14.916169,0.19136 22.456939,0.32612 3.49019,0.0624 6.41175,2.42634 7.30073,5.60997 m -25.65125,0.30532 c 3.920385,-0.0704 7.888883,-0.14495 11.897546,-0.2266 3.830187,-0.078 6.940324,3.00387 6.918124,6.82667 -0.0191,3.28589 -0.0159,6.5651 0.005,9.83591 0.0244,3.80525 -3.087865,6.85629 -6.939486,6.72212 -7.117924,-0.24795 -14.175762,-0.54335 -21.217275,-0.90314 -2.848891,-0.14556 -5.278027,-2.04541 -6.277547,-4.72729 m 20.527499,7.05675 c -2.681229,0.0944 -5.379779,0.17708 -8.092882,0.25017 -3.781074,0.10186 -6.843466,-2.98016 -6.755759,-6.82435 0.07539,-3.30427 0.135124,-6.61857 0.183964,-9.93944 0.05682,-3.86348 3.24457,-6.97943 7.19574,-6.93934 3.03e-4,3.4e-4 6.06e-4,6.8e-4 9.08e-4,0.001 7.301637,0.074 14.577308,0.13527 21.874278,0.2182 3.9485,0.0449 7.13289,3.23942 7.18435,7.21667 0.0442,3.41865 0.0983,6.84577 0.16696,10.28482 0.0799,4.00098 -2.99018,7.23726 -6.78178,7.35809 -0.0683,0.002 -0.1366,0.004 -0.20489,0.007 M 81.810207,754.38901 c 4.277946,-0.10852 8.629663,-0.2024 13.048308,-0.28747 3.922777,-0.0755 7.123045,3.01917 7.225775,6.8687 0.0883,3.30887 0.21222,6.62004 0.36873,9.93092 0.18208,3.85187 -2.782567,6.95069 -6.436893,6.88266 -6.753314,-0.12573 -13.371476,-0.2659 -19.884713,-0.44616 -3.524423,-0.0975 -6.32466,-3.34053 -5.879709,-7.37945 0.242511,-2.20133 0.492802,-4.40728 0.750099,-6.61852 m 10.594892,19.93064 c -1.390235,0.0379 -2.774047,0.0685 -4.151642,0.092 -4.001104,0.0683 -7.183184,-3.07433 -7.174046,-7.03057 0.0079,-3.40059 0.05094,-6.84215 0.126044,-10.32175 0.08738,-4.04816 3.347323,-7.3524 7.427739,-7.5783 0.0014,-0.002 0.0028,-0.004 0.0042,-0.006 7.54194,-0.41896 15.215505,-0.99878 22.98889,-1.71041 4.2063,-0.38508 7.62531,2.414 7.96685,5.87557 0.21184,2.14714 0.4331,4.28111 0.66257,6.403 M 75.091465,758.60801 c 6.493315,0.003 13.133829,-0.015 19.897631,-0.0527 3.959244,-0.022 7.181724,3.10629 7.301044,6.98683 0.10256,3.33552 0.23298,6.66599 0.38821,9.99144 0.18059,3.86882 -2.793616,6.97655 -6.469324,6.91699 -6.79283,-0.11007 -13.486448,-0.24326 -20.111124,-0.39936 -0.183968,-0.004 -0.366042,-0.017 -0.545873,-0.0375 m 21.575779,-3.93908 c -5.269997,-0.0524 -10.613552,-0.0411 -16.022303,0.0301 -3.93708,0.0518 -7.134835,-3.03183 -7.218819,-6.83694 -0.07219,-3.27068 -0.167646,-6.51901 -0.284322,-9.74596 -0.135741,-3.75423 2.879952,-6.74841 6.60832,-6.53373 -0.0016,0.002 -0.0032,0.004 -0.0048,0.005 6.88105,0.39713 13.674736,0.88789 20.401342,1.46262 m -17.624588,1.1754 c 5.692639,0.10385 11.321851,0.13645 16.900239,0.1062 3.940319,-0.0214 7.092999,3.08802 7.073789,6.92556 -0.0165,3.29856 -0.0487,6.57603 -0.0936,9.8343 -0.0523,3.79067 -3.26224,6.81764 -7.258899,6.64627 -7.385953,-0.3167 -14.816773,-0.71257 -22.264423,-1.16886 -4.03005,-0.24691 -7.282246,-3.61999 -7.402095,-7.81324 -0.103016,-3.60431 -0.20657,-7.21963 -0.307839,-10.84405 -0.0029,-0.10451 -0.0039,-0.20853 -0.0029,-0.31201 m 14.247671,16.28814 c -1.352535,0.0611 -2.701048,0.11948 -4.045668,0.17539 -3.970125,0.16509 -7.141008,-2.86625 -7.134343,-6.65041 0.0057,-3.25268 0.03423,-6.51589 0.0834,-9.78482 0.0572,-3.80307 3.279628,-6.86764 7.302349,-6.76307 9.12e-4,8.9e-4 0.0018,0.002 0.0027,0.003 7.434889,0.19323 14.954575,0.38461 22.53822,0.62184 4.10363,0.12837 7.4283,3.39831 7.64887,7.47437 0.18958,3.50358 0.3907,7.02236 0.60124,10.56113 0.24496,4.11701 -2.69193,7.45896 -6.34132,7.71837 -0.17411,0.0124 -0.3482,0.0248 -0.52227,0.0374"
         style="fill:none;stroke:#ffffff;stroke-width:0.37610158;stroke-opacity:1"
         inkscape:connector-curvature="0" />
      <path
         style="fill:none;stroke:#ffffff;stroke-width:0.17100146;stroke-opacity:1"
         d="m 87.804609,795.18747 c 5.227289,-0.16812 10.377603,-0.28556 15.465781,-0.3639 1.97458,-0.0304 3.74691,0.11246 5.02557,0.3647 0.63933,0.12612 1.15532,0.27954 1.51169,0.45213 0.35638,0.1726 0.55304,0.36457 0.55402,0.56675 0.003,0.69512 0.006,1.39089 0.007,2.08728 3.7e-4,0.20255 -0.19474,0.39498 -0.54847,0.56887 -0.35372,0.17388 -0.86613,0.32942 -1.50098,0.45942 -1.26969,0.26 -3.02957,0.41815 -4.98767,0.41619 -7.237285,-0.007 -14.568061,0.0391 -21.948549,0.10486 -1.996852,0.0178 -3.802767,-0.12892 -5.110264,-0.38189 -0.653749,-0.12648 -1.182841,-0.27954 -1.549259,-0.4517 -0.366418,-0.17216 -0.569354,-0.3637 -0.575844,-0.56548 -0.02231,-0.69377 -0.04496,-1.38746 -0.06789,-2.08111 -0.0067,-0.20175 0.181198,-0.39324 0.522119,-0.56529 0.340922,-0.17205 0.835708,-0.32492 1.447839,-0.45106 1.224261,-0.25228 2.917884,-0.39762 4.792932,-0.3773 3.237925,0.0351 6.472496,0.0686 9.708179,0.0969 m -1.809302,-10.19174 c 3.962379,-0.0679 7.958535,-0.11426 11.984822,-0.14209 1.93489,-0.0134 3.68848,0.1432 4.95868,0.40514 0.6351,0.13096 1.14927,0.28822 1.50472,0.46364 0.35545,0.17542 0.55203,0.36902 0.55298,0.57262 0.003,0.7 0.007,1.4005 0.0123,2.10149 0.001,0.20388 -0.19243,0.39783 -0.54327,0.57425 -0.35084,0.17643 -0.85882,0.33533 -1.48644,0.46931 -1.25524,0.26797 -2.98875,0.43642 -4.90263,0.44514 -7.073809,0.0322 -14.068611,0.11005 -21.004857,0.21697 -1.876659,0.0289 -3.565946,-0.10693 -4.784877,-0.35149 -0.609466,-0.12227 -1.101425,-0.27176 -1.440074,-0.44124 -0.338648,-0.16948 -0.524989,-0.3594 -0.516968,-0.55976 0.02758,-0.68889 0.05565,-1.37756 0.08419,-2.06601 0.0083,-0.20024 0.21333,-0.39001 0.583622,-0.55905 0.370291,-0.16905 0.904839,-0.31782 1.566066,-0.43879 1.322456,-0.24193 3.151654,-0.37263 5.182162,-0.33409 1.492358,0.0283 2.986397,0.0573 4.481956,0.0868 m -16.452986,10.16805 c -0.321523,-0.0948 -0.594177,-0.19657 -0.810655,-0.30356 -0.370499,-0.18312 -0.575428,-0.38117 -0.583626,-0.58864 -0.02818,-0.71334 -0.05499,-1.42681 -0.08047,-2.14043 -0.0074,-0.20755 0.179657,-0.4057 0.519867,-0.58909 0.34021,-0.1834 0.834523,-0.35159 1.447653,-0.49655 1.226262,-0.28992 2.92851,-0.48687 4.825483,-0.52497 7.011326,-0.14081 14.148224,-0.30269 21.367925,-0.50215 1.953348,-0.054 3.722584,0.0585 5.003852,0.28539 0.64063,0.11341 1.15921,0.25549 1.51789,0.41942 0.35868,0.16393 0.55713,0.35052 0.5597,0.54798 0.009,0.67891 0.0183,1.3574 0.0284,2.03546 0.003,0.19722 -0.18919,0.38351 -0.53721,0.54659 -0.34801,0.16309 -0.85225,0.30376 -1.47556,0.41462 -1.246605,0.22172 -2.969263,0.32419 -4.873595,0.25151 -7.038535,-0.26864 -14.027821,-0.58786 -21.010626,-0.97418 -1.206331,-0.0667 -2.337399,-0.19833 -3.318224,-0.37372 m 17.484159,-2.09459 c 4.554355,0.14627 9.067087,0.26458 13.548506,0.3624 1.99908,0.0436 3.79682,0.24295 5.0954,0.53383 0.6493,0.14544 1.17383,0.31379 1.53663,0.49723 0.36281,0.18345 0.56337,0.38156 0.56776,0.58908 0.0151,0.71349 0.0296,1.42656 0.0434,2.13923 0.004,0.20729 -0.1869,0.40511 -0.53335,0.58773 -0.34645,0.18263 -0.84895,0.34963 -1.4713,0.4926 -1.24471,0.28596 -2.96921,0.47556 -4.88429,0.50114 -7.078233,0.0945 -14.205359,0.15969 -21.335186,0.22896 -1.929034,0.0187 -3.670126,-0.1281 -4.928453,-0.38105 -0.629164,-0.12648 -1.137671,-0.27952 -1.488695,-0.45165 -0.351025,-0.17214 -0.544764,-0.36364 -0.543211,-0.5654 0.0053,-0.69366 0.0108,-1.38718 0.01644,-2.08051 0.0016,-0.20166 0.19903,-0.39305 0.556269,-0.56485 0.35724,-0.17181 0.874128,-0.3243 1.513623,-0.44978 1.27899,-0.25095 3.048373,-0.39386 5.011598,-0.36779 7.256202,0.0964 14.545941,0.22314 21.915409,0.41384 1.99387,0.0516 3.79966,0.26735 5.10855,0.57353 0.0454,0.0106 0.0901,0.0213 0.1343,0.0322 m -33.145413,-9.35692 c 6.434639,-0.16322 13.036183,-0.29335 19.78134,-0.41015 1.975406,-0.0342 3.771194,0.10024 5.074443,0.34461 0.65162,0.12219 1.17994,0.27188 1.54604,0.44157 0.36611,0.1697 0.56914,0.35982 0.57574,0.56036 0.0227,0.68951 0.0469,1.37908 0.0726,2.06869 0.007,0.20058 -0.17946,0.39073 -0.5183,0.56054 -0.33884,0.16981 -0.83047,0.31968 -1.43753,0.4422 -1.21413,0.24504 -2.88956,0.3808 -4.733349,0.34905 -6.814765,-0.11735 -13.484439,-0.23875 -20.038565,-0.38927 -1.773273,-0.0407 -3.364912,-0.24395 -4.510236,-0.53989 -0.572661,-0.14797 -1.033937,-0.31906 -1.349676,-0.50472 -0.315739,-0.18565 -0.488433,-0.38526 -0.468479,-0.59409 0.0686,-0.71803 0.138213,-1.43642 0.208799,-2.15519 0.02053,-0.20905 0.239569,-0.40892 0.633799,-0.59533 0.394231,-0.18641 0.961153,-0.35873 1.66228,-0.50896 1.402254,-0.30046 3.341286,-0.51257 5.497861,-0.56983 3.521735,-0.0935 7.061503,-0.19654 10.616754,-0.31126 m -4.957253,6.46064 c 5.316801,0.1542 10.740047,0.18781 16.255861,0.1135 1.952644,-0.0263 3.727124,0.0999 5.014364,0.3333 0.64361,0.1167 1.16527,0.26039 1.52641,0.42524 0.36113,0.16485 0.56121,0.35169 0.56522,0.54933 0.0138,0.67953 0.029,1.35739 0.0456,2.03361 0.005,0.19668 -0.18513,0.38234 -0.52914,0.54384 -0.34401,0.16151 -0.84263,0.2997 -1.4583,0.40634 -1.23135,0.21328 -2.93045,0.29988 -4.801416,0.19986 -6.915223,-0.36969 -13.696356,-0.90187 -20.374485,-1.56816 -1.806823,-0.18027 -3.429702,-0.51735 -4.598458,-0.91459 -0.584378,-0.19862 -1.055385,-0.41207 -1.378382,-0.62938 -0.322997,-0.21731 -0.500005,-0.4358 -0.483822,-0.66115 0.05564,-0.77481 0.112157,-1.5508 0.169527,-2.32796 0.01669,-0.22603 0.231321,-0.44536 0.618041,-0.66504 0.386719,-0.21968 0.943493,-0.43702 1.632142,-0.64277 1.377298,-0.41149 3.28209,-0.77663 5.399534,-1.0091 1.726542,-0.18956 3.456911,-0.38456 5.190772,-0.5847 m -16.029222,8.74621 c -0.333877,-0.048 -0.64632,-0.10178 -0.934187,-0.16054 -0.651538,-0.13298 -1.17716,-0.29166 -1.540575,-0.46806 -0.363416,-0.17641 -0.564117,-0.37052 -0.568617,-0.57456 -0.01547,-0.70152 -0.02937,-1.40326 -0.04172,-2.10522 -0.0036,-0.20417 0.187845,-0.39844 0.535548,-0.5753 0.347704,-0.17685 0.852167,-0.33626 1.477875,-0.4706 1.251415,-0.26867 2.988499,-0.43711 4.92632,-0.44384 7.162306,-0.0249 14.476627,-0.0729 21.913382,-0.14396 2.012074,-0.0192 3.837389,0.12584 5.161247,0.37724 0.66194,0.12569 1.19836,0.27801 1.57039,0.44959 0.37203,0.17158 0.57846,0.36274 0.58801,0.56419 0.0328,0.69262 0.0668,1.38502 0.10173,2.07721 0.0102,0.20132 -0.17368,0.39232 -0.50748,0.56346 -0.3338,0.17114 -0.81878,0.32273 -1.41819,0.4471 -1.198819,0.24874 -2.85518,0.38858 -4.681766,0.35966 -6.751181,-0.10689 -13.403138,-0.23657 -19.985455,-0.38882 -0.592981,-0.0137 -1.166146,-0.0454 -1.709545,-0.0924 m 14.521182,-8.95922 c 4.669605,-0.0446 9.285961,-0.043 13.854224,0.002 1.93926,0.0192 3.68038,0.20907 4.93605,0.49692 0.62783,0.14393 1.13441,0.31225 1.48378,0.496 0.34938,0.18374 0.54192,0.38237 0.5393,0.59038 -0.009,0.71514 -0.0191,1.43128 -0.0302,2.14841 -0.003,0.20858 -0.20248,0.40792 -0.56319,0.59366 -0.36072,0.18575 -0.88255,0.35736 -1.52889,0.50731 -1.29268,0.29991 -3.08374,0.51345 -5.07714,0.57684 -7.36774,0.23427 -14.838275,0.56883 -22.391711,0.99422 -2.043645,0.1151 -3.894404,0.0618 -5.236106,-0.12012 -0.67085,-0.0909 -1.21431,-0.21416 -1.591488,-0.36399 -0.377178,-0.14984 -0.586558,-0.32801 -0.598687,-0.51811 -0.0417,-0.65357 -0.08413,-1.30631 -0.127258,-1.95823 -0.01255,-0.18961 0.16859,-0.36719 0.497931,-0.51534 0.329342,-0.14816 0.808414,-0.26863 1.400977,-0.35452 1.185126,-0.17179 2.824196,-0.20525 4.634385,-0.0532 0.359893,0.0302 0.719592,0.0607 1.0791,0.0914 m -5.435251,6.05645 c -0.615745,-0.0575 -1.176446,-0.13663 -1.663873,-0.23336 -0.617964,-0.12264 -1.118168,-0.27357 -1.463267,-0.44441 -0.345098,-0.17085 -0.5356,-0.36189 -0.531242,-0.56326 0.01498,-0.69237 0.029,-1.38583 0.04207,-2.08039 0.0038,-0.20201 0.203645,-0.39383 0.564584,-0.56689 0.36094,-0.17306 0.882476,-0.32762 1.526476,-0.45692 1.288,-0.2586 3.065387,-0.41663 5.026999,-0.41913 7.25024,-0.009 14.411198,-0.12628 21.510484,-0.33301 1.920766,-0.0559 3.649626,0.0509 4.897776,0.27239 0.62407,0.11075 1.12803,0.25029 1.47559,0.41225 0.34756,0.16196 0.53915,0.3473 0.53573,0.54365 -0.0118,0.6751 -0.0241,1.34941 -0.0368,2.02294 -0.004,0.19589 -0.20349,0.38067 -0.56487,0.54104 -0.36139,0.16036 -0.88395,0.29729 -1.53059,0.40325 -1.29326,0.21194 -3.08296,0.29991 -5.069484,0.20893 -3.680732,-0.16859 -7.371519,-0.35614 -11.068881,-0.56038"
         id="path3829"
         inkscape:path-effect="#path-effect3831"
         inkscape:original-d="m 78.233755,787.29718 21.542755,0 c 3.88571,0 7.01391,0.65665 7.01391,1.4723 l 0,2.10327 c 0,0.81565 -3.1282,1.47229 -7.01391,1.47229 l -21.542755,0 c -3.885714,0 -7.013917,-0.65664 -7.013917,-1.47229 l 0,-2.10327 c 0,-0.81565 3.128203,-1.4723 7.013917,-1.4723 z"
         inkscape:connector-curvature="0" />
      <g
         transform="matrix(0.29923395,0,0,0.29923395,-60.498785,647.55348)"
         id="g3841">
        <path
           style="fill:none;stroke:#ffffff;stroke-width:1px;stroke-linecap:butt;stroke-linejoin:miter;stroke-opacity:1"
           d="m 286.93423,463.15384 c -0.0426,-1.18891 -0.0814,-2.50466 -0.11061,-3.92214 -0.13059,-6.34435 -0.0958,-14.7076 0.82086,-22.96934 0.45833,-4.13087 1.14328,-8.2405 2.16954,-12.08003 1.02626,-3.83952 2.39484,-7.40949 4.22106,-10.4614 1.82622,-3.05191 4.111,-5.58601 6.95534,-7.34756 2.84433,-1.76155 6.24724,-2.74973 10.29336,-2.70658 3.03122,0.0323 5.68583,0.64701 8.00246,1.73569 m -19.87298,-9.17791 c 2.83301,-1.75718 6.2238,-2.76945 10.27132,-2.80137 4.16996,-0.0329 7.68132,1.00585 10.62451,2.84059 2.9432,1.83474 5.32046,4.46681 7.24386,7.63524 1.9234,3.16842 3.39391,6.87383 4.52097,10.85474 1.12707,3.98091 1.91082,8.23736 2.45055,12.50253 0.67048,5.29837 0.96439,10.60995 1.05377,15.4153 m -6.90886,-9.70318 c 0.005,0.0998 0.01,0.19958 0.0147,0.29938 0.39582,8.24213 -0.0339,16.46276 -0.55169,22.60684 -0.2589,3.07203 -0.54297,5.62651 -0.76456,7.41397 -0.1108,0.89373 -0.20591,1.59576 -0.27361,2.07493 -0.0338,0.23959 -0.0608,0.42346 -0.0794,0.54769 -0.009,0.0621 -0.0165,0.10932 -0.0214,0.14112 -0.002,0.0159 -0.004,0.028 -0.006,0.0361 -0.001,0.008 -0.002,0.0124 -0.002,0.0126 0,1e-5 0,1e-5 0,1e-5 -13.43779,-0.77089 -26.59033,-1.67878 -39.74396,-2.8344 m 22.27,3.24511 c -7.33826,0.0386 -14.80638,-0.01 -22.34755,-0.10455 0,0 0,0 0,-10e-6 -0.001,-0.008 -0.50365,-4.05307 -0.78386,-10.14681 -0.28022,-6.09375 -0.34669,-14.2414 0.63687,-22.37741 0.49177,-4.06801 1.24846,-8.13156 2.3786,-11.93044 1.13013,-3.79889 2.63365,-7.33326 4.61528,-10.34529 1.98164,-3.01204 4.44006,-5.5029 7.48634,-7.20765 1.36815,-0.76563 2.8551,-1.37249 4.47271,-1.79498 m -26.86253,46.61155 c -0.0282,-0.30887 -0.0557,-0.62334 -0.0824,-0.94312 -0.52741,-6.31692 -0.70277,-14.6988 0.42431,-23.05866 0.56354,-4.17993 1.44535,-8.35623 2.73062,-12.27399 1.28527,-3.91777 2.97227,-7.57698 5.14457,-10.72314 2.1723,-3.14616 4.82723,-5.77865 8.08056,-7.6481 3.25333,-1.86945 7.1054,-2.97523 11.72764,-3.08355 4.62227,-0.10833 8.51326,0.83625 11.82931,2.55773 1.48035,0.7685 2.84652,1.69166 4.11213,2.74465 m -20.43397,1.39583 c 1.69979,-0.4193 3.55952,-0.62921 5.59415,-0.60246 4.11867,0.0541 7.61083,1.08689 10.54906,2.87061 2.93824,1.78372 5.32633,4.31402 7.27896,7.31723 1.95263,3.0032 3.47171,6.47721 4.67023,10.15214 1.19853,3.67494 2.07691,7.55032 2.73033,11.3783 1.30683,7.65595 1.72293,15.10781 1.82578,20.62077 0.0109,0.58255 0.0181,1.14364 0.0224,1.68133 m -6.62505,-13.5983 c -0.0224,5.76637 -0.3125,11.20948 -0.6384,15.61293 -0.23189,3.13318 -0.48409,5.74039 -0.68083,7.5656 -0.0984,0.91261 -0.18286,1.62973 -0.24315,2.11925 -0.0301,0.24476 -0.0542,0.43263 -0.0708,0.55956 -0.008,0.0635 -0.0147,0.1117 -0.0191,0.14419 -0.002,0.0163 -0.004,0.0286 -0.005,0.0369 -0.001,0.008 -0.002,0.0126 -0.002,0.0129 0,0 -10e-6,10e-6 -10e-6,10e-6 -15.31341,-0.56439 -29.99079,-1.2384 -44.33932,-2.01984 0,0 0,0 0,-10e-6 -1.7e-4,-0.003 -0.0304,-0.5286 -0.0608,-1.48513 m 20.28936,-2.07397 c -4.98442,-0.195 -10.0347,-0.33286 -15.14375,-0.41695 0,0 0,0 0,-10e-6 -0.001,-0.008 -0.59188,-4.08672 -1.06652,-10.09359 -0.47464,-6.00687 -0.85473,-13.92171 -0.32456,-21.68978 0.26509,-3.88404 0.76178,-7.73502 1.60815,-11.31184 0.70919,-2.99709 1.66448,-5.80233 2.93361,-8.27241 m -7.18283,46.70302 c -0.0251,-0.58376 -0.0486,-1.19243 -0.07,-1.82391 -0.20531,-6.06963 -0.22623,-14.26746 0.68222,-22.61801 0.45422,-4.17527 1.14499,-8.38426 2.18296,-12.35971 1.03798,-3.97545 2.42391,-7.71632 4.26917,-10.95454 1.84526,-3.23821 4.15062,-5.97216 7.01649,-7.95354 2.86588,-1.98138 6.29172,-3.21044 10.36337,-3.47259 4.07167,-0.26214 7.46645,0.54852 10.27854,2.13993 2.8121,1.59142 5.04017,3.96067 6.78633,6.82509 0.0875,0.14359 0.17386,0.28844 0.25899,0.43449 M 307.4598,391.7072 c 1.01825,-0.0972 2.08541,-0.12411 3.20386,-0.0755 4.13081,0.1796 7.61512,1.3559 10.53538,3.30732 2.92026,1.95142 5.2789,4.67673 7.18724,7.92667 1.90835,3.24995 3.36772,7.02339 4.48942,11.06293 1.1217,4.03953 1.90603,8.34521 2.45294,12.65943 1.09384,8.62845 1.24409,17.30639 1.12973,23.87581 -0.0572,3.28472 -0.1824,6.03837 -0.29435,7.97204 -0.056,0.96683 -0.10861,1.72851 -0.14739,2.24884 -0.0194,0.26017 -0.0353,0.46001 -0.0464,0.59505 -0.006,0.0675 -0.01,0.11885 -0.0129,0.15343 -0.001,0.0173 -0.003,0.0304 -0.003,0.0393 -7.7e-4,0.009 -0.001,0.0134 -0.001,0.0137 0,10e-6 0,10e-6 0,10e-6 -2.58868,0.0748 -5.17146,0.16415 -7.74949,0.2708 m 4.92827,-15.19213 c 0.0177,2.15589 -0.0208,4.1801 -0.0907,6.02312 -0.12062,3.17921 -0.33436,5.81941 -0.51542,7.66676 -0.0905,0.92367 -0.17296,1.64912 -0.23254,2.14428 -0.0298,0.24757 -0.0539,0.43757 -0.0705,0.56595 -0.008,0.0642 -0.0148,0.11296 -0.0192,0.14582 -0.002,0.0164 -0.004,0.0289 -0.005,0.0373 -0.001,0.008 -0.002,0.0128 -0.002,0.013 0,10e-6 -10e-6,10e-6 -10e-6,10e-6 -15.32966,-0.39083 -31.19658,-0.99747 -47.09543,-1.6748 0,0 0,0 0,-10e-6 -0.001,-0.008 -0.65521,-4.1834 -1.10135,-10.45129 -0.17974,-2.52521 -0.32496,-5.39004 -0.37544,-8.45768 m -3.94858,11.95987 c -0.11977,-1.70267 -0.29618,-4.68518 -0.39711,-8.49578 -0.16133,-6.09042 -0.15262,-14.31495 0.76809,-22.67898 0.46036,-4.18202 1.15436,-8.39436 2.19624,-12.36863 1.04189,-3.97427 2.43248,-7.70946 4.28545,-10.9378 1.85298,-3.22834 4.16877,-5.94854 7.05037,-7.91101 2.8816,-1.96247 6.32771,-3.16791 10.4353,-3.39252 4.10761,-0.22461 7.54274,0.62552 10.40329,2.26171 0.58544,0.33486 1.14684,0.70264 1.68509,1.10088 m -24.03729,6.43208 c 3.06315,-1.72802 6.67386,-2.67554 10.94817,-2.56341 4.3231,0.11341 7.92156,1.29512 10.9308,3.28644 3.00924,1.99132 5.42862,4.79546 7.37686,8.17265 1.94824,3.37718 3.42471,7.32837 4.54226,11.60203 1.11756,4.27366 1.87637,8.87022 2.38696,13.51698 1.02119,9.29352 1.06515,18.81294 0.89854,26.07179 -0.0351,1.52993 -0.0804,2.95812 -0.12989,4.25958 m 4.53855,-28.21975 c -0.001,6.66484 -0.44967,13.01189 -0.96405,18.07552 -0.33492,3.29703 -0.69776,6.04904 -0.97814,7.97874 -0.1402,0.96485 -0.25969,1.724 -0.34426,2.24243 -0.0423,0.25921 -0.0759,0.45825 -0.0989,0.59274 -0.0115,0.0673 -0.0204,0.11836 -0.0264,0.15279 -0.003,0.0172 -0.005,0.0303 -0.007,0.0391 -0.002,0.009 -0.002,0.0134 -0.002,0.0137 0,0 0,1e-5 0,1e-5 -15.64557,0.34388 -31.27204,0.8577 -47.24189,2.0041 m 18.55037,-5.63073 c -5.80768,-0.32665 -11.66757,-0.5989 -17.5762,-0.83126 0,0 0,-10e-6 0,-10e-6 -0.001,-0.008 -0.62663,-4.1755 -1.11281,-10.36804 -0.48617,-6.19253 -0.8471,-14.40076 -0.26012,-22.57321 0.29349,-4.08623 0.82646,-8.1657 1.71236,-11.98823 0.8859,-3.82252 2.12568,-7.38836 3.82976,-10.44486 0.75841,-1.36031 1.60865,-2.61968 2.55928,-3.75559 m -8.95348,56.99195 c -0.16023,-1.44817 -0.32339,-3.17064 -0.4561,-5.10239 -0.41282,-6.00893 -0.51304,-14.05075 0.5795,-22.09993 0.54626,-4.02459 1.38659,-8.04928 2.6124,-11.81606 1.22582,-3.76678 2.83608,-7.27577 4.92215,-10.26876 2.08606,-2.99298 4.64633,-5.47086 7.79247,-7.16757 3.14613,-1.6967 6.87845,-2.61299 11.34228,-2.461 4.46385,0.152 8.20913,1.34475 11.37505,3.33542 2.19123,1.37781 4.10573,3.13847 5.78754,5.20249 m -23.15819,-8.18523 c 2.07785,-0.62429 4.3673,-0.9528 6.88996,-0.93702 4.25494,0.0266 7.79233,1.04885 10.73689,2.82927 2.94457,1.78041 5.29527,4.31548 7.16176,7.33243 1.8665,3.01696 3.24814,6.51418 4.25292,10.22305 1.00478,3.70887 1.63266,7.62899 1.99479,11.50996 0.72424,7.76194 0.38869,15.35447 -0.11616,20.9836 -0.25242,2.81457 -0.5479,5.1421 -0.78018,6.76826 -0.11614,0.81309 -0.21653,1.45083 -0.288,1.88595 -0.0357,0.21755 -0.0642,0.38445 -0.0839,0.49719 -0.01,0.0564 -0.0174,0.0992 -0.0226,0.12807 -0.003,0.0144 -0.005,0.0254 -0.006,0.0328 -0.001,0.007 -0.002,0.0112 -0.002,0.0114 -1e-5,10e-6 -1e-5,10e-6 -1e-5,10e-6 -3.67826,-0.53588 -7.3511,-1.0935 -11.01588,-1.67011 m 10.9625,-15.85314 c -0.0794,2.50269 -0.20792,4.85138 -0.35631,6.97012 -0.22593,3.22585 -0.49787,5.91876 -0.71363,7.80658 -0.10788,0.94391 -0.20173,1.68648 -0.26874,2.19355 -0.0335,0.25353 -0.0603,0.4482 -0.0788,0.57973 -0.009,0.0658 -0.0164,0.11576 -0.0212,0.14944 -0.002,0.0168 -0.004,0.0296 -0.006,0.0382 -0.001,0.009 -0.002,0.0131 -0.002,0.0134 -1e-5,10e-6 -1e-5,10e-6 -1e-5,10e-6 -15.54232,-0.005 -30.98483,0.13087 -46.29107,0.65497 0,0 0,0 -10e-6,-10e-6 -9.9e-4,-0.008 -0.49872,-3.8784 -0.69094,-9.59085 -0.19222,-5.71245 -0.0732,-13.24908 1.14769,-20.60311 0.0321,-0.19314 0.0649,-0.38616 0.0985,-0.57904"
           id="path3833"
           inkscape:path-effect="#path-effect3835"
           inkscape:original-d="m 284.56732,461.75075 c 0,0 -9.39609,-65.77264 24.16138,-65.77264 33.55746,0 22.81907,67.11494 22.81907,67.11494 l -46.98045,-1.3423 z"
           inkscape:connector-curvature="0" />
        <path
           sodipodi:type="arc"
           style="fill:none;stroke:#ffffff;stroke-width:2;stroke-linecap:butt;stroke-linejoin:miter;stroke-miterlimit:4;stroke-opacity:1;stroke-dasharray:none"
           id="path3837"
           sodipodi:cx="-3.3557467"
           sodipodi:cy="340.27274"
           sodipodi:rx="23.490227"
           sodipodi:ry="18.121033"
           d="m 10.276823,341.3015 c -1.1434773,2.58269 -2.9674946,4.89963 -5.2965199,6.81826 -4.18022756,3.44363 -9.9884811,5.60117 -16.4140041,5.69184 -6.425523,0.0907 -12.249704,-1.89786 -16.454321,-5.14986 -4.204618,-3.252 -6.791885,-7.76915 -6.740628,-12.75514 0.05126,-4.98599 2.734086,-9.49747 7.06006,-12.73542 1.614788,-1.20865 3.458455,-2.23972 5.479525,-3.051 m -3.458313,21.22451 c 0.405247,-4.35039 2.781672,-8.24141 6.459189,-11.16804 4.217317,-3.3562 10.1540999,-5.43986 16.845345,-5.47195 6.6912451,-0.0321 12.867352,1.99076 17.451171,5.26962 4.583819,3.27885 7.562123,7.81435 7.973125,12.82094 0.223381,2.7211 -0.327955,5.30149 -1.474576,7.61519 m 1.935335,-7.52762 c -1.055113,1.55777 -2.38147,2.98185 -3.932507,4.23481 -4.269496,3.44898 -10.2408028,5.59984 -16.9568763,5.66283 -6.7160735,0.063 -12.9059897,-1.96917 -17.5102657,-5.27242 -4.604277,-3.30326 -7.606813,-7.87667 -8.05989,-12.93294 -0.453076,-5.05628 1.697944,-9.64354 5.335632,-12.98111 0.723713,-0.66401 1.506625,-1.27845 2.340404,-1.83705 m -17.193964,25.42353 c 0.543831,-4.52835 3.10153,-8.57612 6.98612,-11.62036 4.371823,-3.42607 10.424533,-5.57358 17.1922689,-5.66923 6.7677355,-0.0956 12.9717693,1.87368 17.5753325,5.09847 4.6035636,3.2248 7.5913066,7.7086 8.0210906,12.64994 0.429783,4.94134 -1.750948,9.40235 -5.426295,12.57068 -3.3458322,2.88427 -7.9377597,4.69847 -12.97411277,4.81692 M 14.364023,349.09919 c -1.14406,1.80989 -2.656063,3.44601 -4.4574077,4.84709 -4.231991,3.29163 -10.06122228,5.28587 -16.4641115,5.17862 -6.4028888,-0.10725 -12.1666248,-2.29541 -16.2983148,-5.75506 -4.131689,-3.45965 -6.636686,-8.18262 -6.486491,-13.4203 0.150195,-5.23769 2.937376,-10.0147 7.390966,-13.6082 3.227074,-2.60384 7.327618,-4.58399 11.924475,-5.65172 m -15.326801,15.86697 c 1.255773,-2.50609 3.254801,-4.76684 5.785925,-6.62482 4.291466,-3.15016 10.1102729,-5.14627 16.4013466,-5.25128 6.2910738,-0.105 11.8650449,1.7053 15.7815654,4.73063 3.91652,3.02533 6.189945,7.27624 5.763654,11.94719 -0.42629,4.67095 -3.501936,8.85263 -8.311602,11.70652 -0.5573863,0.33073 -1.13793,0.64375 -1.740111,0.93783 m 8.431441,-5.13952 c -0.552888,4.43801 -3.074525,8.38811 -6.8541017,11.30115 -4.2480168,3.27407 -10.08245536,5.23319 -16.4785581,5.07012 -6.3961022,-0.16308 -12.1433202,-2.41642 -16.2577652,-5.93964 -4.114445,-3.52322 -6.601707,-8.30654 -6.433565,-13.60895 0.121108,-3.81919 1.608473,-7.39602 4.101619,-10.46811 m -6.514563,9.91216 c -0.738679,-1.79606 -1.111679,-3.73675 -1.044778,-5.7664 0.162877,-4.9413 2.911401,-9.46647 7.270265,-12.80206 4.358865,-3.33559 10.32039,-5.48729 16.8870754,-5.70539 6.5666856,-0.21809 12.4997887,1.53964 16.8151269,4.53729 3.8921177,2.70366 6.4651637,6.42206 6.9961877,10.56026 M 7.3350369,323.63485 c 0.3134454,0.20758 0.6192207,0.423 0.916903,0.64589 4.0714571,3.0486 6.6233331,7.48858 6.6016401,12.48262 -0.02169,4.99405 -2.612655,9.59808 -6.756618,13.05299 -4.1439627,3.4549 -9.8358248,5.76722 -16.0482343,6.1923 -6.2124097,0.42509 -11.7709977,-1.11954 -15.7108637,-3.91751 -3.939865,-2.79797 -6.270383,-6.86442 -5.940298,-11.35154 0.228262,-3.10294 1.707834,-5.98689 4.130294,-8.35458 m 40.609493,21.99981 c -1.250448,2.92285 -3.441727,5.51343 -6.2869502,7.54064 -4.3408047,3.0928 -10.1992316,4.87657 -16.5213335,4.52342 -6.3221023,-0.35315 -11.9143243,-2.78135 -15.8474613,-6.4851 -3.933136,-3.70375 -6.22042,-8.66391 -5.813122,-14.18747 0.407298,-5.52356 3.461799,-10.59877 8.236802,-14.58746 4.176289,-3.48856 9.662538,-6.13793 15.7857949,-7.48415 m -22.0614949,13.3153 c 1.236575,-2.93044 3.320662,-5.54013 6.00983,-7.64205 4.328731,-3.38343 10.22269,-5.44783 16.6516689,-5.38949 6.4289788,0.0583 12.1783741,2.22488 16.2857181,5.66708 4.107343,3.4422 6.578512,8.15341 6.390638,13.37235 -0.187874,5.21894 -3.013362,9.97381 -7.502393,13.52412 -1.8859003,1.49153 -4.0646103,2.76954 -6.4611516,3.77586"
           transform="matrix(0.67269831,0,0,0.87201638,308.66794,72.60235)"
           inkscape:path-effect="#path-effect3839" />
      </g>
      <path
         style="fill:none;stroke:#ffffff;stroke-width:0.37610158px;stroke-linecap:butt;stroke-linejoin:miter;stroke-opacity:1"
         d="m 0.99735529,792.6531 c -0.0843554,-1.76494 -0.0903201,-3.74212 0.075758,-5.71682 0.2526308,-3.00384 0.9046014,-6.00302 2.269983,-8.23613 0.6826908,-1.11655 1.5434732,-2.0415 2.6175661,-2.67519 1.074093,-0.63369 2.3613097,-0.97598 3.8935359,-0.92199 1.5322477,0.054 2.8117037,0.49478 3.8719437,1.23151 1.060241,0.73673 1.901052,1.76977 2.559464,3.0052 1.316824,2.47086 1.902979,5.75339 2.088675,9.0505 0.185696,3.2971 -0.02862,6.60802 -0.292975,9.10162 -0.264356,2.4936 -0.577338,4.16741 -0.578963,4.1761 -5e-6,3e-5 -7e-6,4e-5 -8e-6,4e-5 -6.10963,0.16584 -12.2503068,0.38315 -18.43983678,0.66647 -1.14e-6,0 -3.84e-6,-1e-5 -8.12e-6,-3e-5 -0.002769,-0.0132 -0.894647,-4.29501 -0.9430647,-9.07365 m 3.2669569,-6.58418 c 0.018147,-1.00734 0.067582,-2.04144 0.1593619,-3.0752 0.2824354,-3.18119 0.9672805,-6.35753 2.3643986,-8.75031 0.698559,-1.1964 1.574915,-2.19713 2.6654958,-2.90883 1.0905809,-0.7117 2.3952296,-1.13454 3.9493834,-1.1786 1.554176,-0.0441 2.852999,0.31272 3.932981,0.96528 1.079983,0.65256 1.941091,1.60068 2.622271,2.7426 1.362359,2.28385 2.004978,5.34177 2.254096,8.39403 0.249119,3.05225 0.104877,6.09932 -0.102956,8.38206 -0.207832,2.28274 -0.479052,3.80262 -0.480463,3.81053 -3e-6,2e-5 -5e-6,3e-5 -6e-6,3e-5 -5.958315,-0.39327 -11.9224751,-0.81837 -17.90475177,-1.29185 -3.5e-7,0 -2.27e-6,-10e-6 -5.76e-6,-4e-5 -0.001352,-0.009 -0.26318017,-1.75177 -0.43724363,-4.34261 M 7.479966,803.26973 c -3.643304,-0.0267 -7.30934722,-0.0881 -10.9934081,-0.18096 5e-7,0 -6e-7,-10e-6 -3.2e-6,-3e-5 -0.00198,-0.0164 -0.7481583,-6.17829 0.030987,-12.44168 0.3895727,-3.1317 1.1641045,-6.28247 2.63163396,-8.66613 0.73376475,-1.19183 1.6409889,-2.19165 2.76122554,-2.9052 1.1202366,-0.71355 2.4535699,-1.14086 4.0395601,-1.19432 1.5860127,-0.0534 2.9096367,0.29209 4.0131515,0.93176 1.1035151,0.63968 1.9868841,1.57295 2.6910961,2.69676 1.408422,2.24763 2.100068,5.25449 2.398392,8.24717 0.298324,2.99268 0.203808,5.973 0.03609,8.20394 -0.167717,2.23094 -0.409219,3.7146 -0.410478,3.72232 -3e-6,2e-5 -4e-6,3e-5 -4e-6,3e-5 -1.291622,-0.11597 -2.582439,-0.2337 -3.872257,-0.35308 M 7.9977312,790.27048 c 0.047531,-1.22162 0.1417185,-2.50645 0.3058709,-3.7955 0.3819613,-2.99946 1.141571,-6.02416 2.5898999,-8.29978 0.724164,-1.13782 1.620887,-2.0877 2.728994,-2.7512 1.108107,-0.6635 2.427748,-1.04031 3.994887,-1.03467 1.567161,0.006 2.872838,0.39987 3.957224,1.087 1.084387,0.68714 1.947207,1.66686 2.627287,2.84003 1.360162,2.34633 1.987559,5.46426 2.20781,8.56744 0.220251,3.10318 0.03381,6.19207 -0.210546,8.50504 -0.244353,2.31297 -0.544862,3.85194 -0.54642,3.85994 -4e-6,3e-5 -7e-6,4e-5 -7e-6,3e-5 -6.062526,-0.32143 -12.158766,-0.67767 -18.2804743,-1.04887 -8e-7,0 -3.3e-6,-2e-5 -7.3e-6,-4e-5 -0.00301,-0.0171 -1.1286986,-6.41737 -0.7111258,-12.82357 0.2087863,-3.2031 0.8066591,-6.40479 2.1198142,-8.81865 0.6565775,-1.20693 1.4916922,-2.21728 2.5389532,-2.93811 0.326015,-0.22439 0.672528,-0.42076 1.040399,-0.58641 M 1.1464253,794.05115 c -0.15544912,-2.14134 -0.3262179,-6.22896 0.217163,-10.39045 0.3949572,-3.02479 1.1695961,-6.08294 2.6332628,-8.39312 0.7318334,-1.1551 1.6362663,-2.12247 2.7527368,-2.80481 1.1164705,-0.68235 2.4451217,-1.07941 4.0239591,-1.09953 1.578859,-0.0201 2.895163,0.35113 3.990598,1.01484 1.095435,0.66372 1.969837,1.61934 2.663209,2.76559 1.386745,2.29251 2.048321,5.34415 2.308926,8.37534 0.260604,3.03118 0.120693,6.04325 -0.08513,8.29623 -0.205826,2.25298 -0.476915,3.74952 -0.478323,3.75731 -4e-6,2e-5 -6e-6,3e-5 -6e-6,3e-5 -5.956505,-0.47618 -11.9228425,-0.99955 -17.8843195,-1.54449 -3e-7,0 -2.1e-6,-10e-6 -5.5e-6,-4e-5 -0.00213,-0.0147 -0.67155574,-4.60857 -0.52213045,-9.96596 m 3.23809215,4.13721 c -0.011585,-2.12108 0.07815,-4.68925 0.4336427,-7.25074 0.4239141,-3.05451 1.225437,-6.10014 2.7118307,-8.37246 0.7431968,-1.13615 1.6580515,-2.07907 2.7849145,-2.73069 1.1268634,-0.65163 2.4659444,-1.01194 4.0569334,-0.97905 1.591012,0.0329 2.917285,0.45628 4.022429,1.17595 1.105145,0.71967 1.989042,1.73593 2.692514,2.95332 1.406944,2.43478 2.091297,5.67588 2.374951,8.9295 0.283655,3.25362 0.166882,6.51914 -0.02109,8.97672 -0.187974,2.45757 -0.446644,4.10532 -0.447988,4.11388 -4e-6,3e-5 -6e-6,4e-5 -6e-6,4e-5 -5.910973,0.071 -11.828613,0.17994 -17.734521,0.33128 0,0 -1.7e-6,-10e-6 -4.9e-6,-3e-5 -0.00132,-0.009 -0.2737281,-1.77842 -0.4023821,-4.32975 m 10.843907,10.38582 c -4.495271,-0.13711 -8.9829228,-0.29805 -13.4714754,-0.48354 -8e-7,0 -3.3e-6,-10e-6 -7.2e-6,-4e-5 -0.00298,-0.0167 -1.11455712,-6.28892 -0.6681261,-12.62652 0.2232155,-3.1688 0.8359997,-6.35022 2.159652,-8.75798 0.6618261,-1.20387 1.5012437,-2.21426 2.5519805,-2.93799 1.0507369,-0.72374 2.312611,-1.16094 3.8119097,-1.2255 1.4993195,-0.0646 2.7488735,0.2722 3.7781895,0.90344 1.029317,0.63123 1.837846,1.55638 2.459546,2.6716 1.2434,2.23043 1.736424,5.21812 1.815818,8.19001 0.07939,2.97188 -0.253774,5.92951 -0.61417,8.14139 -0.360396,2.21188 -0.744478,3.68071 -0.746467,3.68836 -6e-6,2e-5 -9e-6,3e-5 -1.1e-5,2e-5 -0.846713,-0.0769 -1.694733,-0.15483 -2.544112,-0.23361"
         id="path3847"
         inkscape:path-effect="#path-effect3857"
         inkscape:original-d="m 0.1586928,796.93089 c 0,0 -3.5338862,-24.7372 9.0871342,-24.7372 12.62101,0 8.582286,25.24203 8.582286,25.24203 L 0.1586928,796.93089 z"
         inkscape:connector-curvature="0" />
      <path
         sodipodi:type="arc"
         style="fill:none;stroke:#ffffff;stroke-width:2;stroke-linecap:butt;stroke-linejoin:miter;stroke-miterlimit:4;stroke-opacity:1;stroke-dasharray:none"
         id="path3849"
         sodipodi:cx="-3.3557467"
         sodipodi:cy="340.27274"
         sodipodi:rx="23.490227"
         sodipodi:ry="18.121033"
         d="m 10.276823,341.3015 c -1.1434773,2.58269 -2.9674946,4.89963 -5.2965199,6.81826 -4.18022756,3.44363 -9.9884811,5.60117 -16.4140041,5.69184 -6.425523,0.0907 -12.249704,-1.89786 -16.454321,-5.14986 -4.204618,-3.252 -6.791885,-7.76915 -6.740628,-12.75514 0.05126,-4.98599 2.734086,-9.49747 7.06006,-12.73542 1.614788,-1.20865 3.458455,-2.23972 5.479525,-3.051 m -3.458313,21.22451 c 0.405247,-4.35039 2.781672,-8.24141 6.459189,-11.16804 4.217317,-3.3562 10.1540999,-5.43986 16.845345,-5.47195 6.6912451,-0.0321 12.867352,1.99076 17.451171,5.26962 4.583819,3.27885 7.562123,7.81435 7.973125,12.82094 0.223381,2.7211 -0.327955,5.30149 -1.474576,7.61519 m 1.935335,-7.52762 c -1.055113,1.55777 -2.38147,2.98185 -3.932507,4.23481 -4.269496,3.44898 -10.2408028,5.59984 -16.9568763,5.66283 -6.7160735,0.063 -12.9059897,-1.96917 -17.5102657,-5.27242 -4.604277,-3.30326 -7.606813,-7.87667 -8.05989,-12.93294 -0.453076,-5.05628 1.697944,-9.64354 5.335632,-12.98111 0.723713,-0.66401 1.506625,-1.27845 2.340404,-1.83705 m -17.193964,25.42353 c 0.543831,-4.52835 3.10153,-8.57612 6.98612,-11.62036 4.371823,-3.42607 10.424533,-5.57358 17.1922689,-5.66923 6.7677355,-0.0956 12.9717693,1.87368 17.5753325,5.09847 4.6035636,3.2248 7.5913066,7.7086 8.0210906,12.64994 0.429783,4.94134 -1.750948,9.40235 -5.426295,12.57068 -3.3458322,2.88427 -7.9377597,4.69847 -12.97411277,4.81692 M 14.364023,349.09919 c -1.14406,1.80989 -2.656063,3.44601 -4.4574077,4.84709 -4.231991,3.29163 -10.06122228,5.28587 -16.4641115,5.17862 -6.4028888,-0.10725 -12.1666248,-2.29541 -16.2983148,-5.75506 -4.131689,-3.45965 -6.636686,-8.18262 -6.486491,-13.4203 0.150195,-5.23769 2.937376,-10.0147 7.390966,-13.6082 3.227074,-2.60384 7.327618,-4.58399 11.924475,-5.65172 m -15.326801,15.86697 c 1.255773,-2.50609 3.254801,-4.76684 5.785925,-6.62482 4.291466,-3.15016 10.1102729,-5.14627 16.4013466,-5.25128 6.2910738,-0.105 11.8650449,1.7053 15.7815654,4.73063 3.91652,3.02533 6.189945,7.27624 5.763654,11.94719 -0.42629,4.67095 -3.501936,8.85263 -8.311602,11.70652 -0.5573863,0.33073 -1.13793,0.64375 -1.740111,0.93783 m 8.431441,-5.13952 c -0.552888,4.43801 -3.074525,8.38811 -6.8541017,11.30115 -4.2480168,3.27407 -10.08245536,5.23319 -16.4785581,5.07012 -6.3961022,-0.16308 -12.1433202,-2.41642 -16.2577652,-5.93964 -4.114445,-3.52322 -6.601707,-8.30654 -6.433565,-13.60895 0.121108,-3.81919 1.608473,-7.39602 4.101619,-10.46811 m -6.514563,9.91216 c -0.738679,-1.79606 -1.111679,-3.73675 -1.044778,-5.7664 0.162877,-4.9413 2.911401,-9.46647 7.270265,-12.80206 4.358865,-3.33559 10.32039,-5.48729 16.8870754,-5.70539 6.5666856,-0.21809 12.4997887,1.53964 16.8151269,4.53729 3.8921177,2.70366 6.4651637,6.42206 6.9961877,10.56026 M 7.3350369,323.63485 c 0.3134454,0.20758 0.6192207,0.423 0.916903,0.64589 4.0714571,3.0486 6.6233331,7.48858 6.6016401,12.48262 -0.02169,4.99405 -2.612655,9.59808 -6.756618,13.05299 -4.1439627,3.4549 -9.8358248,5.76722 -16.0482343,6.1923 -6.2124097,0.42509 -11.7709977,-1.11954 -15.7108637,-3.91751 -3.939865,-2.79797 -6.270383,-6.86442 -5.940298,-11.35154 0.228262,-3.10294 1.707834,-5.98689 4.130294,-8.35458 m 40.609493,21.99981 c -1.250448,2.92285 -3.441727,5.51343 -6.2869502,7.54064 -4.3408047,3.0928 -10.1992316,4.87657 -16.5213335,4.52342 -6.3221023,-0.35315 -11.9143243,-2.78135 -15.8474613,-6.4851 -3.933136,-3.70375 -6.22042,-8.66391 -5.813122,-14.18747 0.407298,-5.52356 3.461799,-10.59877 8.236802,-14.58746 4.176289,-3.48856 9.662538,-6.13793 15.7857949,-7.48415 m -22.0614949,13.3153 c 1.236575,-2.93044 3.320662,-5.54013 6.00983,-7.64205 4.328731,-3.38343 10.22269,-5.44783 16.6516689,-5.38949 6.4289788,0.0583 12.1783741,2.22488 16.2857181,5.66708 4.107343,3.4422 6.578512,8.15341 6.390638,13.37235 -0.187874,5.21894 -3.013362,9.97381 -7.502393,13.52412 -1.8859003,1.49153 -4.0646103,2.76954 -6.4611516,3.77586"
         transform="matrix(0.25300288,0,0,0.32796672,9.222975,650.57157)"
         inkscape:path-effect="#path-effect3839" />
      <g
         transform="matrix(0.39865817,0,0,0.39865817,-167.38028,612.30156)"
         id="g3863">
        <path
           style="fill:none;stroke:#ffffff;stroke-width:1px;stroke-linecap:butt;stroke-linejoin:miter;stroke-opacity:1"
           d="m 418.48176,551.29719 c -0.13716,3.64248 -0.23668,8.61366 -0.058,14.14537 0.18389,5.69346 0.66312,11.9799 1.80509,17.95156 1.14197,5.97167 2.95415,11.62396 5.83852,16.02768 5.73937,8.7626 8.20706,13.86299 9.28442,16.75632 1.07736,2.89334 0.73629,3.59424 0.72855,3.60936 -8e-5,1.6e-4 -1.3e-4,2.5e-4 -1.4e-4,2.5e-4 2.4023,0.0253 4.80338,0.0491 7.20507,0.0702 M 429.9748,598.82569 c 1.90869,3.2437 3.04557,5.54834 3.70443,7.16011 1.15683,2.82995 0.84119,3.52454 0.83396,3.53937 -8e-5,1.7e-4 -1.2e-4,2.5e-4 -1.2e-4,2.5e-4 19.85411,-0.1402 40.44258,0.17197 61.32751,0.58355 m -21.9277,5.72907 c 14.95644,-0.26874 30.61314,-0.59665 46.52874,-1.15444 0,0 -10e-6,-10e-6 -5e-5,-4e-5 -0.0111,-0.009 -1.92617,-1.55972 -4.58193,-5.40164 -2.65575,-3.84192 -6.04214,-9.96796 -9.00939,-19.25437 m 12.86523,17.74735 c -3.08403,-5.04943 -6.74167,-12.8832 -9.65434,-24.52291 -3.14075,-12.55116 -4.45405,-22.87734 -4.90441,-30.01577 -0.22517,-3.56922 -0.24314,-6.3476 -0.20401,-8.23548 0.0196,-0.94395 0.0533,-1.66535 0.0821,-2.15186 0.0144,-0.24326 0.0276,-0.42778 0.0373,-0.55202 0.005,-0.0621 0.009,-0.10915 0.0115,-0.14092 0.003,-0.0318 0.004,-0.0483 0.004,-0.0493 1e-5,-3e-5 1e-5,-5e-5 1e-5,-5e-5 -8.45169,0.11823 -16.85275,0.28179 -25.12536,0.54717 m 17.41221,-7.41661 c 7.8e-4,-0.28984 0.004,-0.53921 0.008,-0.74723 0.005,-0.25258 0.0109,-0.44417 0.0158,-0.57317 0.002,-0.0645 0.005,-0.11334 0.006,-0.14633 0.002,-0.033 0.002,-0.0501 0.003,-0.0512 10e-6,-4e-5 10e-6,-5e-5 10e-6,-5e-5 -28.49126,-0.66284 -54.09029,-0.77195 -78.50389,-1.77571 m 21.03834,6.46064 c -8.31203,0.22648 -16.39446,0.19283 -24.29125,-0.0608 6.7e-4,-0.001 0.001,-0.002 0.002,-0.003 0,0 -1e-5,1e-5 -1e-5,2e-5 -10e-4,0.008 -0.29597,2.29572 -0.48875,5.92125 -0.19277,3.62553 -0.27331,8.57707 0.13758,13.92788 0.41089,5.35082 1.3121,11.10158 2.99998,16.4236 1.25481,3.95651 2.94075,7.68063 5.17552,10.83811 m -12.70189,-38.1062 c -0.30518,3.32881 -0.52818,7.32045 -0.48684,11.60221 0.0557,5.76911 0.59508,12.0642 1.96276,17.98667 1.36768,5.92247 3.55448,11.4738 6.86102,15.76204 3.2897,4.26639 5.73448,7.62541 7.52339,10.27007 1.7889,2.64467 2.92444,4.57465 3.63624,5.97507 1.42361,2.80086 1.15806,3.48244 1.15224,3.49705 -7e-5,1.6e-4 -9e-5,2.4e-4 -8e-5,2.3e-4 1.66419,-0.0314 3.33175,-0.0639 5.0024,-0.0973 m -4.55115,-14.95791 c 2.12231,3.35158 3.33025,5.73391 4.02699,7.3926 1.20475,2.86807 0.879,3.57441 0.87186,3.58949 -8e-5,1.7e-4 -1.2e-4,2.5e-4 -1.2e-4,2.5e-4 19.38536,0.14813 37.89806,1.08528 55.92879,2.62586 m -15.81935,1.1754 c 16.41595,0.29948 32.30446,0.006 47.96777,-0.67724 0,0 -2e-5,-2e-5 -5e-5,-4e-5 -0.0136,-0.0107 -2.76016,-2.159 -6.43854,-7.68863 -3.67839,-5.52964 -8.30605,-14.44556 -12.0604,-28.15264 -0.57662,-2.10522 -1.10358,-4.15399 -1.58463,-6.14218 m 11.29401,22.92967 c -2.42917,-4.50532 -4.85346,-10.30378 -6.79304,-17.65806 -3.25179,-12.3298 -4.20863,-22.48452 -4.41355,-29.48784 -0.10246,-3.50165 -0.012,-6.22387 0.10146,-8.0726 0.0567,-0.92437 0.11941,-1.63047 0.16786,-2.10659 0.0242,-0.23806 0.0449,-0.41862 0.0596,-0.54018 0.007,-0.0608 0.0132,-0.10681 0.0172,-0.13789 0.004,-0.0311 0.006,-0.0472 0.006,-0.0482 10e-6,-4e-5 10e-6,-5e-5 10e-6,-5e-5 -9.25898,0.34215 -18.40799,0.78205 -27.49811,1.43656 m 19.95292,1.02091 c -25.82083,0.39231 -53.7899,-0.0172 -81.27519,-0.4726 -4e-4,-5.5e-4 -8e-4,-0.001 -0.001,-0.002 0,0 0,0 0,2e-5 -3.8e-4,0.002 -0.0332,0.21059 -0.0885,0.60091 m 14.67612,-5.63436 c -6.2055,0.17043 -12.53682,0.23664 -18.95867,0.21802 4.8e-4,-9e-5 9.6e-4,-1.9e-4 0.001,-2.9e-4 0,0 0,1e-5 -10e-6,2e-5 -0.001,0.008 -0.29761,2.36011 -0.58898,6.11677 -0.29137,3.75667 -0.58543,8.91101 -0.55466,14.53876 0.0308,5.62775 0.38893,11.72993 1.46532,17.44124 1.0764,5.71132 2.8762,11.03817 5.78553,15.11628 3.37767,4.73458 5.67295,8.29399 7.22816,10.97504 m -16.15528,-50.58023 c -0.10605,3.53496 -0.13827,7.95237 0.0722,12.79676 0.25891,5.95775 0.88534,12.56483 2.23501,18.90638 1.34968,6.34155 3.42404,12.40912 6.58959,17.25286 3.14943,4.81907 5.4501,8.68583 7.12601,11.7421 1.67591,3.05628 2.72614,5.30378 3.3779,6.93196 1.3035,3.25635 1.01328,4.04199 1.00681,4.05918 -7e-5,1.9e-4 -1.1e-4,3e-4 -10e-5,3.2e-4 4.36978,0.56692 8.76227,1.18607 13.18506,1.8594 m -11.66446,-15.03802 c 0.87862,1.84446 1.47565,3.28542 1.87686,4.40774 1.07536,3.00815 0.73905,3.73104 0.73134,3.74677 -9e-5,1.8e-4 -1.3e-4,2.7e-4 -1.4e-4,2.8e-4 20.99034,1.02377 42.33349,1.99232 62.9784,4.24721 m -13.8703,-6.09379 c 14.19927,-0.38585 28.09395,-0.4543 41.73279,-0.40987 0,0 -2e-5,-10e-6 -5e-5,-4e-5 -0.0136,-0.01 -2.68371,-1.93984 -6.34537,-6.86595 -3.66165,-4.9261 -8.31169,-12.83165 -12.4596,-24.86354 m 7.27987,20.25522 c -2.52599,-4.69731 -5.06989,-10.80274 -7.07669,-18.60238 -3.20527,-12.4576 -4.12589,-22.6462 -4.30092,-29.68443 -0.0875,-3.51912 0.0156,-6.25552 0.13804,-8.11447 0.0612,-0.92948 0.12738,-1.63964 0.17822,-2.11853 0.0254,-0.23944 0.047,-0.42107 0.0623,-0.54334 0.008,-0.0611 0.0137,-0.10744 0.0179,-0.1387 0.004,-0.0313 0.007,-0.0475 0.007,-0.0485 10e-6,-3e-5 10e-6,-5e-5 10e-6,-4e-5 -9.18731,0.28569 -18.25387,0.64852 -27.24095,1.1579 m 24.69682,-1.48062 c -26.77753,0.56484 -54.39872,-1.24806 -81.77784,-4.32054 -9e-5,-0.004 -1.7e-4,-0.007 -2.5e-4,-0.0113 0,0 0,1e-5 -1e-5,2e-5 -0.002,0.0121 -0.94502,5.73077 -1.14691,13.37917 m -0.65734,-12.45856 c -0.35911,3.2514 -1.05979,10.90312 -0.86229,19.86508 0.13124,5.9553 0.65934,12.49246 1.93679,18.70392 1.27745,6.21147 3.3027,12.09452 6.42308,16.73387 6.20896,9.23144 9.05131,14.68071 10.31742,17.76733 1.2661,3.08663 0.96579,3.83412 0.95909,3.85035 -7e-5,1.8e-4 -1.1e-4,2.8e-4 -1e-4,2.9e-4 6.90866,0.52113 13.84434,1.12693 20.8099,1.83704 M 430.01585,599.2885 c 1.039,1.88201 1.74455,3.33614 2.21898,4.45757 1.2163,2.875 0.91026,3.56712 0.90333,3.5821 -7e-5,1.6e-4 -1.1e-4,2.5e-4 -1.1e-4,2.5e-4 24.85141,0.0356 50.58728,-0.69136 77.44662,-1.81788 m -32.10854,9.19463 c 13.09836,-0.28199 26.15834,-0.44902 39.3674,-0.62361 0,0 -10e-6,-10e-6 -5e-5,-4e-5 -0.0126,-0.0102 -2.57122,-2.07434 -5.78092,-7.36953 -1.60485,-2.6476 -3.37028,-6.10328 -5.02991,-10.52504 -1.65964,-4.42175 -3.21575,-9.8083 -4.35485,-16.33976 -0.86818,-4.97805 -1.42384,-9.62684 -1.75076,-13.89462 m 6.87363,24.09319 c -1.06125,-3.04274 -2.08924,-6.43397 -3.04304,-10.20724 -3.26818,-12.92909 -4.6872,-23.55973 -5.25445,-30.96921 -0.28362,-3.70475 -0.3573,-6.60255 -0.35861,-8.57519 -6.5e-4,-0.98632 0.0167,-1.74137 0.0343,-2.2508 0.009,-0.25472 0.0177,-0.44803 0.0245,-0.57819 0.003,-0.0651 0.006,-0.11438 0.008,-0.14767 0.002,-0.0333 0.003,-0.0506 0.003,-0.0516 0,-3e-5 0,-5e-5 0,-5e-5 -14.1152,-0.46493 -28.31086,-1.10489 -42.48994,-2.00774 m 30.21002,1.11409 c -24.30293,-1.162 -47.19454,-0.29059 -69.68778,0.84846 0.002,0.002 0.003,0.003 0.005,0.005 0,0 0,1e-5 0,2e-5 -0.002,0.0173 -0.88453,9.89416 -0.0908,22.02776 0.13377,2.04486 0.31447,4.15277 0.55345,6.28634 m -2.66499,-20.44786 c -0.33655,3.78262 -0.6882,9.37035 -0.58455,15.51274 0.0941,5.57547 0.56346,11.60592 1.76435,17.20606 1.20088,5.60014 3.13349,10.77699 6.15532,14.67006 3.00644,3.87324 5.18242,6.8773 6.75533,9.23438 1.57291,2.35707 2.54266,4.06594 3.13613,5.3077 1.18694,2.48353 0.86871,3.09267 0.86156,3.10548 -8e-5,1.4e-4 -1.2e-4,2e-4 -1.2e-4,1.8e-4 6.77971,-0.87196 13.56134,-1.87346 20.34691,-3.01908 m -28.44314,1.41443 c 0.50038,1.01268 0.88121,1.86556 1.16928,2.58172 1.13878,2.83113 0.81916,3.52288 0.81183,3.53769 -8e-5,1.6e-4 -1.3e-4,2.5e-4 -1.3e-4,2.4e-4 30.10841,-0.25285 61.83431,-0.0648 93.76602,-0.23773 0,0 -10e-6,-10e-6 -4e-5,-3e-5 -0.005,-0.004 -0.40032,-0.32388 -1.07471,-1.03195 m -25.75668,-8.23803 c 9.64393,0.40258 19.10497,0.77313 28.44714,1.2081 0,0 -2e-5,-10e-6 -5e-5,-3e-5 -0.0134,-0.009 -2.69912,-1.88934 -6.28804,-6.76363 -1.79446,-2.43715 -3.81683,-5.62088 -5.85178,-9.6605 -2.03495,-4.03962 -4.08349,-8.93783 -5.92269,-14.75074 -2.54689,-8.04962 -4.12097,-14.89463 -5.06736,-20.39001 m 8.53543,25.96429 c -0.0812,-0.27999 -0.16196,-0.56206 -0.24221,-0.84623 -3.60147,-12.75291 -5.09553,-23.02275 -5.72033,-30.12694 -0.3124,-3.5521 -0.40399,-6.31175 -0.41755,-8.18685 -0.007,-0.93755 0.006,-1.65389 0.0206,-2.13697 0.007,-0.24154 0.015,-0.42475 0.021,-0.5481 0.003,-0.0617 0.005,-0.10838 0.007,-0.13992 0.002,-0.0315 0.003,-0.0479 0.003,-0.0489 0,-3e-5 0,-5e-5 0,-5e-5 -9.61007,0.19679 -19.2503,0.45991 -28.9632,0.78501 m 18.35443,2.77674 c -23.93104,-0.7301 -48.13009,-0.53745 -72.02637,-0.56315 5.3e-4,-4e-5 0.001,-7e-5 0.002,-1.1e-4 0,0 0,10e-6 -1e-5,2e-5 -0.002,0.0132 -0.77902,6.08429 -0.84874,14.41504"
           id="path3851"
           inkscape:path-effect="#path-effect3853"
           inkscape:original-d="m 416.1126,536.91948 c 0,0 -5.36919,37.58437 6.71149,55.03425 12.08069,17.44988 10.73839,20.13448 10.73839,20.13448 l 91.27632,0 c 0,0 -10.73839,-8.05379 -17.44989,-33.55747 -6.71149,-25.50367 -5.36919,-41.61126 -5.36919,-41.61126 l -85.90712,0 z"
           inkscape:connector-curvature="0" />
        <path
           style="fill:none;stroke:#ffffff;stroke-width:1px;stroke-linecap:butt;stroke-linejoin:miter;stroke-opacity:1"
           d="m 439.91626,576.26097 c 4.21177,4.9315 8.49125,9.87461 12.81664,14.81316 7.86557,-7.48899 15.85015,-14.9898 23.86286,-22.56995 m -33.45482,-0.0486 c 3.92923,4.40889 7.89475,8.92137 11.89309,13.5209 9.95838,-8.97587 20.07716,-17.5263 30.3187,-25.83019 m -39.79676,17.26469 c 4.76694,5.32279 9.50203,10.64306 14.21367,15.94598 8.37352,-7.84411 16.68875,-15.73133 24.9785,-23.71972 m -37.88255,10.94561 c 4.07837,4.74815 8.08788,9.40757 12.03884,13.99463 7.80713,-7.16437 15.43471,-14.55066 22.93814,-22.07105 m -46.24214,1.33397 c 5.26969,5.98466 10.59153,11.99657 15.96987,18.02421 9.76545,-8.7597 19.67821,-17.47839 29.75659,-26.20456"
           id="path3859"
           inkscape:path-effect="#path-effect3861"
           inkscape:original-d="m 437.58938,567.79235 17.44988,20.13448 30.87287,-28.18827"
           inkscape:connector-curvature="0" />
      </g>
      <g
         transform="matrix(0.37610155,0,0,0.37610155,-87.178735,623.26571)"
         inkscape:export-ydpi="165.44003"
         inkscape:export-xdpi="165.44003"
         id="g5260">
        <path
           style="fill:none;stroke:#ffffff;stroke-width:2;stroke-linecap:butt;stroke-linejoin:miter;stroke-miterlimit:4;stroke-opacity:1;marker-start:none;marker-end:none"
           d="m 419.89579,567.23439 c 1.42808,-4.3965 3.49166,-8.40649 6.06236,-11.98898 3.80135,-5.29751 8.71049,-9.65946 14.28474,-12.93441 11.14851,-6.5499 24.95015,-8.7459 37.89057,-5.39725 2.55316,0.66069 5.00632,1.5181 7.34879,2.55136 m -20.2021,-10.52866 c 3.71873,0.0119 7.4786,0.44549 11.19643,1.32927 13.27272,3.15514 24.23664,11.57266 31.19479,22.57829 3.86737,6.11699 6.50034,13.03567 7.62095,20.30455 m -8.66918,-11.46188 c 4.11068,9.64081 5.34252,20.78475 2.65878,31.79988 -3.17225,13.02018 -11.22521,23.38627 -21.79871,29.4431 -0.67108,0.38441 -1.35227,0.75146 -2.04296,1.10071 m 16.86171,-8.46368 c -3.03895,3.66648 -6.60381,6.81023 -10.5483,9.3591 -10.57365,6.83252 -23.87764,9.38749 -37.12703,6.25815 -11.17671,-2.63979 -20.66539,-8.97049 -27.17344,-17.40156 -1.66644,-2.15883 -3.13749,-4.4554 -4.39123,-6.8628 m 13.1705,13.60873 c -5.57628,-3.33113 -10.3275,-7.61913 -14.0634,-12.60785 -4.77188,-6.37212 -7.88807,-13.88663 -8.92089,-22.00767 m 4.64804,-24.44179 c 1.15958,-3.4761 2.84678,-6.73752 4.96506,-9.74463 3.67031,-5.21035 8.63518,-9.65767 14.41868,-13.1643 11.56698,-7.01326 26.41303,-10.26752 40.71135,-8.32275 2.13679,0.29063 4.21929,0.69041 6.24188,1.19106 m -22.88174,-1.1515 c 3.7203,0.0576 7.49707,0.5235 11.24461,1.42799 13.27025,3.20285 24.39025,11.44046 31.60169,22.1461 4.53304,6.72946 7.52723,14.4337 8.57942,22.46888 m -0.22537,-18.17718 c 4.14696,9.37492 5.2044,20.23896 2.3565,31.27233 -3.50195,13.56736 -12.2502,24.84812 -23.65041,32.27683 m 11.65241,-8.16799 c -3.24082,3.90269 -7.0821,7.20366 -11.35408,9.81182 -10.77379,6.57771 -24.28182,8.76073 -37.86669,4.98777 -11.45971,-3.18273 -21.29233,-10.18475 -28.26888,-19.4774 -0.97325,-1.29635 -1.89094,-2.63732 -2.74976,-4.01882 m 20.05387,15.65331 c -6.34148,-3.05992 -11.74492,-7.44867 -15.93767,-12.74717 -6.31323,-7.97818 -9.88395,-18.02411 -9.72918,-28.71352 m 1.01435,-15.01935 c 1.43736,-4.7624 3.67439,-9.12377 6.5389,-13.00577 3.82431,-5.18273 8.76535,-9.51163 14.38445,-12.81041 11.23819,-6.59757 25.18035,-9.07687 38.34779,-6.01821 2.70122,0.62746 5.29685,1.46909 7.77508,2.50313 m -23.66405,-7.98283 c 4.10951,0.10751 8.20686,0.63041 12.2033,1.60536 13.61275,3.32087 24.28647,11.4256 30.73393,21.9039 6.44747,10.4783 8.64737,23.32398 5.24187,36.01473 -0.004,0.0142 -0.008,0.0284 -0.0114,0.0426 m -1.37026,-19.73319 c 2.19809,7.69062 2.54997,16.07234 0.73713,24.59395 -2.94968,13.86551 -11.05818,25.47589 -21.5524,33.30901 -5.5582,4.14876 -11.7878,7.23907 -18.27393,9.06442 m 22.46308,-12.71992 c -0.19233,0.12502 -0.38539,0.24879 -0.57916,0.37132 -11.23938,7.10712 -24.86584,10.00117 -38.50968,7.41157 -11.50945,-2.18448 -21.35068,-7.97162 -28.4869,-15.71062 -0.0987,-0.10703 -0.19687,-0.21444 -0.29453,-0.32221 m 13.38429,7.82471 c -4.362,-3.07511 -8.23393,-6.78315 -11.48576,-10.97097 -5.2454,-6.7552 -8.8761,-14.75876 -10.36271,-23.35676 m 1.77181,-25.79747 c 1.20398,-3.48981 2.9236,-6.72678 5.06452,-9.67277 3.69678,-5.0869 8.64997,-9.30629 14.38993,-12.47074 11.47991,-6.3289 26.10916,-8.44362 40.12,-4.83104 7.47388,1.92707 14.24583,5.33746 20.07212,9.86097 m -22.66242,-10.38138 c 1.35584,0.23518 2.70572,0.51928 4.04611,0.85363 13.50888,3.36971 24.28168,11.38597 30.87438,21.63516 6.59271,10.24919 8.99546,22.73249 5.73182,34.82343 -1.24211,4.60171 -3.21478,8.81107 -5.77211,12.54236 m 5.68606,-26.29164 c 0.12597,4.38627 -0.30488,8.86282 -1.34667,13.34455 -3.16628,13.62131 -11.37787,24.71535 -22.04716,31.83879 -10.6693,7.12344 -23.80171,10.25396 -36.76382,8.06542 -2.16477,-0.3655 -4.26152,-0.86929 -6.2811,-1.49909 m 25.33048,-2.44356 c -6.96956,1.51329 -14.30939,1.47746 -21.55544,-0.3799 -10.9899,-2.817 -20.14873,-9.44812 -26.30099,-18.36995 -4.96472,-7.19968 -7.97297,-15.89176 -8.37321,-25.29432 m -4.36597,-21.65097 c 1.28961,-3.10476 2.93652,-6.00044 4.88535,-8.66811 3.87221,-5.30048 8.93644,-9.70084 14.75186,-13.04524 11.63085,-6.68879 26.25927,-9.14929 40.37456,-6.14549 7.51532,1.59929 14.35998,4.62065 20.32442,8.65996 m -21.9722,-7.9461 c 1.08426,0.17792 2.16429,0.39031 3.23819,0.63782 13.4484,3.09959 24.17287,11.25279 30.69417,21.82787 6.52129,10.57508 8.83431,23.58367 5.4121,36.32411 -1.12589,4.19156 -2.80257,8.09093 -4.93691,11.63961 m 7.98999,-26.04021 c 0.0523,4.2581 -0.45333,8.66504 -1.57948,13.11622 -3.3193,13.11973 -11.42195,24.10711 -21.90872,31.10039 -10.48676,6.99328 -23.34998,10.01086 -36.08557,7.30584 -1.99968,-0.42473 -3.94138,-0.98037 -5.81791,-1.65792 m 25.66601,4.18985 c -7.09978,1.44396 -14.65624,1.27132 -22.19952,-0.84241 -11.2301,-3.14682 -20.78058,-10.17671 -27.48518,-19.65363 -6.19656,-8.75881 -9.96265,-19.59996 -10.37768,-31.47477"
           id="path3867"
           sodipodi:nodetypes="csssc"
           inkscape:path-effect="#path-effect5254"
           inkscape:original-d="m 416.42668,568.1828 c 3.42381,-27.21473 33.32832,-43.01478 59.98283,-36.54168 26.65451,6.4731 43.01477,33.32832 36.54167,59.98283 -6.47309,26.65451 -33.32832,43.01478 -59.98283,36.54168 -22.48477,-5.46047 -38.2199,-25.72454 -37.94086,-48.86118"
           inkscape:connector-curvature="0" />
        <path
           style="fill:none;stroke:#ffffff;stroke-width:1px;stroke-linecap:butt;stroke-linejoin:miter;stroke-opacity:1"
           d="m 403.04043,543.09438 c 3.736,7.46101 7.62333,14.83731 11.60756,22.18542 5.46143,-2.30414 10.97496,-4.62344 16.51912,-6.93561 m -20.93278,-14.21316 c 3.58586,6.43709 7.14303,12.87392 10.65136,19.28773 7.63113,-3.69667 15.19885,-7.42321 22.67332,-11.21329 m -40.87622,-9.89386 c 4.56607,7.56791 9.11372,15.19992 13.70442,22.89681 6.22688,-2.57085 12.47824,-5.10481 18.78041,-7.60154 m -30.13229,-8.8535 c 3.49291,6.54516 7.19757,13.09625 11.07838,19.64666 5.46722,-2.41427 11.03961,-4.82893 16.70074,-7.24704 m -31.00461,-23.08619 c 4.8813,8.64179 9.73767,17.07544 14.62019,25.3877 7.62778,-3.29484 15.27478,-6.67891 22.97321,-10.09754"
           id="path5256"
           sodipodi:nodetypes="ccc"
           inkscape:path-effect="#path-effect5258"
           inkscape:original-d="m 402.32875,537.16943 15.2966,27.12701 25.08467,-11.18637"
           inkscape:connector-curvature="0" />
      </g>
    </g>
  </g>
  <g
     inkscape:groupmode="layer"
     id="layer3"
     inkscape:label="Schrift"
     style="display:inline"
     transform="translate(0,-367.6922)">
    <g
       id="g4276"
       transform="matrix(0.38028962,0,0,0.38028962,-3.1137101,365.46908)">
      <text
         inkscape:transform-center-y="-75.67443"
         transform="matrix(-0.92647503,0.37635624,-0.37635624,-0.92647503,665.32777,457.31357)"
         inkscape:transform-center-x="-10.268087"
         sodipodi:linespacing="125%"
         id="text3741"
         style="font-size:48px;font-style:normal;font-variant:normal;font-weight:normal;font-stretch:normal;text-align:start;line-height:125%;writing-mode:lr-tb;text-anchor:start;fill:#000000;fill-opacity:1;stroke:none;font-family:Baskerville;-inkscape-font-specification:Baskerville"
         xml:space="preserve"><textPath
           id="textPath4257"
           xlink:href="#path4219"><tspan
   style="font-size:48px;font-style:normal;font-variant:normal;font-weight:normal;font-stretch:normal;text-align:start;line-height:125%;writing-mode:lr-tb;text-anchor:start;font-family:Baskerville;-inkscape-font-specification:Baskerville"
   id="tspan3743">Software Craftsmanship and Testing Conference</tspan></textPath></text>
      <text
         transform="matrix(0.97896692,-0.20401904,0.20401904,0.97896692,-53.053223,65.079999)"
         inkscape:transform-center-y="204.84175"
         inkscape:transform-center-x="1.723547"
         sodipodi:linespacing="125%"
         id="text3730"
         style="font-size:48px;font-style:normal;font-variant:normal;font-weight:bold;font-stretch:normal;text-align:center;line-height:125%;writing-mode:lr-tb;text-anchor:middle;fill:#000000;fill-opacity:1;stroke:none;font-family:Baskerville;-inkscape-font-specification:Baskerville Bold"
         xml:space="preserve"><textPath
           id="textPath4272"
           startOffset="50%"
           xlink:href="#path4268"><tspan
   style="font-size:48px;font-style:normal;font-variant:normal;font-weight:bold;font-stretch:normal;text-align:center;line-height:125%;writing-mode:lr-tb;text-anchor:middle;font-family:Baskerville;-inkscape-font-specification:Baskerville Bold"
   id="tspan3732">socrates-conference.de</tspan></textPath></text>
      <path
         style="fill:#000000;fill-opacity:1;fill-rule:nonzero;stroke:none;display:inline"
         d="m 65.6644,403.868 c -2.96998,0 -5.375,2.43627 -5.375,5.40625 0,2.96998 2.40502,5.375 5.375,5.375 2.96999,0 5.375,-2.40502 5.375,-5.375 0,-2.96998 -2.40501,-5.40625 -5.375,-5.40625 z"
         id="path3751"
         inkscape:connector-curvature="0" />
      <path
         sodipodi:type="arc"
         style="fill:#000000;fill-opacity:1;fill-rule:nonzero;stroke:none;display:inline"
         id="path3769"
         sodipodi:cx="-446.61301"
         sodipodi:cy="370.60663"
         sodipodi:rx="59.969238"
         sodipodi:ry="59.969238"
         d="m -386.64377,370.60663 c 0,33.12009 -26.84914,59.96924 -59.96924,59.96924 -33.12009,0 -59.96923,-26.84915 -59.96923,-59.96924 0,-33.1201 26.84914,-59.96924 59.96923,-59.96924 33.1201,0 59.96924,26.84914 59.96924,59.96924 z"
         transform="matrix(0.08967314,0,0,-0.08967314,549.71622,442.50508)" />
      <path
         inkscape:export-ydpi="89"
         inkscape:export-xdpi="89"
         id="path4219"
         d="m 527.16703,294.25862 c 0,131.99606 -107.00394,239 -239,239 -131.99606,0 -239,-107.00394 -239,-239 0,-131.99606 107.00394,-238.999997 239,-238.999997 131.99606,0 239,107.003937 239,238.999997 z"
         style="fill:none;stroke:none;display:inline"
         inkscape:connector-curvature="0" />
      <text
         transform="matrix(0.00724968,0,0,0.00724968,286.23069,297.52834)"
         xml:space="preserve"
         style="font-size:55px;font-style:normal;font-variant:normal;font-weight:normal;font-stretch:normal;text-align:start;line-height:125%;writing-mode:lr-tb;text-anchor:start;fill:#000000;fill-opacity:1;stroke:none;font-family:Baskerville;-inkscape-font-specification:Baskerville"
         id="text4262"
         sodipodi:linespacing="125%"><textPath
           xlink:href="#path4219"
           id="textPath4264"><tspan
   id="tspan4266"
   style="font-size:55px;font-style:normal;font-variant:normal;font-weight:normal;font-stretch:normal;text-align:start;line-height:125%;writing-mode:lr-tb;text-anchor:start;font-family:Baskerville;-inkscape-font-specification:Baskerville">Software Craftsmanship and Testing Conference</tspan></textPath></text>
      <path
         inkscape:connector-curvature="0"
         id="path4268"
         d="M 340.1686,36.952735 C 198.98723,7.8669677 60.958443,98.738416 31.872685,239.91979 2.7869201,381.10116 93.658369,519.12994 234.83974,548.2157 376.02112,577.30146 514.0499,486.43002 543.13567,345.24865 572.22142,204.06728 481.34998,66.038489 340.1686,36.952735 z"
         style="fill:none;stroke:none" />
    </g>
  </g>
  <g
     inkscape:groupmode="layer"
     id="layer5"
     inkscape:label="Kontur"
     transform="translate(0,0.70866221)">
    <path
       sodipodi:type="arc"
       style="fill:none;stroke:#ff00ff;stroke-width:1.25;stroke-miterlimit:4;stroke-opacity:1;stroke-dasharray:none"
       id="path4333"
       sodipodi:cx="106.375"
       sodipodi:cy="106.47342"
       sodipodi:rx="106.375"
       sodipodi:ry="106.375"
       d="m 212.75,106.47342 c 0,58.74929 -47.62571,106.375 -106.375,106.375 C 47.62571,212.84842 0,165.22271 0,106.47342 0,47.724129 47.62571,0.09841919 106.375,0.09841919 c 58.74929,0 106.375,47.62570981 106.375,106.37500081 z" />
  </g>
</svg>
