<?xml version="1.0" encoding="UTF-8" standalone="no"?>
<!-- Created with Inkscape (http://www.inkscape.org/) -->

<svg
   xmlns:dc="http://purl.org/dc/elements/1.1/"
   xmlns:cc="http://creativecommons.org/ns#"
   xmlns:rdf="http://www.w3.org/1999/02/22-rdf-syntax-ns#"
   xmlns:svg="http://www.w3.org/2000/svg"
   xmlns="http://www.w3.org/2000/svg"
   xmlns:xlink="http://www.w3.org/1999/xlink"
   xmlns:sodipodi="http://sodipodi.sourceforge.net/DTD/sodipodi-0.dtd"
   xmlns:inkscape="http://www.inkscape.org/namespaces/inkscape"
   width="566.74414"
   height="567.69055"
   id="svg2"
   version="1.1"
   inkscape:version="0.47 r22583"
   sodipodi:docname="SoCraTesWappen.herbstcampus.svg">
  <defs
     id="defs4">
    <inkscape:perspective
       sodipodi:type="inkscape:persp3d"
       inkscape:vp_x="0 : 526.18109 : 1"
       inkscape:vp_y="0 : 1000 : 0"
       inkscape:vp_z="744.09448 : 526.18109 : 1"
       inkscape:persp3d-origin="372.04724 : 350.78739 : 1"
       id="perspective10" />
    <inkscape:perspective
       id="perspective10-3"
       inkscape:persp3d-origin="372.04724 : 350.78739 : 1"
       inkscape:vp_z="744.09448 : 526.18109 : 1"
       inkscape:vp_y="0 : 1000 : 0"
       inkscape:vp_x="0 : 526.18109 : 1"
       sodipodi:type="inkscape:persp3d" />
    <inkscape:path-effect
       back_thickness="0.25"
       front_thickness="1"
       stroke_width_bottom="1"
       stroke_width_top="1"
       fat_output="true"
       bottom_smth_variation="0;1"
       top_smth_variation="0;1"
       scale_tb="1"
       scale_tf="1"
       scale_bb="1"
       scale_bf="1"
       top_tgt_variation="0;1"
       bottom_tgt_variation="0;1"
       top_edge_variation="44;1"
       bottom_edge_variation="44;1"
       bender="370,490.36218 , 5,0"
       do_bend="true"
       growth="0"
       dist_rdm="75;1"
       direction="370,485.36218 , 110,0"
       is_visible="true"
       id="path-effect3806"
       effect="rough_hatches" />
    <inkscape:path-effect
       tgtlength_rdm="0.3;1"
       tgtlength="100"
       tgtscale="10"
       tgt_places_rdmness="1;1"
       nbtangents="5"
       tremble_frequency="1"
       tremble_size="5;1"
       parallel_offset="4.5;1"
       ends_tolerance="0.1;1"
       strokeoverlap_rdm="0.3;1"
       strokeoverlap="0"
       strokelength_rdm="0;1"
       strokelength="93"
       nbiter_approxstrokes="3"
       is_visible="true"
       id="path-effect3808"
       effect="sketch" />
    <inkscape:path-effect
       tgtlength_rdm="0.3;1"
       tgtlength="100"
       tgtscale="10"
       tgt_places_rdmness="1;1"
       nbtangents="5"
       tremble_frequency="1"
       tremble_size="5;1"
       parallel_offset="5;1"
       ends_tolerance="0.1;1"
       strokeoverlap_rdm="0.3;1"
       strokeoverlap="0.3"
       strokelength_rdm="0.3;1"
       strokelength="100"
       nbiter_approxstrokes="5"
       is_visible="true"
       id="path-effect3810"
       effect="sketch" />
    <inkscape:path-effect
       is_visible="true"
       id="path-effect3812"
       effect="spiro" />
    <inkscape:path-effect
       phi="5"
       teeth="10"
       is_visible="true"
       id="path-effect3814"
       effect="gears" />
    <inkscape:path-effect
       nr_y="5"
       nr_x="5"
       is_visible="true"
       id="path-effect3816"
       effect="construct_grid" />
    <inkscape:path-effect
       bendpath4="m 150,270.36218 0,440"
       bendpath3="m 150,710.36218 440,0"
       bendpath2="m 590,270.36218 0,440"
       bendpath1="m 150,270.36218 440,0"
       xx="true"
       yy="true"
       is_visible="true"
       id="path-effect3818"
       effect="envelope" />
    <inkscape:path-effect
       back_thickness="0.25"
       front_thickness="1"
       stroke_width_bottom="1"
       stroke_width_top="1"
       fat_output="true"
       bottom_smth_variation="0;1"
       top_smth_variation="0;1"
       scale_tb="1"
       scale_tf="1"
       scale_bb="1"
       scale_bf="1"
       top_tgt_variation="0;1"
       bottom_tgt_variation="0;1"
       top_edge_variation="44;1"
       bottom_edge_variation="44;1"
       bender="370,490.36218 , 5,0"
       do_bend="true"
       growth="0"
       dist_rdm="75;1"
       direction="370,485.36218 , 110,0"
       is_visible="true"
       id="path-effect3820"
       effect="rough_hatches" />
    <inkscape:path-effect
       tgtlength_rdm="0.3;1"
       tgtlength="100"
       tgtscale="10"
       tgt_places_rdmness="1;1"
       nbtangents="0"
       tremble_frequency="1"
       tremble_size="5;1"
       parallel_offset="2;1699740438"
       ends_tolerance="0;1"
       strokeoverlap_rdm="0.3;1"
       strokeoverlap="0.3"
       strokelength_rdm="0.3;1"
       strokelength="100"
       nbiter_approxstrokes="3"
       is_visible="true"
       id="path-effect3822"
       effect="sketch" />
    <inkscape:path-effect
       tgtlength_rdm="0.3;1"
       tgtlength="100"
       tgtscale="10"
       tgt_places_rdmness="1;1"
       nbtangents="0"
       tremble_frequency="1"
       tremble_size="5;1"
       parallel_offset="5;1"
       ends_tolerance="0.1;1"
       strokeoverlap_rdm="0.3;1"
       strokeoverlap="0.3"
       strokelength_rdm="0.3;1"
       strokelength="100"
       nbiter_approxstrokes="5"
       is_visible="true"
       id="path-effect3827"
       effect="sketch" />
    <inkscape:path-effect
       effect="sketch"
       id="path-effect3831"
       is_visible="true"
       nbiter_approxstrokes="6"
       strokelength="100"
       strokelength_rdm="0.3;1"
       strokeoverlap="0.3"
       strokeoverlap_rdm="0.3;1"
       ends_tolerance="0.1;1"
       parallel_offset="5;1"
       tremble_size="5;1"
       tremble_frequency="1"
       nbtangents="0"
       tgt_places_rdmness="1;1"
       tgtscale="9"
       tgtlength="100"
       tgtlength_rdm="0.3;1" />
    <inkscape:path-effect
       tgtlength_rdm="0.3;1"
       tgtlength="100"
       tgtscale="10"
       tgt_places_rdmness="1;1"
       nbtangents="0"
       tremble_frequency="1"
       tremble_size="5;1"
       parallel_offset="5;1"
       ends_tolerance="0.1;1"
       strokeoverlap_rdm="0.3;1"
       strokeoverlap="0.3"
       strokelength_rdm="0.3;1"
       strokelength="100"
       nbiter_approxstrokes="5"
       is_visible="true"
       id="path-effect3835"
       effect="sketch" />
    <inkscape:path-effect
       tgtlength_rdm="0.3;1"
       tgtlength="100"
       tgtscale="10"
       tgt_places_rdmness="1;1"
       nbtangents="0"
       tremble_frequency="1"
       tremble_size="5;1060682146"
       parallel_offset="5;799442994"
       ends_tolerance="0.1;1"
       strokeoverlap_rdm="0.3;1"
       strokeoverlap="0.3"
       strokelength_rdm="0.3;1"
       strokelength="100"
       nbiter_approxstrokes="5"
       is_visible="true"
       id="path-effect3839"
       effect="sketch" />
    <inkscape:path-effect
       tgtlength_rdm="0.3;1"
       tgtlength="100"
       tgtscale="10"
       tgt_places_rdmness="1;1"
       nbtangents="0"
       tremble_frequency="1"
       tremble_size="5;1"
       parallel_offset="5;1"
       ends_tolerance="0.1;1"
       strokeoverlap_rdm="0.3;1"
       strokeoverlap="0.3"
       strokelength_rdm="0.3;1"
       strokelength="100"
       nbiter_approxstrokes="5"
       is_visible="true"
       id="path-effect3853"
       effect="sketch" />
    <inkscape:path-effect
       effect="sketch"
       id="path-effect3857"
       is_visible="true"
       nbiter_approxstrokes="5"
       strokelength="100"
       strokelength_rdm="0.3;1"
       strokeoverlap="0.3"
       strokeoverlap_rdm="0.3;1"
       ends_tolerance="0.1;1"
       parallel_offset="5;1"
       tremble_size="5;568508735"
       tremble_frequency="1"
       nbtangents="0"
       tgt_places_rdmness="1;1"
       tgtscale="10"
       tgtlength="100"
       tgtlength_rdm="0.3;1" />
    <inkscape:path-effect
       tgtlength_rdm="0.3;1"
       tgtlength="100"
       tgtscale="10"
       tgt_places_rdmness="1;1"
       nbtangents="0"
       tremble_frequency="1"
       tremble_size="3;2112635550"
       parallel_offset="3;294185633"
       ends_tolerance="0.1;1"
       strokeoverlap_rdm="0.3;1"
       strokeoverlap="0.3"
       strokelength_rdm="0.1;2026920370"
       strokelength="100"
       nbiter_approxstrokes="5"
       is_visible="true"
       id="path-effect3861"
       effect="sketch" />
    <marker
       style="overflow:visible"
       id="Arrow1Lend"
       refX="0"
       refY="0"
       orient="auto"
       inkscape:stockid="Arrow1Lend">
      <path
         transform="matrix(-0.8,0,0,-0.8,-10,0)"
         style="fill-rule:evenodd;stroke:#000000;stroke-width:1pt;marker-start:none"
         d="M 0,0 5,-5 -12.5,0 5,5 0,0 z"
         id="path4058" />
    </marker>
    <marker
       style="overflow:visible"
       id="Arrow1Mend"
       refX="0"
       refY="0"
       orient="auto"
       inkscape:stockid="Arrow1Mend">
      <path
         transform="matrix(-0.4,0,0,-0.4,-4,0)"
         style="fill-rule:evenodd;stroke:#000000;stroke-width:1pt;marker-start:none"
         d="M 0,0 5,-5 -12.5,0 5,5 0,0 z"
         id="path4064" />
    </marker>
    <marker
       style="overflow:visible"
       id="Arrow2Mend"
       refX="0"
       refY="0"
       orient="auto"
       inkscape:stockid="Arrow2Mend">
      <path
         transform="scale(-0.6,-0.6)"
         d="M 8.7185878,4.0337352 -2.2072895,0.01601326 8.7185884,-4.0017078 c -1.7454984,2.3720609 -1.7354408,5.6174519 -6e-7,8.035443 z"
         style="font-size:12px;fill-rule:evenodd;stroke-width:0.625;stroke-linejoin:round"
         id="path4082" />
    </marker>
    <inkscape:path-effect
       tgtlength_rdm="0.3;1"
       tgtlength="100"
       tgtscale="10"
       tgt_places_rdmness="1;1"
       nbtangents="0"
       tremble_frequency="1"
       tremble_size="4;1"
       parallel_offset="3;1"
       ends_tolerance="0.1;1"
       strokeoverlap_rdm="0.3;1"
       strokeoverlap="0.3"
       strokelength_rdm="0.3;1"
       strokelength="100"
       nbiter_approxstrokes="5"
       is_visible="true"
       id="path-effect5254"
       effect="sketch" />
    <inkscape:path-effect
       tgtlength_rdm="0.3;1"
       tgtlength="100"
       tgtscale="10"
       tgt_places_rdmness="1;1"
       nbtangents="0"
       tremble_frequency="1"
       tremble_size="4;1896651304"
       parallel_offset="3;1"
       ends_tolerance="0.1;1"
       strokeoverlap_rdm="0.3;1"
       strokeoverlap="0.3"
       strokelength_rdm="0.3;1"
       strokelength="100"
       nbiter_approxstrokes="5"
       is_visible="true"
       id="path-effect5258"
       effect="sketch" />
    <inkscape:perspective
       id="perspective3165"
       inkscape:persp3d-origin="0.5 : 0.33333333 : 1"
       inkscape:vp_z="1 : 0.5 : 1"
       inkscape:vp_y="0 : 1000 : 0"
       inkscape:vp_x="0 : 0.5 : 1"
       sodipodi:type="inkscape:persp3d" />
  </defs>
  <sodipodi:namedview
     id="base"
     pagecolor="#e1dfd9"
     bordercolor="#666666"
     borderopacity="1.0"
     inkscape:pageopacity="1"
     inkscape:pageshadow="2"
     inkscape:zoom="0.24748737"
     inkscape:cx="201.90444"
     inkscape:cy="146.70243"
     inkscape:document-units="px"
     inkscape:current-layer="layer1"
     showgrid="false"
     inkscape:window-width="1228"
     inkscape:window-height="934"
     inkscape:window-x="0"
     inkscape:window-y="0"
     inkscape:window-maximized="0"
     showborder="false" />
  <metadata
     id="metadata7">
    <rdf:RDF>
      <cc:Work
         rdf:about="">
        <dc:format>image/svg+xml</dc:format>
        <dc:type
           rdf:resource="http://purl.org/dc/dcmitype/StillImage" />
        <dc:title></dc:title>
      </cc:Work>
    </rdf:RDF>
  </metadata>
  <g
     inkscape:label="Ebene 1"
     inkscape:groupmode="layer"
     id="layer1"
     transform="translate(-85.199352,-111.37404)">
    <g
       transform="translate(133.39179,-227.4857)"
       id="layer1-2"
       inkscape:label="Ebene 1">
      <g
         transform="translate(-135.55811,135.26795)"
         style="filter:url(#filter4106)"
         id="g3672">
        <path
           style="fill:#a79f9c;fill-opacity:1;fill-rule:nonzero;stroke:none"
           d="m 588.6875,490.36218 c 0,120.78359 -97.90391,218.71875 -218.6875,218.71875 l 0,-218.71875 218.6875,0 z"
           id="path2816" />
        <path
           id="path3607"
           d="m 151.3125,490.36218 c 0,-120.78359 97.90391,-218.71875 218.6875,-218.71875 l 0,218.71875 -218.6875,0 z"
           style="fill:#a79f9c;fill-opacity:1;fill-rule:nonzero;stroke:none" />
        <path
           id="path2823"
           d="m 151.3125,490.36218 c 0,120.78359 97.90391,218.71875 218.6875,218.71875 l 0,-218.71875 -218.6875,0 z"
           style="fill:#c1bbb9;fill-opacity:1;fill-rule:nonzero;stroke:none" />
        <path
           style="fill:#c1bbb9;fill-opacity:1;fill-rule:nonzero;stroke:none"
           d="M 588.6875,490.36218 C 588.6875,369.57859 490.78359,271.64343 370,271.64343 l 0,218.71875 218.6875,0 z"
           id="path3609" />
        <g
           id="g3779"
           style="stroke:#7c6e64;stroke-width:2;stroke-miterlimit:4;stroke-opacity:1;stroke-dasharray:none"
           inkscape:path-effect="#path-effect3822">
          <path
             id="path3647"
             d="m 370.77378,274.97903 c -13.24841,-0.46541 -26.79048,0.75117 -40.16907,3.27479 -13.37859,2.52362 -26.5971,6.35681 -39.26364,11.17182 m 14.51818,-10.00337 c -8.69491,2.28751 -17.01413,5.18269 -24.96642,8.61752 -13.83365,5.97517 -26.55784,13.58281 -38.19023,22.48476 m 11.11665,-9.14097 c -16.44489,9.01674 -30.67493,19.85489 -43.07466,31.92953 -4.58765,4.46737 -8.92425,9.104 -13.02833,13.87991 m 13.73912,-9.74886 c -17.45391,20.17744 -32.98097,42.71386 -43.10157,68.35363 -1.74618,4.42383 -3.33084,8.94049 -4.7349,13.55473 m 8.9094,-25.3654 c -2.04419,3.76093 -3.90704,7.60038 -5.58995,11.50882 -9.1108,21.15909 -12.94737,44.36085 -11.71551,67.97462 m -1.25181,-18.94809 c -2.43253,12.37647 -3.3604,24.4962 -2.8115,36.36446 0.58148,12.57282 2.79004,24.34237 6.30634,35.41661 m -8.99239,-15.81158 c 1.54367,22.28772 8.06395,43.3699 18.08425,62.76597 1.40608,2.72171 2.88159,5.41017 4.42288,8.06402 m -2.88616,-14.95438 c 0.96861,2.37569 1.96142,4.7457 2.97864,7.10859 8.34976,19.39554 18.35371,38.30469 30.0512,55.99411 m -3.8158,-8.28483 c 7.42255,10.19196 15.35026,19.41727 23.82284,27.67097 12.82982,12.49836 26.90759,22.76873 42.35988,30.77304 m -22.97653,-16.93286 c 13.98863,11.71051 30.10058,21.18332 47.72394,28.85415 11.70397,5.09433 24.07512,9.39354 36.93341,13.05166 m -25.86363,-5.45382 c 12.17564,4.34524 24.36714,7.57918 36.71301,9.67196 12.34586,2.09278 24.84395,3.04387 37.66639,2.83081 2.17417,-0.0361 4.34277,-0.10544 6.50666,-0.20708 m -24.45751,-1.98608 c 4.73387,0.39695 9.44546,0.60711 14.14063,0.63116 13.4491,0.0689 26.21594,-1.38788 38.50503,-4.09547 12.28909,-2.7076 24.09776,-6.66772 35.57962,-11.64011 m -26.41354,2.67461 c 12.02491,-2.68618 23.52561,-5.96259 34.59435,-9.72068 15.31708,-5.2005 29.80613,-11.32415 43.67172,-18.0615 m -15.8307,8.38597 c 15.81135,-8.65519 30.63021,-19.59662 43.37632,-31.55032 3.66807,-3.44004 7.16463,-6.96401 10.464,-10.54138 m -8.49779,11.7387 c 18.68266,-19.28186 33.00292,-40.7794 42.26617,-64.84208 m -9.22085,12.65661 c 3.7378,-6.70173 7.2486,-13.68252 10.48659,-20.87852 8.98855,-19.97582 15.87555,-41.6296 19.69157,-63.47206 m 1.23935,27.94416 c 3.2622,-14.07825 4.8706,-29.35503 4.83421,-45.57025 -0.0427,-19.01942 -2.33571,-38.25227 -6.3552,-57.10702 m 1.76578,28.14064 c -2.27488,-20.94754 -7.4927,-40.87596 -15.12434,-58.74714 -4.26265,-9.98195 -9.27831,-19.3241 -14.95383,-27.85173 m 5.9323,22.29945 c -10.78994,-23.80881 -24.82069,-46.21751 -40.87851,-65.81385 -0.74532,-0.90956 -1.49499,-1.81307 -2.24888,-2.71041 m 9.72087,14.71811 c -3.42562,-4.33072 -7.01591,-8.50037 -10.74593,-12.51019 -16.43132,-17.66387 -35.58617,-32.2209 -55.27989,-43.79345 m 17.55573,21.52142 c -9.73614,-6.36272 -20.1478,-12.00031 -31.09627,-16.88388 -18.04096,-8.04718 -37.54243,-14.04048 -57.86596,-17.90721 m 27.99791,0.37661 c -17.9033,-5.33206 -35.83108,-7.41226 -53.88983,-6.67338 0.001,0.001 0.003,0.003 0.004,0.004 -14.05349,0.5762 -27.55131,2.81701 -40.59356,6.19631 m 35.9321,-1.08356 c -30.11332,-0.53111 -58.90241,3.57446 -85.02885,10.26497 -2.24047,0.57375 -4.46138,1.16644 -6.66192,1.77676 m 30.16691,0.18108 c -6.37817,1.93407 -12.55303,4.16588 -18.52645,6.67277 -24.6379,10.33987 -45.86222,25.35492 -63.64185,43.51606 m 21.83348,-28.00545 c -8.89668,7.21944 -17.51865,15.09564 -25.66948,23.72425 -13.19639,13.96992 -25.15918,29.9073 -35.06531,48.2404 m 14.40212,-22.13494 c -10.87451,14.04413 -19.97345,29.65207 -27.29061,46.51712 -2.49112,5.7417 -4.77594,11.62921 -6.85523,17.6508 m 5.37415,-13.24752 c -4.96937,12.29602 -8.86323,25.47999 -11.44513,39.2198 -2.5819,13.7398 -3.85312,28.03773 -3.55551,42.52728 0.0208,1.01189 0.0492,2.02147 0.0851,3.02861 m 3.78472,-18.7443 c -0.83348,6.67196 -1.31305,13.36387 -1.45251,20.07444 -0.39129,18.82808 1.90046,36.70522 5.96897,53.68805 m -9.03349,-19.04537 c 2.86837,16.74725 7.87372,31.98519 14.77274,45.78557 4.96357,9.92883 10.90794,19.11087 17.74798,27.55197 M 172.0467,583.6284 c 10.08004,20.48309 24.5796,40.65534 42.0039,58.6456 7.02068,7.24873 14.51736,14.14501 22.39456,20.57019 m -22.61205,-16.54111 c 0.24924,0.2725 0.49933,0.54409 0.75028,0.81474 18.69088,20.1588 42.11241,35.18387 68.58086,46.37416 m -14.95889,-9.80482 c 6.92402,3.88064 14.02808,7.3897 21.30067,10.51316 17.94208,7.70584 36.90741,13.06158 56.7381,15.87812 m -22.13247,-8.86565 c 15.86587,3.49615 31.70063,5.65096 47.4706,6.30039 13.82868,0.56948 26.98094,-0.0442 39.5062,-1.73774 m -25.27768,-2.50704 c 23.3796,-2.15993 46.28491,-7.55298 67.51652,-15.97354 7.56192,-2.99909 14.91323,-6.3809 22.00356,-10.13302 m -16.76108,14.85907 c 0.72512,-0.27837 1.44687,-0.55952 2.16529,-0.84342 27.28893,-10.78376 49.80638,-25.54058 69.02174,-42.6094 0.43705,-0.38823 0.87238,-0.77764 1.30601,-1.16823 m -27.54344,15.44246 c 5.48862,-4.44343 10.83091,-9.21022 15.9953,-14.26235 16.87659,-16.50974 31.85109,-36.06863 43.85269,-57.35279 m -12.48237,11.9686 c 6.56591,-11.47798 12.63,-23.13425 17.83364,-35.11813 4.23782,-9.75962 7.90538,-19.73606 10.80155,-30.01783 m 2.17934,22.09056 c 7.917,-21.97359 10.23983,-45.5333 7.0259,-70.43968 -1.25853,-9.75297 -3.32776,-19.42526 -6.09956,-28.9963 m 5.62201,32.02779 c 0.0142,-0.34422 0.0275,-0.68873 0.0397,-1.03354 0.52571,-14.84146 -0.83886,-29.51631 -3.60806,-43.71464 -2.7692,-14.19833 -6.94667,-27.92191 -12.10461,-40.88946 -0.89873,-2.25951 -1.82731,-4.49611 -2.78355,-6.70834 m 4.62542,18.06724 c -2.04303,-6.37193 -4.31147,-12.56866 -6.79196,-18.56732 -6.59423,-15.94707 -14.68876,-30.49506 -24.01326,-43.20872 m 6.53511,18.19814 c -9.18723,-13.06565 -18.69623,-25.66243 -28.75327,-37.38191 -8.78826,-10.24099 -17.9931,-19.81296 -27.74987,-28.45109 m 15.09063,14.40189 c -17.40932,-15.19833 -35.52437,-26.08211 -54.49226,-33.19373 -7.78375,-2.91836 -15.71066,-5.20126 -23.79109,-6.8891 m 28.04809,7.02117 c -23.04722,-9.54058 -47.5683,-15.26805 -73.30335,-16.52302 m 13.08582,-3.16393 c -9.522,-0.82655 -19.05172,-1.28117 -28.63557,-1.25761 -4.4e-4,8e-5 -8.9e-4,1.6e-4 -0.001,2.4e-4 -16.74004,0.0396 -32.79256,1.55004 -48.4456,4.78095 m 50.74593,-6.0236 c -12.95638,-0.14539 -25.22391,0.88333 -36.96993,2.93361 -11.74602,2.05028 -22.96847,5.12272 -33.79061,9.07775 m 12.66547,3.5503 c -10.06389,2.98164 -19.68909,6.34436 -28.83963,10.1397 -17.39965,7.21678 -33.08471,16.00069 -46.77178,26.60655 m 18.43325,-17.47365 c -14.18937,8.86203 -27.22284,19.42591 -38.81792,31.44305 -11.20281,11.6106 -21.06314,24.57778 -29.32278,38.68132 m 10.65552,-23.87933 c -13.23647,16.09589 -24.10287,34.8379 -31.24627,55.15439 -2.82661,8.03914 -5.06924,16.32461 -6.63632,24.78739 m 9.36456,-25.85127 c -5.39525,12.82355 -10.09677,26.3109 -14.00684,40.25675 -3.91007,13.94585 -7.02744,28.35104 -9.29446,42.99572 -0.69015,4.45828 -1.29207,8.87527 -1.80835,13.24527 m 10.37868,-23.97432 c -0.15336,5.2545 -0.22714,10.55929 -0.19941,15.89527 0.0673,12.94373 0.73693,25.52764 2.22642,37.50563 1.48948,11.978 3.7958,23.35116 7.07645,33.88778 m -6.15295,-26.16399 c 2.5833,11.47491 6.25267,22.92715 10.81893,34.07732 7.26482,17.73965 16.80021,34.7146 27.8833,49.89292 m -14.12839,-17.84752 c 9.48023,15.77011 20.67312,29.38476 33.48001,40.91315 7.5014,6.75254 15.55628,12.78828 24.14494,18.11628 m -20.48883,-14.47682 c 17.22214,15.59432 38.97647,31.10964 62.76761,43.95116 3.11364,1.68062 6.26202,3.31548 9.43934,4.89875 m -24.71156,-7.33003 c 3.46728,1.72983 7.00138,3.3652 10.60007,4.90489 20.4219,8.73748 42.91487,14.38764 67.1315,16.76828 m -13.50619,-3.18063 c 12.63192,2.145 25.4782,3.21366 38.44075,3.05463 19.64524,-0.241 38.32463,-3.2915 55.78654,-8.95413 m -28.84367,7.0158 c 18.50931,-2.24161 37.34029,-7.01143 55.30871,-13.59517 7.53986,-2.76266 14.9306,-5.84543 22.09294,-9.19738 m -20.5265,4.39635 c 24.0342,-12.23711 47.98026,-26.25298 69.47525,-43.45852 0.34878,-0.27918 0.69691,-0.55918 1.0444,-0.84003 m -11.72189,10.8404 c 4.79162,-4.14354 9.29827,-8.38438 13.50859,-12.7219 13.49325,-13.90088 23.94803,-28.79696 30.94804,-44.63887 m -9.42308,18.0761 c 8.47054,-11.61324 15.82414,-24.34806 22.18824,-37.97874 6.79199,-14.54714 12.45277,-30.11501 17.19432,-46.43272 m -8.16907,17.22887 c 5.26032,-20.69757 8.25484,-41.12279 7.32175,-61.19772 -0.32643,-7.02295 -1.13027,-13.83217 -2.4391,-20.43982 m 2.98757,26.34036 c 9.9e-4,-0.0401 0.002,-0.0801 0.003,-0.1202 0.3636,-15.09348 -1.16197,-30.07669 -4.19069,-44.77476 -3.02873,-14.69808 -7.56329,-29.11154 -13.26336,-43.08038 -1.00811,-2.47052 -2.05274,-4.92716 -3.13207,-7.36906 m 12.38561,20.93528 c -2.11336,-6.51516 -4.41564,-12.79262 -6.90733,-18.85187 -7.30423,-17.76238 -16.23984,-33.65563 -26.7683,-48.08388 m 5.23968,13.8109 c -8.66855,-12.67549 -18.22867,-24.34298 -28.75073,-34.86 -6.55025,-6.54711 -13.47288,-12.64828 -20.78363,-18.26868 m 13.04007,15.60881 c -18.92211,-15.52115 -38.5481,-28.48579 -59.74284,-37.35032 -5.54786,-2.32034 -11.20344,-4.35928 -16.98385,-6.08743 m 19.22569,1.87662 c -1.82347,-0.81331 -3.64896,-1.59872 -5.47619,-2.35572 -20.10609,-8.32973 -40.43325,-13.22888 -60.56115,-13.93492 m 17.16299,6.71051 c -11.9276,-2.44894 -24.20842,-3.5978 -36.80885,-3.53194 -5.6e-4,1.8e-4 -0.001,3.6e-4 -0.002,5.4e-4 -13.91137,0.0738 -27.61716,1.61635 -41.05397,4.25447"
             style="fill:none;stroke:#7c6e64;stroke-width:2;stroke-miterlimit:4;stroke-opacity:1;stroke-dasharray:none"
             inkscape:original-d="m 370,271.64343 c -120.78359,0 -218.6875,97.93516 -218.6875,218.71875 0,120.78359 97.90391,218.71875 218.6875,218.71875 120.78359,0 218.6875,-97.93516 218.6875,-218.71875 0,-120.78359 -97.90391,-218.71875 -218.6875,-218.71875 z" />
          <g
             transform="translate(0,-32)"
             style="stroke:#7c6e64;stroke-width:2;stroke-miterlimit:4;stroke-opacity:1;stroke-dasharray:none"
             id="g3680">
            <path
               style="fill:none;stroke:#7c6e64;stroke-width:2;stroke-linecap:butt;stroke-linejoin:miter;stroke-miterlimit:4;stroke-opacity:1;stroke-dasharray:none"
               d="m 374.47689,744.43197 c 0.79361,-24.92788 -0.50896,-48.13001 -2.65676,-71.15694 m -2.41357,15.69125 c 0.82671,-25.41505 1.1827,-53.0989 2.63863,-81.06697 m -5.64655,14.97565 c 0.51132,-25.43645 0.20377,-51.19633 -0.012,-76.83561 m 6.61308,20.41831 c -1.04134,-32.18306 -1.63621,-65.59174 -4.79567,-99.32183 m 1.04553,28.00374 c -1.28718,-28.55379 0.79489,-56.41353 3.52492,-84.88783 m 1.13961,26.22703 c 0.01,-25.09285 0.35437,-49.69443 1.0483,-74.94458 m -2.07197,14.55898 c -0.55769,-23.85249 -1.27388,-49.62223 -3.06745,-75.29013 m 4.30237,437.98831 c 0.95866,-31.6041 -1.98891,-59.65557 -6.44596,-87.32171 m 0.29679,29.11302 c -1.28742,-31.88448 0.19069,-63.97487 1.10361,-98.29849 m 1.72525,24.8547 c 0.7688,-23.17742 0.18299,-47.14944 -0.56878,-71.07825 m -5.24398,16.64171 c 0.15755,-23.23172 1.26549,-47.05046 3.56815,-70.77924 m 0.48603,14.5038 c -1.08013,-23.49375 0.30412,-48.21929 2.44842,-72.96332 m 0.74726,15.52424 c -0.21148,-27.0128 -1.19939,-54.8959 -3.41055,-83.57541 m -2.87059,20.80691 c 0.08,-26.65857 1.27904,-50.434 3.72081,-73.3984 m 1.32579,439.61129 c -0.61713,-25.57097 0.0698,-49.51481 0.99823,-72.64057 m -0.30218,13.69333 c 1.16075,-24.31624 -0.0514,-46.60386 -1.93834,-68.2144 m 0.25774,18.08406 c -0.99655,-23.22974 -0.83709,-48.71777 -1.08498,-75.16165 m 0.0932,13.28 c -0.0737,-27.098 -0.69189,-53.84966 -1.97206,-80.64216 m 2.05823,21.03712 c 0.51793,-25.48195 1.32457,-50.71012 3.32174,-76.47061 m -4.61906,15.64491 c -0.58628,-23.17069 0.38052,-46.63842 1.99738,-69.36534 m -0.13782,15.93032 c -0.1356,-25.60412 0.98242,-50.10653 3.14117,-74.74121 m -3.77441,16.18941 c -0.58671,-12.01493 -0.62613,-24.115 -0.34732,-36.25801"
               id="path3676"
               inkscape:original-d="m 370,742.36218 0,-440" />
            <path
               style="fill:none;stroke:#7c6e64;stroke-width:2;stroke-linecap:butt;stroke-linejoin:miter;stroke-miterlimit:4;stroke-opacity:1;stroke-dasharray:none"
               d="m 156.28923,518.54217 c 29.9876,0.90704 58.05956,0.57475 84.72685,1.15554 m -27.38843,6.6487 c 23.48499,-0.34989 47.46376,-0.87766 71.80013,-2.13118 m -18.24221,-2.83752 c 29.10353,-0.27293 59.60614,-0.46981 91.51188,-1.2326 m -26.64128,-1.19655 c 24.62168,1.13499 51.08445,1.75557 77.44044,3.91389 m -18.81947,4.3673 c 29.05042,1.15436 61.30636,-0.21191 94.02928,-1.27949 m -20.62717,-8.41667 c 24.90692,-1.12896 48.63477,-0.16288 71.85965,1.05526 m -12.7998,4.78145 c 24.49612,0.72994 48.38075,-0.16721 72.47942,-1.53438 m -445.39953,-4.98943 c 26.90965,-0.17568 53.89949,1.78449 81.70452,5.52913 m -22.81953,0.9478 c 31.70969,0.98805 65.92483,-0.25743 99.23959,-0.83553 m -32.82359,-3.65712 c 23.81595,-0.38344 48.8788,-0.55768 74.00887,-1.14098 m -15.36737,7.33688 c 34.19758,1.40841 66.57145,-1.54561 100.41358,-4.69997 m -25.34475,4.23819 c 28.31598,-1.1444 55.86429,0.4239 84.49489,2.35287 m -19.93096,-4.96943 c 30.4947,0.61311 58.70759,0.33263 87.91456,0.58998 m -28.24834,1.73769 c 18.75837,-0.45671 37.05664,-1.14521 54.80604,-2.51351 m -434.80553,6.30321 c 23.20798,0.91219 46.14595,-0.94273 68.56039,-4.21435 m -19.85668,-2.38733 c 30.61747,0.86799 61.79946,1.01773 91.76099,2.76449 m -16.60688,1.33631 c 26.14674,-1.32004 54.00724,-0.69595 81.78793,-0.73261 m -26.64445,1.57661 c 32.55092,-0.75355 65.13901,-0.36589 98.81483,-0.948 m -33.39847,2.74535 c 33.74701,0.78333 67.0749,0.0361 103.95652,-0.0348 m -32.08423,-7.82483 c 23.52363,-0.0457 46.45914,0.31024 68.93252,0.9818 m -10.22631,6.12771 c 20.10096,0.26211 40.51837,0.16721 60.21633,0.01"
               id="path3678"
               inkscape:original-d="m 150,522.36218 440,0" />
          </g>
        </g>
        <g
           style="font-size:40px;font-style:normal;font-weight:normal;fill:#7c6e64;fill-opacity:1;stroke:none;font-family:Bitstream Vera Sans"
           id="text3684"
           transform="translate(189.89365,117.14409)" />
        <path
           id="path3713"
           d="M 367.15688,204.90544 C 211.06281,206.4755 85.81022,334.31419 87.380273,490.40827 88.950336,646.50237 216.74904,771.79573 372.84312,770.2257 528.93719,768.65564 654.18978,640.81696 652.61973,484.72287 651.04966,328.62877 523.25097,203.33542 367.15688,204.90544 z"
           style="fill:none;stroke:none" />
        <text
           xml:space="preserve"
           style="font-size:62px;font-style:normal;font-variant:normal;font-weight:bold;font-stretch:normal;text-align:center;line-height:125%;writing-mode:lr-tb;text-anchor:middle;fill:#7c6e64;fill-opacity:1;stroke:none;font-family:Baskerville;-inkscape-font-specification:Baskerville Bold"
           id="text3730"
           sodipodi:linespacing="125%"><textPath
             xlink:href="#path3713"
             startOffset="50%"
             id="textPath3734"><tspan
   id="tspan3732"
   style="font-size:62px;font-style:normal;font-variant:normal;font-weight:bold;font-stretch:normal;text-align:center;line-height:125%;writing-mode:lr-tb;text-anchor:middle;fill:#7c6e64;fill-opacity:1;font-family:Baskerville;-inkscape-font-specification:Baskerville Bold">SoCraTes 2011</tspan></textPath></text>
        <path
           style="fill:none;stroke:none"
           d="M 176.8349,633.86081 C 96.045927,527.18879 117.05365,375.21707 223.72567,294.42807 330.39771,213.6391 482.37612,234.5983 563.1651,341.27032 643.95407,447.94235 622.94636,599.91408 516.27433,680.70306 409.60229,761.49204 257.62389,740.53281 176.8349,633.86081 z"
           id="path3739" />
        <text
           xml:space="preserve"
           style="font-size:62px;font-style:normal;font-variant:normal;font-weight:normal;font-stretch:normal;text-align:start;line-height:125%;writing-mode:lr-tb;text-anchor:start;fill:#7c6e64;fill-opacity:1;stroke:none;font-family:Baskerville;-inkscape-font-specification:Baskerville"
           id="text3741"
           sodipodi:linespacing="125%"><textPath
             xlink:href="#path3739"
             id="textPath3745"><tspan
   id="tspan3743"
   style="font-size:62px;font-style:normal;font-variant:normal;font-weight:normal;font-stretch:normal;text-align:start;line-height:125%;writing-mode:lr-tb;text-anchor:start;fill:#7c6e64;fill-opacity:1;font-family:Baskerville;-inkscape-font-specification:Baskerville">Software Craftsmanship and Testing Camp</tspan></textPath></text>
        <path
           sodipodi:type="arc"
           style="fill:#7c6e64;fill-opacity:1;fill-rule:nonzero;stroke:none"
           id="path3751"
           sodipodi:cx="-446.61301"
           sodipodi:cy="370.60663"
           sodipodi:rx="59.969238"
           sodipodi:ry="59.969238"
           d="m -386.64377,370.60663 c 0,33.12009 -26.84914,59.96924 -59.96924,59.96924 -33.12009,0 -59.96923,-26.84915 -59.96923,-59.96924 0,-33.1201 26.84914,-59.96924 59.96923,-59.96924 33.1201,0 59.96924,26.84914 59.96924,59.96924 z"
           transform="matrix(0.08967314,0,0,-0.08967314,213.96943,694.25741)" />
        <path
           transform="matrix(0.08967314,0,0,-0.08967314,601.96943,698.25741)"
           d="m -386.64377,370.60663 c 0,33.12009 -26.84914,59.96924 -59.96924,59.96924 -33.12009,0 -59.96923,-26.84915 -59.96923,-59.96924 0,-33.1201 26.84914,-59.96924 59.96923,-59.96924 33.1201,0 59.96924,26.84914 59.96924,59.96924 z"
           sodipodi:ry="59.969238"
           sodipodi:rx="59.969238"
           sodipodi:cy="370.60663"
           sodipodi:cx="-446.61301"
           id="path3769"
           style="fill:#7c6e64;fill-opacity:1;fill-rule:nonzero;stroke:none"
           sodipodi:type="arc" />
        <path
           style="fill:none;stroke:#ffffff;stroke-opacity:1"
           d="m 448.50253,364.94174 c 17.81802,-0.57305 34.74166,-0.55727 51.35852,-0.41164 10.03894,0.088 18.03593,8.42349 17.83124,18.78042 m -10.55837,-26.18595 c 5.49924,3.13008 9.22792,9.1479 9.26189,16.12376 0.0435,8.93582 0.22346,17.95352 0.50027,27.02118 0.27626,9.04997 -5.57008,16.63318 -13.4915,18.74336 m 5.55534,-3.24686 c -3.51249,5.55143 -9.76384,9.23771 -16.85003,9.08117 -18.45577,-0.40771 -36.21003,-0.9944 -53.96628,-2.03216 m 22.2768,2.76867 c -6.23905,0.21956 -12.5719,0.37612 -18.96367,0.49497 -10.17839,0.18925 -18.49022,-8.1143 -18.41449,-18.42547 0.0651,-8.86296 0.11814,-17.72522 0.24852,-26.52193 0.0985,-6.64569 3.76143,-12.41333 9.29076,-15.52808 m -17.01264,15.11403 c -0.0805,-2.74522 -0.13382,-5.48504 -0.16143,-8.22076 -0.0536,-5.31506 2.08335,-10.09904 5.59052,-13.57779 3.50716,-3.47875 8.38355,-5.64983 13.86192,-5.73514 16.55494,-0.25777 33.80103,-0.53928 51.42772,-1.10805 m -38.29365,6.46064 c 15.59876,0.45242 32.11376,-0.13322 49.19456,-1.43687 5.29406,-0.40406 10.14756,1.08655 13.8722,3.75315 3.72465,2.6666 6.31587,6.51563 7.10683,10.79963 m -15.85817,-10.61298 c 5.04521,3.33273 8.43827,9.16579 8.49802,15.81315 0.08,8.9015 0.38321,17.76711 0.85237,26.59726 0.268,5.04399 -1.45653,9.59356 -4.41269,12.89222 -2.95615,3.29867 -7.14857,5.34783 -11.79177,5.38462 m 19.24279,-11.34853 c -3.31246,4.44395 -8.6919,7.34864 -14.85361,7.43936 -17.77398,0.26168 -36.24312,1.1643 -55.11215,2.56758 m 13.77786,1.1754 c -6.35028,0.12227 -12.78847,0.14576 -19.294,0.0842 -10.37808,-0.0981 -18.87168,-8.73561 -19.08837,-19.60393 -0.18626,-9.34186 -0.4408,-18.80456 -0.71059,-28.35267 -0.17238,-6.10066 2.19361,-11.58602 6.03876,-15.43401 m -3.32452,22.38519 c -0.0616,-2.95301 -0.10134,-5.921 -0.12077,-8.90022 -0.0653,-10.01924 8.44589,-18.18023 19.1698,-17.90195 17.90681,0.46465 36.28958,0.94949 54.8594,2.11581 m -48.55296,1.02091 c 17.22162,0.23711 33.65845,0.18132 49.89166,-4.8e-4 10.29616,-0.11532 18.50939,8.12727 18.37236,18.36502 -0.0149,1.11715 -0.0292,2.23417 -0.0426,3.35113 m -11.9997,-23.1226 c 4.56322,3.58205 7.48249,8.9484 7.5919,14.91225 0.16431,8.95568 0.1487,17.74634 0.0445,26.42224 -0.12117,10.09353 -8.70579,18.08236 -19.33581,17.54199 -5.71775,-0.29065 -11.43081,-0.6046 -17.11677,-0.92953 m 22.9899,6.30212 c -2.15651,0.97052 -4.54408,1.53078 -7.06027,1.58623 -18.60839,0.41007 -37.54372,1.71251 -56.07462,4.09444 -6.25929,0.80455 -11.70963,-1.62612 -14.75638,-5.64676 m 22.01916,0.9687 c -0.9034,0.0425 -1.80602,0.0846 -2.70793,0.12643 -10.7914,0.5006 -19.40449,-7.50048 -19.69478,-17.35415 -0.24951,-8.46971 -0.50425,-16.86564 -0.83778,-25.0939 -0.1907,-4.70451 1.63452,-8.90181 4.69681,-11.79359 m -2.97555,8.72248 c 0.003,-0.57925 0.006,-1.15799 0.008,-1.73624 0.043,-10.67696 8.32906,-19.14391 18.4891,-19.16526 15.54772,-0.0327 30.7533,0.1468 45.68679,0.24445 m -45.4704,2.75204 c 18.379,0.52564 37.52971,0.78744 57.15952,1.27764 10.93279,0.27301 19.87114,8.93485 20.62893,19.82878 0.14714,2.11525 0.29808,4.23621 0.45245,6.36349 m -9.44118,-23.55627 c 5.48509,3.43279 9.12276,9.36712 9.17199,16.03191 0.0649,8.78954 0.0665,17.35186 0.043,25.7263 -0.0137,4.87141 -2.12937,9.2046 -5.54734,12.18845 -3.41797,2.98385 -8.13857,4.62526 -13.36298,4.07843 -7.28325,-0.76231 -14.55539,-1.61972 -21.79606,-2.55125 m 26.6761,-0.009 c -2.01704,0.79294 -4.19764,1.25049 -6.47382,1.30769 -19.14862,0.48121 -38.15929,1.08781 -56.96448,2.28035 -5.0879,0.32266 -9.66435,-1.43726 -12.92521,-4.45379 -3.26086,-3.01653 -5.20878,-7.29759 -5.02956,-11.98548 0.0472,-1.23605 0.0957,-2.46792 0.14545,-3.69543 m 11.69582,15.71528 c -8.03211,-2.03142 -13.83479,-9.36356 -13.57172,-18.21918 0.26887,-9.05087 0.66257,-18.1928 1.19272,-27.40814 0.30839,-5.36056 2.72902,-10.22366 6.49279,-13.80399 3.76377,-3.58034 8.86366,-5.87485 14.56034,-6.11151 0.40318,-0.0168 0.80662,-0.0336 1.21031,-0.0505 m -28.9649,18.12394 c 3.51583,-5.50618 9.6375,-9.17816 16.66129,-9.28384 19.907,-0.29953 39.94346,-0.47635 60.76618,-0.95978 5.05128,-0.11727 9.70855,1.4419 13.43118,4.09353 m -64.14017,-3.95098 c 17.7798,-0.20567 35.23873,-0.51341 52.57019,-1.09826 10.28305,-0.347 18.51987,7.66837 18.3433,17.51501 -0.0696,3.88234 -0.14028,7.74413 -0.2095,11.58314 m -1.86023,-24.28904 c 3.13805,3.14745 5.06579,7.60537 5.03381,12.61622 -0.0561,8.79519 0.0606,17.83047 0.29513,27.00983 0.27285,10.67927 -7.74961,19.447 -17.66365,19.94901 -8.61895,0.43644 -17.17941,0.9122 -25.73835,1.32793 m 25.75823,1.42432 c -0.54591,0.0379 -1.09872,0.0519 -1.65742,0.041 -19.18951,-0.37407 -38.4217,-1.37154 -57.6504,-3.32685 -5.20248,-0.52902 -9.89757,-3.17392 -13.29033,-7.18666 -3.39276,-4.01275 -5.48336,-9.3813 -5.47617,-15.40469 0.003,-2.23967 0.006,-4.49077 0.009,-6.75363 m 4.5984,30.35333 c -6.43633,-3.09864 -10.81219,-9.58255 -10.77239,-17.10306 0.0476,-8.98774 0.21564,-17.94838 0.46829,-26.9023 0.29394,-10.41699 9.0147,-18.7947 19.88546,-18.8124 7.62877,-0.0124 15.28758,-0.0353 22.95688,-0.0799"
           id="rect3824"
           inkscape:path-effect="#path-effect3827"
           inkscape:original-d="m 438.93168,357.05145 57.71884,0 c 10.41087,0 18.79218,8.38132 18.79218,18.79218 l 0,26.84598 c 0,10.41087 -8.38131,18.79218 -18.79218,18.79218 l -57.71884,0 c -10.41087,0 -18.79218,-8.38131 -18.79218,-18.79218 l 0,-26.84598 c 0,-10.41086 8.38131,-18.79218 18.79218,-18.79218 z" />
        <path
           inkscape:original-d="m 439.80804,436.13613 57.27909,0 c 10.33154,0 18.649,1.74591 18.649,3.9146 l 0,5.5923 c 0,2.16869 -8.31746,3.91461 -18.649,3.91461 l -57.27909,0 c -10.33154,0 -18.649,-1.74592 -18.649,-3.91461 l 0,-5.5923 c 0,-2.16869 8.31746,-3.9146 18.649,-3.9146 z"
           inkscape:path-effect="#path-effect3831"
           id="path3829"
           d="m 449.37889,444.02642 c 17.66497,-0.56813 34.45086,-0.5575 50.93026,-0.41536 5.03169,0.0434 9.54503,0.53022 12.80179,1.27449 1.62837,0.37214 2.94253,0.80887 3.84754,1.28869 0.45251,0.23991 0.80272,0.4906 1.03798,0.74963 0.23526,0.25904 0.35573,0.52637 0.34627,0.80029 -0.0651,1.88359 -0.1312,3.76668 -0.19757,5.64865 -0.01,0.27369 -0.14931,0.54076 -0.40959,0.79939 -0.26028,0.25863 -0.64103,0.50877 -1.13036,0.74786 -0.56977,0.2784 -1.28671,0.5418 -2.131,0.7858 m -6.05378,-21.35307 c 1.04685,0.12895 2.0206,0.28309 2.90546,0.45884 1.65815,0.32932 3.00411,0.73445 3.93446,1.19181 0.46517,0.22868 0.82646,0.47043 1.071,0.72228 0.24454,0.25184 0.37235,0.51381 0.37032,0.78246 -0.014,1.84736 -0.0213,3.6988 -0.0225,5.55404 -1.7e-4,0.26979 -0.1302,0.53304 -0.37765,0.78687 -0.24745,0.25383 -0.61231,0.49828 -1.08186,0.73094 -0.9391,0.46532 -2.29698,0.88353 -3.97073,1.2368 -3.3475,0.70655 -7.95568,1.15526 -13.01564,1.19481 -12.10891,0.0947 -23.99955,0.3116 -35.77625,0.56676 m 8.9674,5.72907 c -12.39497,-0.20421 -24.38558,-0.44259 -36.16551,-0.79004 -5.12222,-0.15108 -9.70525,-0.74651 -13.00932,-1.58137 -1.65203,-0.41742 -2.98437,-0.89414 -3.90254,-1.40459 -0.45909,-0.25522 -0.81462,-0.51886 -1.0542,-0.78861 -0.23957,-0.26976 -0.3633,-0.54542 -0.35705,-0.8277 0.043,-1.9411 0.0885,-3.88589 0.13578,-5.83468 0.007,-0.2834 0.14378,-0.56031 0.40052,-0.832 0.25675,-0.2717 0.63322,-0.53796 1.11753,-0.79707 0.96862,-0.51823 2.36861,-1.00772 4.10065,-1.44854 2.05422,-0.52281 4.57553,-0.97707 7.39467,-1.32776 m -7.05045,9.49518 c 0.046,-0.9721 0.0897,-1.9457 0.13134,-2.9207 0.0112,-0.26276 0.15233,-0.51896 0.41423,-0.76362 0.26189,-0.24466 0.64436,-0.47794 1.13515,-0.69717 0.98158,-0.43845 2.39636,-0.82079 4.13883,-1.13114 3.48494,-0.62071 8.27637,-0.95645 13.54356,-0.8714 19.46788,0.31433 38.47982,0.34085 57.90406,0.70949 5.25538,0.0997 10.03278,0.65441 13.5062,1.46317 0.66393,0.15459 1.28008,0.31837 1.84257,0.48984 m -70.99885,-10.47694 c 15.47548,-0.39256 31.91637,-0.59369 48.99864,-0.87835 5.53075,-0.0922 10.59183,0.25061 14.27739,0.88216 1.84277,0.31577 3.34091,0.70422 4.38438,1.14768 0.52174,0.22174 0.92978,0.45724 1.21262,0.70378 0.28284,0.24654 0.43998,0.50425 0.46716,0.76854 0.18691,1.81739 0.38076,3.6321 0.58103,5.44368 0.0291,0.26345 -0.0715,0.52022 -0.2805,0.76529 -0.20901,0.24508 -0.52692,0.47861 -0.93963,0.69741 -0.82541,0.4376 -2.03019,0.81641 -3.51762,1.11454 -1.31815,0.2642 -2.85852,0.46509 -4.55656,0.58756 m 6.66908,-4.93922 c 0.75525,0.25341 1.39991,0.51987 1.91487,0.79738 0.45678,0.24615 0.81154,0.50097 1.05088,0.76303 0.23934,0.26207 0.36334,0.53131 0.35759,0.80693 -0.0395,1.89524 -0.0672,3.77695 -0.0836,5.64563 -0.002,0.27175 -0.13454,0.53669 -0.38458,0.79205 -0.25003,0.25537 -0.61788,0.50113 -1.09059,0.73386 -0.9454,0.46546 -2.31025,0.87882 -3.98747,1.20986 -3.35446,0.66209 -7.95337,0.9893 -12.96248,0.76492 -15.18144,-0.68003 -29.69961,-2.15614 -43.87667,-4.13408 m 10.36477,3.96786 c -9.57079,0.004 -18.85714,-0.0318 -27.92327,-0.10589 -5.03664,-0.0411 -9.51205,-0.52731 -12.72454,-1.27586 -1.60624,-0.37428 -2.89739,-0.81397 -3.78398,-1.29644 -0.44329,-0.24123 -0.78545,-0.49315 -1.01394,-0.75325 -0.2285,-0.2601 -0.34361,-0.52831 -0.32871,-0.80314 0.10246,-1.88981 0.21195,-3.78116 0.32796,-5.67404 0.0169,-0.27527 0.16387,-0.54398 0.43401,-0.80486 0.27014,-0.26087 0.66312,-0.51384 1.16786,-0.75663 1.00949,-0.48557 2.46589,-0.93036 4.27162,-1.31397 3.61144,-0.76723 8.62256,-1.29015 14.21902,-1.3997 0.66916,-0.0131 1.33885,-0.0264 2.00903,-0.0398 m -11.77767,-2.44578 c 0.49477,-0.13647 1.02879,-0.26602 1.59813,-0.38764 3.43136,-0.73302 8.14208,-1.17507 13.28924,-1.11565 18.38442,0.2122 35.99414,1.1321 53.16667,2.59936 m -47.89681,1.1754 c 16.70571,0.30477 32.86519,-0.004 48.79698,-0.7138 5.05918,-0.22535 9.6024,-0.0339 12.88091,0.48056 1.63925,0.25725 2.96236,0.59573 3.87396,1.00175 0.4558,0.203 0.80873,0.42291 1.0462,0.65663 0.23747,0.23373 0.35963,0.48157 0.35184,0.73603 -0.0536,1.74972 -0.10844,3.49531 -0.16414,5.23709 -0.008,0.25329 -0.1462,0.49985 -0.40449,0.73157 -0.25828,0.23172 -0.6366,0.44892 -1.12307,0.64791 -0.97293,0.39798 -2.37844,0.72327 -4.11646,0.95636 -3.11495,0.41776 -7.29831,0.53886 -11.96218,0.26958 m 19.16644,-11.98988 c 0.29172,0.19042 0.52747,0.38429 0.70225,0.58107 0.24101,0.27135 0.36617,0.54795 0.36151,0.83104 -0.032,1.94659 -0.0562,3.88801 -0.0729,5.82509 -0.002,0.2817 -0.13471,0.55676 -0.38505,0.82571 -0.25035,0.26895 -0.61869,0.53159 -1.09235,0.78556 -0.94732,0.50794 -2.31587,0.9811 -4.00134,1.39408 -3.37094,0.82596 -8.00613,1.40802 -13.08471,1.55338 -18.77078,0.53726 -36.88885,0.91901 -54.73698,2.0214 -2.18297,0.13483 -4.2657,0.18556 -6.18163,0.16086 m 19.94642,1.27323 c -5.76803,0.0876 -11.64325,0.13526 -17.59634,0.1513 -5.0692,0.0137 -9.70154,-0.434 -13.06357,-1.15607 -1.68101,-0.36103 -3.04433,-0.79053 -3.98707,-1.26556 -0.47138,-0.23752 -0.83763,-0.48642 -1.08618,-0.74407 -0.24855,-0.25764 -0.37937,-0.52399 -0.38029,-0.79697 -0.006,-1.87713 -0.017,-3.75638 -0.0312,-5.63751 -0.002,-0.27356 0.12576,-0.54056 0.37045,-0.79921 0.24469,-0.25865 0.60626,-0.50892 1.07211,-0.74846 0.93169,-0.47907 2.28041,-0.91521 3.9463,-1.2884 3.3318,-0.74638 7.92988,-1.2419 13.01713,-1.31731 6.25324,-0.0927 12.50054,-0.19722 18.77556,-0.30387 m -22.36126,-5.02308 c 19.4296,0.48509 37.83991,0.12585 56.04443,-0.63037 5.07062,-0.21064 9.63259,0.005 12.93032,0.54128 1.64887,0.26834 2.98137,0.61726 3.90041,1.03142 0.45953,0.20707 0.81568,0.43047 1.05585,0.66709 0.24017,0.23663 0.36446,0.48675 0.35883,0.7435 -0.0387,1.76549 -0.0767,3.52858 -0.11291,5.2897 -0.005,0.25611 -0.14051,0.50552 -0.39493,0.74105 -0.25442,0.23553 -0.62794,0.45743 -1.10836,0.6623 -0.96083,0.40973 -2.3493,0.7514 -4.0637,1.00646 -0.83788,0.12465 -1.75357,0.22868 -2.73503,0.31015 m -1.58917,-4.35869 c 1.18299,0.16359 2.27624,0.35485 3.26222,0.56856 1.74666,0.37859 3.15662,0.82747 4.13239,1.31829 0.48789,0.24541 0.8672,0.5013 1.12624,0.76484 0.25903,0.26355 0.39765,0.5346 0.40623,0.81237 0.059,1.91006 0.11512,3.82857 0.16912,5.75568 0.008,0.28025 -0.11426,0.55407 -0.3517,0.82191 -0.23743,0.26784 -0.59034,0.52955 -1.04616,0.78358 -0.91164,0.50806 -2.23504,0.98523 -3.87432,1.41565 -3.27856,0.86084 -7.82272,1.53724 -12.85811,1.88558 -15.83486,1.09542 -31.65584,2.89021 -47.0227,5.497 m 24.79396,-7.28373 c -10.21255,0.48024 -20.32497,0.91376 -30.43496,1.42526 -5.30962,0.26863 -10.10289,0.0997 -13.57577,-0.39534 -1.73644,-0.24753 -3.14224,-0.57764 -4.11606,-0.97709 -0.48691,-0.19972 -0.8658,-0.41682 -1.12463,-0.6482 -0.25883,-0.23139 -0.39745,-0.4774 -0.4061,-0.72999 -0.0595,-1.73696 -0.12131,-3.46812 -0.18601,-5.19265 -0.009,-0.25079 0.11106,-0.49478 0.34615,-0.72303 0.23508,-0.22825 0.58495,-0.44112 1.03661,-0.63456 0.90334,-0.38689 2.21405,-0.69638 3.8327,-0.90615 3.04157,-0.39418 7.17075,-0.4361 11.72838,0.0127 m -13.62969,-3.84459 c 0.92899,-0.44281 2.19453,-0.85198 3.72062,-1.20801 3.37745,-0.78795 8.02887,-1.31265 13.13753,-1.37207 18.88196,-0.21962 37.24285,-0.0101 55.20328,0.12257 1.49343,0.011 2.93933,0.0624 4.31675,0.14908 m -56.11454,2.63316 c 17.10827,0.4893 34.88523,0.74998 53.09486,1.17907 5.40605,0.12739 10.32452,0.69593 13.89605,1.51046 1.78577,0.40726 3.23435,0.87541 4.24034,1.37948 0.503,0.25203 0.89533,0.51303 1.16521,0.78061 0.26989,0.26759 0.41703,0.54159 0.43419,0.82222 0.11806,1.92971 0.24005,3.86307 0.3657,5.80057 0.0183,0.28176 -0.0933,0.55702 -0.31669,0.82657 -0.22342,0.26955 -0.55901,0.5332 -0.99337,0.78917 -0.86871,0.51195 -2.1326,0.99302 -3.69455,1.42396 -1.9749,0.54488 -4.42645,1.00952 -7.16386,1.35385 m 8.1926,-13.36964 c 1.26813,0.33069 2.31089,0.6928 3.07888,1.07975 0.47962,0.24166 0.85205,0.49299 1.10544,0.75227 0.25339,0.25928 0.38766,0.52648 0.39189,0.80011 0.0291,1.88155 0.0546,3.75237 0.0769,5.61282 0.003,0.27055 -0.12352,0.53433 -0.36708,0.78829 -0.24356,0.25395 -0.60398,0.49808 -1.06901,0.72907 -0.93005,0.46199 -2.27857,0.87147 -3.94986,1.20035 -3.34259,0.65776 -7.97812,0.98876 -13.13374,0.78848 -19.05551,-0.74026 -38.32468,-2.43803 -57.43654,-4.71124 -3.40716,-0.40525 -6.59015,-0.99263 -9.32518,-1.67877 m 26.79049,1.65777 c -6.33161,0.15135 -12.64904,0.3106 -18.94985,0.49431 -5.12456,0.14942 -9.73783,-0.13392 -13.06797,-0.71902 -1.66507,-0.29256 -3.00957,-0.66115 -3.937,-1.08966 -0.46371,-0.21426 -0.82316,-0.44352 -1.06596,-0.68492 -0.24281,-0.24141 -0.36904,-0.49515 -0.36531,-0.75549 0.0257,-1.79017 0.0531,-3.57676 0.0821,-5.35935 0.004,-0.25923 0.13845,-0.51174 0.39171,-0.75123 0.25326,-0.2395 0.62547,-0.46617 1.10465,-0.6766 0.95835,-0.42085 2.3445,-0.77685 4.06044,-1.04636 3.43188,-0.53902 8.18327,-0.73165 13.46499,-0.41341 11.59271,0.69849 23.25663,1.59948 35.00559,2.79723 m -28.5121,-6.58435 c 16.57916,0.148 33.54581,-0.0684 50.9727,-0.53861 5.45965,-0.14732 10.43509,0.13037 14.05452,0.71292 1.80971,0.29127 3.27957,0.65906 4.30187,1.08718 0.51115,0.21406 0.91038,0.44321 1.18598,0.68454 0.27561,0.24133 0.42718,0.49505 0.44881,0.75537 0.14874,1.79009 0.30373,3.57749 0.46508,5.36236 0.0235,0.25957 -0.0828,0.51244 -0.29928,0.75246 -0.21643,0.24002 -0.54342,0.46739 -0.96708,0.67882 -0.84734,0.42286 -2.08165,0.78201 -3.60441,1.05746 -0.29993,0.0543 -0.61106,0.10526 -0.93265,0.15289 m -11.60921,-2.29767 c 0.28271,0.0448 0.55792,0.0915 0.8253,0.13994 1.74371,0.31611 3.15361,0.7087 4.12997,1.15628 0.48817,0.22379 0.86793,0.46135 1.12741,0.7097 0.25949,0.24835 0.39853,0.50758 0.40757,0.77348 0.0622,1.82838 0.12434,3.65874 0.18701,5.4907 0.009,0.26641 -0.11169,0.52623 -0.3473,0.77548 -0.23562,0.24925 -0.58622,0.48804 -1.03899,0.71364 -0.90555,0.4512 -2.21994,0.84973 -3.84559,1.17673 -3.25129,0.65398 -7.74861,1.02314 -12.70975,0.95179 -18.33669,-0.26373 -36.39659,-0.50421 -53.53777,-1.14101 -0.11852,-0.004 -0.23671,-0.009 -0.35454,-0.0141 m 25.09066,0.53095 c -7.89032,-0.0937 -15.84727,-0.20866 -23.85256,-0.36135 -5.17147,-0.0986 -9.85951,-0.64138 -13.25473,-1.4349 -1.69762,-0.39675 -3.07191,-0.85578 -4.02224,-1.35289 -0.47516,-0.24856 -0.84434,-0.50662 -1.09521,-0.77178 -0.25087,-0.26516 -0.38338,-0.53728 -0.38595,-0.81602 -0.0177,-1.91673 -0.0371,-3.83625 -0.0582,-5.75878 -0.003,-0.27958 0.1238,-0.55264 0.36729,-0.81926 0.2435,-0.26662 0.60368,-0.52666 1.068,-0.77814 0.92863,-0.50296 2.27379,-0.9716 3.93668,-1.38596 3.32578,-0.82871 7.92167,-1.44074 13.00625,-1.66834 8.38741,-0.37544 16.75886,-0.82901 25.13651,-1.38075"
           style="fill:none;stroke:#ffffff;stroke-width:0.45466831;stroke-opacity:1" />
        <g
           id="g3841"
           transform="matrix(0.79562006,0,0,0.79562006,70.938154,64.577691)">
          <path
             inkscape:original-d="m 284.56732,461.75075 c 0,0 -9.39609,-65.77264 24.16138,-65.77264 33.55746,0 22.81907,67.11494 22.81907,67.11494 l -46.98045,-1.3423 z"
             inkscape:path-effect="#path-effect3835"
             id="path3833"
             d="m 286.93423,463.15384 c -0.0426,-1.18891 -0.0814,-2.50466 -0.11061,-3.92214 -0.13059,-6.34435 -0.0958,-14.7076 0.82086,-22.96934 0.45833,-4.13087 1.14328,-8.2405 2.16954,-12.08003 1.02626,-3.83952 2.39484,-7.40949 4.22106,-10.4614 1.82622,-3.05191 4.111,-5.58601 6.95534,-7.34756 2.84433,-1.76155 6.24724,-2.74973 10.29336,-2.70658 3.03122,0.0323 5.68583,0.64701 8.00246,1.73569 m -19.87298,-9.17791 c 2.83301,-1.75718 6.2238,-2.76945 10.27132,-2.80137 4.16996,-0.0329 7.68132,1.00585 10.62451,2.84059 2.9432,1.83474 5.32046,4.46681 7.24386,7.63524 1.9234,3.16842 3.39391,6.87383 4.52097,10.85474 1.12707,3.98091 1.91082,8.23736 2.45055,12.50253 0.67048,5.29837 0.96439,10.60995 1.05377,15.4153 m -6.90886,-9.70318 c 0.005,0.0998 0.01,0.19958 0.0147,0.29938 0.39582,8.24213 -0.0339,16.46276 -0.55169,22.60684 -0.2589,3.07203 -0.54297,5.62651 -0.76456,7.41397 -0.1108,0.89373 -0.20591,1.59576 -0.27361,2.07493 -0.0338,0.23959 -0.0608,0.42346 -0.0794,0.54769 -0.009,0.0621 -0.0165,0.10932 -0.0214,0.14112 -0.002,0.0159 -0.004,0.028 -0.006,0.0361 -0.001,0.008 -0.002,0.0124 -0.002,0.0126 0,1e-5 0,1e-5 0,1e-5 -13.43779,-0.77089 -26.59033,-1.67878 -39.74396,-2.8344 m 22.27,3.24511 c -7.33826,0.0386 -14.80638,-0.01 -22.34755,-0.10455 0,0 0,0 0,-10e-6 -0.001,-0.008 -0.50365,-4.05307 -0.78386,-10.14681 -0.28022,-6.09375 -0.34669,-14.2414 0.63687,-22.37741 0.49177,-4.06801 1.24846,-8.13156 2.3786,-11.93044 1.13013,-3.79889 2.63365,-7.33326 4.61528,-10.34529 1.98164,-3.01204 4.44006,-5.5029 7.48634,-7.20765 1.36815,-0.76563 2.8551,-1.37249 4.47271,-1.79498 m -26.86253,46.61155 c -0.0282,-0.30887 -0.0557,-0.62334 -0.0824,-0.94312 -0.52741,-6.31692 -0.70277,-14.6988 0.42431,-23.05866 0.56354,-4.17993 1.44535,-8.35623 2.73062,-12.27399 1.28527,-3.91777 2.97227,-7.57698 5.14457,-10.72314 2.1723,-3.14616 4.82723,-5.77865 8.08056,-7.6481 3.25333,-1.86945 7.1054,-2.97523 11.72764,-3.08355 4.62227,-0.10833 8.51326,0.83625 11.82931,2.55773 1.48035,0.7685 2.84652,1.69166 4.11213,2.74465 m -20.43397,1.39583 c 1.69979,-0.4193 3.55952,-0.62921 5.59415,-0.60246 4.11867,0.0541 7.61083,1.08689 10.54906,2.87061 2.93824,1.78372 5.32633,4.31402 7.27896,7.31723 1.95263,3.0032 3.47171,6.47721 4.67023,10.15214 1.19853,3.67494 2.07691,7.55032 2.73033,11.3783 1.30683,7.65595 1.72293,15.10781 1.82578,20.62077 0.0109,0.58255 0.0181,1.14364 0.0224,1.68133 m -6.62505,-13.5983 c -0.0224,5.76637 -0.3125,11.20948 -0.6384,15.61293 -0.23189,3.13318 -0.48409,5.74039 -0.68083,7.5656 -0.0984,0.91261 -0.18286,1.62973 -0.24315,2.11925 -0.0301,0.24476 -0.0542,0.43263 -0.0708,0.55956 -0.008,0.0635 -0.0147,0.1117 -0.0191,0.14419 -0.002,0.0163 -0.004,0.0286 -0.005,0.0369 -0.001,0.008 -0.002,0.0126 -0.002,0.0129 0,0 -10e-6,10e-6 -10e-6,10e-6 -15.31341,-0.56439 -29.99079,-1.2384 -44.33932,-2.01984 0,0 0,0 0,-10e-6 -1.7e-4,-0.003 -0.0304,-0.5286 -0.0608,-1.48513 m 20.28936,-2.07397 c -4.98442,-0.195 -10.0347,-0.33286 -15.14375,-0.41695 0,0 0,0 0,-10e-6 -0.001,-0.008 -0.59188,-4.08672 -1.06652,-10.09359 -0.47464,-6.00687 -0.85473,-13.92171 -0.32456,-21.68978 0.26509,-3.88404 0.76178,-7.73502 1.60815,-11.31184 0.70919,-2.99709 1.66448,-5.80233 2.93361,-8.27241 m -7.18283,46.70302 c -0.0251,-0.58376 -0.0486,-1.19243 -0.07,-1.82391 -0.20531,-6.06963 -0.22623,-14.26746 0.68222,-22.61801 0.45422,-4.17527 1.14499,-8.38426 2.18296,-12.35971 1.03798,-3.97545 2.42391,-7.71632 4.26917,-10.95454 1.84526,-3.23821 4.15062,-5.97216 7.01649,-7.95354 2.86588,-1.98138 6.29172,-3.21044 10.36337,-3.47259 4.07167,-0.26214 7.46645,0.54852 10.27854,2.13993 2.8121,1.59142 5.04017,3.96067 6.78633,6.82509 0.0875,0.14359 0.17386,0.28844 0.25899,0.43449 M 307.4598,391.7072 c 1.01825,-0.0972 2.08541,-0.12411 3.20386,-0.0755 4.13081,0.1796 7.61512,1.3559 10.53538,3.30732 2.92026,1.95142 5.2789,4.67673 7.18724,7.92667 1.90835,3.24995 3.36772,7.02339 4.48942,11.06293 1.1217,4.03953 1.90603,8.34521 2.45294,12.65943 1.09384,8.62845 1.24409,17.30639 1.12973,23.87581 -0.0572,3.28472 -0.1824,6.03837 -0.29435,7.97204 -0.056,0.96683 -0.10861,1.72851 -0.14739,2.24884 -0.0194,0.26017 -0.0353,0.46001 -0.0464,0.59505 -0.006,0.0675 -0.01,0.11885 -0.0129,0.15343 -0.001,0.0173 -0.003,0.0304 -0.003,0.0393 -7.7e-4,0.009 -0.001,0.0134 -0.001,0.0137 0,10e-6 0,10e-6 0,10e-6 -2.58868,0.0748 -5.17146,0.16415 -7.74949,0.2708 m 4.92827,-15.19213 c 0.0177,2.15589 -0.0208,4.1801 -0.0907,6.02312 -0.12062,3.17921 -0.33436,5.81941 -0.51542,7.66676 -0.0905,0.92367 -0.17296,1.64912 -0.23254,2.14428 -0.0298,0.24757 -0.0539,0.43757 -0.0705,0.56595 -0.008,0.0642 -0.0148,0.11296 -0.0192,0.14582 -0.002,0.0164 -0.004,0.0289 -0.005,0.0373 -0.001,0.008 -0.002,0.0128 -0.002,0.013 0,10e-6 -10e-6,10e-6 -10e-6,10e-6 -15.32966,-0.39083 -31.19658,-0.99747 -47.09543,-1.6748 0,0 0,0 0,-10e-6 -0.001,-0.008 -0.65521,-4.1834 -1.10135,-10.45129 -0.17974,-2.52521 -0.32496,-5.39004 -0.37544,-8.45768 m -3.94858,11.95987 c -0.11977,-1.70267 -0.29618,-4.68518 -0.39711,-8.49578 -0.16133,-6.09042 -0.15262,-14.31495 0.76809,-22.67898 0.46036,-4.18202 1.15436,-8.39436 2.19624,-12.36863 1.04189,-3.97427 2.43248,-7.70946 4.28545,-10.9378 1.85298,-3.22834 4.16877,-5.94854 7.05037,-7.91101 2.8816,-1.96247 6.32771,-3.16791 10.4353,-3.39252 4.10761,-0.22461 7.54274,0.62552 10.40329,2.26171 0.58544,0.33486 1.14684,0.70264 1.68509,1.10088 m -24.03729,6.43208 c 3.06315,-1.72802 6.67386,-2.67554 10.94817,-2.56341 4.3231,0.11341 7.92156,1.29512 10.9308,3.28644 3.00924,1.99132 5.42862,4.79546 7.37686,8.17265 1.94824,3.37718 3.42471,7.32837 4.54226,11.60203 1.11756,4.27366 1.87637,8.87022 2.38696,13.51698 1.02119,9.29352 1.06515,18.81294 0.89854,26.07179 -0.0351,1.52993 -0.0804,2.95812 -0.12989,4.25958 m 4.53855,-28.21975 c -0.001,6.66484 -0.44967,13.01189 -0.96405,18.07552 -0.33492,3.29703 -0.69776,6.04904 -0.97814,7.97874 -0.1402,0.96485 -0.25969,1.724 -0.34426,2.24243 -0.0423,0.25921 -0.0759,0.45825 -0.0989,0.59274 -0.0115,0.0673 -0.0204,0.11836 -0.0264,0.15279 -0.003,0.0172 -0.005,0.0303 -0.007,0.0391 -0.002,0.009 -0.002,0.0134 -0.002,0.0137 0,0 0,1e-5 0,1e-5 -15.64557,0.34388 -31.27204,0.8577 -47.24189,2.0041 m 18.55037,-5.63073 c -5.80768,-0.32665 -11.66757,-0.5989 -17.5762,-0.83126 0,0 0,-10e-6 0,-10e-6 -0.001,-0.008 -0.62663,-4.1755 -1.11281,-10.36804 -0.48617,-6.19253 -0.8471,-14.40076 -0.26012,-22.57321 0.29349,-4.08623 0.82646,-8.1657 1.71236,-11.98823 0.8859,-3.82252 2.12568,-7.38836 3.82976,-10.44486 0.75841,-1.36031 1.60865,-2.61968 2.55928,-3.75559 m -8.95348,56.99195 c -0.16023,-1.44817 -0.32339,-3.17064 -0.4561,-5.10239 -0.41282,-6.00893 -0.51304,-14.05075 0.5795,-22.09993 0.54626,-4.02459 1.38659,-8.04928 2.6124,-11.81606 1.22582,-3.76678 2.83608,-7.27577 4.92215,-10.26876 2.08606,-2.99298 4.64633,-5.47086 7.79247,-7.16757 3.14613,-1.6967 6.87845,-2.61299 11.34228,-2.461 4.46385,0.152 8.20913,1.34475 11.37505,3.33542 2.19123,1.37781 4.10573,3.13847 5.78754,5.20249 m -23.15819,-8.18523 c 2.07785,-0.62429 4.3673,-0.9528 6.88996,-0.93702 4.25494,0.0266 7.79233,1.04885 10.73689,2.82927 2.94457,1.78041 5.29527,4.31548 7.16176,7.33243 1.8665,3.01696 3.24814,6.51418 4.25292,10.22305 1.00478,3.70887 1.63266,7.62899 1.99479,11.50996 0.72424,7.76194 0.38869,15.35447 -0.11616,20.9836 -0.25242,2.81457 -0.5479,5.1421 -0.78018,6.76826 -0.11614,0.81309 -0.21653,1.45083 -0.288,1.88595 -0.0357,0.21755 -0.0642,0.38445 -0.0839,0.49719 -0.01,0.0564 -0.0174,0.0992 -0.0226,0.12807 -0.003,0.0144 -0.005,0.0254 -0.006,0.0328 -0.001,0.007 -0.002,0.0112 -0.002,0.0114 -1e-5,10e-6 -1e-5,10e-6 -1e-5,10e-6 -3.67826,-0.53588 -7.3511,-1.0935 -11.01588,-1.67011 m 10.9625,-15.85314 c -0.0794,2.50269 -0.20792,4.85138 -0.35631,6.97012 -0.22593,3.22585 -0.49787,5.91876 -0.71363,7.80658 -0.10788,0.94391 -0.20173,1.68648 -0.26874,2.19355 -0.0335,0.25353 -0.0603,0.4482 -0.0788,0.57973 -0.009,0.0658 -0.0164,0.11576 -0.0212,0.14944 -0.002,0.0168 -0.004,0.0296 -0.006,0.0382 -0.001,0.009 -0.002,0.0131 -0.002,0.0134 -1e-5,10e-6 -1e-5,10e-6 -1e-5,10e-6 -15.54232,-0.005 -30.98483,0.13087 -46.29107,0.65497 0,0 0,0 -10e-6,-10e-6 -9.9e-4,-0.008 -0.49872,-3.8784 -0.69094,-9.59085 -0.19222,-5.71245 -0.0732,-13.24908 1.14769,-20.60311 0.0321,-0.19314 0.0649,-0.38616 0.0985,-0.57904"
             style="fill:none;stroke:#ffffff;stroke-width:1px;stroke-linecap:butt;stroke-linejoin:miter;stroke-opacity:1" />
          <path
             inkscape:path-effect="#path-effect3839"
             transform="matrix(0.67269831,0,0,0.87201638,308.66794,72.60235)"
             d="m 10.276823,341.3015 c -1.1434773,2.58269 -2.9674946,4.89963 -5.2965199,6.81826 -4.18022756,3.44363 -9.9884811,5.60117 -16.4140041,5.69184 -6.425523,0.0907 -12.249704,-1.89786 -16.454321,-5.14986 -4.204618,-3.252 -6.791885,-7.76915 -6.740628,-12.75514 0.05126,-4.98599 2.734086,-9.49747 7.06006,-12.73542 1.614788,-1.20865 3.458455,-2.23972 5.479525,-3.051 m -3.458313,21.22451 c 0.405247,-4.35039 2.781672,-8.24141 6.459189,-11.16804 4.217317,-3.3562 10.1540999,-5.43986 16.845345,-5.47195 6.6912451,-0.0321 12.867352,1.99076 17.451171,5.26962 4.583819,3.27885 7.562123,7.81435 7.973125,12.82094 0.223381,2.7211 -0.327955,5.30149 -1.474576,7.61519 m 1.935335,-7.52762 c -1.055113,1.55777 -2.38147,2.98185 -3.932507,4.23481 -4.269496,3.44898 -10.2408028,5.59984 -16.9568763,5.66283 -6.7160735,0.063 -12.9059897,-1.96917 -17.5102657,-5.27242 -4.604277,-3.30326 -7.606813,-7.87667 -8.05989,-12.93294 -0.453076,-5.05628 1.697944,-9.64354 5.335632,-12.98111 0.723713,-0.66401 1.506625,-1.27845 2.340404,-1.83705 m -17.193964,25.42353 c 0.543831,-4.52835 3.10153,-8.57612 6.98612,-11.62036 4.371823,-3.42607 10.424533,-5.57358 17.1922689,-5.66923 6.7677355,-0.0956 12.9717693,1.87368 17.5753325,5.09847 4.6035636,3.2248 7.5913066,7.7086 8.0210906,12.64994 0.429783,4.94134 -1.750948,9.40235 -5.426295,12.57068 -3.3458322,2.88427 -7.9377597,4.69847 -12.97411277,4.81692 M 14.364023,349.09919 c -1.14406,1.80989 -2.656063,3.44601 -4.4574077,4.84709 -4.231991,3.29163 -10.06122228,5.28587 -16.4641115,5.17862 -6.4028888,-0.10725 -12.1666248,-2.29541 -16.2983148,-5.75506 -4.131689,-3.45965 -6.636686,-8.18262 -6.486491,-13.4203 0.150195,-5.23769 2.937376,-10.0147 7.390966,-13.6082 3.227074,-2.60384 7.327618,-4.58399 11.924475,-5.65172 m -15.326801,15.86697 c 1.255773,-2.50609 3.254801,-4.76684 5.785925,-6.62482 4.291466,-3.15016 10.1102729,-5.14627 16.4013466,-5.25128 6.2910738,-0.105 11.8650449,1.7053 15.7815654,4.73063 3.91652,3.02533 6.189945,7.27624 5.763654,11.94719 -0.42629,4.67095 -3.501936,8.85263 -8.311602,11.70652 -0.5573863,0.33073 -1.13793,0.64375 -1.740111,0.93783 m 8.431441,-5.13952 c -0.552888,4.43801 -3.074525,8.38811 -6.8541017,11.30115 -4.2480168,3.27407 -10.08245536,5.23319 -16.4785581,5.07012 -6.3961022,-0.16308 -12.1433202,-2.41642 -16.2577652,-5.93964 -4.114445,-3.52322 -6.601707,-8.30654 -6.433565,-13.60895 0.121108,-3.81919 1.608473,-7.39602 4.101619,-10.46811 m -6.514563,9.91216 c -0.738679,-1.79606 -1.111679,-3.73675 -1.044778,-5.7664 0.162877,-4.9413 2.911401,-9.46647 7.270265,-12.80206 4.358865,-3.33559 10.32039,-5.48729 16.8870754,-5.70539 6.5666856,-0.21809 12.4997887,1.53964 16.8151269,4.53729 3.8921177,2.70366 6.4651637,6.42206 6.9961877,10.56026 M 7.3350369,323.63485 c 0.3134454,0.20758 0.6192207,0.423 0.916903,0.64589 4.0714571,3.0486 6.6233331,7.48858 6.6016401,12.48262 -0.02169,4.99405 -2.612655,9.59808 -6.756618,13.05299 -4.1439627,3.4549 -9.8358248,5.76722 -16.0482343,6.1923 -6.2124097,0.42509 -11.7709977,-1.11954 -15.7108637,-3.91751 -3.939865,-2.79797 -6.270383,-6.86442 -5.940298,-11.35154 0.228262,-3.10294 1.707834,-5.98689 4.130294,-8.35458 m 40.609493,21.99981 c -1.250448,2.92285 -3.441727,5.51343 -6.2869502,7.54064 -4.3408047,3.0928 -10.1992316,4.87657 -16.5213335,4.52342 -6.3221023,-0.35315 -11.9143243,-2.78135 -15.8474613,-6.4851 -3.933136,-3.70375 -6.22042,-8.66391 -5.813122,-14.18747 0.407298,-5.52356 3.461799,-10.59877 8.236802,-14.58746 4.176289,-3.48856 9.662538,-6.13793 15.7857949,-7.48415 m -22.0614949,13.3153 c 1.236575,-2.93044 3.320662,-5.54013 6.00983,-7.64205 4.328731,-3.38343 10.22269,-5.44783 16.6516689,-5.38949 6.4289788,0.0583 12.1783741,2.22488 16.2857181,5.66708 4.107343,3.4422 6.578512,8.15341 6.390638,13.37235 -0.187874,5.21894 -3.013362,9.97381 -7.502393,13.52412 -1.8859003,1.49153 -4.0646103,2.76954 -6.4611516,3.77586"
             sodipodi:ry="18.121033"
             sodipodi:rx="23.490227"
             sodipodi:cy="340.27274"
             sodipodi:cx="-3.3557467"
             id="path3837"
             style="fill:none;stroke:#ffffff;stroke-width:2;stroke-linecap:butt;stroke-linejoin:miter;stroke-miterlimit:4;stroke-opacity:1;stroke-dasharray:none"
             sodipodi:type="arc" />
        </g>
        <path
           inkscape:original-d="m 232.21767,461.75075 c 0,0 -9.39609,-65.77264 24.16138,-65.77264 33.55746,0 22.81907,67.11494 22.81907,67.11494 l -46.98045,-1.3423 z"
           inkscape:path-effect="#path-effect3857"
           id="path3847"
           d="m 232.82599,457.49038 c -0.13139,-1.11951 -0.26357,-2.36078 -0.38637,-3.70116 -0.54964,-5.99931 -0.90318,-13.98484 -0.2137,-21.90546 0.34474,-3.96031 0.94856,-7.90435 1.91342,-11.5793 0.96485,-3.67494 2.291,-7.08149 4.08003,-9.9666 1.78902,-2.88511 4.04221,-5.25076 6.84904,-6.82365 2.80683,-1.5729 6.16817,-2.35385 10.14294,-2.02499 2.97777,0.24637 5.57398,1.06863 7.82324,2.37223 m -15.42413,-6.07451 c 2.82379,-1.80185 6.1929,-2.86844 10.19253,-2.9825 4.12061,-0.11751 7.57086,0.83422 10.44118,2.57164 2.87031,1.73742 5.16127,4.26043 6.97473,7.29464 1.81345,3.03422 3.14986,6.57994 4.11404,10.36935 0.96419,3.7894 1.55609,7.82228 1.88067,11.83629 0.40321,4.98639 0.39304,9.94207 0.17814,14.38739 m -5.03219,-6.02932 c 0.0129,0.10373 0.0255,0.20745 0.038,0.31114 1.03267,8.56391 0.8938,16.93647 0.49762,23.14822 -0.1981,3.10588 -0.45932,5.67518 -0.66994,7.47066 -0.10531,0.89774 -0.19803,1.60201 -0.26441,2.08256 -0.0332,0.24028 -0.0598,0.42462 -0.0781,0.54916 -0.009,0.0623 -0.0163,0.10958 -0.0211,0.14146 -0.002,0.0159 -0.004,0.028 -0.006,0.0362 -0.001,0.008 -0.002,0.0124 -0.002,0.0126 0,10e-6 0,10e-6 0,10e-6 -13.41709,-0.7405 -26.94449,-1.80498 -40.36372,-3.04697 m 28.07788,-1.73237 c -7.57262,0.0566 -15.24318,-0.0435 -22.99332,-0.2561 -2.6e-4,3e-5 -5.2e-4,6e-5 -7.9e-4,8e-5 0,0 0,0 0,-1e-5 -0.001,-0.008 -0.61348,-4.1098 -1.07288,-10.34633 -0.45941,-6.23653 -0.7783,-14.62423 -0.12431,-23.08542 0.327,-4.23059 0.89961,-8.47608 1.83053,-12.46634 0.93092,-3.99025 2.22088,-7.7246 3.97897,-10.93823 1.75809,-3.21363 3.98528,-5.90619 6.77378,-7.82681 1.22683,-0.845 2.56198,-1.5408 4.01188,-2.0667 m -23.47119,53.9097 c -0.0112,-0.28741 -0.0219,-0.58043 -0.0321,-0.87885 -0.20078,-5.89496 -0.19831,-13.93083 0.76206,-22.19208 0.48018,-4.13063 1.20335,-8.30994 2.27809,-12.26568 1.07474,-3.95575 2.50156,-7.68653 4.38976,-10.91842 1.8882,-3.23188 4.23815,-5.96323 7.15311,-7.94192 2.91496,-1.97868 6.39437,-3.20552 10.53586,-3.46013 4.14151,-0.25461 7.59983,0.56703 10.47756,2.17537 1.28468,0.71799 2.45364,1.59257 3.51632,2.59848 m -16.68064,-5.22034 c 1.81623,-0.45618 3.7809,-0.68966 5.90665,-0.66757 4.30312,0.0447 7.87087,1.14231 10.84046,3.03378 2.96959,1.89146 5.33935,4.57777 7.22121,7.80531 1.88185,3.22754 3.27471,6.9966 4.28711,11.04956 1.0124,4.05296 1.64427,8.39002 2.00888,12.74627 0.72922,8.71249 0.39534,17.51224 -0.0996,24.16203 -0.0523,0.70268 -0.10649,1.38122 -0.16155,2.03288 m -1.92677,-12.13935 c -0.0811,5.74607 -0.5293,11.14068 -1.03685,15.48935 -0.36114,3.0942 -0.75179,5.66004 -1.05311,7.45405 -0.15066,0.89701 -0.27889,1.6011 -0.36953,2.08159 -0.0453,0.24025 -0.0812,0.42459 -0.10587,0.54913 -0.0123,0.0623 -0.0218,0.10959 -0.0283,0.14147 -0.003,0.0159 -0.006,0.028 -0.007,0.0362 -0.002,0.008 -0.003,0.0124 -0.003,0.0126 0,10e-6 0,10e-6 0,10e-6 -16.29266,-0.85576 -32.71114,-2.04293 -49.66007,-3.5954 -0.003,-0.002 -0.005,-0.005 -0.008,-0.007 0,0 0,0 0,-10e-6 -6.4e-4,-0.003 -0.10834,-0.51528 -0.2865,-1.45164 m 20.65515,-2.38595 c -5.32029,0.01 -10.60904,-0.0514 -15.8825,-0.17191 -0.001,1.6e-4 -0.002,3.2e-4 -0.004,4.8e-4 -1e-5,0 -1e-5,-10e-6 -1e-5,-2e-5 -0.001,-0.008 -0.74016,-4.09026 -1.30558,-10.32037 -0.56542,-6.23012 -0.95527,-14.62911 -0.34987,-23.14303 0.3027,-4.25696 0.85291,-8.53849 1.75358,-12.57289 0.74657,-3.34411 1.73424,-6.51798 3.02263,-9.36873 m -13.75347,43.4628 c -0.0171,-0.611 -0.0322,-1.24605 -0.0444,-1.90252 -0.11721,-6.30988 0.0139,-14.57132 1.15602,-22.62263 0.57107,-4.02565 1.39801,-8.00493 2.58616,-11.69547 1.18816,-3.69054 2.73754,-7.09376 4.75416,-9.9684 2.01662,-2.87464 4.49953,-5.22285 7.56236,-6.77698 3.06282,-1.55413 6.70455,-2.31382 11.06251,-1.96698 4.35799,0.34684 8.01738,1.70876 11.10698,3.86352 3.08959,2.15477 5.61114,5.10622 7.69667,8.61921 0.10455,0.1761 0.208,0.35361 0.31037,0.53249 m -21.53433,-7.93318 c 1.02603,-0.12666 2.09956,-0.18394 3.22265,-0.16685 4.14793,0.0631 7.62269,1.14365 10.51925,2.99881 2.89656,1.85516 5.21562,4.48361 7.0631,7.62395 1.84747,3.14034 3.22383,6.79176 4.2365,10.69135 1.01267,3.89958 1.66169,8.04721 2.05222,12.1852 0.78105,8.27599 0.52663,16.51357 0.0703,22.68884 -0.22818,3.08763 -0.50654,5.65981 -0.72823,7.46154 -0.11084,0.90086 -0.20749,1.60907 -0.27649,2.09258 -0.0345,0.24176 -0.0621,0.42734 -0.0811,0.55273 -0.01,0.0627 -0.0169,0.11035 -0.0219,0.14245 -0.002,0.0161 -0.004,0.0282 -0.006,0.0364 -0.001,0.008 -0.002,0.0125 -0.002,0.0127 0,0 0,10e-6 0,10e-6 -2.75791,-0.13251 -5.51718,-0.26497 -8.27853,-0.39632 m 11.92406,-22.86208 c -0.17918,2.21736 -0.3846,4.29653 -0.59599,6.18823 -0.36466,3.26317 -0.7475,5.9689 -1.04088,7.86175 -0.14668,0.94642 -0.27091,1.68954 -0.35867,2.19675 -0.0439,0.2536 -0.0786,0.44822 -0.10246,0.57971 -0.0119,0.0657 -0.0211,0.1157 -0.0273,0.14936 -0.003,0.0168 -0.005,0.0296 -0.007,0.0382 -0.002,0.009 -0.002,0.0131 -0.003,0.0134 0,10e-6 0,10e-6 0,10e-6 -16.19364,-0.0137 -32.25887,-0.29744 -48.64353,-0.40157 -0.002,7.3e-4 -0.003,0.001 -0.005,0.002 0,0 -1e-5,-10e-6 -1e-5,-10e-6 -0.002,-0.008 -0.7683,-4.04074 -1.47477,-10.03291 -0.28147,-2.38743 -0.55495,-5.0847 -0.77117,-7.95805 m 5.19892,12.49864 c -0.12734,-1.7865 -0.3172,-4.89784 -0.43791,-8.76598 -0.19292,-6.18238 -0.23286,-14.27235 0.62086,-22.13838 0.42686,-3.93301 1.08295,-7.81617 2.08383,-11.41063 1.00089,-3.59446 2.34757,-6.90192 4.15491,-9.68253 1.80734,-2.78061 4.07622,-5.03713 6.90603,-6.49449 2.82981,-1.45737 6.21936,-2.11506 10.25215,-1.64005 4.03281,0.475 7.39896,1.95004 10.18718,4.22028 0.57064,0.46463 1.11708,0.96262 1.64014,1.4922 m -26.5729,4.83635 c 2.8962,-1.69197 6.37711,-2.62081 10.56135,-2.51735 4.23199,0.10465 7.80795,1.25284 10.82384,3.19564 3.01588,1.94281 5.475,4.68141 7.49951,7.9684 2.02451,3.28699 3.61563,7.12252 4.88762,11.25143 1.27198,4.12891 2.22515,8.55145 2.9553,13.00202 1.46028,8.90115 2.04362,17.93189 2.29449,24.78453 0.0529,1.4443 0.0902,2.79095 0.11606,4.01706 m -1.16065,-25.69273 c 0.24976,6.64985 0.0811,12.8986 -0.17696,17.84267 -0.16802,3.21917 -0.37603,5.88645 -0.54328,7.75199 -0.0836,0.93277 -0.1571,1.66501 -0.20996,2.16477 -0.0264,0.24988 -0.0477,0.44162 -0.0624,0.57117 -0.007,0.0648 -0.0131,0.114 -0.017,0.14716 -0.002,0.0166 -0.003,0.0292 -0.004,0.0376 -0.001,0.008 -0.002,0.0129 -0.002,0.0131 0,1e-5 0,2e-5 0,2e-5 -14.66172,-0.24219 -28.87445,-0.77144 -42.62119,-1.1433 m 18.34363,-12.07337 c -6.08156,-0.45898 -12.14859,-0.79389 -18.22349,-1.03168 -0.001,-4.1e-4 -0.003,-8.1e-4 -0.004,-0.001 0,0 0,0 0,-1e-5 -0.002,-0.008 -0.74911,-4.18818 -1.36984,-10.31872 -0.62073,-6.13053 -1.1203,-14.18699 -0.68116,-22.12397 0.21958,-3.9685 0.67396,-7.91232 1.47207,-11.5927 0.7981,-3.68038 1.94107,-7.0983 3.53755,-10.00891 0.69527,-1.26757 1.47644,-2.43876 2.35102,-3.49229 m -8.40662,61.10819 c -0.20348,-1.46043 -0.41741,-3.19448 -0.60642,-5.13351 -0.58793,-6.03157 -0.91288,-14.04394 -0.0805,-21.97494 0.41618,-3.96551 1.11674,-7.91135 2.19486,-11.58611 1.07812,-3.67476 2.53324,-7.0792 4.4583,-9.96169 1.92506,-2.8825 4.32008,-5.24501 7.2823,-6.81486 2.96223,-1.56985 6.49282,-2.34766 10.68528,-2.01641 4.19249,0.33125 7.68377,1.68604 10.5796,3.84275 2.00429,1.49273 3.72313,3.37076 5.18887,5.56041 m -19.41274,-11.41624 c 2.07448,-0.65774 4.35234,-1.01155 6.85001,-1.0096 4.21281,0.003 7.68563,1.03977 10.54785,2.85396 2.86223,1.81419 5.11054,4.40505 6.84167,7.50687 1.73114,3.10183 2.94359,6.71414 3.73832,10.57277 0.79474,3.85863 1.17138,7.96346 1.24822,12.05601 0.15367,8.1851 -0.90452,16.31669 -2.02662,22.39501 -0.56105,3.03915 -1.13434,5.56629 -1.56634,7.33506 -0.216,0.88438 -0.39668,1.57917 -0.52331,2.05342 -0.0633,0.23713 -0.11313,0.41912 -0.14716,0.54208 -0.017,0.0615 -0.0301,0.10821 -0.039,0.13969 -0.004,0.0157 -0.008,0.0277 -0.0101,0.0357 -0.002,0.008 -0.003,0.0122 -0.004,0.0125 -10e-6,10e-6 -10e-6,10e-6 -10e-6,10e-6 -4.08883,-0.24521 -8.19909,-0.4979 -12.32838,-0.75738 m 16.94629,-16.28317 c -0.0861,2.53516 -0.21931,4.9078 -0.371,7.04422 -0.23096,3.25277 -0.50472,5.95827 -0.72126,7.85284 -0.10827,0.94728 -0.20225,1.69175 -0.26932,2.19999 -0.0335,0.25412 -0.0603,0.44918 -0.0788,0.58098 -0.009,0.0659 -0.0164,0.11598 -0.0212,0.14972 -0.002,0.0169 -0.004,0.0297 -0.006,0.0383 -0.001,0.009 -0.002,0.0131 -0.002,0.0134 0,1e-5 0,1e-5 0,1e-5 -15.54241,0.0252 -30.9334,-0.0255 -46.16994,0.23272 9e-4,0.002 0.002,0.003 0.003,0.005 0,0 0,-1e-5 0,-1e-5 -9.6e-4,-0.008 -0.48029,-3.94755 -0.64224,-9.77547 -0.16195,-5.82792 -4.3e-4,-13.52828 1.26245,-21.04524 0.0281,-0.16715 0.0567,-0.33421 0.0859,-0.50116"
           style="fill:none;stroke:#ffffff;stroke-width:1px;stroke-linecap:butt;stroke-linejoin:miter;stroke-opacity:1" />
        <path
           inkscape:path-effect="#path-effect3839"
           transform="matrix(0.67269831,0,0,0.87201638,256.31829,72.60235)"
           d="m 10.276823,341.3015 c -1.1434773,2.58269 -2.9674946,4.89963 -5.2965199,6.81826 -4.18022756,3.44363 -9.9884811,5.60117 -16.4140041,5.69184 -6.425523,0.0907 -12.249704,-1.89786 -16.454321,-5.14986 -4.204618,-3.252 -6.791885,-7.76915 -6.740628,-12.75514 0.05126,-4.98599 2.734086,-9.49747 7.06006,-12.73542 1.614788,-1.20865 3.458455,-2.23972 5.479525,-3.051 m -3.458313,21.22451 c 0.405247,-4.35039 2.781672,-8.24141 6.459189,-11.16804 4.217317,-3.3562 10.1540999,-5.43986 16.845345,-5.47195 6.6912451,-0.0321 12.867352,1.99076 17.451171,5.26962 4.583819,3.27885 7.562123,7.81435 7.973125,12.82094 0.223381,2.7211 -0.327955,5.30149 -1.474576,7.61519 m 1.935335,-7.52762 c -1.055113,1.55777 -2.38147,2.98185 -3.932507,4.23481 -4.269496,3.44898 -10.2408028,5.59984 -16.9568763,5.66283 -6.7160735,0.063 -12.9059897,-1.96917 -17.5102657,-5.27242 -4.604277,-3.30326 -7.606813,-7.87667 -8.05989,-12.93294 -0.453076,-5.05628 1.697944,-9.64354 5.335632,-12.98111 0.723713,-0.66401 1.506625,-1.27845 2.340404,-1.83705 m -17.193964,25.42353 c 0.543831,-4.52835 3.10153,-8.57612 6.98612,-11.62036 4.371823,-3.42607 10.424533,-5.57358 17.1922689,-5.66923 6.7677355,-0.0956 12.9717693,1.87368 17.5753325,5.09847 4.6035636,3.2248 7.5913066,7.7086 8.0210906,12.64994 0.429783,4.94134 -1.750948,9.40235 -5.426295,12.57068 -3.3458322,2.88427 -7.9377597,4.69847 -12.97411277,4.81692 M 14.364023,349.09919 c -1.14406,1.80989 -2.656063,3.44601 -4.4574077,4.84709 -4.231991,3.29163 -10.06122228,5.28587 -16.4641115,5.17862 -6.4028888,-0.10725 -12.1666248,-2.29541 -16.2983148,-5.75506 -4.131689,-3.45965 -6.636686,-8.18262 -6.486491,-13.4203 0.150195,-5.23769 2.937376,-10.0147 7.390966,-13.6082 3.227074,-2.60384 7.327618,-4.58399 11.924475,-5.65172 m -15.326801,15.86697 c 1.255773,-2.50609 3.254801,-4.76684 5.785925,-6.62482 4.291466,-3.15016 10.1102729,-5.14627 16.4013466,-5.25128 6.2910738,-0.105 11.8650449,1.7053 15.7815654,4.73063 3.91652,3.02533 6.189945,7.27624 5.763654,11.94719 -0.42629,4.67095 -3.501936,8.85263 -8.311602,11.70652 -0.5573863,0.33073 -1.13793,0.64375 -1.740111,0.93783 m 8.431441,-5.13952 c -0.552888,4.43801 -3.074525,8.38811 -6.8541017,11.30115 -4.2480168,3.27407 -10.08245536,5.23319 -16.4785581,5.07012 -6.3961022,-0.16308 -12.1433202,-2.41642 -16.2577652,-5.93964 -4.114445,-3.52322 -6.601707,-8.30654 -6.433565,-13.60895 0.121108,-3.81919 1.608473,-7.39602 4.101619,-10.46811 m -6.514563,9.91216 c -0.738679,-1.79606 -1.111679,-3.73675 -1.044778,-5.7664 0.162877,-4.9413 2.911401,-9.46647 7.270265,-12.80206 4.358865,-3.33559 10.32039,-5.48729 16.8870754,-5.70539 6.5666856,-0.21809 12.4997887,1.53964 16.8151269,4.53729 3.8921177,2.70366 6.4651637,6.42206 6.9961877,10.56026 M 7.3350369,323.63485 c 0.3134454,0.20758 0.6192207,0.423 0.916903,0.64589 4.0714571,3.0486 6.6233331,7.48858 6.6016401,12.48262 -0.02169,4.99405 -2.612655,9.59808 -6.756618,13.05299 -4.1439627,3.4549 -9.8358248,5.76722 -16.0482343,6.1923 -6.2124097,0.42509 -11.7709977,-1.11954 -15.7108637,-3.91751 -3.939865,-2.79797 -6.270383,-6.86442 -5.940298,-11.35154 0.228262,-3.10294 1.707834,-5.98689 4.130294,-8.35458 m 40.609493,21.99981 c -1.250448,2.92285 -3.441727,5.51343 -6.2869502,7.54064 -4.3408047,3.0928 -10.1992316,4.87657 -16.5213335,4.52342 -6.3221023,-0.35315 -11.9143243,-2.78135 -15.8474613,-6.4851 -3.933136,-3.70375 -6.22042,-8.66391 -5.813122,-14.18747 0.407298,-5.52356 3.461799,-10.59877 8.236802,-14.58746 4.176289,-3.48856 9.662538,-6.13793 15.7857949,-7.48415 m -22.0614949,13.3153 c 1.236575,-2.93044 3.320662,-5.54013 6.00983,-7.64205 4.328731,-3.38343 10.22269,-5.44783 16.6516689,-5.38949 6.4289788,0.0583 12.1783741,2.22488 16.2857181,5.66708 4.107343,3.4422 6.578512,8.15341 6.390638,13.37235 -0.187874,5.21894 -3.013362,9.97381 -7.502393,13.52412 -1.8859003,1.49153 -4.0646103,2.76954 -6.4611516,3.77586"
           sodipodi:ry="18.121033"
           sodipodi:rx="23.490227"
           sodipodi:cy="340.27274"
           sodipodi:cx="-3.3557467"
           id="path3849"
           style="fill:none;stroke:#ffffff;stroke-width:2;stroke-linecap:butt;stroke-linejoin:miter;stroke-miterlimit:4;stroke-opacity:1;stroke-dasharray:none"
           sodipodi:type="arc" />
        <g
           id="g3863"
           transform="matrix(1.0599748,0,0,1.0599748,-213.2444,-29.152079)">
          <path
             inkscape:original-d="m 416.1126,536.91948 c 0,0 -5.36919,37.58437 6.71149,55.03425 12.08069,17.44988 10.73839,20.13448 10.73839,20.13448 l 91.27632,0 c 0,0 -10.73839,-8.05379 -17.44989,-33.55747 -6.71149,-25.50367 -5.36919,-41.61126 -5.36919,-41.61126 l -85.90712,0 z"
             inkscape:path-effect="#path-effect3853"
             id="path3851"
             d="m 418.48176,551.29719 c -0.13716,3.64248 -0.23668,8.61366 -0.058,14.14537 0.18389,5.69346 0.66312,11.9799 1.80509,17.95156 1.14197,5.97167 2.95415,11.62396 5.83852,16.02768 5.73937,8.7626 8.20706,13.86299 9.28442,16.75632 1.07736,2.89334 0.73629,3.59424 0.72855,3.60936 -8e-5,1.6e-4 -1.3e-4,2.5e-4 -1.4e-4,2.5e-4 2.4023,0.0253 4.80338,0.0491 7.20507,0.0702 M 429.9748,598.82569 c 1.90869,3.2437 3.04557,5.54834 3.70443,7.16011 1.15683,2.82995 0.84119,3.52454 0.83396,3.53937 -8e-5,1.7e-4 -1.2e-4,2.5e-4 -1.2e-4,2.5e-4 19.85411,-0.1402 40.44258,0.17197 61.32751,0.58355 m -21.9277,5.72907 c 14.95644,-0.26874 30.61314,-0.59665 46.52874,-1.15444 0,0 -10e-6,-10e-6 -5e-5,-4e-5 -0.0111,-0.009 -1.92617,-1.55972 -4.58193,-5.40164 -2.65575,-3.84192 -6.04214,-9.96796 -9.00939,-19.25437 m 12.86523,17.74735 c -3.08403,-5.04943 -6.74167,-12.8832 -9.65434,-24.52291 -3.14075,-12.55116 -4.45405,-22.87734 -4.90441,-30.01577 -0.22517,-3.56922 -0.24314,-6.3476 -0.20401,-8.23548 0.0196,-0.94395 0.0533,-1.66535 0.0821,-2.15186 0.0144,-0.24326 0.0276,-0.42778 0.0373,-0.55202 0.005,-0.0621 0.009,-0.10915 0.0115,-0.14092 0.003,-0.0318 0.004,-0.0483 0.004,-0.0493 1e-5,-3e-5 1e-5,-5e-5 1e-5,-5e-5 -8.45169,0.11823 -16.85275,0.28179 -25.12536,0.54717 m 17.41221,-7.41661 c 7.8e-4,-0.28984 0.004,-0.53921 0.008,-0.74723 0.005,-0.25258 0.0109,-0.44417 0.0158,-0.57317 0.002,-0.0645 0.005,-0.11334 0.006,-0.14633 0.002,-0.033 0.002,-0.0501 0.003,-0.0512 10e-6,-4e-5 10e-6,-5e-5 10e-6,-5e-5 -28.49126,-0.66284 -54.09029,-0.77195 -78.50389,-1.77571 m 21.03834,6.46064 c -8.31203,0.22648 -16.39446,0.19283 -24.29125,-0.0608 6.7e-4,-0.001 0.001,-0.002 0.002,-0.003 0,0 -1e-5,1e-5 -1e-5,2e-5 -10e-4,0.008 -0.29597,2.29572 -0.48875,5.92125 -0.19277,3.62553 -0.27331,8.57707 0.13758,13.92788 0.41089,5.35082 1.3121,11.10158 2.99998,16.4236 1.25481,3.95651 2.94075,7.68063 5.17552,10.83811 m -12.70189,-38.1062 c -0.30518,3.32881 -0.52818,7.32045 -0.48684,11.60221 0.0557,5.76911 0.59508,12.0642 1.96276,17.98667 1.36768,5.92247 3.55448,11.4738 6.86102,15.76204 3.2897,4.26639 5.73448,7.62541 7.52339,10.27007 1.7889,2.64467 2.92444,4.57465 3.63624,5.97507 1.42361,2.80086 1.15806,3.48244 1.15224,3.49705 -7e-5,1.6e-4 -9e-5,2.4e-4 -8e-5,2.3e-4 1.66419,-0.0314 3.33175,-0.0639 5.0024,-0.0973 m -4.55115,-14.95791 c 2.12231,3.35158 3.33025,5.73391 4.02699,7.3926 1.20475,2.86807 0.879,3.57441 0.87186,3.58949 -8e-5,1.7e-4 -1.2e-4,2.5e-4 -1.2e-4,2.5e-4 19.38536,0.14813 37.89806,1.08528 55.92879,2.62586 m -15.81935,1.1754 c 16.41595,0.29948 32.30446,0.006 47.96777,-0.67724 0,0 -2e-5,-2e-5 -5e-5,-4e-5 -0.0136,-0.0107 -2.76016,-2.159 -6.43854,-7.68863 -3.67839,-5.52964 -8.30605,-14.44556 -12.0604,-28.15264 -0.57662,-2.10522 -1.10358,-4.15399 -1.58463,-6.14218 m 11.29401,22.92967 c -2.42917,-4.50532 -4.85346,-10.30378 -6.79304,-17.65806 -3.25179,-12.3298 -4.20863,-22.48452 -4.41355,-29.48784 -0.10246,-3.50165 -0.012,-6.22387 0.10146,-8.0726 0.0567,-0.92437 0.11941,-1.63047 0.16786,-2.10659 0.0242,-0.23806 0.0449,-0.41862 0.0596,-0.54018 0.007,-0.0608 0.0132,-0.10681 0.0172,-0.13789 0.004,-0.0311 0.006,-0.0472 0.006,-0.0482 10e-6,-4e-5 10e-6,-5e-5 10e-6,-5e-5 -9.25898,0.34215 -18.40799,0.78205 -27.49811,1.43656 m 19.95292,1.02091 c -25.82083,0.39231 -53.7899,-0.0172 -81.27519,-0.4726 -4e-4,-5.5e-4 -8e-4,-0.001 -0.001,-0.002 0,0 0,0 0,2e-5 -3.8e-4,0.002 -0.0332,0.21059 -0.0885,0.60091 m 14.67612,-5.63436 c -6.2055,0.17043 -12.53682,0.23664 -18.95867,0.21802 4.8e-4,-9e-5 9.6e-4,-1.9e-4 0.001,-2.9e-4 0,0 0,1e-5 -10e-6,2e-5 -0.001,0.008 -0.29761,2.36011 -0.58898,6.11677 -0.29137,3.75667 -0.58543,8.91101 -0.55466,14.53876 0.0308,5.62775 0.38893,11.72993 1.46532,17.44124 1.0764,5.71132 2.8762,11.03817 5.78553,15.11628 3.37767,4.73458 5.67295,8.29399 7.22816,10.97504 m -16.15528,-50.58023 c -0.10605,3.53496 -0.13827,7.95237 0.0722,12.79676 0.25891,5.95775 0.88534,12.56483 2.23501,18.90638 1.34968,6.34155 3.42404,12.40912 6.58959,17.25286 3.14943,4.81907 5.4501,8.68583 7.12601,11.7421 1.67591,3.05628 2.72614,5.30378 3.3779,6.93196 1.3035,3.25635 1.01328,4.04199 1.00681,4.05918 -7e-5,1.9e-4 -1.1e-4,3e-4 -10e-5,3.2e-4 4.36978,0.56692 8.76227,1.18607 13.18506,1.8594 m -11.66446,-15.03802 c 0.87862,1.84446 1.47565,3.28542 1.87686,4.40774 1.07536,3.00815 0.73905,3.73104 0.73134,3.74677 -9e-5,1.8e-4 -1.3e-4,2.7e-4 -1.4e-4,2.8e-4 20.99034,1.02377 42.33349,1.99232 62.9784,4.24721 m -13.8703,-6.09379 c 14.19927,-0.38585 28.09395,-0.4543 41.73279,-0.40987 0,0 -2e-5,-10e-6 -5e-5,-4e-5 -0.0136,-0.01 -2.68371,-1.93984 -6.34537,-6.86595 -3.66165,-4.9261 -8.31169,-12.83165 -12.4596,-24.86354 m 7.27987,20.25522 c -2.52599,-4.69731 -5.06989,-10.80274 -7.07669,-18.60238 -3.20527,-12.4576 -4.12589,-22.6462 -4.30092,-29.68443 -0.0875,-3.51912 0.0156,-6.25552 0.13804,-8.11447 0.0612,-0.92948 0.12738,-1.63964 0.17822,-2.11853 0.0254,-0.23944 0.047,-0.42107 0.0623,-0.54334 0.008,-0.0611 0.0137,-0.10744 0.0179,-0.1387 0.004,-0.0313 0.007,-0.0475 0.007,-0.0485 10e-6,-3e-5 10e-6,-5e-5 10e-6,-4e-5 -9.18731,0.28569 -18.25387,0.64852 -27.24095,1.1579 m 24.69682,-1.48062 c -26.77753,0.56484 -54.39872,-1.24806 -81.77784,-4.32054 -9e-5,-0.004 -1.7e-4,-0.007 -2.5e-4,-0.0113 0,0 0,1e-5 -1e-5,2e-5 -0.002,0.0121 -0.94502,5.73077 -1.14691,13.37917 m -0.65734,-12.45856 c -0.35911,3.2514 -1.05979,10.90312 -0.86229,19.86508 0.13124,5.9553 0.65934,12.49246 1.93679,18.70392 1.27745,6.21147 3.3027,12.09452 6.42308,16.73387 6.20896,9.23144 9.05131,14.68071 10.31742,17.76733 1.2661,3.08663 0.96579,3.83412 0.95909,3.85035 -7e-5,1.8e-4 -1.1e-4,2.8e-4 -1e-4,2.9e-4 6.90866,0.52113 13.84434,1.12693 20.8099,1.83704 M 430.01585,599.2885 c 1.039,1.88201 1.74455,3.33614 2.21898,4.45757 1.2163,2.875 0.91026,3.56712 0.90333,3.5821 -7e-5,1.6e-4 -1.1e-4,2.5e-4 -1.1e-4,2.5e-4 24.85141,0.0356 50.58728,-0.69136 77.44662,-1.81788 m -32.10854,9.19463 c 13.09836,-0.28199 26.15834,-0.44902 39.3674,-0.62361 0,0 -10e-6,-10e-6 -5e-5,-4e-5 -0.0126,-0.0102 -2.57122,-2.07434 -5.78092,-7.36953 -1.60485,-2.6476 -3.37028,-6.10328 -5.02991,-10.52504 -1.65964,-4.42175 -3.21575,-9.8083 -4.35485,-16.33976 -0.86818,-4.97805 -1.42384,-9.62684 -1.75076,-13.89462 m 6.87363,24.09319 c -1.06125,-3.04274 -2.08924,-6.43397 -3.04304,-10.20724 -3.26818,-12.92909 -4.6872,-23.55973 -5.25445,-30.96921 -0.28362,-3.70475 -0.3573,-6.60255 -0.35861,-8.57519 -6.5e-4,-0.98632 0.0167,-1.74137 0.0343,-2.2508 0.009,-0.25472 0.0177,-0.44803 0.0245,-0.57819 0.003,-0.0651 0.006,-0.11438 0.008,-0.14767 0.002,-0.0333 0.003,-0.0506 0.003,-0.0516 0,-3e-5 0,-5e-5 0,-5e-5 -14.1152,-0.46493 -28.31086,-1.10489 -42.48994,-2.00774 m 30.21002,1.11409 c -24.30293,-1.162 -47.19454,-0.29059 -69.68778,0.84846 0.002,0.002 0.003,0.003 0.005,0.005 0,0 0,1e-5 0,2e-5 -0.002,0.0173 -0.88453,9.89416 -0.0908,22.02776 0.13377,2.04486 0.31447,4.15277 0.55345,6.28634 m -2.66499,-20.44786 c -0.33655,3.78262 -0.6882,9.37035 -0.58455,15.51274 0.0941,5.57547 0.56346,11.60592 1.76435,17.20606 1.20088,5.60014 3.13349,10.77699 6.15532,14.67006 3.00644,3.87324 5.18242,6.8773 6.75533,9.23438 1.57291,2.35707 2.54266,4.06594 3.13613,5.3077 1.18694,2.48353 0.86871,3.09267 0.86156,3.10548 -8e-5,1.4e-4 -1.2e-4,2e-4 -1.2e-4,1.8e-4 6.77971,-0.87196 13.56134,-1.87346 20.34691,-3.01908 m -28.44314,1.41443 c 0.50038,1.01268 0.88121,1.86556 1.16928,2.58172 1.13878,2.83113 0.81916,3.52288 0.81183,3.53769 -8e-5,1.6e-4 -1.3e-4,2.5e-4 -1.3e-4,2.4e-4 30.10841,-0.25285 61.83431,-0.0648 93.76602,-0.23773 0,0 -10e-6,-10e-6 -4e-5,-3e-5 -0.005,-0.004 -0.40032,-0.32388 -1.07471,-1.03195 m -25.75668,-8.23803 c 9.64393,0.40258 19.10497,0.77313 28.44714,1.2081 0,0 -2e-5,-10e-6 -5e-5,-3e-5 -0.0134,-0.009 -2.69912,-1.88934 -6.28804,-6.76363 -1.79446,-2.43715 -3.81683,-5.62088 -5.85178,-9.6605 -2.03495,-4.03962 -4.08349,-8.93783 -5.92269,-14.75074 -2.54689,-8.04962 -4.12097,-14.89463 -5.06736,-20.39001 m 8.53543,25.96429 c -0.0812,-0.27999 -0.16196,-0.56206 -0.24221,-0.84623 -3.60147,-12.75291 -5.09553,-23.02275 -5.72033,-30.12694 -0.3124,-3.5521 -0.40399,-6.31175 -0.41755,-8.18685 -0.007,-0.93755 0.006,-1.65389 0.0206,-2.13697 0.007,-0.24154 0.015,-0.42475 0.021,-0.5481 0.003,-0.0617 0.005,-0.10838 0.007,-0.13992 0.002,-0.0315 0.003,-0.0479 0.003,-0.0489 0,-3e-5 0,-5e-5 0,-5e-5 -9.61007,0.19679 -19.2503,0.45991 -28.9632,0.78501 m 18.35443,2.77674 c -23.93104,-0.7301 -48.13009,-0.53745 -72.02637,-0.56315 5.3e-4,-4e-5 0.001,-7e-5 0.002,-1.1e-4 0,0 0,10e-6 -1e-5,2e-5 -0.002,0.0132 -0.77902,6.08429 -0.84874,14.41504"
             style="fill:none;stroke:#ffffff;stroke-width:1px;stroke-linecap:butt;stroke-linejoin:miter;stroke-opacity:1" />
          <path
             inkscape:original-d="m 437.58938,567.79235 17.44988,20.13448 30.87287,-28.18827"
             inkscape:path-effect="#path-effect3861"
             id="path3859"
             d="m 439.91626,576.26097 c 4.21177,4.9315 8.49125,9.87461 12.81664,14.81316 7.86557,-7.48899 15.85015,-14.9898 23.86286,-22.56995 m -33.45482,-0.0486 c 3.92923,4.40889 7.89475,8.92137 11.89309,13.5209 9.95838,-8.97587 20.07716,-17.5263 30.3187,-25.83019 m -39.79676,17.26469 c 4.76694,5.32279 9.50203,10.64306 14.21367,15.94598 8.37352,-7.84411 16.68875,-15.73133 24.9785,-23.71972 m -37.88255,10.94561 c 4.07837,4.74815 8.08788,9.40757 12.03884,13.99463 7.80713,-7.16437 15.43471,-14.55066 22.93814,-22.07105 m -46.24214,1.33397 c 5.26969,5.98466 10.59153,11.99657 15.96987,18.02421 9.76545,-8.7597 19.67821,-17.47839 29.75659,-26.20456"
             style="fill:none;stroke:#ffffff;stroke-width:1px;stroke-linecap:butt;stroke-linejoin:miter;stroke-opacity:1" />
        </g>
        <g
           id="g5260"
           inkscape:export-xdpi="165.44003"
           inkscape:export-ydpi="165.44003">
          <path
             inkscape:original-d="m 416.42668,568.1828 c 3.42381,-27.21473 33.32832,-43.01478 59.98283,-36.54168 26.65451,6.4731 43.01477,33.32832 36.54167,59.98283 -6.47309,26.65451 -33.32832,43.01478 -59.98283,36.54168 -22.48477,-5.46047 -38.2199,-25.72454 -37.94086,-48.86118"
             inkscape:path-effect="#path-effect5254"
             sodipodi:nodetypes="csssc"
             id="path3867"
             d="m 419.89579,567.23439 c 1.42808,-4.3965 3.49166,-8.40649 6.06236,-11.98898 3.80135,-5.29751 8.71049,-9.65946 14.28474,-12.93441 11.14851,-6.5499 24.95015,-8.7459 37.89057,-5.39725 2.55316,0.66069 5.00632,1.5181 7.34879,2.55136 m -20.2021,-10.52866 c 3.71873,0.0119 7.4786,0.44549 11.19643,1.32927 13.27272,3.15514 24.23664,11.57266 31.19479,22.57829 3.86737,6.11699 6.50034,13.03567 7.62095,20.30455 m -8.66918,-11.46188 c 4.11068,9.64081 5.34252,20.78475 2.65878,31.79988 -3.17225,13.02018 -11.22521,23.38627 -21.79871,29.4431 -0.67108,0.38441 -1.35227,0.75146 -2.04296,1.10071 m 16.86171,-8.46368 c -3.03895,3.66648 -6.60381,6.81023 -10.5483,9.3591 -10.57365,6.83252 -23.87764,9.38749 -37.12703,6.25815 -11.17671,-2.63979 -20.66539,-8.97049 -27.17344,-17.40156 -1.66644,-2.15883 -3.13749,-4.4554 -4.39123,-6.8628 m 13.1705,13.60873 c -5.57628,-3.33113 -10.3275,-7.61913 -14.0634,-12.60785 -4.77188,-6.37212 -7.88807,-13.88663 -8.92089,-22.00767 m 4.64804,-24.44179 c 1.15958,-3.4761 2.84678,-6.73752 4.96506,-9.74463 3.67031,-5.21035 8.63518,-9.65767 14.41868,-13.1643 11.56698,-7.01326 26.41303,-10.26752 40.71135,-8.32275 2.13679,0.29063 4.21929,0.69041 6.24188,1.19106 m -22.88174,-1.1515 c 3.7203,0.0576 7.49707,0.5235 11.24461,1.42799 13.27025,3.20285 24.39025,11.44046 31.60169,22.1461 4.53304,6.72946 7.52723,14.4337 8.57942,22.46888 m -0.22537,-18.17718 c 4.14696,9.37492 5.2044,20.23896 2.3565,31.27233 -3.50195,13.56736 -12.2502,24.84812 -23.65041,32.27683 m 11.65241,-8.16799 c -3.24082,3.90269 -7.0821,7.20366 -11.35408,9.81182 -10.77379,6.57771 -24.28182,8.76073 -37.86669,4.98777 -11.45971,-3.18273 -21.29233,-10.18475 -28.26888,-19.4774 -0.97325,-1.29635 -1.89094,-2.63732 -2.74976,-4.01882 m 20.05387,15.65331 c -6.34148,-3.05992 -11.74492,-7.44867 -15.93767,-12.74717 -6.31323,-7.97818 -9.88395,-18.02411 -9.72918,-28.71352 m 1.01435,-15.01935 c 1.43736,-4.7624 3.67439,-9.12377 6.5389,-13.00577 3.82431,-5.18273 8.76535,-9.51163 14.38445,-12.81041 11.23819,-6.59757 25.18035,-9.07687 38.34779,-6.01821 2.70122,0.62746 5.29685,1.46909 7.77508,2.50313 m -23.66405,-7.98283 c 4.10951,0.10751 8.20686,0.63041 12.2033,1.60536 13.61275,3.32087 24.28647,11.4256 30.73393,21.9039 6.44747,10.4783 8.64737,23.32398 5.24187,36.01473 -0.004,0.0142 -0.008,0.0284 -0.0114,0.0426 m -1.37026,-19.73319 c 2.19809,7.69062 2.54997,16.07234 0.73713,24.59395 -2.94968,13.86551 -11.05818,25.47589 -21.5524,33.30901 -5.5582,4.14876 -11.7878,7.23907 -18.27393,9.06442 m 22.46308,-12.71992 c -0.19233,0.12502 -0.38539,0.24879 -0.57916,0.37132 -11.23938,7.10712 -24.86584,10.00117 -38.50968,7.41157 -11.50945,-2.18448 -21.35068,-7.97162 -28.4869,-15.71062 -0.0987,-0.10703 -0.19687,-0.21444 -0.29453,-0.32221 m 13.38429,7.82471 c -4.362,-3.07511 -8.23393,-6.78315 -11.48576,-10.97097 -5.2454,-6.7552 -8.8761,-14.75876 -10.36271,-23.35676 m 1.77181,-25.79747 c 1.20398,-3.48981 2.9236,-6.72678 5.06452,-9.67277 3.69678,-5.0869 8.64997,-9.30629 14.38993,-12.47074 11.47991,-6.3289 26.10916,-8.44362 40.12,-4.83104 7.47388,1.92707 14.24583,5.33746 20.07212,9.86097 m -22.66242,-10.38138 c 1.35584,0.23518 2.70572,0.51928 4.04611,0.85363 13.50888,3.36971 24.28168,11.38597 30.87438,21.63516 6.59271,10.24919 8.99546,22.73249 5.73182,34.82343 -1.24211,4.60171 -3.21478,8.81107 -5.77211,12.54236 m 5.68606,-26.29164 c 0.12597,4.38627 -0.30488,8.86282 -1.34667,13.34455 -3.16628,13.62131 -11.37787,24.71535 -22.04716,31.83879 -10.6693,7.12344 -23.80171,10.25396 -36.76382,8.06542 -2.16477,-0.3655 -4.26152,-0.86929 -6.2811,-1.49909 m 25.33048,-2.44356 c -6.96956,1.51329 -14.30939,1.47746 -21.55544,-0.3799 -10.9899,-2.817 -20.14873,-9.44812 -26.30099,-18.36995 -4.96472,-7.19968 -7.97297,-15.89176 -8.37321,-25.29432 m -4.36597,-21.65097 c 1.28961,-3.10476 2.93652,-6.00044 4.88535,-8.66811 3.87221,-5.30048 8.93644,-9.70084 14.75186,-13.04524 11.63085,-6.68879 26.25927,-9.14929 40.37456,-6.14549 7.51532,1.59929 14.35998,4.62065 20.32442,8.65996 m -21.9722,-7.9461 c 1.08426,0.17792 2.16429,0.39031 3.23819,0.63782 13.4484,3.09959 24.17287,11.25279 30.69417,21.82787 6.52129,10.57508 8.83431,23.58367 5.4121,36.32411 -1.12589,4.19156 -2.80257,8.09093 -4.93691,11.63961 m 7.98999,-26.04021 c 0.0523,4.2581 -0.45333,8.66504 -1.57948,13.11622 -3.3193,13.11973 -11.42195,24.10711 -21.90872,31.10039 -10.48676,6.99328 -23.34998,10.01086 -36.08557,7.30584 -1.99968,-0.42473 -3.94138,-0.98037 -5.81791,-1.65792 m 25.66601,4.18985 c -7.09978,1.44396 -14.65624,1.27132 -22.19952,-0.84241 -11.2301,-3.14682 -20.78058,-10.17671 -27.48518,-19.65363 -6.19656,-8.75881 -9.96265,-19.59996 -10.37768,-31.47477"
             style="fill:none;stroke:#ffffff;stroke-width:2;stroke-linecap:butt;stroke-linejoin:miter;stroke-miterlimit:4;stroke-opacity:1;marker-start:none;marker-end:none" />
          <path
             inkscape:original-d="m 402.32875,537.16943 15.2966,27.12701 25.08467,-11.18637"
             inkscape:path-effect="#path-effect5258"
             sodipodi:nodetypes="ccc"
             id="path5256"
             d="m 403.04043,543.09438 c 3.736,7.46101 7.62333,14.83731 11.60756,22.18542 5.46143,-2.30414 10.97496,-4.62344 16.51912,-6.93561 m -20.93278,-14.21316 c 3.58586,6.43709 7.14303,12.87392 10.65136,19.28773 7.63113,-3.69667 15.19885,-7.42321 22.67332,-11.21329 m -40.87622,-9.89386 c 4.56607,7.56791 9.11372,15.19992 13.70442,22.89681 6.22688,-2.57085 12.47824,-5.10481 18.78041,-7.60154 m -30.13229,-8.8535 c 3.49291,6.54516 7.19757,13.09625 11.07838,19.64666 5.46722,-2.41427 11.03961,-4.82893 16.70074,-7.24704 m -31.00461,-23.08619 c 4.8813,8.64179 9.73767,17.07544 14.62019,25.3877 7.62778,-3.29484 15.27478,-6.67891 22.97321,-10.09754"
             style="fill:none;stroke:#ffffff;stroke-width:1px;stroke-linecap:butt;stroke-linejoin:miter;stroke-opacity:1" />
        </g>
      </g>
    </g>
  </g>
</svg>
